#N canvas 897 287 725 374 10;
#X obj 382 37 r THRESHOLD;
#X obj 367 81 - 0;
#X obj 262 81 select 0;
#X obj 367 163 /;
#X obj 409 127 - 0;
#X msg 409 103 255;
#X obj 409 81 t b f;
#X obj 382 59 t f f;
#X msg 262 130 0;
#X obj 11 211 timeroll;
#X msg 289 174 reset 0;
#X obj 367 254 line;
#X obj 367 278 s \$1-depth;
#X obj 262 103 t b b;
#X obj 367 212 iir 3;
#X obj 12 32 route \$1;
#X obj 12 55 unpack f f f f f f;
#X obj 117 78 s \$1-raw_depth;
#X obj 12 178 s \$1-raw_alive;
#X obj 33 158 s \$1-raw_posX;
#X obj 54 138 s \$1-raw_posY;
#X obj 75 118 s \$1-raw_width;
#X obj 96 98 s \$1-raw_height;
#X obj 367 16 r \$1-raw_depth;
#X obj 367 233 pack f 50;
#X obj 585 136 r \$1-raw_height;
#X obj 493 136 r \$1-raw_width;
#X obj 579 16 r \$1-raw_posY;
#X obj 493 16 r \$1-raw_posX;
#X obj 493 224 r \$1-raw_alive;
#X obj 493 269 s \$1-alive;
#X obj 618 79 s \$1-posY;
#X obj 532 79 s \$1-posX;
#X obj 493 166 s \$1-width;
#X obj 585 166 s \$1-height;
#X obj 12 9 r raw_blobs;
#X obj 493 37 moses 0;
#X obj 579 37 moses 0;
#X obj 532 58 / 64;
#X obj 618 58 / 64;
#X obj 493 246 change;
#X obj 262 16 r \$1-raw_alive;
#X connect 0 0 7 0;
#X connect 1 0 3 0;
#X connect 2 0 13 0;
#X connect 3 0 14 0;
#X connect 4 0 3 1;
#X connect 5 0 4 0;
#X connect 6 0 5 0;
#X connect 6 1 4 1;
#X connect 7 0 1 1;
#X connect 7 1 6 0;
#X connect 8 0 3 0;
#X connect 10 0 14 0;
#X connect 11 0 12 0;
#X connect 13 0 8 0;
#X connect 13 1 10 0;
#X connect 14 0 24 0;
#X connect 15 0 16 0;
#X connect 16 0 18 0;
#X connect 16 1 19 0;
#X connect 16 2 20 0;
#X connect 16 3 21 0;
#X connect 16 4 22 0;
#X connect 16 5 17 0;
#X connect 23 0 1 0;
#X connect 24 0 11 0;
#X connect 25 0 34 0;
#X connect 26 0 33 0;
#X connect 27 0 37 0;
#X connect 28 0 36 0;
#X connect 29 0 40 0;
#X connect 35 0 15 0;
#X connect 36 1 38 0;
#X connect 37 1 39 0;
#X connect 38 0 32 0;
#X connect 39 0 31 0;
#X connect 40 0 30 0;
#X connect 41 0 2 0;
