#N canvas 451 68 717 391 10;
#X obj 339 85 o.io.slipserial;
#X obj 339 106 mrpeach/unpackOSC;
#X text 70 2 Oscuino Serial Adrian Freed 2013;
#X text 70 112 - comport;
#X text 70 91 - cyclone;
#X obj 426 8 import mrpeach;
#X text 70 70 - mrpeach osc slipenc and slipdec;
#X text 70 23 This patch depends on several third party externals available
in PD-extended (deprecated?) \, Purr \, or through deken plugin (Help
-> Find externals):;
#X obj 339 152 print;
#X msg 426 36 devicename /dev/ttyACM0 \, baud 230400 \, pollintervall
4 \, verbose 1;
#X obj 339 127 mrpeach/routeOSC /sensors;
#X msg 585 152 devices;
#X msg 579 106 close;
#X obj 195 152 vsl 15 128 0 64 0 0 empty empty empty 0 -9 0 10 -262144
-1 -1 0 1;
#X obj 323 216 unpack f f f f f;
#X obj 211 285 hsl 128 15 0 64 0 0 empty empty empty -2 -8 0 10 -262144
-1 -1 0 1;
#X connect 0 0 1 0;
#X connect 1 0 10 0;
#X connect 9 0 0 1;
#X connect 10 0 8 0;
#X connect 10 0 14 0;
#X connect 11 0 0 1;
#X connect 12 0 0 1;
#X connect 14 1 13 0;
#X connect 14 2 15 0;
