#N canvas 627 179 725 637 10;
#X text 18 95 - comport;
#X text 18 74 - cyclone;
#X msg 267 135 devices;
#X msg 285 179 close;
#X obj 46 466 vsl 15 128 0 64 0 0 empty 0-posY empty 0 -9 0 10 -262144
-1 -1 9128 1;
#X obj 62 599 hsl 128 15 0 64 0 0 empty 0-posX empty -2 -8 0 10 -262144
-1 -1 5556 1;
#X obj 25 466 vsl 15 128 0 255 0 0 empty 0-Depth empty 0 -9 0 10 -258113
-1 -1 2540 1;
#X msg 276 157 open 0;
#X obj 531 5 key;
#X obj 531 28 sel 99;
#X obj 485 44 bng 40 250 50 0 empty empty empty 17 7 0 10 -260097 -1
-1;
#X text 18 16 This patch depends on several third party externals available
through deken plugin (Help -> Find externals):;
#X text 18 53 - mrpeach (osc slipenc and slipdec);
#X obj 485 170 packOSC;
#X obj 485 193 slipenc;
#X obj 277 234 slipdec;
#X obj 323 256 select 1;
#X obj 559 289 spigot;
#X msg 485 93 send /calibrate 10;
#X msg 559 313 /blobs;
#X msg 515 141 send /threshold 30;
#X obj 531 51 print CALIBRATION_REQUEST;
#X obj 565 220 tgl 35 0 empty empty START 3 7 0 10 -4034 -1 -1 1 1
;
#X obj 565 260 t b f;
#N canvas 293 272 450 300 fps 0;
#X obj 155 43 inlet;
#X obj 182 247 outlet;
#X obj 225 158 + 1;
#X obj 212 74 metro 1000;
#X obj 197 158 f;
#X msg 212 127 0;
#X obj 155 74 bang;
#X obj 182 211 f;
#X obj 212 43 inlet;
#X obj 212 101 trigger bang bang;
#X connect 0 0 6 0;
#X connect 2 0 4 1;
#X connect 3 0 9 0;
#X connect 4 0 2 0;
#X connect 4 0 7 1;
#X connect 5 0 4 1;
#X connect 6 0 4 0;
#X connect 7 0 1 0;
#X connect 8 0 3 0;
#X connect 9 0 5 0;
#X connect 9 1 7 0;
#X restore 458 298 pd fps;
#X floatatom 458 320 5 0 0 0 - - -, f 5;
#X obj 508 298 tgl 17 0 empty empty empty 17 7 0 10 -162280 -1 -1 1
1;
#X obj 559 347 print FRAME_REQUEST;
#X obj 458 272 t b b;
#X msg 505 117 send /rowData;
#X obj 66 576 s 0-posX;
#X obj 89 556 s 0-posY;
#X obj 112 536 s 0-Width;
#X obj 135 516 s 0-Height;
#X obj 66 475 unpack f f f f f;
#X obj 257 466 vsl 15 128 0 64 0 0 empty 1-posY empty 0 -9 0 10 -262144
-1 -1 10517 1;
#X obj 273 599 hsl 128 15 0 64 0 0 empty 1-posX empty -2 -8 0 10 -262144
-1 -1 2778 1;
#X obj 236 466 vsl 15 128 0 255 0 0 empty 1-Depth empty 0 -9 0 10 -258113
-1 -1 3735 1;
#X obj 277 475 unpack f f f f f;
#X obj 346 516 s 1-Height;
#X obj 323 536 s 1-Width;
#X obj 300 556 s 1-posY;
#X obj 277 576 s 1-posX;
#X obj 467 466 vsl 15 128 0 64 0 0 empty 2-posY empty 0 -9 0 10 -262144
-1 -1 9922 1;
#X obj 483 599 hsl 128 15 0 64 0 0 empty 2-posX empty -2 -8 0 10 -262144
-1 -1 7937 1;
#X obj 446 466 vsl 15 128 0 255 0 0 empty 2-Depth empty 0 -9 0 10 -258113
-1 -1 5578 1;
#X obj 487 475 unpack f f f f f;
#X obj 556 516 s 2-Height;
#X obj 533 536 s 2-Width;
#X obj 510 556 s 2-posY;
#X obj 487 576 s 2-posX;
#X obj 370 496 s 1-Depth;
#X obj 159 496 s 0-Depth;
#X obj 580 496 s 2-Depth;
#X obj 277 209 comport 0 230400;
#X obj 277 280 unpackOSC;
#X obj 277 304 routeOSC /b;
#X obj 277 328 route 0 1 2;
#X connect 2 0 54 0;
#X connect 3 0 54 0;
#X connect 7 0 54 0;
#X connect 8 0 9 0;
#X connect 9 0 10 0;
#X connect 9 0 21 0;
#X connect 10 0 18 0;
#X connect 13 0 14 0;
#X connect 14 0 54 0;
#X connect 15 0 55 0;
#X connect 15 1 16 0;
#X connect 16 0 28 0;
#X connect 17 0 19 0;
#X connect 18 0 13 0;
#X connect 19 0 13 0;
#X connect 20 0 13 0;
#X connect 22 0 23 0;
#X connect 23 0 17 0;
#X connect 23 1 17 1;
#X connect 24 0 25 0;
#X connect 26 0 24 1;
#X connect 28 0 24 0;
#X connect 28 1 17 0;
#X connect 29 0 13 0;
#X connect 34 0 30 0;
#X connect 34 1 31 0;
#X connect 34 2 32 0;
#X connect 34 3 33 0;
#X connect 34 4 52 0;
#X connect 38 0 42 0;
#X connect 38 1 41 0;
#X connect 38 2 40 0;
#X connect 38 3 39 0;
#X connect 38 4 51 0;
#X connect 46 0 50 0;
#X connect 46 1 49 0;
#X connect 46 2 48 0;
#X connect 46 3 47 0;
#X connect 46 4 53 0;
#X connect 54 0 15 0;
#X connect 55 0 56 0;
#X connect 56 0 57 0;
#X connect 57 0 34 0;
#X connect 57 1 38 0;
#X connect 57 2 46 0;
