#N canvas 728 185 1087 823 12;
#X msg 32 191 devices;
#X msg 50 235 close;
#X obj 42 495 vsl 30 100 0 1 0 0 empty 0-posY empty 0 -9 0 10 -262144
-1 -1 9591 1;
#X obj 77 600 hsl 95 30 0 1 0 0 empty 0-posX empty -2 -8 0 10 -262144
-1 -1 3378 1;
#X obj 74 495 vsl 100 100 0 1 0 0 empty 0-depth empty 0 -9 0 10 -258113
-1 -1 373 1;
#X msg 41 213 open 0;
#X obj 250 20 key;
#X obj 250 43 sel 99;
#X obj 250 97 bng 40 250 50 0 empty empty empty 17 7 0 10 -260097 -1
-1;
#X obj 250 225 packOSC;
#X obj 250 248 slipenc;
#X obj 42 290 slipdec;
#X obj 88 312 select 1;
#X obj 362 346 spigot;
#X msg 250 146 send /calibrate 10;
#X msg 362 370 /blobs;
#X obj 260 70 print CALIBRATION_REQUEST;
#X obj 362 279 tgl 35 0 empty empty START 3 7 0 10 -4034 -1 -1 1 1
;
#X obj 362 319 t b f;
#N canvas 293 272 450 300 fps 0;
#X obj 155 43 inlet;
#X obj 182 247 outlet;
#X obj 225 158 + 1;
#X obj 212 74 metro 1000;
#X obj 197 158 f;
#X msg 212 127 0;
#X obj 155 74 bang;
#X obj 182 211 f;
#X obj 212 43 inlet;
#X obj 212 101 trigger bang bang;
#X connect 0 0 6 0;
#X connect 2 0 4 1;
#X connect 3 0 9 0;
#X connect 4 0 2 0;
#X connect 4 0 7 1;
#X connect 5 0 4 1;
#X connect 6 0 4 0;
#X connect 7 0 1 0;
#X connect 8 0 3 0;
#X connect 9 0 5 0;
#X connect 9 1 7 0;
#X restore 221 355 pd fps;
#X floatatom 221 377 5 0 0 0 - - -;
#X obj 272 356 tgl 17 0 empty empty empty 17 7 0 10 -162280 -1 -1 1
1;
#X obj 221 329 t b b;
#X msg 270 170 send /rowData;
#X obj 42 265 comport 0 230400;
#X obj 42 336 unpackOSC;
#X obj 42 362 routeOSC /b;
#X obj 466 85 key;
#X obj 466 108 sel 116;
#X obj 474 219 s THRESHOLD;
#X msg 466 244 send /threshold \$1;
#X obj 42 600 tgl 30 0 empty 0-alive empty 3 7 0 10 -260097 -1 -1 1
1;
#X msg 466 191 9;
#X obj 42 415 clone E256_calibrate 8;
#X obj 42 388 s raw_blobs;
#X obj 690 189 t b f;
#X obj 742 211 t b f;
#X obj 791 233 t b f;
#X obj 841 255 t b f;
#X obj 675 358 expr $f1 + $f2 + $f3 + $f4 + $f5 + $f6 + $f7 + $f8;
#X obj 890 277 t b f;
#X obj 940 299 t b f;
#X obj 990 321 t b f;
#X obj 675 94 r 0-alive;
#X obj 690 143 r 1-alive;
#X obj 742 165 r 2-alive;
#X obj 791 188 r 3-alive;
#X obj 841 210 r 4-alive;
#X obj 890 232 r 5-alive;
#X obj 940 253 r 6-alive;
#X obj 990 276 r 7-alive;
#X floatatom 684 385 5 0 0 0 - - -;
#X obj 690 165 change;
#X obj 742 187 change;
#X obj 791 210 change;
#X obj 841 232 change;
#X obj 890 254 change;
#X obj 940 276 change;
#X obj 990 298 change;
#X obj 675 121 change;
#X obj 675 409 s SUMM;
#X obj 137 380 print;
#X obj 192 495 vsl 30 100 0 1 0 0 empty 1-posY empty 0 -9 0 10 -262144
-1 -1 8198 1;
#X obj 227 600 hsl 95 30 0 1 0 0 empty 1-posX empty -2 -8 0 10 -262144
-1 -1 2056 1;
#X obj 224 495 vsl 100 100 0 1 0 0 empty 1-depth empty 0 -9 0 10 -258113
-1 -1 160 1;
#X obj 192 600 tgl 30 0 empty 1-alive empty 3 7 0 10 -260097 -1 -1
1 1;
#X obj 342 495 vsl 30 100 0 1 0 0 empty 2-posY empty 0 -9 0 10 -262144
-1 -1 6806 1;
#X obj 377 600 hsl 95 30 0 1 0 0 empty 2-posX empty -2 -8 0 10 -262144
-1 -1 3084 1;
#X obj 374 495 vsl 100 100 0 1 0 0 empty 2-depth empty 0 -9 0 10 -258113
-1 -1 528 1;
#X obj 342 600 tgl 30 0 empty 2-alive empty 3 7 0 10 -260097 -1 -1
0 1;
#X obj 492 495 vsl 30 100 0 1 0 0 empty 3-posY empty 0 -9 0 10 -262144
-1 -1 3403 1;
#X obj 527 600 hsl 95 30 0 1 0 0 empty 3-posX empty -2 -8 0 10 -262144
-1 -1 8225 1;
#X obj 524 495 vsl 100 100 0 1 0 0 empty 3-depth empty 0 -9 0 10 -258113
-1 -1 0 1;
#X obj 492 600 tgl 30 0 empty 3-alive empty 3 7 0 10 -260097 -1 -1
0 1;
#X obj 42 645 vsl 30 100 0 1 0 0 empty 4-posY empty 0 -9 0 10 -262144
-1 -1 4486 1;
#X obj 77 750 hsl 95 30 0 1 0 0 empty 4-posX empty -2 -8 0 10 -262144
-1 -1 8519 1;
#X obj 74 645 vsl 100 100 0 1 0 0 empty 4-depth empty 0 -9 0 10 -258113
-1 -1 0 1;
#X obj 42 750 tgl 30 0 empty 4-alive empty 3 7 0 10 -260097 -1 -1 0
1;
#X obj 192 645 vsl 30 100 0 1 0 0 empty 5-posY empty 0 -9 0 10 -262144
-1 -1 6806 1;
#X obj 227 750 hsl 95 30 0 1 0 0 empty 5-posX empty -2 -8 0 10 -262144
-1 -1 7197 1;
#X obj 224 645 vsl 100 100 0 1 0 0 empty 5-depth empty 0 -9 0 10 -258113
-1 -1 0 1;
#X obj 192 750 tgl 30 0 empty 5-alive empty 3 7 0 10 -260097 -1 -1
0 1;
#X obj 342 645 vsl 30 100 0 1 0 0 empty 6-posY empty 0 -9 0 10 -262144
-1 -1 3712 1;
#X obj 377 750 hsl 95 30 0 1 0 0 empty 6-posX empty -2 -8 0 10 -262144
-1 -1 7931 1;
#X obj 374 645 vsl 100 100 0 1 0 0 empty 6-depth empty 0 -9 0 10 -258113
-1 -1 0 1;
#X obj 342 750 tgl 30 0 empty 6-alive empty 3 7 0 10 -260097 -1 -1
0 1;
#X obj 492 645 vsl 30 100 0 1 0 0 empty 7-posY empty 0 -9 0 10 -262144
-1 -1 7116 1;
#X obj 527 750 hsl 95 30 0 1 0 0 empty 7-posX empty -2 -8 0 10 -262144
-1 -1 3084 1;
#X obj 524 645 vsl 100 100 0 1 0 0 empty 7-depth empty 0 -9 0 10 -258113
-1 -1 0 1;
#X obj 492 750 tgl 30 0 empty 7-alive empty 3 7 0 10 -260097 -1 -1
0 1;
#X obj 529 38 vsl 100 100 0 100 0 1 empty empty empty 0 -9 0 10 -262144
-1 -1 900 1;
#X msg 477 164 set \$1;
#X obj 477 139 i;
#X connect 0 0 24 0;
#X connect 1 0 24 0;
#X connect 5 0 24 0;
#X connect 6 0 7 0;
#X connect 7 0 8 0;
#X connect 7 0 16 0;
#X connect 8 0 14 0;
#X connect 9 0 10 0;
#X connect 10 0 24 0;
#X connect 11 0 25 0;
#X connect 11 1 12 0;
#X connect 12 0 22 0;
#X connect 13 0 15 0;
#X connect 14 0 9 0;
#X connect 15 0 9 0;
#X connect 17 0 18 0;
#X connect 18 0 13 0;
#X connect 18 1 13 1;
#X connect 19 0 20 0;
#X connect 21 0 19 1;
#X connect 22 0 19 0;
#X connect 22 1 13 0;
#X connect 23 0 9 0;
#X connect 24 0 11 0;
#X connect 25 0 26 0;
#X connect 26 0 34 0;
#X connect 27 0 28 0;
#X connect 28 0 32 0;
#X connect 30 0 9 0;
#X connect 32 0 30 0;
#X connect 32 0 29 0;
#X connect 35 0 39 0;
#X connect 35 1 39 1;
#X connect 36 0 39 0;
#X connect 36 1 39 2;
#X connect 37 0 39 0;
#X connect 37 1 39 3;
#X connect 38 0 39 0;
#X connect 38 1 39 4;
#X connect 39 0 51 0;
#X connect 39 0 60 0;
#X connect 40 0 39 0;
#X connect 40 1 39 5;
#X connect 41 0 39 0;
#X connect 41 1 39 6;
#X connect 42 0 39 0;
#X connect 42 1 39 7;
#X connect 43 0 59 0;
#X connect 44 0 52 0;
#X connect 45 0 53 0;
#X connect 46 0 54 0;
#X connect 47 0 55 0;
#X connect 48 0 56 0;
#X connect 49 0 57 0;
#X connect 50 0 58 0;
#X connect 52 0 35 0;
#X connect 53 0 36 0;
#X connect 54 0 37 0;
#X connect 55 0 38 0;
#X connect 56 0 40 0;
#X connect 57 0 41 0;
#X connect 58 0 42 0;
#X connect 59 0 39 0;
#X connect 90 0 92 0;
#X connect 91 0 32 0;
#X connect 92 0 91 0;
