#N canvas 334 348 305 215 10;
#X obj 71 126 mrpeach/slipdec 65536;
#X obj 71 153 outlet;
#X obj 71 41 inlet;
#X obj 152 94 print errors;
#X obj 71 72 comport 0 9600;
#X connect 0 0 1 0;
#X connect 2 0 4 0;
#X connect 4 0 0 0;
#X connect 4 1 3 0;
