#N canvas 409 422 562 229 10;
#X obj 95 179 mrpeach/slipdec 65536;
#X obj 95 47 mrpeach/slipenc 65536;
#X obj 359 20 loadbang;
#X obj 95 22 inlet;
#X obj 95 206 outlet;
#X msg 359 83 baud 115200;
#X obj 261 46 inlet;
#X obj 95 135 comport;
#X obj 134 157 print errors;
#X msg 318 46 devicename /dev/ttyACM0 \, pollintervall 1;
#X connect 0 0 4 0;
#X connect 1 0 7 0;
#X connect 2 0 9 0;
#X connect 2 0 5 0;
#X connect 3 0 1 0;
#X connect 5 0 7 0;
#X connect 6 0 7 0;
#X connect 7 0 0 0;
#X connect 7 1 8 0;
#X connect 9 0 7 0;
