#N canvas 618 237 450 300 10;
#X obj 182 205 print;
#X obj 164 167 OSCroute /sensors;
#X msg 203 22 close;
#X msg 265 84 devices;
#X msg 202 78 open 0;
#X obj 150 120 comport 0 230400;
#X connect 1 1 0 0;
#X connect 2 0 5 0;
#X connect 3 0 5 0;
#X connect 4 0 5 0;
#X connect 5 0 1 0;
