#N canvas 0 22 911 573 10;
#X obj 169 130 cnv 15 15 15 empty \$0-midi2-gui-r empty 20 12 0 14
-33289 -1 0;
#X floatatom 104 130 5 0 0 2 - - -, f 5;
#X obj 104 152 cnv 5 5 5 empty empty NOTE 0 0 0 8 -262144 -66577 0
;
#X obj 167 152 cnv 5 5 5 empty empty GATE 0 0 0 8 -262144 -66577 0
;
#X obj 746 103 env~;
#X obj 746 125 > 0;
#X obj 746 147 change;
#X floatatom 569 307 5 0 0 0 - - -, f 5;
#X obj 569 326 + 12;
#X msg 569 348 color \$1;
#X obj 677 50 inlet~ GATE;
#X obj 410 104 inlet~ PITCH;
#X obj 103 110 cnv 5 5 5 empty empty MIDI-OUT 0 0 0 12 -262144 -66577
0;
#X obj 410 198 snapshot~;
#X obj 410 220 * 127;
#X obj 409 263 clip 0 127;
#X floatatom 410 319 5 0 0 0 - - -, f 5;
#X obj 704 442 timer;
#X msg 704 381 bang;
#X obj 704 403 t b b;
#X floatatom 704 464 5 0 0 0 - - -, f 5;
#X obj 569 370 s \$0-midi2-gui-r;
#X obj 525 153 threshold~ 0.9 0 1 0;
#X obj 410 290 +;
#X obj 111 177 hsl 128 15 0 127 0 0 empty empty OFFSET -2 -8 0 10 -262144
-1 -1 10100 1;
#X obj 108 219 - 64;
#X floatatom 209 163 5 0 0 0 - - -, f 5;
#X obj 108 241 t f f;
#X obj 406 500 noteout;
#X obj 773 199 sel 0;
#X obj 746 169 t f f;
#X obj 120 198 hsl 128 15 0 127 0 0 empty empty LENGTH -2 -8 0 10 -262144
-1 -1 0 1;
#X obj 529 478 *;
#X obj 516 390 / 127;
#X obj 516 447 * 0.9;
#X obj 410 242 abs;
#X obj 406 466 makenote 100 \$1;
#X obj 516 412 + 0.05;
#X floatatom 787 108 5 0 0 0 - - -, f 5;
#X connect 4 0 5 0;
#X connect 4 0 38 0;
#X connect 5 0 6 0;
#X connect 6 0 30 0;
#X connect 7 0 8 0;
#X connect 8 0 9 0;
#X connect 9 0 21 0;
#X connect 10 0 4 0;
#X connect 10 0 22 0;
#X connect 11 0 13 0;
#X connect 13 0 14 0;
#X connect 14 0 35 0;
#X connect 15 0 23 0;
#X connect 16 0 1 0;
#X connect 16 0 36 0;
#X connect 17 0 20 0;
#X connect 18 0 19 0;
#X connect 19 0 17 0;
#X connect 19 1 17 1;
#X connect 20 0 32 0;
#X connect 22 0 18 0;
#X connect 22 0 13 0;
#X connect 23 0 16 0;
#X connect 24 0 25 0;
#X connect 25 0 27 0;
#X connect 27 0 26 0;
#X connect 27 1 23 1;
#X connect 30 0 7 0;
#X connect 30 1 29 0;
#X connect 31 0 33 0;
#X connect 32 0 36 2;
#X connect 33 0 37 0;
#X connect 34 0 32 1;
#X connect 35 0 15 0;
#X connect 36 0 28 0;
#X connect 36 1 28 1;
#X connect 37 0 34 0;
#X coords 0 -1 1 1 175 150 2 100 100;
