#N canvas 644 133 1036 529 10;
#X obj 438 37 r THRESHOLD;
#X obj 423 81 - 0;
#X obj 327 58 select 0;
#X obj 423 163 /;
#X obj 465 127 - 0;
#X msg 465 103 255;
#X obj 465 81 t b f;
#X obj 438 59 t f f;
#X msg 327 106 0;
#X obj 423 274 line;
#X obj 327 79 t b b;
#X obj 423 253 pack f 50;
#X obj 543 39 change;
#X obj 48 35 route \$1;
#X obj 75 87 unpack 0 0 0 0 0 0;
#X obj 7 13 inlet;
#X msg 354 163 reset 0;
#X obj 748 62 s height-\$1;
#X obj 647 62 s width-\$1;
#X obj 543 62 s alive-\$1;
#X obj 543 16 r raw_alive-\$1;
#X obj 647 16 r raw_width-\$1;
#X obj 748 16 r raw_height-\$1;
#X obj 75 210 s raw_alive-\$1;
#X obj 96 190 s raw_posX-\$1;
#X obj 117 170 s raw_posY-\$1;
#X obj 138 150 s raw_width-\$1;
#X obj 159 130 s raw_height-\$1;
#X obj 180 110 s raw_depth-\$1;
#X obj 327 16 r raw_alive-\$1;
#X obj 423 16 r raw_depth-\$1;
#X obj 423 298 s depth-\$1;
#X obj 423 192 pow 1.4;
#X obj 423 232 iir 10;
#X obj 65 310 r alive-\$1;
#X obj 153 426 r depth-\$1;
#X obj 327 37 change;
#X obj 100 356 r posY-\$1;
#X obj 48 496 outlet;
#X obj 83 333 r posX-\$1;
#X obj 118 379 r width-\$1;
#X obj 135 402 r height-\$1;
#X obj 48 455 pack f f f f f f f;
#X obj 48 13 r OSC-INPUT;
#X obj 48 58 t b a;
#X obj 48 286 \$1;
#X obj 543 111 r raw_posX-\$1;
#X obj 634 111 r raw_posY-\$1;
#X obj 543 141 s posX-\$1;
#X obj 634 141 s posY-\$1;
#X connect 0 0 7 0;
#X connect 1 0 3 0;
#X connect 2 0 10 0;
#X connect 3 0 32 0;
#X connect 4 0 3 1;
#X connect 5 0 4 0;
#X connect 6 0 5 0;
#X connect 6 1 4 1;
#X connect 7 0 1 1;
#X connect 7 1 6 0;
#X connect 8 0 3 0;
#X connect 9 0 31 0;
#X connect 10 0 8 0;
#X connect 10 1 16 0;
#X connect 11 0 9 0;
#X connect 12 0 19 0;
#X connect 13 0 44 0;
#X connect 14 0 23 0;
#X connect 14 1 24 0;
#X connect 14 2 25 0;
#X connect 14 3 26 0;
#X connect 14 4 27 0;
#X connect 14 5 28 0;
#X connect 16 0 33 0;
#X connect 20 0 12 0;
#X connect 21 0 18 0;
#X connect 22 0 17 0;
#X connect 29 0 36 0;
#X connect 30 0 1 0;
#X connect 32 0 33 0;
#X connect 33 0 11 0;
#X connect 34 0 42 1;
#X connect 35 0 42 6;
#X connect 36 0 2 0;
#X connect 37 0 42 3;
#X connect 39 0 42 2;
#X connect 40 0 42 4;
#X connect 41 0 42 5;
#X connect 42 0 38 0;
#X connect 43 0 13 0;
#X connect 44 0 45 0;
#X connect 44 1 14 0;
#X connect 45 0 42 0;
#X connect 46 0 48 0;
#X connect 47 0 49 0;
