#N canvas 0 22 1028 570 10;
#X obj 335 31 inlet~;
#X obj 335 203 timer;
#X obj 272 317 tgl 15 0 empty empty empty 17 7 0 10 -262144 -1 -1 0
1;
#X obj 272 342 metro;
#X obj 335 225 t f f f f;
#X msg 272 449 1 0 \, 0 1 1;
#X obj 272 471 vline~;
#X obj 272 493 outlet~;
#X obj 272 422 t b b;
#X obj 105 169 bng 15 50 50 0 empty empty empty 17 7 0 10 -262144 -226533
-1;
#X obj 108 135 hsl 128 15 0 127 0 1 \$0-clock-multiply-multiply-s \$0-clock-multiply-multiply-r
MPLY 133 7 0 10 -262144 -1 -1 6700 1;
#X obj 415 116 / 127;
#X obj 415 215 i;
#X obj 335 254 /;
#X floatatom 206 121 5 0 0 0 - - -, f 5;
#X obj 621 272 delay 1000;
#X msg 621 300 0;
#X msg 594 249 1;
#X obj 335 75 t b b b;
#X obj 594 213 t b b;
#X obj 465 77 inlet~;
#X obj 465 99 snapshot~;
#X obj 465 121 t b f;
#X obj 415 138 +;
#X obj 104 150 hradio 15 1 0 9 \$0-clock-multiply-x-s \$0-clock-multiply-x-r
empty 0 -8 0 10 -262144 -226533 -1 4;
#X obj 415 237 t f f f;
#X obj 415 189 + 1;
#X obj 454 259 - 1;
#X obj 415 167 * 8;
#X obj 132 112 cnv 5 5 5 empty empty CLOCK 0 0 0 12 -262144 -66577
0;
#X obj 262 109 cnv 5 5 5 empty empty CV 0 0 0 8 -262144 -1 0;
#X obj 105 109 cnv 5 5 5 empty empty IN 0 0 0 8 -262144 -226533 0;
#X obj 171 112 cnv 5 5 5 empty empty MULTIPLY 0 0 0 12 -262144 -66577
0;
#N canvas 21 22 593 735 state-saving-multiple-instances 0;
#X obj 215 28 loadbang;
#X obj 261 480 textfile;
#X msg 555 463 rewind;
#X msg 512 463 bang;
#X obj 119 690 textfile;
#X obj 512 424 t b b;
#X obj 120 356 f;
#X obj 133 579 f;
#X obj 66 422 t b b b;
#X msg 196 579 clear;
#X obj 281 216 outlet;
#X text 277 236 INSTANCE NUMBER;
#X obj 242 92 f \$1;
#X obj 242 128 t f f f;
#X obj 215 61 t b b;
#X obj 66 331 bng 15 250 50 0 empty empty empty 17 7 0 10 -262144 -1
-1;
#X obj 66 235 r SAVE-S;
#X msg 132 650 write statesave/\$1-clock-multiply-ss.txt;
#X msg 261 455 read statesave/\$1-clock-multiply-ss.txt;
#X obj 135 308 r \$0-clock-multiply-multiply-s;
#X obj 261 604 s \$0-clock-multiply-multiply-r;
#X msg 120 438 set \$1;
#X connect 0 0 14 0;
#X connect 1 0 20 0;
#X connect 2 0 1 0;
#X connect 3 0 1 0;
#X connect 5 0 3 0;
#X connect 5 1 2 0;
#X connect 6 0 21 0;
#X connect 7 0 17 0;
#X connect 8 0 7 0;
#X connect 8 1 6 0;
#X connect 8 2 9 0;
#X connect 9 0 4 0;
#X connect 12 0 13 0;
#X connect 13 0 7 1;
#X connect 13 1 18 0;
#X connect 13 2 10 0;
#X connect 14 0 5 0;
#X connect 14 1 12 0;
#X connect 15 0 8 0;
#X connect 16 0 15 0;
#X connect 17 0 4 0;
#X connect 18 0 1 0;
#X connect 19 0 6 1;
#X connect 21 0 4 0;
#X restore 16 312 pd state-saving-multiple-instances;
#X obj 16 387 s \$0-instance-num;
#X obj 16 339 makefilename %d;
#X obj 233 112 cnv 5 5 5 empty \$0-instance-num 1 0 0 0 12 -262144
-66577 0;
#X msg 16 364 label \$1;
#X obj 103 193 cnv 5 5 5 empty empty OUT 0 0 0 8 -262144 -66577 0;
#N canvas 81 22 1117 745 state-saving-via-preset-manager-module 0;
#X obj 477 349 textfile;
#X msg 755 332 rewind;
#X msg 712 332 bang;
#X obj 243 690 textfile;
#X obj 712 293 t b b;
#X obj 244 356 f;
#X obj 257 579 f;
#X obj 190 422 t b b b;
#X msg 320 579 clear;
#X obj 244 264 delay 5;
#X obj 190 484 delay 10;
#X msg 190 314 bang;
#X obj 190 147 r STORE-S!;
#X obj 477 250 f;
#X obj 450 207 t b b;
#X obj 465 171 t b f;
#X obj 522 268 f \$1;
#X obj 477 295 pack f f;
#X obj 522 218 loadbang;
#X obj 257 609 pack f f;
#X obj 302 467 loadbang;
#X obj 302 489 f \$1;
#X obj 476 566 pack f f;
#X obj 476 590 line;
#X obj 521 541 r preset-manager-morph-s;
#X obj 465 148 r preset-manager-scan;
#X obj 279 148 r preset-manager-store-slot;
#X msg 928 577 stop;
#X obj 928 542 r STOP-MORPH!;
#X msg 256 650 write statesave/\$1-\$2-clock-multiply-ss.txt;
#X msg 477 324 read statesave/\$1-\$2-clock-multiply-ss.txt;
#X msg 244 438 set \$1;
#X obj 259 308 r \$0-clock-multiply-multiply-s;
#X obj 476 615 s \$0-clock-multiply-multiply-r;
#X connect 0 0 22 0;
#X connect 1 0 0 0;
#X connect 2 0 0 0;
#X connect 4 0 2 0;
#X connect 4 1 1 0;
#X connect 5 0 31 0;
#X connect 6 0 19 0;
#X connect 7 0 10 0;
#X connect 7 1 9 0;
#X connect 7 2 8 0;
#X connect 8 0 3 0;
#X connect 9 0 5 0;
#X connect 10 0 6 0;
#X connect 11 0 7 0;
#X connect 12 0 11 0;
#X connect 13 0 17 0;
#X connect 14 0 4 0;
#X connect 14 1 13 0;
#X connect 15 0 14 0;
#X connect 15 1 13 1;
#X connect 16 0 17 1;
#X connect 17 0 30 0;
#X connect 18 0 16 0;
#X connect 19 0 29 0;
#X connect 20 0 21 0;
#X connect 21 0 19 1;
#X connect 22 0 23 0;
#X connect 23 0 33 0;
#X connect 24 0 22 1;
#X connect 25 0 15 0;
#X connect 26 0 6 1;
#X connect 27 0 23 0;
#X connect 28 0 27 0;
#X connect 29 0 3 0;
#X connect 30 0 0 0;
#X connect 31 0 3 0;
#X connect 32 0 5 1;
#X restore 17 287 pd state-saving-via-preset-manager-module;
#X obj 549 94 env~;
#X obj 549 120 change;
#X obj 549 142 t b;
#N canvas 297 27 748 331 parameter-nudging-system 0;
#N canvas 0 22 484 497 param-nudge 0;
#X obj 124 234 random;
#X obj 232 335 f;
#X obj 232 368 +;
#X obj 257 166 random 2;
#X obj 124 275 t f f;
#X obj 124 351 t b f;
#X obj 124 297 *;
#X obj 257 188 sel 0 1;
#X msg 257 280 -1;
#X msg 335 280 1;
#X obj 124 149 t b b b;
#X obj 124 123 r NUDGE!;
#X obj 157 193 r NUDGE-RANGE;
#X obj 247 308 inlet;
#X obj 232 397 outlet;
#X floatatom 316 396 5 0 0 0 - - -, f 5;
#X connect 0 0 4 0;
#X connect 1 0 2 0;
#X connect 2 0 14 0;
#X connect 2 0 15 0;
#X connect 3 0 7 0;
#X connect 4 0 6 0;
#X connect 5 0 2 0;
#X connect 5 1 2 1;
#X connect 6 0 5 0;
#X connect 7 0 8 0;
#X connect 7 1 9 0;
#X connect 8 0 6 1;
#X connect 9 0 6 1;
#X connect 10 0 0 0;
#X connect 10 1 1 0;
#X connect 10 2 3 0;
#X connect 11 0 10 0;
#X connect 12 0 0 1;
#X connect 13 0 1 1;
#X restore 23 45 pd param-nudge;
#X obj 23 67 clip 0 127;
#X obj 23 22 r \$0-clock-multiply-multiply-s;
#X obj 23 95 s \$0-clock-multiply-multiply-r;
#X connect 0 0 1 0;
#X connect 1 0 3 0;
#X connect 2 0 0 0;
#X restore 19 264 pd parameter-nudging-system;
#X obj 335 53 threshold~ 0.9 0 0.9 0;
#X connect 0 0 44 0;
#X connect 1 0 4 0;
#X connect 2 0 3 0;
#X connect 3 0 8 0;
#X connect 4 0 13 0;
#X connect 5 0 6 0;
#X connect 6 0 7 0;
#X connect 8 0 5 0;
#X connect 8 1 9 0;
#X connect 10 0 11 0;
#X connect 11 0 23 0;
#X connect 12 0 25 0;
#X connect 13 0 3 1;
#X connect 15 0 16 0;
#X connect 16 0 2 0;
#X connect 17 0 2 0;
#X connect 18 0 1 0;
#X connect 18 1 1 1;
#X connect 18 2 19 0;
#X connect 19 0 17 0;
#X connect 19 1 15 0;
#X connect 20 0 21 0;
#X connect 20 0 40 0;
#X connect 21 0 22 0;
#X connect 22 0 23 0;
#X connect 22 1 23 1;
#X connect 23 0 28 0;
#X connect 25 0 13 1;
#X connect 25 1 14 0;
#X connect 25 2 27 0;
#X connect 26 0 12 0;
#X connect 27 0 24 0;
#X connect 28 0 26 0;
#X connect 33 0 35 0;
#X connect 35 0 37 0;
#X connect 37 0 34 0;
#X connect 40 0 41 0;
#X connect 41 0 42 0;
#X connect 42 0 21 0;
#X connect 44 0 18 0;
#X coords 0 -1 1 1 175 100 2 100 100;
