#N canvas 0 22 1001 752 10;
#X obj 356 456 clip 0 1;
#X obj 356 477 sig~;
#X obj 356 506 lop~ 10;
#X text 407 505 SMOOTHENESS;
#X obj 488 460 expr~ if ($v1 > $v2 \, 1 \, 0 );
#X obj 647 434 sig~;
#X obj 356 431 / 100;
#X obj 356 409 env~;
#X obj 112 121 hsl 128 15 0 127 0 1 \$0-env-follower2-input-s \$0-env-follower2-input-r
INPUT 135 7 0 10 -262144 -1 -1 0 1;
#X obj 647 412 * 0.00787402;
#X obj 488 530 outlet~ EXTRACT-GATE;
#X obj 484 198 *~;
#X obj 112 151 hsl 128 15 0 127 0 1 \$0-env-follower2-threshold-s \$0-env-follower2-threshold-r
GATE-THRESH 135 7 0 10 -262144 -1 -1 0 1;
#X obj 112 136 hsl 128 15 0 127 0 1 \$0-env-follower2-smooth-s \$0-env-follower2-smooth-r
AMP-SMOOTH 135 7 0 10 -262144 -1 -1 0 1;
#X obj 549 71 * 0.00787402;
#X obj 549 134 pack 0 50;
#X obj 549 157 line~;
#X obj 549 179 +~;
#X obj 356 693 outlet~ AMPLITUDE;
#X obj 395 370 * 0.00787402;
#X obj 395 414 + 1;
#X obj 549 93 * 4;
#X msg 395 309 127 \$1;
#X obj 395 331 -;
#X floatatom 210 107 5 0 0 0 - - -, f 5;
#X obj 210 41 * 0.00787402;
#X obj 210 63 * 4;
#X floatatom 432 462 5 0 0 0 - - -, f 5;
#X obj 395 392 * 999;
#X obj 851 214 fiddle~;
#X obj 877 238 unpack f f;
#X floatatom 877 260 5 0 0 0 - - -, f 5;
#X obj 877 279 * 0.00787402;
#X obj 877 323 line~;
#X obj 877 301 pack 0 10;
#X obj 877 345 +~;
#X obj 877 367 outlet~ FREQUENCY;
#X obj 137 114 cnv 5 5 5 empty empty AUDIO 0 0 0 12 -262144 -66577
0;
#X obj 109 114 cnv 5 5 5 empty empty EXT. 0 0 0 12 -262144 -66577 0
;
#X obj 188 114 cnv 5 5 5 empty \$0-instance-num 0 0 0 0 12 -262144
-66577 0;
#X obj 342 217 cnv 5 5 5 empty empty FREQ 0 0 0 8 -262144 -1 0;
#X obj 288 217 cnv 5 5 5 empty empty GATE 0 0 0 8 -262144 -226533 0
;
#X obj 161 217 cnv 5 5 5 empty empty CH2 0 0 0 8 -262144 -1 0;
#X obj 112 166 hsl 128 15 0 127 0 1 \$0-env-follower2-amp-/+-s \$0-env-follower2-amp-/+-r
AMPLITUDE-/+ 135 7 0 10 -150893 -1 -1 0 1;
#X floatatom 109 181 5 0 0 0 - - -, f 5;
#X obj 36 45 * 0.00787402;
#X obj 36 67 * 2;
#X obj 36 89 - 1;
#X obj 356 626 *~;
#X obj 411 584 * 0.00787402;
#X obj 411 606 * 2;
#X obj 411 628 - 1;
#X obj 411 672 line~;
#X obj 411 650 pack 0 10;
#N canvas 267 22 593 735 state-saving-multiple-instances 0;
#X obj 205 28 loadbang;
#X obj 251 481 textfile;
#X obj 205 61 t b b;
#X obj 251 503 unpack f f f f;
#X msg 508 464 rewind;
#X msg 465 464 bang;
#X obj 109 691 textfile;
#X obj 465 425 t b b;
#X obj 110 400 pack f f f f;
#X obj 110 357 f;
#X obj 123 580 f;
#X obj 48 403 t b b b;
#X msg 186 580 clear;
#X msg 110 438 set \$1 \$2 \$3 \$4;
#X obj 271 217 outlet;
#X text 267 237 INSTANCE NUMBER;
#X obj 232 152 f \$1;
#X obj 232 188 t f f f;
#X obj 48 378 bng 15 250 50 0 empty empty empty 17 7 0 10 -262144 -1
-1;
#X obj 48 274 r SAVE-S;
#X msg 122 651 write statesave/\$1-env-follow2-ss.txt;
#X msg 251 456 read statesave/\$1-env-follow2-ss.txt;
#X obj 125 309 r \$0-env-follower2-input-s;
#X obj 133 332 r \$0-env-follower2-smooth-s;
#X obj 156 353 r \$0-env-follower2-threshold-s;
#X obj 179 374 r \$0-env-follower2-amp-/+-s;
#X obj 251 617 s \$0-env-follower2-input-r;
#X obj 278 594 s \$0-env-follower2-smooth-r;
#X obj 305 568 s \$0-env-follower2-threshold-r;
#X obj 332 538 s \$0-env-follower2-amp-/+-r;
#X connect 0 0 2 0;
#X connect 1 0 3 0;
#X connect 2 0 7 0;
#X connect 2 1 16 0;
#X connect 3 0 26 0;
#X connect 3 1 27 0;
#X connect 3 2 28 0;
#X connect 3 3 29 0;
#X connect 4 0 1 0;
#X connect 5 0 1 0;
#X connect 7 0 5 0;
#X connect 7 1 4 0;
#X connect 8 0 13 0;
#X connect 9 0 8 0;
#X connect 10 0 20 0;
#X connect 11 0 10 0;
#X connect 11 1 9 0;
#X connect 11 2 12 0;
#X connect 12 0 6 0;
#X connect 13 0 6 0;
#X connect 16 0 17 0;
#X connect 17 0 10 1;
#X connect 17 1 21 0;
#X connect 17 2 14 0;
#X connect 18 0 11 0;
#X connect 19 0 18 0;
#X connect 20 0 6 0;
#X connect 21 0 1 0;
#X connect 22 0 9 1;
#X connect 23 0 8 1;
#X connect 24 0 8 2;
#X connect 25 0 8 3;
#X restore 51 451 pd state-saving-multiple-instances;
#X obj 51 523 s \$0-instance-num;
#X obj 51 475 makefilename %d;
#X msg 51 500 label \$1;
#N canvas 81 22 1117 745 state-saving-via-preset-manager-module 0;
#X obj 477 349 textfile;
#X msg 755 332 rewind;
#X msg 712 332 bang;
#X obj 243 690 textfile;
#X obj 712 293 t b b;
#X obj 244 356 f;
#X obj 257 579 f;
#X obj 190 474 t b b b;
#X msg 373 621 clear;
#X obj 244 180 delay 5;
#X obj 190 529 delay 10;
#X msg 190 314 bang;
#X obj 190 155 r STORE-S!;
#X obj 477 250 f;
#X obj 450 207 t b b;
#X obj 465 171 t b f;
#X obj 522 268 f \$1;
#X obj 477 295 pack f f;
#X obj 522 218 loadbang;
#X obj 257 609 pack f f;
#X obj 302 562 loadbang;
#X obj 302 584 f \$1;
#X obj 477 664 pack f f;
#X obj 477 688 line;
#X obj 522 639 r preset-manager-morph-s;
#X obj 465 107 r preset-manager-scan;
#X obj 504 568 pack f f;
#X obj 504 592 line;
#X obj 549 543 r preset-manager-morph-s;
#X obj 272 540 r preset-manager-store-slot;
#X msg 243 490 set \$1 \$2 \$3 \$4;
#X obj 244 423 pack f f f f;
#X obj 531 471 pack f f;
#X obj 531 495 line;
#X obj 575 432 r preset-manager-morph-s;
#X obj 477 371 unpack f f f f;
#X obj 731 388 pack f f;
#X obj 731 412 line;
#X obj 776 363 r preset-manager-morph-s;
#X msg 932 671 stop;
#X obj 932 636 r STOP-MORPH!;
#X obj 465 129 i;
#X msg 256 650 write statesave/\$1-\$2-env-follow2-ss.txt;
#X msg 477 324 read statesave/\$1-\$2-env-follow2-ss.txt;
#X obj 259 308 r \$0-env-follower2-input-s;
#X obj 267 330 r \$0-env-follower2-smooth-s;
#X obj 290 352 r \$0-env-follower2-threshold-s;
#X obj 313 374 r \$0-env-follower2-amp-/+-s;
#X obj 477 713 s \$0-env-follower2-input-r;
#X obj 504 615 s \$0-env-follower2-smooth-r;
#X obj 531 518 s \$0-env-follower2-threshold-r;
#X obj 731 435 s \$0-env-follower2-amp-/+-r;
#X connect 0 0 35 0;
#X connect 1 0 0 0;
#X connect 2 0 0 0;
#X connect 4 0 2 0;
#X connect 4 1 1 0;
#X connect 5 0 31 0;
#X connect 6 0 19 0;
#X connect 7 0 10 0;
#X connect 7 1 9 0;
#X connect 7 2 8 0;
#X connect 8 0 3 0;
#X connect 9 0 5 0;
#X connect 10 0 6 0;
#X connect 11 0 7 0;
#X connect 12 0 11 0;
#X connect 13 0 17 0;
#X connect 14 0 4 0;
#X connect 14 1 13 0;
#X connect 15 0 14 0;
#X connect 15 1 13 1;
#X connect 16 0 17 1;
#X connect 17 0 43 0;
#X connect 18 0 16 0;
#X connect 19 0 42 0;
#X connect 20 0 21 0;
#X connect 21 0 19 1;
#X connect 22 0 23 0;
#X connect 23 0 48 0;
#X connect 24 0 22 1;
#X connect 25 0 41 0;
#X connect 26 0 27 0;
#X connect 27 0 49 0;
#X connect 28 0 26 1;
#X connect 29 0 6 1;
#X connect 30 0 3 0;
#X connect 31 0 30 0;
#X connect 32 0 33 0;
#X connect 33 0 50 0;
#X connect 34 0 32 1;
#X connect 35 0 22 0;
#X connect 35 1 26 0;
#X connect 35 2 32 0;
#X connect 35 3 36 0;
#X connect 36 0 37 0;
#X connect 37 0 51 0;
#X connect 38 0 36 1;
#X connect 39 0 23 0;
#X connect 39 0 27 0;
#X connect 39 0 33 0;
#X connect 39 0 37 0;
#X connect 40 0 39 0;
#X connect 41 0 15 0;
#X connect 42 0 3 0;
#X connect 43 0 0 0;
#X connect 44 0 5 1;
#X connect 45 0 31 1;
#X connect 46 0 31 2;
#X connect 47 0 31 3;
#X restore 49 429 pd state-saving-via-preset-manager-module;
#N canvas 297 27 757 147 parameter-nudging-system 0;
#N canvas 0 22 484 497 param-nudge 0;
#X obj 124 234 random;
#X obj 232 335 f;
#X obj 232 368 +;
#X obj 257 166 random 2;
#X obj 124 275 t f f;
#X obj 124 351 t b f;
#X obj 124 297 *;
#X obj 257 188 sel 0 1;
#X msg 257 280 -1;
#X msg 335 280 1;
#X obj 124 149 t b b b;
#X obj 124 123 r NUDGE!;
#X obj 157 193 r NUDGE-RANGE;
#X obj 247 308 inlet;
#X obj 232 397 outlet;
#X floatatom 316 396 5 0 0 0 - - -, f 5;
#X connect 0 0 4 0;
#X connect 1 0 2 0;
#X connect 2 0 14 0;
#X connect 2 0 15 0;
#X connect 3 0 7 0;
#X connect 4 0 6 0;
#X connect 5 0 2 0;
#X connect 5 1 2 1;
#X connect 6 0 5 0;
#X connect 7 0 8 0;
#X connect 7 1 9 0;
#X connect 8 0 6 1;
#X connect 9 0 6 1;
#X connect 10 0 0 0;
#X connect 10 1 1 0;
#X connect 10 2 3 0;
#X connect 11 0 10 0;
#X connect 12 0 0 1;
#X connect 13 0 1 1;
#X restore 23 45 pd param-nudge;
#N canvas 0 22 484 497 param-nudge 0;
#X obj 124 234 random;
#X obj 232 335 f;
#X obj 232 368 +;
#X obj 257 166 random 2;
#X obj 124 275 t f f;
#X obj 124 351 t b f;
#X obj 124 297 *;
#X obj 257 188 sel 0 1;
#X msg 257 280 -1;
#X msg 335 280 1;
#X obj 124 149 t b b b;
#X obj 124 123 r NUDGE!;
#X obj 157 193 r NUDGE-RANGE;
#X obj 247 308 inlet;
#X obj 232 397 outlet;
#X connect 0 0 4 0;
#X connect 1 0 2 0;
#X connect 2 0 14 0;
#X connect 3 0 7 0;
#X connect 4 0 6 0;
#X connect 5 0 2 0;
#X connect 5 1 2 1;
#X connect 6 0 5 0;
#X connect 7 0 8 0;
#X connect 7 1 9 0;
#X connect 8 0 6 1;
#X connect 9 0 6 1;
#X connect 10 0 0 0;
#X connect 10 1 1 0;
#X connect 10 2 3 0;
#X connect 11 0 10 0;
#X connect 12 0 0 1;
#X connect 13 0 1 1;
#X restore 214 45 pd param-nudge;
#N canvas 0 22 484 497 param-nudge 0;
#X obj 124 234 random;
#X obj 232 335 f;
#X obj 232 368 +;
#X obj 257 166 random 2;
#X obj 124 275 t f f;
#X obj 124 351 t b f;
#X obj 124 297 *;
#X obj 257 188 sel 0 1;
#X msg 257 280 -1;
#X msg 335 280 1;
#X obj 124 149 t b b b;
#X obj 124 123 r NUDGE!;
#X obj 157 193 r NUDGE-RANGE;
#X obj 247 308 inlet;
#X obj 232 397 outlet;
#X connect 0 0 4 0;
#X connect 1 0 2 0;
#X connect 2 0 14 0;
#X connect 3 0 7 0;
#X connect 4 0 6 0;
#X connect 5 0 2 0;
#X connect 5 1 2 1;
#X connect 6 0 5 0;
#X connect 7 0 8 0;
#X connect 7 1 9 0;
#X connect 8 0 6 1;
#X connect 9 0 6 1;
#X connect 10 0 0 0;
#X connect 10 1 1 0;
#X connect 10 2 3 0;
#X connect 11 0 10 0;
#X connect 12 0 0 1;
#X connect 13 0 1 1;
#X restore 386 45 pd param-nudge;
#N canvas 0 22 484 497 param-nudge 0;
#X obj 124 234 random;
#X obj 232 335 f;
#X obj 232 368 +;
#X obj 257 166 random 2;
#X obj 124 275 t f f;
#X obj 124 351 t b f;
#X obj 124 297 *;
#X obj 257 188 sel 0 1;
#X msg 257 280 -1;
#X msg 335 280 1;
#X obj 124 149 t b b b;
#X obj 124 123 r NUDGE!;
#X obj 157 193 r NUDGE-RANGE;
#X obj 247 308 inlet;
#X obj 232 397 outlet;
#X connect 0 0 4 0;
#X connect 1 0 2 0;
#X connect 2 0 14 0;
#X connect 3 0 7 0;
#X connect 4 0 6 0;
#X connect 5 0 2 0;
#X connect 5 1 2 1;
#X connect 6 0 5 0;
#X connect 7 0 8 0;
#X connect 7 1 9 0;
#X connect 8 0 6 1;
#X connect 9 0 6 1;
#X connect 10 0 0 0;
#X connect 10 1 1 0;
#X connect 10 2 3 0;
#X connect 11 0 10 0;
#X connect 12 0 0 1;
#X connect 13 0 1 1;
#X restore 576 46 pd param-nudge;
#X obj 576 68 clip 0 127;
#X obj 23 67 clip 0 127;
#X obj 214 67 clip 0 127;
#X obj 386 69 clip 0 127;
#X obj 23 22 r \$0-env-follower2-input-s;
#X obj 23 95 s \$0-env-follower2-input-r;
#X obj 214 22 r \$0-env-follower2-smooth-s;
#X obj 214 95 s \$0-env-follower2-smooth-r;
#X obj 386 95 s \$0-env-follower2-threshold-r;
#X obj 386 22 r \$0-env-follower2-threshold-s;
#X obj 576 23 r \$0-env-follower2-amp-/+-s;
#X obj 576 95 s \$0-env-follower2-amp-/+-r;
#X connect 0 0 5 0;
#X connect 1 0 6 0;
#X connect 2 0 7 0;
#X connect 3 0 4 0;
#X connect 4 0 15 0;
#X connect 5 0 9 0;
#X connect 6 0 11 0;
#X connect 7 0 12 0;
#X connect 8 0 0 0;
#X connect 10 0 1 0;
#X connect 13 0 2 0;
#X connect 14 0 3 0;
#X restore 51 403 pd parameter-nudging-system;
#X obj 323 109 vu 15 80 empty empty -1 -8 0 10 -66577 -1 0 0;
#X obj 417 176 env~;
#X obj 417 198 - 96;
#X obj 226 217 cnv 5 5 5 empty empty ENV 0 0 0 8 -262144 -1 0;
#X obj 104 217 cnv 5 5 5 empty empty CH1 0 0 0 8 -262144 -1 0;
#X obj 17 685 outlet~ EXT.AUDIO-CH1L;
#X obj 169 684 outlet~ EXT.AUDIO-CH1L;
#X obj 483 47 adc~ 1 2;
#X obj 633 180 *~;
#X obj 759 220 *~ 0.5;
#X obj 485 376 *~ 0.5;
#X obj 356 387 *~ 0.5;
#X obj 340 109 vu 15 80 empty empty -1 -8 0 10 -66577 -1 0 0;
#X obj 639 243 env~;
#X obj 639 265 - 96;
#X obj 36 23 r \$0-env-follower2-amp-/+-s;
#X obj 210 19 r \$0-env-follower2-input-s;
#X obj 549 49 r \$0-env-follower2-input-s;
#X obj 647 390 r \$0-env-follower2-threshold-s;
#X obj 411 562 r \$0-env-follower2-amp-/+-s;
#X obj 395 287 r \$0-env-follower2-smooth-s;
#X connect 0 0 1 0;
#X connect 1 0 2 0;
#X connect 2 0 48 0;
#X connect 4 0 10 0;
#X connect 5 0 4 1;
#X connect 6 0 0 0;
#X connect 7 0 6 0;
#X connect 9 0 5 0;
#X connect 11 0 61 0;
#X connect 11 0 65 0;
#X connect 11 0 69 0;
#X connect 11 0 70 0;
#X connect 11 0 71 0;
#X connect 14 0 21 0;
#X connect 15 0 16 0;
#X connect 16 0 17 0;
#X connect 17 0 11 1;
#X connect 17 0 68 1;
#X connect 19 0 28 0;
#X connect 20 0 2 1;
#X connect 20 0 27 0;
#X connect 21 0 15 0;
#X connect 22 0 23 0;
#X connect 23 0 19 0;
#X connect 25 0 26 0;
#X connect 26 0 24 0;
#X connect 28 0 20 0;
#X connect 29 2 30 0;
#X connect 30 0 31 0;
#X connect 31 0 32 0;
#X connect 32 0 34 0;
#X connect 33 0 35 0;
#X connect 34 0 33 0;
#X connect 35 0 36 0;
#X connect 45 0 46 0;
#X connect 46 0 47 0;
#X connect 47 0 44 0;
#X connect 48 0 18 0;
#X connect 49 0 50 0;
#X connect 50 0 51 0;
#X connect 51 0 53 0;
#X connect 52 0 48 1;
#X connect 53 0 52 0;
#X connect 54 0 56 0;
#X connect 56 0 57 0;
#X connect 57 0 55 0;
#X connect 61 0 62 0;
#X connect 62 0 60 0;
#X connect 62 0 60 1;
#X connect 67 0 11 0;
#X connect 67 1 68 0;
#X connect 68 0 66 0;
#X connect 68 0 69 0;
#X connect 68 0 70 0;
#X connect 68 0 71 0;
#X connect 68 0 73 0;
#X connect 69 0 29 0;
#X connect 70 0 4 0;
#X connect 71 0 7 0;
#X connect 73 0 74 0;
#X connect 74 0 72 0;
#X connect 74 0 72 1;
#X connect 75 0 45 0;
#X connect 76 0 25 0;
#X connect 77 0 14 0;
#X connect 78 0 9 0;
#X connect 79 0 49 0;
#X connect 80 0 22 0;
#X coords 0 -1 1 1 265 125 2 100 100;
