#N canvas 622 88 852 935 12;
#X obj 778 16 comport;
#X msg 16 129 devices;
#X msg 94 161 close;
#X obj 254 149 packOSC;
#X obj 132 241 select 1;
#X obj 376 277 spigot;
#X msg 510 130 send /t \$1;
#X text 343 74 <- Calibrate E256;
#X text 540 74 <- Set the Threshold;
#X msg 376 301 /b;
#X obj 376 164 loadbang;
#X msg 376 221 1;
#X obj 376 250 t b f;
#X obj 510 19 loadbang;
#X obj 254 21 loadbang;
#X obj 86 21 loadbang;
#X text 410 301 <- Get blobs;
#X msg 254 75 send /c 20;
#X obj 86 272 unpackOSC;
#X obj 522 104 s THRESHOLD;
#X obj 254 48 del 500;
#X obj 510 46 del 1000;
#X obj 376 192 del 2000;
#X obj 86 48 del 100;
#X obj 103 617 t b f;
#X obj 153 640 t b f;
#X obj 202 662 t b f;
#X obj 252 685 t b f;
#X obj 301 708 t b f;
#X obj 351 732 t b f;
#X obj 401 754 t b f;
#X obj 101 822 s SUMM;
#X obj 86 327 send input_blobs;
#X obj 86 792 expr $f1 + $f2 + $f3 + $f4 + $f5 + $f6 + $f7 + $f8;
#X obj 86 191 comport 0 230400;
#X obj 86 569 r alive-0;
#X obj 103 593 r alive-1;
#X obj 153 616 r alive-2;
#X obj 202 639 r alive-3;
#X obj 252 662 r alive-4;
#X obj 301 685 r alive-5;
#X obj 351 708 r alive-6;
#X obj 401 731 r alive-7;
#X obj 85 939 dac~;
#X obj 86 898 osc~;
#X obj 86 849 * 2;
#X obj 86 873 * 100;
#X obj 254 172 slipenc;
#X obj 86 216 slipdec;
#X obj 86 299 routeOSC /b;
#X msg 86 129 open 0;
#X obj 592 431 hsl 128 15 0 380 0 0 empty empty empty -2 -8 0 10 -262144
-1 -1 0 1;
#X obj 510 452 unpack f f f f f f f f;
#X obj 592 481 hsl 128 15 0 380 0 0 empty empty empty -2 -8 0 10 -262144
-1 -1 0 1;
#X obj 510 502 unpack f f f f f f f f;
#X obj 323 452 print;
#X obj 323 422 r blobs_values;
#X obj 457 19 r INIT;
#X obj 201 21 r INIT;
#X obj 32 21 r INIT;
#X obj 324 165 r INIT;
#X obj 754 73 bng 25 250 50 0 empty empty empty 17 7 0 10 -258113 -1
-1;
#X obj 754 104 s INIT;
#X obj 510 170 r INIT;
#X obj 592 531 hsl 128 15 0 380 0 0 empty empty empty -2 -8 0 10 -262144
-1 -1 0 1;
#X obj 510 552 unpack f f f f f f f f;
#X obj 592 581 hsl 128 15 0 380 0 0 empty empty empty -2 -8 0 10 -262144
-1 -1 0 1;
#X obj 510 602 unpack f f f f f f f f;
#X obj 510 427 r circle-0;
#X obj 510 477 r circle-1;
#X obj 510 527 r circle-2;
#X obj 510 577 r circle-3;
#X msg 86 363 vis 0 1;
#X msg 86 417 vis 0 1;
#X obj 86 441 clone e256_mapping_circle 4;
#X obj 86 387 clone e256_input_filters 8;
#X msg 510 74 10;
#X obj 86 496 clone e256_circle_toggle 8;
#X msg 86 471 vis 1 1;
#X msg 510 196 \; toggle_circle 0.5 0.5 0.08 mapping_circle-0 0.12
0.2 \; mapping_circle-1 0.25 0.35 \; mapping_circle-2 0.42 0.48 \;
mapping_circle-3 0.57 0.7 \;;
#X obj 510 365 r master_switch;
#X obj 510 390 tgl 25 0 empty empty empty 17 7 0 10 -257985 -1 -1 0
1;
#X connect 1 0 34 0;
#X connect 2 0 34 0;
#X connect 3 0 47 0;
#X connect 4 0 5 0;
#X connect 5 0 9 0;
#X connect 6 0 3 0;
#X connect 9 0 3 0;
#X connect 10 0 22 0;
#X connect 11 0 12 0;
#X connect 12 0 5 0;
#X connect 12 1 5 1;
#X connect 13 0 21 0;
#X connect 14 0 20 0;
#X connect 15 0 23 0;
#X connect 17 0 3 0;
#X connect 18 0 49 0;
#X connect 20 0 17 0;
#X connect 21 0 76 0;
#X connect 22 0 11 0;
#X connect 23 0 50 0;
#X connect 24 0 33 0;
#X connect 24 1 33 1;
#X connect 25 0 33 0;
#X connect 25 1 33 2;
#X connect 26 0 33 0;
#X connect 26 1 33 3;
#X connect 27 0 33 0;
#X connect 27 1 33 4;
#X connect 28 0 33 0;
#X connect 28 1 33 5;
#X connect 29 0 33 0;
#X connect 29 1 33 6;
#X connect 30 0 33 0;
#X connect 30 1 33 7;
#X connect 33 0 31 0;
#X connect 33 0 45 0;
#X connect 34 0 48 0;
#X connect 35 0 33 0;
#X connect 36 0 24 0;
#X connect 37 0 25 0;
#X connect 38 0 26 0;
#X connect 39 0 27 0;
#X connect 40 0 28 0;
#X connect 41 0 29 0;
#X connect 42 0 30 0;
#X connect 44 0 43 0;
#X connect 44 0 43 1;
#X connect 45 0 46 0;
#X connect 46 0 44 0;
#X connect 47 0 34 0;
#X connect 48 0 18 0;
#X connect 48 1 4 0;
#X connect 49 0 32 0;
#X connect 50 0 34 0;
#X connect 52 7 51 0;
#X connect 54 7 53 0;
#X connect 57 0 21 0;
#X connect 58 0 20 0;
#X connect 59 0 23 0;
#X connect 60 0 22 0;
#X connect 61 0 62 0;
#X connect 63 0 79 0;
#X connect 65 7 64 0;
#X connect 67 7 66 0;
#X connect 68 0 52 0;
#X connect 69 0 54 0;
#X connect 70 0 65 0;
#X connect 71 0 67 0;
#X connect 72 0 75 0;
#X connect 73 0 74 0;
#X connect 76 0 6 0;
#X connect 76 0 19 0;
#X connect 78 0 77 0;
#X connect 80 0 81 0;
