#N canvas 145 327 411 475 10;
#X obj 187 224 +;
#X obj 187 247 sqrt;
#X obj 187 188 pow 2;
#X obj 229 188 pow 2;
#X obj 114 58 route \$1;
#X obj 114 36 r blobs_values;
#X obj 114 80 unpack 0 0 0 0 0 0 0 0;
#X obj 260 80 unpack f f f;
#X obj 187 271 < 0;
#X obj 229 165 - 0;
#X obj 187 165 - 0;
#X obj 260 36 r toggle_circle;
#X msg 114 232 0;
#X obj 66 36 inlet;
#X obj 187 315 sel 1;
#X msg 187 337 1;
#X obj 114 188 change;
#X obj 114 210 sel 0;
#X obj 187 293 change;
#X obj 114 254 t f f;
#X obj 114 403 s master_switch;
#X connect 0 0 1 0;
#X connect 1 0 8 0;
#X connect 2 0 0 0;
#X connect 3 0 0 1;
#X connect 4 0 6 0;
#X connect 5 0 4 0;
#X connect 6 0 16 0;
#X connect 6 1 10 0;
#X connect 6 2 9 0;
#X connect 7 0 10 1;
#X connect 7 1 9 1;
#X connect 7 2 8 1;
#X connect 8 0 18 0;
#X connect 9 0 3 0;
#X connect 10 0 2 0;
#X connect 11 0 7 0;
#X connect 12 0 19 0;
#X connect 14 0 15 0;
#X connect 15 0 20 0;
#X connect 16 0 17 0;
#X connect 17 0 12 0;
#X connect 18 0 14 0;
#X connect 19 0 20 0;
#X connect 19 1 18 0;
