#N canvas 125 561 314 231 10;
#X obj 31 26 inlet;
#X obj 147 26 inlet;
#X obj 77 26 loadbang;
#X obj 31 75 min;
#X obj 143 75 max;
#X obj 31 151 outlet;
#X obj 143 151 outlet;
#X obj 31 128 f;
#X obj 143 128 f;
#X obj 77 98 oneshot;
#X msg 77 75 clear;
#X connect 0 0 3 0;
#X connect 0 0 4 0;
#X connect 0 0 9 0;
#X connect 1 0 10 0;
#X connect 2 0 10 0;
#X connect 3 0 7 0;
#X connect 4 0 8 0;
#X connect 7 0 3 1;
#X connect 7 0 5 0;
#X connect 8 0 4 1;
#X connect 8 0 6 0;
#X connect 9 0 7 0;
#X connect 9 0 8 0;
#X connect 10 0 9 0;
