#N canvas 663 227 1036 625 10;
#X obj 438 37 r THRESHOLD;
#X obj 423 81 - 0;
#X obj 327 37 select 0;
#X obj 423 163 /;
#X obj 465 127 - 0;
#X msg 465 103 255;
#X obj 465 81 t b f;
#X obj 438 59 t f f;
#X msg 327 87 0;
#X obj 423 274 line;
#X obj 327 60 t b b;
#X obj 423 253 pack f 50;
#X obj 308 568 change;
#X obj 423 232 iir 3;
#X obj 48 35 route \$1;
#X obj 75 82 unpack 0 0 0 0 0 0;
#X obj 48 13 r input_blobs;
#X obj 579 49 / 64;
#X obj 681 49 / 64;
#X text 928 335 r=sqrt(x^2+y^2);
#X text 930 355 phi=atan2(y \, x);
#X obj 645 372 +;
#X obj 645 395 sqrt;
#X obj 747 269 - 1;
#X obj 747 248 * 2;
#X obj 645 269 - 1;
#X obj 645 248 * 2;
#X obj 645 434 / 1.41421;
#X obj 873 296 loadbang;
#X msg 873 366 45 \$1;
#X obj 873 387 /;
#X msg 873 323 1;
#X obj 873 344 atan;
#X obj 783 337 atan2;
#X obj 579 71 - 1;
#X obj 579 93 abs;
#X obj 7 13 inlet;
#X obj 48 58 t b l;
#X obj 48 564 pack \$1 0 0 0 0 0 0 0 0;
#X msg 354 163 reset 0;
#X obj 618 212 t f f;
#X obj 720 212 t f f;
#X obj 645 337 pow 2;
#X obj 690 337 pow 2;
#X obj 645 296 trigger f f;
#X obj 747 296 trigger f f;
#X obj 783 359 moses 0;
#X obj 783 387 + 6.28319;
#X obj 822 414 * 57.2958;
#X obj 822 436 line \$1 100;
#X floatatom 591 145 5 0 0 0 - - -;
#X obj 681 168 moses 0;
#X obj 720 190 moses 1;
#X obj 579 168 moses 0;
#X obj 618 190 moses 1;
#X floatatom 693 145 5 0 0 0 - - -;
#X text 731 118 <-- XY center point (0.5);
#X obj 645 462 s radius-\$1;
#X obj 822 462 s teta-\$1;
#X obj 513 591 s height-\$1;
#X obj 412 591 s width-\$1;
#X obj 308 591 s alive-\$1;
#X obj 308 545 r raw_alive-\$1;
#X obj 412 545 r raw_width-\$1;
#X obj 513 545 r raw_height-\$1;
#X obj 64 398 r alive-\$1;
#X obj 81 418 r posX-\$1;
#X obj 98 438 r posY-\$1;
#X obj 115 458 r width-\$1;
#X obj 132 478 r height-\$1;
#X obj 149 498 r depth-\$1;
#X obj 166 518 r radius-\$1;
#X obj 183 539 r teta-\$1;
#X obj 75 205 s raw_alive-\$1;
#X obj 96 185 s raw_posX-\$1;
#X obj 117 165 s raw_posY-\$1;
#X obj 138 145 s raw_width-\$1;
#X obj 159 125 s raw_height-\$1;
#X obj 180 105 s raw_depth-\$1;
#X obj 327 16 r raw_alive-\$1;
#X obj 423 16 r raw_depth-\$1;
#X obj 579 16 r raw_posX-\$1;
#X obj 681 16 r raw_posY-\$1;
#X obj 423 298 s depth-\$1;
#X obj 579 270 s posX-\$1;
#X obj 681 269 s posY-\$1;
#X obj 681 71 - 1;
#X obj 681 93 abs;
#X obj 579 119 - 0.03;
#X obj 48 591 s blobs_values;
#X obj 681 119 - 0.05;
#X obj 423 192 pow 1.4;
#X obj 681 247 change;
#X obj 579 247 change;
#X connect 0 0 7 0;
#X connect 1 0 3 0;
#X connect 2 0 10 0;
#X connect 3 0 91 0;
#X connect 4 0 3 1;
#X connect 5 0 4 0;
#X connect 6 0 5 0;
#X connect 6 1 4 1;
#X connect 7 0 1 1;
#X connect 7 1 6 0;
#X connect 8 0 3 0;
#X connect 9 0 83 0;
#X connect 10 0 8 0;
#X connect 10 1 39 0;
#X connect 11 0 9 0;
#X connect 12 0 61 0;
#X connect 13 0 11 0;
#X connect 14 0 37 0;
#X connect 15 0 73 0;
#X connect 15 1 74 0;
#X connect 15 2 75 0;
#X connect 15 3 76 0;
#X connect 15 4 77 0;
#X connect 15 5 78 0;
#X connect 16 0 14 0;
#X connect 17 0 34 0;
#X connect 18 0 86 0;
#X connect 21 0 22 0;
#X connect 22 0 27 0;
#X connect 23 0 45 0;
#X connect 24 0 23 0;
#X connect 25 0 44 0;
#X connect 26 0 25 0;
#X connect 27 0 57 0;
#X connect 28 0 31 0;
#X connect 29 0 30 0;
#X connect 30 0 48 1;
#X connect 31 0 32 0;
#X connect 32 0 29 0;
#X connect 33 0 46 0;
#X connect 34 0 35 0;
#X connect 35 0 88 0;
#X connect 37 0 38 0;
#X connect 37 1 15 0;
#X connect 38 0 89 0;
#X connect 39 0 13 0;
#X connect 40 0 93 0;
#X connect 40 1 26 0;
#X connect 41 0 92 0;
#X connect 41 1 24 0;
#X connect 42 0 21 0;
#X connect 43 0 21 1;
#X connect 44 0 42 0;
#X connect 44 1 33 0;
#X connect 45 0 43 0;
#X connect 45 1 33 1;
#X connect 46 0 47 0;
#X connect 46 1 48 0;
#X connect 47 0 48 0;
#X connect 48 0 49 0;
#X connect 49 0 58 0;
#X connect 51 1 52 0;
#X connect 52 0 41 0;
#X connect 53 1 54 0;
#X connect 54 0 40 0;
#X connect 62 0 12 0;
#X connect 63 0 60 0;
#X connect 64 0 59 0;
#X connect 65 0 38 1;
#X connect 66 0 38 2;
#X connect 67 0 38 3;
#X connect 68 0 38 4;
#X connect 69 0 38 5;
#X connect 70 0 38 6;
#X connect 71 0 38 7;
#X connect 72 0 38 8;
#X connect 79 0 2 0;
#X connect 80 0 1 0;
#X connect 81 0 17 0;
#X connect 82 0 18 0;
#X connect 86 0 87 0;
#X connect 87 0 90 0;
#X connect 88 0 50 0;
#X connect 88 0 53 0;
#X connect 90 0 51 0;
#X connect 90 0 55 0;
#X connect 91 0 13 0;
#X connect 92 0 85 0;
#X connect 93 0 84 0;
