#N canvas 6 82 1342 926 12;
#X obj 268 291 hsl 128 15 0 127 0 1 \$0-triad-attack-s \$0-triad-attack-r
ATTACK 135 7 0 10 -262144 -1 -1 275 1;
#X obj 509 40 r \$0-triad-root-s;
#X obj 509 486 tabosc4~ \$0-saw;
#X obj 510 612 *~ 0.33;
#N canvas 0 22 1204 721 scales-tables 0;
#X obj 11 17 loadbang;
#X obj 10 156 loadbang;
#X obj 15 269 loadbang;
#X obj 17 383 loadbang;
#X obj 18 503 loadbang;
#X obj 427 3 loadbang;
#X obj 429 98 loadbang;
#X obj 430 197 loadbang;
#X obj 431 294 loadbang;
#X obj 430 421 loadbang;
#X obj 20 598 loadbang;
#X obj 433 534 loadbang;
#X obj 822 12 loadbang;
#X obj 823 149 loadbang;
#X obj 818 293 loadbang;
#X obj 11 131 table \$0-ionian;
#X obj 8 248 table \$0-aeolian;
#X obj 16 361 table \$0-dorian;
#X obj 17 479 table \$0-phrygian;
#X obj 18 692 table \$0-lyd-minor;
#X obj 459 24 table \$0-chromatic;
#X obj 462 119 table \$0-ancient;
#X obj 464 218 table \$0-tetra;
#X obj 466 315 table \$0-indian;
#X obj 468 441 table \$0-siga;
#X obj 433 653 table \$0-harm-major;
#X obj 864 35 table \$0-pelog;
#X obj 823 267 table \$0-slendro;
#X obj 817 395 table \$0-whole;
#X msg 11 81 \; \$1-ionian 0 0 2 4 5 7 9 11 12 14 16 17 19 21 23 24
26 28 29 31 33 35 36 38 40 41 43 45 47 48;
#X msg 10 201 \; \$1-aeolian 0 0 2 3 5 7 8 10 12 14 15 17 19 20 22
24 26 27 29 31 32 34 36 38 39 41 43 44 46 48;
#X msg 16 312 \; \$1-dorian 0 0 2 3 5 7 9 10 12 14 15 17 19 21 22 24
26 27 29 31 33 34 36 38 39 41 43 45 46 48;
#X msg 17 432 \; \$1-phrygian 0 0 1 3 5 7 8 10 12 13 15 17 19 20 22
24 25 27 29 31 32 34 36 37 39 41 43 44 46 48;
#X msg 18 549 \; \$1-lydian 0 0 2 4 6 7 9 11 12 14 16 18 19 21 23 24
26 28 30 31 33 35 36 38 40 42 43 45 47 48;
#X msg 19 643 \; \$1-lyd-minor 0 0 2 3 6 7 9 11 12 14 15 18 19 21 23
24 26 27 30 31 33 35 36 38 39 42 43 45 47 48;
#X msg 427 50 \; \$1-chromatic 0 0 1 2 3 4 5 6 7 8 9 10 11 12 13 14
15 16 17 18 19 20 21 22 23 24 25 26 27 28;
#X msg 428 151 \; \$1-ancient 0 0 0.5 1 5 7 7.5 8 12 12.5 13 17 19
19.5 20 24 24.5 25 29 31 31.5 32 36 36.5 37 41 43 43.5 44 48;
#X msg 430 248 \; \$1-tetra 0 0 1 1.75 2 3 3.75 4 5 12 13 13.75 14
15 15.75 16 17 24 25 25.75 26 27 27.75 28 29 36 37 37.75 38 39;
#X msg 431 350 \; \$1-indian 0 0 0.9 1.14 1.8 2.04 2.94 3.18 3.84 4.08
4.9 5.22 5.88 6.12 7.02 7.92 8.16 8.82 9.06 9.96 10.2 10.86 11.1 12
12.9 13.14 13.8 14.04 14.94 15.18;
#X msg 430 468 \; \$1-siga 0 0 1.5 3.5 5.5 7 8.5 10.5 12 13.5 15.5
17.5 19 20.5 22.5 24 25.5 27.5 29.5 31 32.5 34.5 36 37.5 39.5 41.5
43 44.5 46.5 48.5;
#X msg 433 601 \; \$1-harm-major 0 0 2 4 5 7 8 11 12 14 16 17 19 20
23 24 26 28 29 31 32 35 36 38 40 41 43 44 47 48;
#X msg 822 73 \; \$1-pelog 0 0 1.5 2.5 3.5 7 8 10.5 12 13.5 14.5 15.5
19 20 22.5 24 25.5 26.5 27.5 31 32 34.5 36 37.5 38.5 39.5 42.5 43.5
45 46.5;
#X msg 823 218 \; \$1-slendro 0 0 2.5 5 7 9.5 12 14.5 17 19 21.5 24
26.5 29 31 33.5 36 38.5 41 43 45.5 47 49.5 52 54 56.5 59 61.5 64 66.5
;
#X msg 818 346 \; \$1-whole 0 0 2 4 6 8 10 12 14 16 18 20 22 24 26
28 30 32 34 36 38 40 42 44 46 48 50 52 54 56;
#X obj 11 39 f \$0;
#X obj 10 178 f \$0;
#X obj 15 291 f \$0;
#X obj 17 405 f \$0;
#X obj 18 525 f \$0;
#X obj 20 620 f \$0;
#X obj 427 25 f \$0;
#X obj 429 120 f \$0;
#X obj 430 219 f \$0;
#X obj 431 316 f \$0;
#X obj 430 443 f \$0;
#X obj 433 556 f \$0;
#X obj 822 34 f \$0;
#X obj 823 171 f \$0;
#X obj 818 315 f \$0;
#X obj 49 524 table \$0-lydian;
#X connect 0 0 44 0;
#X connect 1 0 45 0;
#X connect 2 0 46 0;
#X connect 3 0 47 0;
#X connect 4 0 48 0;
#X connect 5 0 50 0;
#X connect 6 0 51 0;
#X connect 7 0 52 0;
#X connect 8 0 53 0;
#X connect 9 0 54 0;
#X connect 10 0 49 0;
#X connect 11 0 55 0;
#X connect 12 0 56 0;
#X connect 13 0 57 0;
#X connect 14 0 58 0;
#X connect 44 0 29 0;
#X connect 45 0 30 0;
#X connect 46 0 31 0;
#X connect 47 0 32 0;
#X connect 48 0 33 0;
#X connect 49 0 34 0;
#X connect 50 0 35 0;
#X connect 51 0 36 0;
#X connect 52 0 37 0;
#X connect 53 0 38 0;
#X connect 54 0 39 0;
#X connect 55 0 40 0;
#X connect 56 0 41 0;
#X connect 57 0 42 0;
#X connect 58 0 43 0;
#X restore 280 40 pd scales-tables;
#N canvas 6 82 557 478 wavetables 0;
#X obj 29 22 loadbang;
#X obj 29 47 f \$0;
#X obj 29 72 t f f;
#X text 87 26 SAW WAVE;
#X msg 29 159 \; \$1-saw normalize 1;
#X obj 27 199 table \$0-saw;
#X obj 26 244 loadbang;
#X text 71 267 SQUAREWAVE;
#X obj 26 300 t f f;
#X obj 26 266 f \$0;
#X msg 26 397 \; \$1-square normalize 1;
#X obj 24 437 table \$0-square;
#X msg 58 329 \; \$1-square sinesum 515 1 0 0.33 0 0.2 0 0.142857 0
0.111111 0 0.090909 0 0.076923 0 0.066666 0 0.058823 0 0.0526315 0
0.047619 0 0.04347 0 0.04 0;
#X msg 61 102 \; \$1-saw sinesum 515 1 0.5 0.33 0.25 0.2 0.16 0.14
0.125 0.111111 0.1 0.090909;
#X connect 0 0 1 0;
#X connect 1 0 2 0;
#X connect 2 0 4 0;
#X connect 2 1 13 0;
#X connect 6 0 9 0;
#X connect 8 0 10 0;
#X connect 8 1 12 0;
#X connect 9 0 8 0;
#X restore 280 63 pd wavetables;
#X symbolatom 186 524 15 0 0 0 - - -;
#N canvas 120 82 1142 609 choose-scale 0;
#X obj 396 470 outlet;
#X obj 439 53 / 127;
#X obj 439 119 i;
#X obj 439 74 * 13;
#X obj 439 178 sel 0 1 2 3 4 5 6 7 8 9 10 11 12 13;
#X obj 439 31 inlet;
#X msg -1 273 set ionian;
#X msg 92 274 set dorian;
#X msg 177 276 set phrygian;
#X msg 277 277 set lydian;
#X msg 364 278 set aeolian;
#X msg 442 307 set whole;
#X msg 537 311 set chromatic;
#X msg 650 316 set harm-major;
#X msg 677 365 set lyd-minor;
#X msg 764 409 set ancient;
#X msg 902 423 set pelog;
#X msg 940 380 set tetra;
#X msg 968 309 set indian;
#X msg 1035 260 set slendro;
#X connect 1 0 3 0;
#X connect 2 0 4 0;
#X connect 3 0 2 0;
#X connect 4 0 6 0;
#X connect 4 1 7 0;
#X connect 4 2 8 0;
#X connect 4 3 9 0;
#X connect 4 4 10 0;
#X connect 4 5 11 0;
#X connect 4 6 12 0;
#X connect 4 7 13 0;
#X connect 4 8 14 0;
#X connect 4 9 15 0;
#X connect 4 10 17 0;
#X connect 4 11 18 0;
#X connect 4 12 16 0;
#X connect 4 13 19 0;
#X connect 5 0 1 0;
#X connect 6 0 0 0;
#X connect 7 0 0 0;
#X connect 8 0 0 0;
#X connect 9 0 0 0;
#X connect 10 0 0 0;
#X connect 11 0 0 0;
#X connect 12 0 0 0;
#X connect 13 0 0 0;
#X connect 14 0 0 0;
#X connect 15 0 0 0;
#X connect 16 0 0 0;
#X connect 17 0 0 0;
#X connect 18 0 0 0;
#X connect 19 0 0 0;
#X restore 186 491 pd choose-scale;
#X obj 268 355 hsl 128 15 0 127 0 1 \$0-triad-scale-s \$0-triad-scale-r
SCALE 133 7 0 10 -262144 -1 -1 1900 1;
#X obj 186 419 t f f;
#N canvas 120 82 1142 609 choose-scale 0;
#X obj 438 475 outlet;
#X obj 81 37 / 127;
#X obj 81 103 i;
#X obj 81 58 * 13;
#X obj 81 15 inlet;
#X msg 80 566 set \$1-ionian;
#X obj 24 150 loadbang;
#X msg 90 464 set \$1-dorian;
#X msg 110 340 set \$1-phrygian;
#X msg 125 238 set \$1-lydian;
#X msg 220 239 set \$1-aeolian;
#X msg 317 239 set \$1-whole;
#X msg 404 236 set \$1-chromatic;
#X msg 512 234 set \$1-harm-major;
#X msg 559 311 set \$1-lyd-minor;
#X msg 588 363 set \$1-ancient;
#X msg 827 283 set \$1-pelog;
#X msg 642 445 set \$1-tetra;
#X msg 817 455 set \$1-indian;
#X msg 989 300 set \$1-slendro;
#X obj 24 171 f \$0;
#X obj 81 125 sel 0 1 2 3 4 5 6 7 8 9 10 11 12 13;
#X obj 80 536 f;
#X obj 90 435 f;
#X obj 110 318 f;
#X obj 125 210 f;
#X obj 24 193 t f f f f;
#X obj 216 45 loadbang;
#X obj 216 66 f \$0;
#X obj 216 88 t f f f f;
#X obj 220 215 f;
#X obj 317 213 f;
#X obj 404 214 f;
#X obj 512 210 f;
#X obj 559 285 f;
#X obj 589 339 f;
#X obj 661 404 f;
#X obj 807 412 f;
#X obj 552 51 loadbang;
#X obj 552 72 f \$0;
#X obj 830 246 f;
#X obj 1000 257 f;
#X obj 552 94 t f f f f f f;
#X connect 1 0 3 0;
#X connect 2 0 21 0;
#X connect 3 0 2 0;
#X connect 4 0 1 0;
#X connect 5 0 0 0;
#X connect 6 0 20 0;
#X connect 7 0 0 0;
#X connect 8 0 0 0;
#X connect 9 0 0 0;
#X connect 10 0 0 0;
#X connect 11 0 0 0;
#X connect 12 0 0 0;
#X connect 13 0 0 0;
#X connect 14 0 0 0;
#X connect 15 0 0 0;
#X connect 16 0 0 0;
#X connect 17 0 0 0;
#X connect 18 0 0 0;
#X connect 19 0 0 0;
#X connect 20 0 26 0;
#X connect 21 0 22 0;
#X connect 21 1 23 0;
#X connect 21 2 24 0;
#X connect 21 3 25 0;
#X connect 21 4 30 0;
#X connect 21 5 31 0;
#X connect 21 6 32 0;
#X connect 21 7 33 0;
#X connect 21 8 34 0;
#X connect 21 9 35 0;
#X connect 21 10 36 0;
#X connect 21 11 37 0;
#X connect 21 12 40 0;
#X connect 21 13 41 0;
#X connect 22 0 5 0;
#X connect 23 0 7 0;
#X connect 24 0 8 0;
#X connect 25 0 9 0;
#X connect 26 0 22 1;
#X connect 26 1 23 1;
#X connect 26 2 24 1;
#X connect 26 3 25 1;
#X connect 27 0 28 0;
#X connect 28 0 29 0;
#X connect 29 0 30 1;
#X connect 29 1 31 1;
#X connect 29 2 32 1;
#X connect 29 3 33 1;
#X connect 30 0 10 0;
#X connect 31 0 11 0;
#X connect 32 0 12 0;
#X connect 33 0 13 0;
#X connect 34 0 14 0;
#X connect 35 0 15 0;
#X connect 36 0 17 0;
#X connect 37 0 18 0;
#X connect 38 0 39 0;
#X connect 39 0 42 0;
#X connect 40 0 16 0;
#X connect 41 0 19 0;
#X connect 42 0 34 1;
#X connect 42 1 35 1;
#X connect 42 2 36 1;
#X connect 42 3 37 1;
#X connect 42 4 40 1;
#X connect 42 5 41 1;
#X restore 218 445 pd choose-scale;
#X obj 509 366 mtof~;
#X obj 509 65 * 0.00787402;
#X obj 268 237 hsl 128 15 0 127 0 1 \$0-triad-root-s \$0-triad-root-r
ROOT 135 7 0 10 -262144 -1 -1 3389 1;
#X obj 218 467 s \$0-triad-scale-s;
#X obj 510 640 *~;
#X obj 663 502 f;
#X obj 696 502 + 1;
#X obj 268 380 hsl 128 15 0 127 0 1 \$0-triad-xpose-s \$0-triad-xpose-r
XPOSE 135 7 0 10 -150893 -1 -1 0 1;
#N canvas 321 82 426 516 eg2 0;
#X obj 116 410 vline~;
#X obj 169 211 r \$0-triad-release-s;
#X obj 134 71 r \$0-triad-attack-s;
#X obj 134 117 * 0.00787402;
#X obj 134 161 + 1;
#X obj 134 94 - 1.27;
#X obj 134 139 * 2020;
#X obj 116 218 f;
#X obj 169 233 - 1.27;
#X obj 169 255 * 0.00787402;
#X obj 169 299 + 1;
#X obj 116 454 outlet~;
#X obj 169 277 * 4020;
#X obj 116 364 pack f f;
#X msg 116 388 1 \$1 \, 0 \$2 \$1;
#X obj 134 183 clip 1 2000;
#X obj 169 321 clip 1 4000;
#X obj 116 26 inlet;
#X connect 0 0 11 0;
#X connect 1 0 8 0;
#X connect 2 0 5 0;
#X connect 3 0 6 0;
#X connect 4 0 15 0;
#X connect 5 0 3 0;
#X connect 6 0 4 0;
#X connect 7 0 13 0;
#X connect 8 0 9 0;
#X connect 9 0 12 0;
#X connect 10 0 16 0;
#X connect 12 0 10 0;
#X connect 13 0 14 0;
#X connect 14 0 0 0;
#X connect 15 0 7 1;
#X connect 16 0 13 1;
#X connect 17 0 7 0;
#X restore 802 583 pd eg2;
#X obj 663 534 % 2;
#X obj 784 623 *~ 0.33;
#X obj 804 183 r \$0-triad-dtune-s;
#X obj 804 267 * 0.00787402;
#X obj 804 311 pack 0 50;
#X obj 804 333 line~;
#X obj 785 442 -~;
#X obj 785 652 *~;
#X obj 510 701 *~ 0.5;
#X obj 804 289 * 2;
#X obj 785 537 tabosc4~ \$0-square;
#X obj 509 193 tabread;
#X obj 509 240 sig~;
#X obj 520 163 r \$0-triad-scale-s;
#X obj 806 162 hsl 128 15 0 127 0 0 \$0-triad-dtune-s \$0-triad-dtune-r
DTUNE 135 7 0 10 -262144 -1 -1 0 1;
#N canvas 1113 357 455 543 eg1 1;
#X obj 76 360 vline~;
#X obj 247 112 r \$0-triad-release-s;
#X obj 94 112 r \$0-triad-attack-s;
#X obj 94 158 * 0.00787402;
#X obj 94 202 + 1;
#X obj 94 135 - 1.27;
#X obj 94 180 * 2020;
#X obj 76 258 f;
#X obj 247 134 - 1.27;
#X obj 247 156 * 0.00787402;
#X obj 247 200 + 1;
#X obj 76 404 outlet~;
#X obj 247 178 * 4020;
#X obj 76 314 pack f f;
#X msg 76 338 1 \$1 \, 0 \$2 \$1;
#X obj 247 222 clip 1 4000;
#X obj 94 224 clip 1 2000;
#X obj 76 66 inlet;
#X connect 0 0 11 0;
#X connect 1 0 8 0;
#X connect 2 0 5 0;
#X connect 3 0 6 0;
#X connect 4 0 16 0;
#X connect 5 0 3 0;
#X connect 6 0 4 0;
#X connect 7 0 13 0;
#X connect 8 0 9 0;
#X connect 9 0 12 0;
#X connect 10 0 15 0;
#X connect 12 0 10 0;
#X connect 13 0 14 0;
#X connect 14 0 0 0;
#X connect 15 0 13 1;
#X connect 16 0 7 1;
#X connect 17 0 7 0;
#X restore 607 622 pd eg1;
#X obj 268 265 hsl 128 15 1.27 127 1 1 \$0-triad-release-s \$0-triad-release-r
RELEASE 135 7 0 10 -262144 -1 -1 0 1;
#X obj 692 40 r \$0-triad-xpose-s;
#X obj 692 93 / 127;
#X obj 692 116 * 24;
#X obj 692 138 - 12;
#X obj 692 161 i;
#X obj 509 115 clip 0 1;
#X obj 509 139 * 28;
#X obj 509 864 outlet~ OUT1 TRIGGERED VOICE;
#X obj 509 341 +~;
#X obj 692 185 sig~;
#X obj 743 65 inlet~ XPOSE;
#X obj 743 93 abs~;
#X obj 742 115 *~ 24;
#X obj 743 137 -~ 12;
#X obj 692 277 +~;
#X obj 509 216 + 48;
#X obj 353 405 hradio 15 1 1 3 \$0-triad-selctor-s \$0-triad-selctor-r
SAW 48 8 0 10 -262144 -1 -1 0;
#X obj 1113 237 r \$0-triad-selctor-s;
#X obj 1113 269 sel 0 1 2;
#X msg 1113 412 label SAW;
#X obj 1113 434 s \$0-triad-selctor-r;
#X obj 1133 378 s \$0-triad-selctor-r;
#X msg 1133 356 label SQUARE;
#X obj 1153 322 s \$0-triad-selctor-r;
#X msg 1153 300 label SPLIT;
#X obj 964 288 f \$0;
#X msg 964 310 set \$1-saw;
#X obj 964 341 f \$0;
#X msg 964 362 set \$1-square;
#X obj 963 445 f \$0;
#X msg 963 467 set \$1-saw;
#X obj 963 395 f \$0;
#X msg 963 417 set \$1-square;
#X obj 528 731 r alive-\$1;
#X obj 141 57 r posX-\$1;
#X obj 64 57 r posY-\$1;
#X obj 663 473 r metro;
#X obj 173 117 * 127;
#X obj 141 87 t f f;
#X obj 141 181 pow 1.5;
#X obj 509 90 + 0;
#X obj 509 838 *~;
#X obj 528 812 line~ f 100;
#X msg 528 780 1 100;
#X obj 816 211 loadbang;
#X obj 528 755 select 1;
#X msg 581 780 0 400;
#X msg 816 239 64;
#X obj 663 559 sel 0;
#X obj 64 82 - 1;
#X obj 64 106 abs;
#X obj 64 193 + 1;
#X obj 64 159 * 10;
#X obj 141 206 * 4;
#X obj 607 597 bang;
#X obj 802 559 bang;
#X connect 1 0 12 0;
#X connect 2 0 3 0;
#X connect 3 0 15 0;
#X connect 7 0 6 0;
#X connect 8 0 9 0;
#X connect 9 0 7 0;
#X connect 9 1 10 0;
#X connect 10 0 14 0;
#X connect 11 0 2 0;
#X connect 11 0 26 0;
#X connect 12 0 77 0;
#X connect 15 0 28 0;
#X connect 16 0 17 0;
#X connect 16 0 20 0;
#X connect 17 0 16 1;
#X connect 19 0 27 1;
#X connect 20 0 85 0;
#X connect 21 0 27 0;
#X connect 22 0 23 0;
#X connect 23 0 29 0;
#X connect 24 0 25 0;
#X connect 25 0 26 1;
#X connect 26 0 30 0;
#X connect 27 0 28 0;
#X connect 28 0 78 0;
#X connect 29 0 24 0;
#X connect 30 0 21 0;
#X connect 31 0 52 0;
#X connect 32 0 45 0;
#X connect 33 0 31 0;
#X connect 35 0 15 1;
#X connect 37 0 38 0;
#X connect 38 0 39 0;
#X connect 39 0 40 0;
#X connect 40 0 41 0;
#X connect 41 0 46 0;
#X connect 42 0 43 0;
#X connect 43 0 31 0;
#X connect 45 0 11 0;
#X connect 46 0 51 0;
#X connect 47 0 48 0;
#X connect 48 0 49 0;
#X connect 49 0 50 0;
#X connect 50 0 51 1;
#X connect 51 0 45 1;
#X connect 52 0 32 0;
#X connect 54 0 55 0;
#X connect 55 0 56 0;
#X connect 55 0 62 0;
#X connect 55 1 59 0;
#X connect 55 1 64 0;
#X connect 55 2 61 0;
#X connect 55 2 68 0;
#X connect 55 2 66 0;
#X connect 56 0 57 0;
#X connect 59 0 58 0;
#X connect 61 0 60 0;
#X connect 62 0 63 0;
#X connect 63 0 2 0;
#X connect 63 0 30 0;
#X connect 64 0 65 0;
#X connect 65 0 30 0;
#X connect 65 0 2 0;
#X connect 66 0 67 0;
#X connect 67 0 2 0;
#X connect 68 0 69 0;
#X connect 69 0 30 0;
#X connect 70 0 82 0;
#X connect 71 0 75 0;
#X connect 72 0 86 0;
#X connect 73 0 16 0;
#X connect 74 0 13 0;
#X connect 75 0 76 0;
#X connect 75 1 74 0;
#X connect 76 0 90 0;
#X connect 77 0 42 0;
#X connect 78 0 44 0;
#X connect 79 0 78 1;
#X connect 80 0 79 0;
#X connect 81 0 84 0;
#X connect 82 0 80 0;
#X connect 82 1 83 0;
#X connect 83 0 79 0;
#X connect 84 0 23 0;
#X connect 85 0 91 0;
#X connect 85 1 92 0;
#X connect 86 0 87 0;
#X connect 87 0 89 0;
#X connect 88 0 0 0;
#X connect 89 0 88 0;
#X connect 90 0 36 0;
#X connect 91 0 35 0;
#X connect 92 0 19 0;
