#N canvas 128 22 1068 703 10;
#X obj 93 296 t f f;
#X obj 93 384 line~;
#X obj 93 478 mtof~;
#X floatatom 205 118 5 0 0 0 - - -, f 5;
#X obj 350 621 outlet~;
#X obj 93 450 +~;
#X obj 217 433 *~ 127;
#X obj 465 463 *~;
#X obj 480 416 pack 0 50;
#X obj 480 438 line~;
#X obj 107 177 hsl 128 15 0 127 0 1 \$0-basic-osc-fm-att-s \$0-basic-osc-fm-att-r
FM 133 7 0 10 -158136 -1 -1 7000 1;
#X obj 107 132 hsl 128 15 0 127 0 1 \$0-basic-osc-pitch-s \$0-basic-osc-pitch-r
PITCH 133 7 0 10 -262144 -1 -1 5700 1;
#X obj 105 109 cnv 5 5 5 empty empty PITCH 0 0 0 8 -262144 -66577 0
;
#X obj 192 109 cnv 5 5 5 empty empty PWM 0 0 0 8 -262144 -120682 0
;
#X text 462 227 FM IN;
#X obj 465 485 *~ 2000;
#X obj 93 502 +~;
#X text 214 230 PITCH CV IN;
#X obj 104 124 cnv 5 5 5 empty empty BASIC-OSC 0 0 0 12 -262144 -66577
0;
#X obj 93 361 pack 0 50;
#X obj 240 200 cnv 5 5 5 empty \$0-waveform-gui-r TRIANGLE 0 0 0 10
-262144 -66577 0;
#X obj 93 269 r \$0-basic-osc-pitch-s;
#X obj 107 147 hsl 128 15 0 127 0 1 \$0-basic-osc-pwidth-s \$0-basic-osc-pwidth-r
P-WIDTH 133 7 0 10 -262144 -1 -1 0 1;
#X obj 107 162 hsl 128 15 0 127 0 1 \$0-basic-osc-pwm-att-s \$0-basic-osc-pwm-att-r
PWM 133 7 0 10 -158136 -1 -1 2000 1;
#X obj 480 350 r \$0-basic-osc-fm-att-s;
#X obj 480 372 * 0.00787402;
#X obj 480 394 * 2;
#X obj 105 204 cnv 5 5 5 empty empty OUT 0 0 0 8 -262144 -66577 0;
#X obj 679 14 r \$0-basic-osc-wform-s;
#X obj 679 35 sel 0 1 2 3;
#N canvas 0 22 897 458 sinewave 0;
#X obj 193 69 inlet~;
#X obj 193 147 osc~;
#X obj 193 226 outlet~;
#X obj 241 263 switch~;
#X obj 241 68 r \$0-basic-osc-sine-on/off;
#X obj 193 181 *~;
#X obj 241 90 t f f;
#X obj 268 164 line~;
#X obj 268 142 pack 0 100;
#X obj 241 186 sel 0;
#X obj 241 208 del 100;
#X msg 241 230 0;
#X connect 0 0 1 0;
#X connect 1 0 5 0;
#X connect 4 0 6 0;
#X connect 5 0 2 0;
#X connect 6 0 9 0;
#X connect 6 1 8 0;
#X connect 7 0 5 1;
#X connect 8 0 7 0;
#X connect 9 0 10 0;
#X connect 9 1 3 0;
#X connect 10 0 11 0;
#X connect 11 0 3 0;
#X restore 93 604 pd sinewave;
#X msg 679 522 1 0 0 0;
#X obj 679 498 t b b;
#X obj 177 192 hradio 15 1 1 4 \$0-basic-osc-wform-s \$0-basic-osc-wform-r
empty 65 7 0 10 -262144 -1 -1 1;
#X obj 175 124 cnv 5 5 5 empty \$0-instance-num 1 0 0 0 12 -262144
-66577 0;
#X obj 938 588 s \$0-waveform-gui-r;
#X obj 938 541 makefilename %s;
#X msg 938 565 label \$1;
#X msg 938 515 symbol SINE;
#X obj 285 109 cnv 5 5 5 empty empty FM 0 0 0 8 -262144 -120682 0;
#X obj 694 329 t b b;
#X msg 694 351 0 1 0 0;
#X obj 679 544 unpack f f f f;
#X obj 679 643 s \$0-basic-osc-sine-on/off;
#X obj 706 618 s \$0-basic-osc-triangle-on/off;
#X obj 733 592 s \$0-basic-osc-saw-on/off;
#X obj 760 567 s \$0-basic-osc-pulse-on/off;
#X obj 694 374 unpack f f f f;
#X obj 694 473 s \$0-basic-osc-sine-on/off;
#X obj 721 448 s \$0-basic-osc-triangle-on/off;
#X obj 748 422 s \$0-basic-osc-saw-on/off;
#X obj 775 397 s \$0-basic-osc-pulse-on/off;
#X msg 938 493 symbol TRIANGLE;
#X obj 710 161 t b b;
#X obj 710 206 unpack f f f f;
#X obj 710 305 s \$0-basic-osc-sine-on/off;
#X obj 737 280 s \$0-basic-osc-triangle-on/off;
#X obj 764 254 s \$0-basic-osc-saw-on/off;
#X obj 791 229 s \$0-basic-osc-pulse-on/off;
#X msg 710 183 0 0 1 0;
#X msg 939 471 symbol SAW;
#X obj 804 52 t b b;
#X obj 804 97 unpack f f f f;
#X obj 804 196 s \$0-basic-osc-sine-on/off;
#X obj 831 171 s \$0-basic-osc-triangle-on/off;
#X obj 858 145 s \$0-basic-osc-saw-on/off;
#X obj 885 120 s \$0-basic-osc-pulse-on/off;
#X msg 804 74 0 0 0 1;
#X msg 935 439 symbol PULSE;
#N canvas 0 22 632 532 triangle 0;
#X obj 90 62 inlet~;
#X obj 90 380 outlet~;
#X obj 138 344 switch~;
#X obj 90 335 *~;
#X obj 138 83 t f f;
#X obj 165 318 line~;
#X obj 138 61 r \$0-basic-osc-triangle-on/off;
#X obj 90 134 phasor~;
#X obj 90 222 min~;
#X obj 111 176 *~ -1;
#X obj 111 198 +~ 1;
#X obj 90 244 *~ 4;
#X obj 90 266 -~ 1;
#X obj 165 296 pack 0 100;
#X obj 138 234 sel 0;
#X obj 138 256 del 100;
#X msg 138 278 0;
#X connect 0 0 7 0;
#X connect 3 0 1 0;
#X connect 4 0 14 0;
#X connect 4 1 13 0;
#X connect 5 0 3 1;
#X connect 6 0 4 0;
#X connect 7 0 8 0;
#X connect 7 0 9 0;
#X connect 8 0 11 0;
#X connect 9 0 10 0;
#X connect 10 0 8 1;
#X connect 11 0 12 0;
#X connect 12 0 3 0;
#X connect 13 0 5 0;
#X connect 14 0 15 0;
#X connect 14 1 2 0;
#X connect 15 0 16 0;
#X connect 16 0 2 0;
#X restore 185 519 pd triangle;
#N canvas 0 22 344 453 saw 0;
#X obj 90 62 inlet~;
#X obj 90 380 outlet~;
#X obj 138 344 switch~;
#X obj 90 335 *~;
#X obj 138 83 t f f;
#X obj 165 318 line~;
#X obj 90 134 phasor~;
#X obj 90 266 -~ 1;
#X obj 90 209 *~ 2;
#X obj 138 61 r \$0-basic-osc-saw-on/off;
#X obj 165 296 pack 0 100;
#X obj 138 171 sel 0;
#X obj 138 193 del 100;
#X msg 138 215 0;
#X connect 0 0 6 0;
#X connect 3 0 1 0;
#X connect 4 0 11 0;
#X connect 4 1 10 0;
#X connect 5 0 3 1;
#X connect 6 0 8 0;
#X connect 7 0 3 0;
#X connect 8 0 7 0;
#X connect 9 0 4 0;
#X connect 10 0 5 0;
#X connect 11 0 12 0;
#X connect 11 1 2 0;
#X connect 12 0 13 0;
#X connect 13 0 2 0;
#X restore 278 519 pd saw;
#N canvas 0 22 633 594 pulse 0;
#X obj 164 62 inlet~;
#X obj 164 553 outlet~;
#X obj 212 517 switch~;
#X obj 164 508 *~;
#X obj 212 83 t f f;
#X obj 239 491 line~;
#X obj 164 134 phasor~;
#X obj 164 434 -~ 1;
#X obj 164 332 cos~;
#X obj 164 359 expr~ $v1 < $v2;
#X obj 251 262 * 0.99;
#X obj 251 284 pack 0 50;
#X obj 389 117 inlet~;
#X text 387 96 PWM CV INPUT;
#X obj 251 306 line~;
#X obj 251 330 +~;
#X obj 389 313 *~;
#X obj 404 257 pack 0 50;
#X obj 404 279 line~;
#X obj 251 207 r \$0-basic-osc-pwidth-s;
#X obj 251 240 * 0.00787402;
#X obj 404 235 * 0.00787402;
#X obj 404 206 r \$0-basic-osc-pwm-att-s;
#X obj 212 61 r \$0-basic-osc-pulse-on/off;
#X obj 164 413 *~ 2;
#X obj 239 469 pack 0 100;
#X obj 212 400 sel 0;
#X obj 212 422 del 100;
#X msg 212 444 0;
#X connect 0 0 6 0;
#X connect 3 0 1 0;
#X connect 4 0 26 0;
#X connect 4 1 25 0;
#X connect 5 0 3 1;
#X connect 6 0 8 0;
#X connect 7 0 3 0;
#X connect 8 0 9 0;
#X connect 9 0 24 0;
#X connect 10 0 11 0;
#X connect 11 0 14 0;
#X connect 12 0 16 0;
#X connect 14 0 15 0;
#X connect 15 0 9 1;
#X connect 16 0 15 1;
#X connect 17 0 18 0;
#X connect 18 0 16 1;
#X connect 19 0 20 0;
#X connect 20 0 10 0;
#X connect 21 0 17 0;
#X connect 22 0 21 0;
#X connect 23 0 4 0;
#X connect 24 0 7 0;
#X connect 25 0 5 0;
#X connect 26 0 27 0;
#X connect 26 1 2 0;
#X connect 27 0 28 0;
#X connect 28 0 2 0;
#X restore 350 519 pd pulse;
#X obj 395 272 inlet~ PWM;
#X obj 465 246 inlet~ FM;
#X obj 217 246 inlet~ PITCH;
#N canvas 315 35 593 735 state-saving-multiple-instances 0;
#X obj 137 29 loadbang;
#X obj 184 452 textfile;
#X msg 466 435 rewind;
#X msg 423 435 bang;
#X obj 42 691 textfile;
#X obj 423 396 t b b;
#X obj 43 357 f;
#X obj 56 580 f;
#X obj -16 401 t b b b;
#X msg 119 580 clear;
#X obj 204 217 outlet;
#X text 246 221 INSTANCE NUMBER;
#X obj 165 153 f \$1;
#X obj 165 189 t f f f;
#X obj 138 62 t b b;
#X obj -16 378 bng 15 250 50 0 empty empty empty 17 7 0 10 -262144
-1 -1;
#X obj -16 234 r SAVE-S;
#X obj 43 400 pack f f f f f;
#X obj 184 474 unpack f f f f f;
#X msg 43 438 set \$1 \$2 \$3 \$4 \$5;
#X msg 55 651 write statesave/\$1-basic-osc-ss.txt;
#X msg 184 427 read statesave/\$1-basic-osc-ss.txt;
#X obj 58 254 r \$0-basic-osc-pitch-s;
#X obj 184 627 s \$0-basic-osc-pitch-r;
#X obj 66 277 r \$0-basic-osc-pwidth-s;
#X obj 205 603 s \$0-basic-osc-pwidth-r;
#X obj 80 298 r \$0-basic-osc-pwm-att-s;
#X obj 226 579 s \$0-basic-osc-pwm-att-r;
#X obj 98 323 r \$0-basic-osc-fm-att-s;
#X obj 247 555 s \$0-basic-osc-fm-att-r;
#X obj 118 348 r \$0-basic-osc-wform-s;
#X obj 274 529 s \$0-basic-osc-wform-r;
#X connect 0 0 14 0;
#X connect 1 0 18 0;
#X connect 2 0 1 0;
#X connect 3 0 1 0;
#X connect 5 0 3 0;
#X connect 5 1 2 0;
#X connect 6 0 17 0;
#X connect 7 0 20 0;
#X connect 8 0 7 0;
#X connect 8 1 6 0;
#X connect 8 2 9 0;
#X connect 9 0 4 0;
#X connect 12 0 13 0;
#X connect 13 0 7 1;
#X connect 13 1 21 0;
#X connect 13 2 10 0;
#X connect 14 0 5 0;
#X connect 14 1 12 0;
#X connect 15 0 8 0;
#X connect 16 0 15 0;
#X connect 17 0 19 0;
#X connect 18 0 23 0;
#X connect 18 1 25 0;
#X connect 18 2 27 0;
#X connect 18 3 29 0;
#X connect 18 4 31 0;
#X connect 19 0 4 0;
#X connect 20 0 4 0;
#X connect 21 0 1 0;
#X connect 22 0 6 1;
#X connect 24 0 17 1;
#X connect 26 0 17 2;
#X connect 28 0 17 3;
#X connect 30 0 17 4;
#X restore 316 122 pd state-saving-multiple-instances;
#X obj 316 197 s \$0-instance-num;
#X obj 316 149 makefilename %d;
#X msg 316 174 label \$1;
#N canvas 81 22 1117 745 state-saving-via-preset-manager-module 0;
#X obj 340 227 textfile;
#X msg 719 210 rewind;
#X msg 676 210 bang;
#X obj 106 568 textfile;
#X obj 676 171 t b b;
#X obj 107 234 f;
#X obj 120 457 f;
#X obj 53 352 t b b b;
#X msg 236 499 clear;
#X obj 107 56 delay 5;
#X obj 53 407 delay 10;
#X msg 53 192 bang;
#X obj 53 26 r STORE-S!;
#X obj 340 128 f;
#X obj 313 85 t b b;
#X obj 328 49 t b f;
#X obj 385 146 f \$1;
#X obj 340 173 pack f f;
#X obj 385 96 loadbang;
#X obj 120 487 pack f f;
#X obj 165 440 loadbang;
#X obj 165 462 f \$1;
#X obj 345 665 pack f f;
#X obj 345 689 line;
#X obj 390 640 r preset-manager-morph-s;
#X obj 328 26 r preset-manager-scan;
#X obj 366 570 pack f f;
#X obj 366 594 line;
#X obj 411 545 r preset-manager-morph-s;
#X obj 135 418 r preset-manager-store-slot;
#X obj 384 494 line;
#X obj 429 443 r preset-manager-morph-s;
#X msg 43 669 stop;
#X obj 43 602 r STOP-MORPH!;
#X obj 384 470 pack f f;
#X obj 561 650 pack f f;
#X obj 561 674 line;
#X obj 606 625 r preset-manager-morph-s;
#X msg 106 368 set \$1 \$2 \$3 \$4 \$5;
#X obj 107 301 pack f f f f f;
#X obj 340 249 unpack f f f f f;
#X msg 340 202 read statesave/\$1-\$2-basic-osc-ss.txt;
#X msg 119 528 write statesave/\$1-\$2-basic-osc-ss.txt;
#X obj 123 78 r \$0-basic-osc-pitch-s;
#X obj 345 714 s \$0-basic-osc-pitch-r;
#X obj 136 107 r \$0-basic-osc-pwidth-s;
#X obj 366 616 s \$0-basic-osc-pwidth-r;
#X obj 146 146 r \$0-basic-osc-pwm-att-s;
#X obj 384 517 s \$0-basic-osc-pwm-att-r;
#X obj 417 371 line;
#X obj 462 320 r preset-manager-morph-s;
#X obj 417 347 pack f f;
#X obj 169 173 r \$0-basic-osc-fm-att-s;
#X obj 417 394 s \$0-basic-osc-fm-att-r;
#X obj 183 196 r \$0-basic-osc-wform-s;
#X obj 561 697 s \$0-basic-osc-wform-r;
#X connect 0 0 40 0;
#X connect 1 0 0 0;
#X connect 2 0 0 0;
#X connect 4 0 2 0;
#X connect 4 1 1 0;
#X connect 5 0 39 0;
#X connect 6 0 19 0;
#X connect 7 0 10 0;
#X connect 7 1 9 0;
#X connect 7 2 8 0;
#X connect 8 0 3 0;
#X connect 9 0 5 0;
#X connect 10 0 6 0;
#X connect 11 0 7 0;
#X connect 12 0 11 0;
#X connect 13 0 17 0;
#X connect 14 0 4 0;
#X connect 14 1 13 0;
#X connect 15 0 14 0;
#X connect 15 1 13 1;
#X connect 16 0 17 1;
#X connect 17 0 41 0;
#X connect 18 0 16 0;
#X connect 19 0 42 0;
#X connect 20 0 21 0;
#X connect 21 0 19 1;
#X connect 22 0 23 0;
#X connect 23 0 44 0;
#X connect 24 0 22 1;
#X connect 25 0 15 0;
#X connect 26 0 27 0;
#X connect 27 0 46 0;
#X connect 28 0 26 1;
#X connect 29 0 6 1;
#X connect 30 0 48 0;
#X connect 31 0 34 1;
#X connect 32 0 23 0;
#X connect 32 0 27 0;
#X connect 32 0 30 0;
#X connect 32 0 36 0;
#X connect 33 0 32 0;
#X connect 34 0 30 0;
#X connect 35 0 36 0;
#X connect 36 0 55 0;
#X connect 37 0 35 1;
#X connect 38 0 3 0;
#X connect 39 0 38 0;
#X connect 40 0 22 0;
#X connect 40 1 26 0;
#X connect 40 2 34 0;
#X connect 40 3 51 0;
#X connect 40 4 35 0;
#X connect 41 0 0 0;
#X connect 42 0 3 0;
#X connect 43 0 5 1;
#X connect 45 0 39 1;
#X connect 47 0 39 2;
#X connect 49 0 53 0;
#X connect 50 0 51 1;
#X connect 51 0 49 0;
#X connect 52 0 39 3;
#X connect 54 0 39 4;
#X restore 317 94 pd state-saving-via-preset-manager-module;
#N canvas 297 27 518 295 parameter-nudging-system 0;
#N canvas 0 22 484 497 param-nudge 0;
#X obj 124 234 random;
#X obj 232 335 f;
#X obj 232 368 +;
#X obj 257 166 random 2;
#X obj 124 275 t f f;
#X obj 124 351 t b f;
#X obj 124 297 *;
#X obj 257 188 sel 0 1;
#X msg 257 280 -1;
#X msg 335 280 1;
#X obj 124 149 t b b b;
#X obj 124 123 r NUDGE!;
#X obj 157 193 r NUDGE-RANGE;
#X obj 247 308 inlet;
#X obj 232 397 outlet;
#X connect 0 0 4 0;
#X connect 1 0 2 0;
#X connect 2 0 14 0;
#X connect 3 0 7 0;
#X connect 4 0 6 0;
#X connect 5 0 2 0;
#X connect 5 1 2 1;
#X connect 6 0 5 0;
#X connect 7 0 8 0;
#X connect 7 1 9 0;
#X connect 8 0 6 1;
#X connect 9 0 6 1;
#X connect 10 0 0 0;
#X connect 10 1 1 0;
#X connect 10 2 3 0;
#X connect 11 0 10 0;
#X connect 12 0 0 1;
#X connect 13 0 1 1;
#X restore 23 45 pd param-nudge;
#X obj 23 22 r \$0-basic-osc-pitch-s;
#X obj 23 99 s \$0-basic-osc-pitch-r;
#N canvas 0 22 484 497 param-nudge 0;
#X obj 124 234 random;
#X obj 232 335 f;
#X obj 232 368 +;
#X obj 257 166 random 2;
#X obj 124 275 t f f;
#X obj 124 351 t b f;
#X obj 124 297 *;
#X obj 257 188 sel 0 1;
#X msg 257 280 -1;
#X msg 335 280 1;
#X obj 124 149 t b b b;
#X obj 124 123 r NUDGE!;
#X obj 157 193 r NUDGE-RANGE;
#X obj 247 308 inlet;
#X obj 232 397 outlet;
#X connect 0 0 4 0;
#X connect 1 0 2 0;
#X connect 2 0 14 0;
#X connect 3 0 7 0;
#X connect 4 0 6 0;
#X connect 5 0 2 0;
#X connect 5 1 2 1;
#X connect 6 0 5 0;
#X connect 7 0 8 0;
#X connect 7 1 9 0;
#X connect 8 0 6 1;
#X connect 9 0 6 1;
#X connect 10 0 0 0;
#X connect 10 1 1 0;
#X connect 10 2 3 0;
#X connect 11 0 10 0;
#X connect 12 0 0 1;
#X connect 13 0 1 1;
#X restore 171 45 pd param-nudge;
#X obj 171 22 r \$0-basic-osc-pwidth-s;
#X obj 171 99 s \$0-basic-osc-pwidth-r;
#N canvas 0 22 484 497 param-nudge 0;
#X obj 124 234 random;
#X obj 232 335 f;
#X obj 232 368 +;
#X obj 257 166 random 2;
#X obj 124 275 t f f;
#X obj 124 351 t b f;
#X obj 124 297 *;
#X obj 257 188 sel 0 1;
#X msg 257 280 -1;
#X msg 335 280 1;
#X obj 124 149 t b b b;
#X obj 124 123 r NUDGE!;
#X obj 157 193 r NUDGE-RANGE;
#X obj 247 308 inlet;
#X obj 232 397 outlet;
#X connect 0 0 4 0;
#X connect 1 0 2 0;
#X connect 2 0 14 0;
#X connect 3 0 7 0;
#X connect 4 0 6 0;
#X connect 5 0 2 0;
#X connect 5 1 2 1;
#X connect 6 0 5 0;
#X connect 7 0 8 0;
#X connect 7 1 9 0;
#X connect 8 0 6 1;
#X connect 9 0 6 1;
#X connect 10 0 0 0;
#X connect 10 1 1 0;
#X connect 10 2 3 0;
#X connect 11 0 10 0;
#X connect 12 0 0 1;
#X connect 13 0 1 1;
#X restore 323 45 pd param-nudge;
#X obj 323 22 r \$0-basic-osc-pwm-att-s;
#X obj 323 99 s \$0-basic-osc-pwm-att-r;
#N canvas 0 22 484 497 param-nudge 0;
#X obj 124 234 random;
#X obj 232 335 f;
#X obj 232 368 +;
#X obj 257 166 random 2;
#X obj 124 275 t f f;
#X obj 124 351 t b f;
#X obj 124 297 *;
#X obj 257 188 sel 0 1;
#X msg 257 280 -1;
#X msg 335 280 1;
#X obj 124 149 t b b b;
#X obj 124 123 r NUDGE!;
#X obj 157 193 r NUDGE-RANGE;
#X obj 247 308 inlet;
#X obj 232 397 outlet;
#X connect 0 0 4 0;
#X connect 1 0 2 0;
#X connect 2 0 14 0;
#X connect 3 0 7 0;
#X connect 4 0 6 0;
#X connect 5 0 2 0;
#X connect 5 1 2 1;
#X connect 6 0 5 0;
#X connect 7 0 8 0;
#X connect 7 1 9 0;
#X connect 8 0 6 1;
#X connect 9 0 6 1;
#X connect 10 0 0 0;
#X connect 10 1 1 0;
#X connect 10 2 3 0;
#X connect 11 0 10 0;
#X connect 12 0 0 1;
#X connect 13 0 1 1;
#X restore 21 156 pd param-nudge;
#X obj 21 133 r \$0-basic-osc-fm-att-s;
#X obj 21 209 s \$0-basic-osc-fm-att-r;
#X obj 21 178 clip 0 127;
#X obj 23 67 clip 0 127;
#X obj 171 67 clip 0 127;
#X obj 323 67 clip 0 127;
#X connect 0 0 13 0;
#X connect 1 0 0 0;
#X connect 3 0 14 0;
#X connect 4 0 3 0;
#X connect 6 0 15 0;
#X connect 7 0 6 0;
#X connect 9 0 12 0;
#X connect 10 0 9 0;
#X connect 12 0 11 0;
#X connect 13 0 2 0;
#X connect 14 0 5 0;
#X connect 15 0 8 0;
#X restore 318 66 pd parameter-nudging-system;
#X obj 93 318 clip 0 100;
#X connect 0 0 81 0;
#X connect 0 1 3 0;
#X connect 1 0 5 0;
#X connect 2 0 16 0;
#X connect 5 0 2 0;
#X connect 6 0 5 1;
#X connect 7 0 15 0;
#X connect 8 0 9 0;
#X connect 9 0 7 1;
#X connect 15 0 16 1;
#X connect 16 0 30 0;
#X connect 16 0 69 0;
#X connect 16 0 70 0;
#X connect 16 0 71 0;
#X connect 19 0 1 0;
#X connect 21 0 0 0;
#X connect 24 0 25 0;
#X connect 25 0 26 0;
#X connect 26 0 8 0;
#X connect 28 0 29 0;
#X connect 29 0 32 0;
#X connect 29 1 40 0;
#X connect 29 2 53 0;
#X connect 29 3 61 0;
#X connect 30 0 4 0;
#X connect 31 0 42 0;
#X connect 32 0 31 0;
#X connect 32 1 38 0;
#X connect 36 0 37 0;
#X connect 37 0 35 0;
#X connect 38 0 36 0;
#X connect 40 0 41 0;
#X connect 40 1 52 0;
#X connect 41 0 47 0;
#X connect 42 0 43 0;
#X connect 42 1 44 0;
#X connect 42 2 45 0;
#X connect 42 3 46 0;
#X connect 47 0 48 0;
#X connect 47 1 49 0;
#X connect 47 2 50 0;
#X connect 47 3 51 0;
#X connect 52 0 36 0;
#X connect 53 0 59 0;
#X connect 53 1 60 0;
#X connect 54 0 55 0;
#X connect 54 1 56 0;
#X connect 54 2 57 0;
#X connect 54 3 58 0;
#X connect 59 0 54 0;
#X connect 60 0 36 0;
#X connect 61 0 67 0;
#X connect 61 1 68 0;
#X connect 62 0 63 0;
#X connect 62 1 64 0;
#X connect 62 2 65 0;
#X connect 62 3 66 0;
#X connect 67 0 62 0;
#X connect 68 0 36 0;
#X connect 69 0 4 0;
#X connect 70 0 4 0;
#X connect 71 0 4 0;
#X connect 72 0 71 1;
#X connect 73 0 7 0;
#X connect 74 0 6 0;
#X connect 75 0 77 0;
#X connect 77 0 78 0;
#X connect 78 0 76 0;
#X connect 81 0 19 0;
#X coords 0 -1 1 1 200 112 2 100 100;
