#N canvas 0 22 1129 665 10;
#X obj 294 266 inlet~;
#X obj 294 303 vcf~ 1;
#X obj 294 364 vcf~ 1;
#X obj 294 434 vcf~ 1;
#X obj 294 499 vcf~ 1;
#X obj 294 621 outlet~;
#X obj 106 120 hsl 128 15 1.27 127 1 1 \$0-bandpass-cutoff-s \$0-bandpass-cutoff-r
CUTOFF 133 7 0 10 -262144 -1 -1 1700 1;
#X obj 105 109 cnv 5 5 5 empty empty IN 0 0 0 8 -262144 -66577 0;
#X obj 541 281 +~;
#X obj 541 163 / 127;
#X obj 541 236 sig~;
#X obj 541 258 lop~ 10;
#X obj 541 207 + 100;
#X obj 106 135 hsl 128 15 1.27 127 1 1 \$0-bandpass-res-s \$0-bandpass-res-r
RES. 133 7 0 10 -262144 -1 -1 8500 1;
#X obj 120 265 / 127;
#X obj 120 287 * 9;
#X obj 120 309 + 1;
#X obj 120 331 pack 0 50;
#X obj 120 356 line;
#X obj 294 564 min~ 1;
#X obj 294 586 max~ -1;
#X obj 715 207 inlet~;
#X obj 715 229 *~ 5000;
#X obj 541 185 * 5000;
#X obj 106 165 hsl 128 15 0 127 0 1 \$0-bandpass-fm-/+-s \$0-bandpass-fm-/+-r
FM-/+ 133 7 0 10 -150893 -1 -1 12700 1;
#X obj 783 137 / 127;
#X obj 783 159 * 2;
#X obj 783 181 - 1;
#X obj 783 225 pack 0 50;
#X obj 783 247 line~;
#X floatatom 103 182 5 0 0 0 - - -, f 5;
#X obj 715 264 *~;
#X text 741 268 FM-/+ ATTENUEVERTER;
#X obj 783 203 t f f;
#X obj 253 109 cnv 5 5 5 empty empty FREQ 0 0 0 8 -262144 -96927 0
;
#X obj 180 112 cnv 5 5 5 empty empty FILTER 0 0 0 12 -262144 -66577
0;
#X obj 121 112 cnv 5 5 5 empty empty BANDPASS 0 0 0 12 -262144 -66577
0;
#X obj 374 253 t f f f f;
#X obj 106 150 hsl 128 15 1.27 127 1 1 \$0-bandpass-drive-s \$0-bandpass-drive-r
DRIVE 133 7 0 10 -262144 -1 -1 12700 1;
#X obj 228 437 / 127;
#X obj 228 459 * 3;
#X obj 228 481 + 1;
#X obj 228 503 pack 0 50;
#X obj 228 525 line~;
#X obj 294 542 *~;
#N canvas 166 22 593 735 state-saving-multiple-instances 0;
#X obj 138 28 loadbang;
#X obj 184 481 textfile;
#X obj 138 61 t b b;
#X obj 184 503 unpack f f f f;
#X msg 441 464 rewind;
#X msg 398 464 bang;
#X obj 42 691 textfile;
#X obj 398 425 t b b;
#X obj 43 400 pack f f f f;
#X obj 43 357 f;
#X obj 56 580 f;
#X obj -19 403 t b b b;
#X msg 119 580 clear;
#X msg 43 438 set \$1 \$2 \$3 \$4;
#X obj 204 217 outlet;
#X text 200 237 INSTANCE NUMBER;
#X obj 165 152 f \$1;
#X obj 165 188 t f f f;
#X obj -19 378 bng 15 250 50 0 empty empty empty 17 7 0 10 -262144
-1 -1;
#X obj -19 274 r SAVE-S;
#X msg 55 651 write statesave/\$1-bandpass-ss.txt;
#X msg 184 456 read statesave/\$1-bandpass-ss.txt;
#X obj 58 309 r \$0-bandpass-cutoff-s;
#X obj 184 617 s \$0-bandpass-cutoff-r;
#X obj 66 332 r \$0-bandpass-res-s;
#X obj 211 594 s \$0-bandpass-res-r;
#X obj 89 353 r \$0-bandpass-drive-s;
#X obj 112 374 r \$0-bandpass-fm-/+-s;
#X obj 265 538 s \$0-bandpass-fm-/+-r;
#X obj 238 568 s \$0-bandpass-drive-r;
#X connect 0 0 2 0;
#X connect 1 0 3 0;
#X connect 2 0 7 0;
#X connect 2 1 16 0;
#X connect 3 0 23 0;
#X connect 3 1 25 0;
#X connect 3 2 29 0;
#X connect 3 3 28 0;
#X connect 4 0 1 0;
#X connect 5 0 1 0;
#X connect 7 0 5 0;
#X connect 7 1 4 0;
#X connect 8 0 13 0;
#X connect 9 0 8 0;
#X connect 10 0 20 0;
#X connect 11 0 10 0;
#X connect 11 1 9 0;
#X connect 11 2 12 0;
#X connect 12 0 6 0;
#X connect 13 0 6 0;
#X connect 16 0 17 0;
#X connect 17 0 10 1;
#X connect 17 1 21 0;
#X connect 17 2 14 0;
#X connect 18 0 11 0;
#X connect 19 0 18 0;
#X connect 20 0 6 0;
#X connect 21 0 1 0;
#X connect 22 0 9 1;
#X connect 24 0 8 1;
#X connect 26 0 8 2;
#X connect 27 0 8 3;
#X restore 386 64 pd state-saving-multiple-instances;
#X obj 386 154 s \$0-instance-num;
#X obj 386 106 makefilename %d;
#X obj 227 112 cnv 5 5 5 empty \$0-instance-num 1 0 0 0 12 -262144
-66577 0;
#X msg 386 131 label \$1;
#N canvas 81 22 1117 745 state-saving-via-preset-manager-module 0;
#X obj 477 349 textfile;
#X msg 755 332 rewind;
#X msg 712 332 bang;
#X obj 243 690 textfile;
#X obj 712 293 t b b;
#X obj 244 356 f;
#X obj 257 579 f;
#X obj 190 474 t b b b;
#X msg 373 621 clear;
#X obj 244 180 delay 5;
#X obj 190 529 delay 10;
#X msg 190 314 bang;
#X obj 190 155 r STORE-S!;
#X obj 477 250 f;
#X obj 450 207 t b b;
#X obj 465 171 t b f;
#X obj 522 268 f \$1;
#X obj 477 295 pack f f;
#X obj 522 218 loadbang;
#X obj 257 609 pack f f;
#X obj 302 562 loadbang;
#X obj 302 584 f \$1;
#X obj 477 664 pack f f;
#X obj 477 688 line;
#X obj 522 639 r preset-manager-morph-s;
#X obj 465 148 r preset-manager-scan;
#X obj 504 568 pack f f;
#X obj 504 592 line;
#X obj 549 543 r preset-manager-morph-s;
#X obj 272 540 r preset-manager-store-slot;
#X msg 243 490 set \$1 \$2 \$3 \$4;
#X obj 244 423 pack f f f f;
#X obj 531 471 pack f f;
#X obj 531 495 line;
#X obj 575 432 r preset-manager-morph-s;
#X obj 477 371 unpack f f f f;
#X obj 731 388 pack f f;
#X obj 731 412 line;
#X obj 776 363 r preset-manager-morph-s;
#X msg 932 671 stop;
#X obj 932 636 r STOP-MORPH!;
#X msg 256 650 write statesave/\$1-\$2-bp-filter-ss.txt;
#X msg 477 324 read statesave/\$1-\$2-bp-filter-ss.txt;
#X obj 259 308 r \$0-bandpass-cutoff-s;
#X obj 477 713 s \$0-bandpass-cutoff-r;
#X obj 267 330 r \$0-bandpass-res-s;
#X obj 504 615 s \$0-bandpass-res-r;
#X obj 290 352 r \$0-bandpass-drive-s;
#X obj 531 518 s \$0-bandpass-drive-r;
#X obj 313 374 r \$0-bandpass-fm-/+-s;
#X obj 731 435 s \$0-bandpass-fm-/+-r;
#X connect 0 0 35 0;
#X connect 1 0 0 0;
#X connect 2 0 0 0;
#X connect 4 0 2 0;
#X connect 4 1 1 0;
#X connect 5 0 31 0;
#X connect 6 0 19 0;
#X connect 7 0 10 0;
#X connect 7 1 9 0;
#X connect 7 2 8 0;
#X connect 8 0 3 0;
#X connect 9 0 5 0;
#X connect 10 0 6 0;
#X connect 11 0 7 0;
#X connect 12 0 11 0;
#X connect 13 0 17 0;
#X connect 14 0 4 0;
#X connect 14 1 13 0;
#X connect 15 0 14 0;
#X connect 15 1 13 1;
#X connect 16 0 17 1;
#X connect 17 0 42 0;
#X connect 18 0 16 0;
#X connect 19 0 41 0;
#X connect 20 0 21 0;
#X connect 21 0 19 1;
#X connect 22 0 23 0;
#X connect 23 0 44 0;
#X connect 24 0 22 1;
#X connect 25 0 15 0;
#X connect 26 0 27 0;
#X connect 27 0 46 0;
#X connect 28 0 26 1;
#X connect 29 0 6 1;
#X connect 30 0 3 0;
#X connect 31 0 30 0;
#X connect 32 0 33 0;
#X connect 33 0 48 0;
#X connect 34 0 32 1;
#X connect 35 0 22 0;
#X connect 35 1 26 0;
#X connect 35 2 32 0;
#X connect 35 3 36 0;
#X connect 36 0 37 0;
#X connect 37 0 50 0;
#X connect 38 0 36 1;
#X connect 39 0 23 0;
#X connect 39 0 27 0;
#X connect 39 0 33 0;
#X connect 39 0 37 0;
#X connect 40 0 39 0;
#X connect 41 0 3 0;
#X connect 42 0 0 0;
#X connect 43 0 5 1;
#X connect 45 0 31 1;
#X connect 47 0 31 2;
#X connect 49 0 31 3;
#X restore 388 41 pd state-saving-via-preset-manager-module;
#X connect 0 0 1 0;
#X connect 1 0 2 0;
#X connect 2 0 3 0;
#X connect 3 0 4 0;
#X connect 4 0 44 0;
#X connect 6 0 9 0;
#X connect 8 0 1 1;
#X connect 8 0 2 1;
#X connect 8 0 3 1;
#X connect 8 0 4 1;
#X connect 9 0 23 0;
#X connect 10 0 11 0;
#X connect 11 0 8 0;
#X connect 12 0 10 0;
#X connect 13 0 14 0;
#X connect 14 0 15 0;
#X connect 15 0 16 0;
#X connect 16 0 17 0;
#X connect 17 0 18 0;
#X connect 18 0 37 0;
#X connect 19 0 20 0;
#X connect 20 0 5 0;
#X connect 21 0 22 0;
#X connect 22 0 31 0;
#X connect 23 0 12 0;
#X connect 24 0 25 0;
#X connect 25 0 26 0;
#X connect 26 0 27 0;
#X connect 27 0 33 0;
#X connect 28 0 29 0;
#X connect 29 0 31 1;
#X connect 31 0 8 1;
#X connect 33 0 28 0;
#X connect 33 1 30 0;
#X connect 37 0 1 2;
#X connect 37 1 2 2;
#X connect 37 2 3 2;
#X connect 37 3 4 2;
#X connect 38 0 39 0;
#X connect 39 0 40 0;
#X connect 40 0 41 0;
#X connect 41 0 42 0;
#X connect 42 0 43 0;
#X connect 43 0 44 1;
#X connect 44 0 19 0;
#X connect 45 0 47 0;
#X connect 47 0 49 0;
#X connect 49 0 46 0;
#X coords 0 -1 1 1 175 100 2 100 100;
