#N canvas 163 22 1248 703 10;
#N canvas 0 22 450 278 (subpatch) 0;
#X array \$0-mega-seq 16 float 3;
#A 0 0.251969 0.88189 0.84252 0.425197 0.551181 0.433071 0.700787 0.755906
0.661417 0.330709 0.488189 0.322835 0.385827 0.834646 0.622047 0.874016
;
#X coords 0 1 16 0 240 75 1 0 0;
#X restore 108 149 graph;
#N canvas 429 22 897 716 counter 0;
#X obj 24 201 f;
#X floatatom 24 380 5 0 0 0 - - -, f 5;
#X obj 51 274 s \$0-ms-counter1;
#X obj 24 249 t f f;
#X msg 24 138 bang;
#X obj 24 543 +;
#X obj 66 526 t f f;
#X obj 93 552 s \$0-ms-xpose-p1-gui-r;
#X obj 189 488 s \$0-ms-scale-p1-gui-r;
#X obj 24 17 inlet;
#X obj 24 299 tabread \$0-mega-seq;
#N canvas 229 22 289 201 xpose-mega-seq 0;
#X obj 86 38 r \$0-ms-xpose-p1-s;
#X obj 86 60 / 127;
#X obj 86 151 outlet;
#X obj 86 82 * 48;
#X obj 86 104 - 24;
#X obj 86 126 i;
#X connect 0 0 1 0;
#X connect 1 0 3 0;
#X connect 3 0 4 0;
#X connect 4 0 5 0;
#X connect 5 0 2 0;
#X restore 66 504 pd xpose-mega-seq;
#X obj 189 343 r \$0-ms-scale-p1-s;
#X obj 24 357 * 28;
#X obj 24 596 sig~;
#X obj 24 625 outlet~;
#X obj 24 422 i;
#X obj 24 463 tabread ionian;
#N canvas 120 22 1142 609 choose-scale 0;
#X obj 396 470 outlet;
#X obj 439 53 / 127;
#X obj 439 119 i;
#X obj 439 74 * 13;
#X obj 439 178 sel 0 1 2 3 4 5 6 7 8 9 10 11 12 13;
#X obj 439 31 inlet;
#X msg -1 273 set ionian;
#X msg 92 274 set dorian;
#X msg 177 276 set phrygian;
#X msg 277 277 set lydian;
#X msg 364 278 set aeolian;
#X msg 442 307 set whole;
#X msg 537 311 set chromatic;
#X msg 650 316 set harm-major;
#X msg 677 365 set lyd-minor;
#X msg 764 409 set ancient;
#X msg 902 423 set pelog;
#X msg 940 380 set tetra;
#X msg 968 309 set indian;
#X msg 1035 260 set slendro;
#X connect 1 0 3 0;
#X connect 2 0 4 0;
#X connect 3 0 2 0;
#X connect 4 0 6 0;
#X connect 4 1 7 0;
#X connect 4 2 8 0;
#X connect 4 3 9 0;
#X connect 4 4 10 0;
#X connect 4 5 11 0;
#X connect 4 6 12 0;
#X connect 4 7 13 0;
#X connect 4 8 14 0;
#X connect 4 9 15 0;
#X connect 4 10 17 0;
#X connect 4 11 18 0;
#X connect 4 12 16 0;
#X connect 4 13 19 0;
#X connect 5 0 1 0;
#X connect 6 0 0 0;
#X connect 7 0 0 0;
#X connect 8 0 0 0;
#X connect 9 0 0 0;
#X connect 10 0 0 0;
#X connect 11 0 0 0;
#X connect 12 0 0 0;
#X connect 13 0 0 0;
#X connect 14 0 0 0;
#X connect 15 0 0 0;
#X connect 16 0 0 0;
#X connect 17 0 0 0;
#X connect 18 0 0 0;
#X connect 19 0 0 0;
#X restore 189 422 pd choose-scale;
#X obj 189 374 t f f;
#N canvas 120 22 1142 609 choose-scale 0;
#X obj 438 475 outlet;
#X obj 81 37 / 127;
#X obj 81 103 i;
#X obj 81 58 * 13;
#X obj 81 15 inlet;
#X msg 80 566 set \$1-ionian;
#X obj 24 150 loadbang;
#X msg 90 464 set \$1-dorian;
#X msg 110 340 set \$1-phrygian;
#X msg 125 238 set \$1-lydian;
#X msg 220 239 set \$1-aeolian;
#X msg 317 239 set \$1-whole;
#X msg 404 236 set \$1-chromatic;
#X msg 512 234 set \$1-harm-major;
#X msg 559 311 set \$1-lyd-minor;
#X msg 588 363 set \$1-ancient;
#X msg 827 283 set \$1-pelog;
#X msg 642 445 set \$1-tetra;
#X msg 817 455 set \$1-indian;
#X msg 989 300 set \$1-slendro;
#X obj 24 171 f \$0;
#X obj 81 125 sel 0 1 2 3 4 5 6 7 8 9 10 11 12 13;
#X obj 80 536 f;
#X obj 90 435 f;
#X obj 110 318 f;
#X obj 125 210 f;
#X obj 24 193 t f f f f;
#X obj 216 45 loadbang;
#X obj 216 66 f \$0;
#X obj 216 88 t f f f f;
#X obj 220 215 f;
#X obj 317 213 f;
#X obj 404 214 f;
#X obj 512 210 f;
#X obj 559 285 f;
#X obj 589 339 f;
#X obj 661 404 f;
#X obj 807 412 f;
#X obj 552 51 loadbang;
#X obj 552 72 f \$0;
#X obj 830 246 f;
#X obj 1000 257 f;
#X obj 552 94 t f f f f f f;
#X connect 1 0 3 0;
#X connect 2 0 21 0;
#X connect 3 0 2 0;
#X connect 4 0 1 0;
#X connect 5 0 0 0;
#X connect 6 0 20 0;
#X connect 7 0 0 0;
#X connect 8 0 0 0;
#X connect 9 0 0 0;
#X connect 10 0 0 0;
#X connect 11 0 0 0;
#X connect 12 0 0 0;
#X connect 13 0 0 0;
#X connect 14 0 0 0;
#X connect 15 0 0 0;
#X connect 16 0 0 0;
#X connect 17 0 0 0;
#X connect 18 0 0 0;
#X connect 19 0 0 0;
#X connect 20 0 26 0;
#X connect 21 0 22 0;
#X connect 21 1 23 0;
#X connect 21 2 24 0;
#X connect 21 3 25 0;
#X connect 21 4 30 0;
#X connect 21 5 31 0;
#X connect 21 6 32 0;
#X connect 21 7 33 0;
#X connect 21 8 34 0;
#X connect 21 9 35 0;
#X connect 21 10 36 0;
#X connect 21 11 37 0;
#X connect 21 12 40 0;
#X connect 21 13 41 0;
#X connect 22 0 5 0;
#X connect 23 0 7 0;
#X connect 24 0 8 0;
#X connect 25 0 9 0;
#X connect 26 0 22 1;
#X connect 26 1 23 1;
#X connect 26 2 24 1;
#X connect 26 3 25 1;
#X connect 27 0 28 0;
#X connect 28 0 29 0;
#X connect 29 0 30 1;
#X connect 29 1 31 1;
#X connect 29 2 32 1;
#X connect 29 3 33 1;
#X connect 30 0 10 0;
#X connect 31 0 11 0;
#X connect 32 0 12 0;
#X connect 33 0 13 0;
#X connect 34 0 14 0;
#X connect 35 0 15 0;
#X connect 36 0 17 0;
#X connect 37 0 18 0;
#X connect 38 0 39 0;
#X connect 39 0 42 0;
#X connect 40 0 16 0;
#X connect 41 0 19 0;
#X connect 42 0 34 1;
#X connect 42 1 35 1;
#X connect 42 2 36 1;
#X connect 42 3 37 1;
#X connect 42 4 40 1;
#X connect 42 5 41 1;
#X restore 216 446 pd choose-scale;
#X obj 24 565 / 127;
#X obj 24 223 % 16;
#X obj 56 201 + 1;
#X obj 66 114 r \$0-ms-reset-s;
#X msg 66 136 0;
#X obj 286 626 sig~;
#X obj 286 648 outlet~;
#X obj 24 399 t f f;
#X obj 286 573 +;
#N canvas 229 22 289 201 xpose-mega-seq 0;
#X obj 86 38 r \$0-ms-xpose-p1-s;
#X obj 86 60 / 127;
#X obj 86 151 outlet;
#X obj 86 82 * 48;
#X obj 86 104 - 24;
#X obj 86 126 i;
#X connect 0 0 1 0;
#X connect 1 0 3 0;
#X connect 3 0 4 0;
#X connect 4 0 5 0;
#X connect 5 0 2 0;
#X restore 340 534 pd xpose-mega-seq;
#X text 339 651 UN-QUANTIZED OUT;
#X text 79 627 QUANTIZED PITCH OUT;
#X obj 285 604 / 28;
#X connect 0 0 22 0;
#X connect 0 0 23 0;
#X connect 1 0 28 0;
#X connect 3 0 10 0;
#X connect 3 1 2 0;
#X connect 4 0 0 0;
#X connect 5 0 21 0;
#X connect 6 0 5 1;
#X connect 6 1 7 0;
#X connect 9 0 4 0;
#X connect 10 0 13 0;
#X connect 11 0 6 0;
#X connect 12 0 19 0;
#X connect 13 0 1 0;
#X connect 14 0 15 0;
#X connect 16 0 17 0;
#X connect 17 0 5 0;
#X connect 18 0 8 0;
#X connect 19 0 18 0;
#X connect 19 1 20 0;
#X connect 20 0 17 0;
#X connect 21 0 14 0;
#X connect 22 0 3 0;
#X connect 23 0 0 1;
#X connect 24 0 25 0;
#X connect 25 0 0 0;
#X connect 26 0 27 0;
#X connect 28 0 16 0;
#X connect 28 1 29 0;
#X connect 29 0 33 0;
#X connect 30 0 29 1;
#X connect 33 0 26 0;
#X restore 517 172 pd counter;
#X obj 123 224 tgl 15 1 \$0-ms-p1-t1-s \$0-ms-p1-t1-r empty 0 -20 0
10 -262144 -1 -1 0 1;
#X obj 108 224 tgl 15 1 \$0-ms-p1-t0-s \$0-ms-p1-t0-r RANDOM-STEP 0
25 0 10 -262144 -1 -1 0 1;
#X obj 153 224 tgl 15 1 \$0-ms-p1-t3-s \$0-ms-p1-t3-r empty 17 7 0
10 -262144 -1 -1 0 1;
#X obj 138 224 tgl 15 1 \$0-ms-p1-t2-s \$0-ms-p1-t2-r empty 17 7 0
10 -262144 -1 -1 0 1;
#X obj 183 224 tgl 15 1 \$0-ms-p1-t5-s \$0-ms-p1-t5-r empty 17 7 0
10 -262144 -1 -1 0 1;
#X obj 168 224 tgl 15 1 \$0-ms-p1-t4-s \$0-ms-p1-t4-r empty 17 7 0
10 -262144 -1 -1 0 1;
#X obj 213 224 tgl 15 1 \$0-ms-p1-t7-s \$0-ms-p1-t7-r empty 17 7 0
10 -262144 -1 -1 0 1;
#X obj 198 224 tgl 15 1 \$0-ms-p1-t6-s \$0-ms-p1-t6-r empty 17 7 0
10 -262144 -1 -1 0 1;
#X obj 243 224 tgl 15 1 \$0-ms-p1-t9-s \$0-ms-p1-t9-r empty 17 7 0
10 -262144 -1 -1 0 1;
#X obj 228 224 tgl 15 1 \$0-ms-p1-t8-s \$0-ms-p1-t8-r empty 17 7 0
10 -262144 -1 -1 0 1;
#X obj 273 224 tgl 15 1 \$0-ms-p1-t11-s \$0-ms-p1-t11-r empty 17 7
0 10 -262144 -1 -1 0 1;
#X obj 258 224 tgl 15 1 \$0-ms-p1-t10-s \$0-ms-p1-t10-r empty 17 7
0 10 -262144 -1 -1 0 1;
#X obj 303 224 tgl 15 1 \$0-ms-p1-t13-s \$0-ms-p1-t13-r empty 17 7
0 10 -262144 -1 -1 0 1;
#X obj 288 224 tgl 15 1 \$0-ms-p1-t12-s \$0-ms-p1-t12-r empty 17 7
0 10 -262144 -1 -1 0 1;
#X obj 333 224 tgl 15 1 \$0-ms-p1-t15-s \$0-ms-p1-t15-r empty 20 8
0 10 -262144 -1 -1 0 1;
#X obj 318 224 tgl 15 1 \$0-ms-p1-t14-s \$0-ms-p1-t14-r empty 17 7
0 10 -262144 -1 -1 0 1;
#X obj 288 294 bng 15 250 50 0 \$0-ms-right-bang1-s \$0-ms-right-bang1-r
RESET-TOGGLES 20 8 0 10 -262144 -226533 -1;
#X obj 288 275 bng 15 250 50 0 \$0-ms-rdm-bang-s \$0-ms-rdm-bang-r
RDM-PATTERN 20 8 0 10 -262144 -226533 -1;
#X floatatom 108 287 5 0 0 1 XPOSE #0-ms-xpose-p1-gui-r -, f 5;
#X symbolatom 288 258 10 0 0 0 - #0-ms-scale-p1-gui-r -, f 10;
#X obj 111 258 hsl 128 15 0 127 0 1 \$0-ms-scale-p1-s \$0-ms-scale-p1-r
SCALE 133 7 0 10 -262144 -1 -1 0 1;
#X obj 111 273 hsl 128 15 0 127 0 1 \$0-ms-xpose-p1-s \$0-ms-xpose-p1-r
XPOSE 133 7 0 10 -150893 -1 -1 0 1;
#N canvas 0 22 1204 721 scales-tables 0;
#X obj 11 17 loadbang;
#X obj 10 156 loadbang;
#X obj 15 269 loadbang;
#X obj 17 383 loadbang;
#X obj 18 503 loadbang;
#X obj 427 3 loadbang;
#X obj 429 98 loadbang;
#X obj 430 197 loadbang;
#X obj 431 294 loadbang;
#X obj 430 421 loadbang;
#X obj 20 598 loadbang;
#X obj 433 534 loadbang;
#X obj 822 12 loadbang;
#X obj 823 149 loadbang;
#X obj 818 293 loadbang;
#X obj 11 131 table \$0-ionian;
#X obj 8 248 table \$0-aeolian;
#X obj 16 361 table \$0-dorian;
#X obj 17 479 table \$0-phrygian;
#X obj 18 692 table \$0-lyd-minor;
#X obj 459 24 table \$0-chromatic;
#X obj 462 119 table \$0-ancient;
#X obj 464 218 table \$0-tetra;
#X obj 466 315 table \$0-indian;
#X obj 468 441 table \$0-siga;
#X obj 433 653 table \$0-harm-major;
#X obj 864 35 table \$0-pelog;
#X obj 823 267 table \$0-slendro;
#X obj 817 395 table \$0-whole;
#X msg 11 81 \; \$1-ionian 0 0 2 4 5 7 9 11 12 14 16 17 19 21 23 24
26 28 29 31 33 35 36 38 40 41 43 45 47 48;
#X msg 10 201 \; \$1-aeolian 0 0 2 3 5 7 8 10 12 14 15 17 19 20 22
24 26 27 29 31 32 34 36 38 39 41 43 44 46 48;
#X msg 16 312 \; \$1-dorian 0 0 2 3 5 7 9 10 12 14 15 17 19 21 22 24
26 27 29 31 33 34 36 38 39 41 43 45 46 48;
#X msg 17 432 \; \$1-phrygian 0 0 1 3 5 7 8 10 12 13 15 17 19 20 22
24 25 27 29 31 32 34 36 37 39 41 43 44 46 48;
#X msg 18 549 \; \$1-lydian 0 0 2 4 6 7 9 11 12 14 16 18 19 21 23 24
26 28 30 31 33 35 36 38 40 42 43 45 47 48;
#X msg 19 643 \; \$1-lyd-minor 0 0 2 3 6 7 9 11 12 14 15 18 19 21 23
24 26 27 30 31 33 35 36 38 39 42 43 45 47 48;
#X msg 427 50 \; \$1-chromatic 0 0 1 2 3 4 5 6 7 8 9 10 11 12 13 14
15 16 17 18 19 20 21 22 23 24 25 26 27 28;
#X msg 428 151 \; \$1-ancient 0 0 0.5 1 5 7 7.5 8 12 12.5 13 17 19
19.5 20 24 24.5 25 29 31 31.5 32 36 36.5 37 41 43 43.5 44 48;
#X msg 430 248 \; \$1-tetra 0 0 1 1.75 2 3 3.75 4 5 12 13 13.75 14
15 15.75 16 17 24 25 25.75 26 27 27.75 28 29 36 37 37.75 38 39;
#X msg 431 350 \; \$1-indian 0 0 0.9 1.14 1.8 2.04 2.94 3.18 3.84 4.08
4.9 5.22 5.88 6.12 7.02 7.92 8.16 8.82 9.06 9.96 10.2 10.86 11.1 12
12.9 13.14 13.8 14.04 14.94 15.18;
#X msg 430 468 \; \$1-siga 0 0 1.5 3.5 5.5 7 8.5 10.5 12 13.5 15.5
17.5 19 20.5 22.5 24 25.5 27.5 29.5 31 32.5 34.5 36 37.5 39.5 41.5
43 44.5 46.5 48.5;
#X msg 433 601 \; \$1-harm-major 0 0 2 4 5 7 8 11 12 14 16 17 19 20
23 24 26 28 29 31 32 35 36 38 40 41 43 44 47 48;
#X msg 822 73 \; \$1-pelog 0 0 1.5 2.5 3.5 7 8 10.5 12 13.5 14.5 15.5
19 20 22.5 24 25.5 26.5 27.5 31 32 34.5 36 37.5 38.5 39.5 42.5 43.5
45 46.5;
#X msg 823 218 \; \$1-slendro 0 0 2.5 5 7 9.5 12 14.5 17 19 21.5 24
26.5 29 31 33.5 36 38.5 41 43 45.5 47 49.5 52 54 56.5 59 61.5 64 66.5
;
#X msg 818 346 \; \$1-whole 0 0 2 4 6 8 10 12 14 16 18 20 22 24 26
28 30 32 34 36 38 40 42 44 46 48 50 52 54 56;
#X obj 11 39 f \$0;
#X obj 10 178 f \$0;
#X obj 15 291 f \$0;
#X obj 17 405 f \$0;
#X obj 18 525 f \$0;
#X obj 20 620 f \$0;
#X obj 427 25 f \$0;
#X obj 429 120 f \$0;
#X obj 430 219 f \$0;
#X obj 431 316 f \$0;
#X obj 430 443 f \$0;
#X obj 433 556 f \$0;
#X obj 822 34 f \$0;
#X obj 823 171 f \$0;
#X obj 818 315 f \$0;
#X obj 49 524 table \$0-lydian;
#X connect 0 0 44 0;
#X connect 1 0 45 0;
#X connect 2 0 46 0;
#X connect 3 0 47 0;
#X connect 4 0 48 0;
#X connect 5 0 50 0;
#X connect 6 0 51 0;
#X connect 7 0 52 0;
#X connect 8 0 53 0;
#X connect 9 0 54 0;
#X connect 10 0 49 0;
#X connect 11 0 55 0;
#X connect 12 0 56 0;
#X connect 13 0 57 0;
#X connect 14 0 58 0;
#X connect 44 0 29 0;
#X connect 45 0 30 0;
#X connect 46 0 31 0;
#X connect 47 0 32 0;
#X connect 48 0 33 0;
#X connect 49 0 34 0;
#X connect 50 0 35 0;
#X connect 51 0 36 0;
#X connect 52 0 37 0;
#X connect 53 0 38 0;
#X connect 54 0 39 0;
#X connect 55 0 40 0;
#X connect 56 0 41 0;
#X connect 57 0 42 0;
#X connect 58 0 43 0;
#X restore 107 355 pd scales-tables;
#X text 582 167 BANG inlet and sig~ pitch outlet;
#N canvas 0 22 390 498 reset-all-toggles 0;
#X obj 55 21 r \$0-ms-right-bang1-s;
#X obj 55 467 s \$0-ms-p1-t0-r;
#X obj 68 444 s \$0-ms-p1-t1-r;
#X obj 82 421 s \$0-ms-p1-t2-r;
#X obj 94 399 s \$0-ms-p1-t3-r;
#X obj 108 378 s \$0-ms-p1-t4-r;
#X obj 121 355 s \$0-ms-p1-t5-r;
#X obj 134 331 s \$0-ms-p1-t6-r;
#X obj 146 307 s \$0-ms-p1-t7-r;
#X obj 159 285 s \$0-ms-p1-t8-r;
#X obj 173 262 s \$0-ms-p1-t9-r;
#X obj 185 239 s \$0-ms-p1-t10-r;
#X obj 198 214 s \$0-ms-p1-t11-r;
#X obj 211 189 s \$0-ms-p1-t12-r;
#X obj 224 164 s \$0-ms-p1-t13-r;
#X obj 237 139 s \$0-ms-p1-t14-r;
#X obj 250 115 s \$0-ms-p1-t15-r;
#X obj 55 87 t f f f f f f f f f f f f f f f f;
#X msg 55 43 0;
#X connect 0 0 18 0;
#X connect 17 0 1 0;
#X connect 17 1 2 0;
#X connect 17 2 3 0;
#X connect 17 3 4 0;
#X connect 17 4 5 0;
#X connect 17 5 6 0;
#X connect 17 6 7 0;
#X connect 17 7 8 0;
#X connect 17 8 9 0;
#X connect 17 9 10 0;
#X connect 17 10 11 0;
#X connect 17 11 12 0;
#X connect 17 12 13 0;
#X connect 17 13 14 0;
#X connect 17 14 15 0;
#X connect 17 15 16 0;
#X connect 18 0 17 0;
#X restore 107 398 pd reset-all-toggles;
#N canvas 158 33 1066 623 random-step-function 0;
#X obj 10 90 spigot;
#X obj 10 23 r \$0-ms-counter1;
#X obj 10 45 sel 0;
#X obj 10 112 t b b;
#X msg 109 149 0;
#X obj 148 94 spigot;
#X obj 148 27 r \$0-ms-counter1;
#X obj 148 116 t b b;
#X msg 247 153 1;
#X obj 181 69 r \$0-ms-p1-t1-s;
#X obj 148 49 sel 1;
#X obj 43 65 r \$0-ms-p1-t0-s;
#X obj 293 92 spigot;
#X obj 293 25 r \$0-ms-counter1;
#X obj 293 114 t b b;
#X obj 326 67 r \$0-ms-p1-t2-s;
#X obj 293 47 sel 2;
#X msg 392 151 2;
#X obj 438 86 spigot;
#X obj 438 19 r \$0-ms-counter1;
#X obj 438 108 t b b;
#X obj 471 61 r \$0-ms-p1-t3-s;
#X msg 537 145 3;
#X obj 438 41 sel 3;
#X obj 594 84 spigot;
#X obj 594 17 r \$0-ms-counter1;
#X obj 594 106 t b b;
#X msg 693 143 4;
#X obj 627 59 r \$0-ms-p1-t4-s;
#X obj 594 39 sel 4;
#X obj 738 83 spigot;
#X obj 738 16 r \$0-ms-counter1;
#X obj 738 105 t b b;
#X obj 738 38 sel 5;
#X obj 771 58 r \$0-ms-p1-t5-s;
#X msg 837 142 5;
#X obj 875 84 spigot;
#X obj 875 17 r \$0-ms-counter1;
#X obj 875 106 t b b;
#X obj 875 39 sel 6;
#X obj 908 59 r \$0-ms-p1-t6-s;
#X msg 974 143 6;
#X obj 10 274 spigot;
#X obj 10 207 r \$0-ms-counter1;
#X obj 10 296 t b b;
#X obj 148 278 spigot;
#X obj 148 211 r \$0-ms-counter1;
#X obj 148 300 t b b;
#X obj 293 276 spigot;
#X obj 293 209 r \$0-ms-counter1;
#X obj 293 298 t b b;
#X obj 438 270 spigot;
#X obj 438 203 r \$0-ms-counter1;
#X obj 438 292 t b b;
#X obj 594 268 spigot;
#X obj 594 201 r \$0-ms-counter1;
#X obj 594 290 t b b;
#X obj 738 267 spigot;
#X obj 738 200 r \$0-ms-counter1;
#X obj 738 289 t b b;
#X obj 875 268 spigot;
#X obj 875 201 r \$0-ms-counter1;
#X obj 875 290 t b b;
#X obj 10 229 sel 7;
#X obj 43 249 r \$0-ms-p1-t7-s;
#X msg 109 333 7;
#X msg 247 337 8;
#X msg 392 335 9;
#X msg 537 329 10;
#X msg 693 327 11;
#X msg 837 326 12;
#X msg 974 327 13;
#X obj 148 233 sel 8;
#X obj 181 253 r \$0-ms-p1-t8-s;
#X obj 293 231 sel 9;
#X obj 326 251 r \$0-ms-p1-t9-s;
#X obj 471 245 r \$0-ms-p1-t10-s;
#X obj 437 225 sel 10;
#X obj 594 223 sel 11;
#X obj 627 243 r \$0-ms-p1-t11-s;
#X obj 771 242 r \$0-ms-p1-t12-s;
#X obj 738 222 sel 12;
#X obj 875 223 sel 13;
#X obj 908 243 r \$0-ms-p1-t13-s;
#X obj 10 460 spigot;
#X obj 10 393 r \$0-ms-counter1;
#X obj 10 482 t b b;
#X obj 147 461 spigot;
#X obj 147 394 r \$0-ms-counter1;
#X obj 147 483 t b b;
#X obj 10 415 sel 14;
#X obj 147 416 sel 15;
#X msg 109 519 14;
#X msg 246 520 15;
#X obj 180 436 r \$0-ms-p1-t15-s;
#X obj 43 434 r \$0-ms-p1-t14-s;
#X obj 10 176 tabwrite \$0-mega-seq;
#X obj 148 180 tabwrite \$0-mega-seq;
#X obj 293 178 tabwrite \$0-mega-seq;
#X obj 438 172 tabwrite \$0-mega-seq;
#X obj 594 172 tabwrite \$0-mega-seq;
#X obj 738 169 tabwrite \$0-mega-seq;
#X obj 875 170 tabwrite \$0-mega-seq;
#X obj 10 362 tabwrite \$0-mega-seq;
#X obj 148 368 tabwrite \$0-mega-seq;
#X obj 293 389 tabwrite \$0-mega-seq;
#X obj 438 376 tabwrite \$0-mega-seq;
#X obj 594 379 tabwrite \$0-mega-seq;
#X obj 738 376 tabwrite \$0-mega-seq;
#X obj 875 395 tabwrite \$0-mega-seq;
#X obj 10 571 tabwrite \$0-mega-seq;
#X obj 147 575 tabwrite \$0-mega-seq;
#X obj 148 138 random 127;
#X obj 148 160 / 127;
#X obj 10 134 random 127;
#X obj 10 156 / 127;
#X obj 293 136 random 127;
#X obj 293 158 / 127;
#X obj 438 130 random 127;
#X obj 438 152 / 127;
#X obj 594 130 random 127;
#X obj 594 152 / 127;
#X obj 738 127 random 127;
#X obj 738 149 / 127;
#X obj 875 127 random 127;
#X obj 875 149 / 127;
#X obj 10 320 random 127;
#X obj 10 342 / 127;
#X obj 148 324 random 127;
#X obj 148 347 / 127;
#X obj 293 323 random 127;
#X obj 293 345 / 127;
#X obj 438 332 random 127;
#X obj 438 354 / 127;
#X obj 594 330 random 127;
#X obj 594 353 / 127;
#X obj 738 329 random 127;
#X obj 738 351 / 127;
#X obj 875 330 random 127;
#X obj 875 352 / 127;
#X obj 10 511 random 127;
#X obj 10 533 / 127;
#X obj 147 523 random 127;
#X obj 147 545 / 127;
#X connect 0 0 3 0;
#X connect 1 0 2 0;
#X connect 2 0 0 0;
#X connect 3 0 114 0;
#X connect 3 1 4 0;
#X connect 4 0 96 1;
#X connect 5 0 7 0;
#X connect 6 0 10 0;
#X connect 7 0 112 0;
#X connect 7 1 8 0;
#X connect 8 0 97 1;
#X connect 9 0 5 1;
#X connect 10 0 5 0;
#X connect 11 0 0 1;
#X connect 12 0 14 0;
#X connect 13 0 16 0;
#X connect 14 0 116 0;
#X connect 14 1 17 0;
#X connect 15 0 12 1;
#X connect 16 0 12 0;
#X connect 17 0 98 1;
#X connect 18 0 20 0;
#X connect 19 0 23 0;
#X connect 20 0 118 0;
#X connect 20 1 22 0;
#X connect 21 0 18 1;
#X connect 22 0 99 1;
#X connect 23 0 18 0;
#X connect 24 0 26 0;
#X connect 25 0 29 0;
#X connect 26 0 120 0;
#X connect 26 1 27 0;
#X connect 27 0 100 1;
#X connect 28 0 24 1;
#X connect 29 0 24 0;
#X connect 30 0 32 0;
#X connect 31 0 33 0;
#X connect 32 0 122 0;
#X connect 32 1 35 0;
#X connect 33 0 30 0;
#X connect 34 0 30 1;
#X connect 35 0 101 1;
#X connect 36 0 38 0;
#X connect 37 0 39 0;
#X connect 38 0 124 0;
#X connect 38 1 41 0;
#X connect 39 0 36 0;
#X connect 40 0 36 1;
#X connect 41 0 102 1;
#X connect 42 0 44 0;
#X connect 43 0 63 0;
#X connect 44 0 126 0;
#X connect 44 1 65 0;
#X connect 45 0 47 0;
#X connect 46 0 72 0;
#X connect 47 0 128 0;
#X connect 47 1 66 0;
#X connect 48 0 50 0;
#X connect 49 0 74 0;
#X connect 50 0 130 0;
#X connect 50 1 67 0;
#X connect 51 0 53 0;
#X connect 52 0 77 0;
#X connect 53 0 132 0;
#X connect 53 1 68 0;
#X connect 54 0 56 0;
#X connect 55 0 78 0;
#X connect 56 0 134 0;
#X connect 56 1 69 0;
#X connect 57 0 59 0;
#X connect 58 0 81 0;
#X connect 59 0 136 0;
#X connect 59 1 70 0;
#X connect 60 0 62 0;
#X connect 61 0 82 0;
#X connect 62 0 138 0;
#X connect 62 1 71 0;
#X connect 63 0 42 0;
#X connect 64 0 42 1;
#X connect 65 0 103 1;
#X connect 66 0 104 1;
#X connect 67 0 105 1;
#X connect 68 0 106 1;
#X connect 69 0 107 1;
#X connect 70 0 108 1;
#X connect 71 0 109 1;
#X connect 72 0 45 0;
#X connect 73 0 45 1;
#X connect 74 0 48 0;
#X connect 75 0 48 1;
#X connect 76 0 51 1;
#X connect 77 0 51 0;
#X connect 78 0 54 0;
#X connect 79 0 54 1;
#X connect 80 0 57 1;
#X connect 81 0 57 0;
#X connect 82 0 60 0;
#X connect 83 0 60 1;
#X connect 84 0 86 0;
#X connect 85 0 90 0;
#X connect 86 0 140 0;
#X connect 86 1 92 0;
#X connect 87 0 89 0;
#X connect 88 0 91 0;
#X connect 89 0 142 0;
#X connect 89 1 93 0;
#X connect 90 0 84 0;
#X connect 91 0 87 0;
#X connect 92 0 110 1;
#X connect 93 0 111 1;
#X connect 94 0 87 1;
#X connect 95 0 84 1;
#X connect 112 0 113 0;
#X connect 113 0 97 0;
#X connect 114 0 115 0;
#X connect 115 0 96 0;
#X connect 116 0 117 0;
#X connect 117 0 98 0;
#X connect 118 0 119 0;
#X connect 119 0 99 0;
#X connect 120 0 121 0;
#X connect 121 0 100 0;
#X connect 122 0 123 0;
#X connect 123 0 101 0;
#X connect 124 0 125 0;
#X connect 125 0 102 0;
#X connect 126 0 127 0;
#X connect 127 0 103 0;
#X connect 128 0 129 0;
#X connect 129 0 104 0;
#X connect 130 0 131 0;
#X connect 131 0 105 0;
#X connect 132 0 133 0;
#X connect 133 0 106 0;
#X connect 134 0 135 0;
#X connect 135 0 107 0;
#X connect 136 0 137 0;
#X connect 137 0 108 0;
#X connect 138 0 139 0;
#X connect 139 0 109 0;
#X connect 140 0 141 0;
#X connect 141 0 110 0;
#X connect 142 0 143 0;
#X connect 143 0 111 0;
#X restore 107 377 pd random-step-function;
#X obj 517 100 inlet~;
#X obj 517 144 t b b;
#X obj 517 374 outlet~;
#N canvas 0 22 406 426 randomize-pattern1 0;
#X msg 38 62 bang;
#X obj 38 91 until;
#X obj 38 119 f;
#X obj 69 119 + 1;
#X obj 96 192 sel 0;
#X obj 69 143 mod 16;
#X obj 38 207 t b f;
#X obj 69 165 t f f;
#X obj 38 35 r \$0-ms-rdm-bang-s;
#X obj 38 317 tabwrite \$0-mega-seq;
#X obj 38 245 random 127;
#X obj 38 267 / 127;
#X connect 0 0 1 0;
#X connect 1 0 2 0;
#X connect 2 0 3 0;
#X connect 2 0 6 0;
#X connect 3 0 5 0;
#X connect 4 0 1 1;
#X connect 5 0 7 0;
#X connect 6 0 10 0;
#X connect 6 1 9 1;
#X connect 7 0 2 1;
#X connect 7 1 4 0;
#X connect 8 0 0 0;
#X connect 10 0 11 0;
#X connect 11 0 9 0;
#X restore 107 421 pd randomize-pattern1;
#X obj 108 134 hradio 15 1 0 16 s_0-ms-counter-gu \$0-ms-counter1 empty
0 -8 0 10 -262144 -226533 -1 2;
#X obj 108 318 cnv 5 5 5 empty empty Q-OUT 0 0 0 8 -262144 -66577 0
;
#X obj 104 109 cnv 5 5 5 empty empty CLK 0 0 0 8 -262144 -226533 0
;
#X obj 361 144 cnv 5 5 5 empty empty MEGA 0 0 0 24 -262144 -66577 0
;
#X obj 197 109 cnv 5 5 5 empty empty RANDOMIZE 0 0 0 8 -262144 -226533
0;
#X obj 311 109 cnv 5 5 5 empty empty LOAD(1-4) 0 0 0 8 -262144 -226533
0;
#X obj 358 162 cnv 5 5 5 empty empty SEQUENCER 0 0 0 12 -262144 -66577
0;
#X obj 425 316 cnv 5 5 5 empty empty OUT2 0 0 0 8 -262144 -1 0;
#X obj 421 109 cnv 5 5 5 empty empty RESET 0 0 0 8 -262144 -226533
0;
#X obj 424 115 bng 15 100 50 0 empty empty empty 17 7 0 10 -262144
-226533 -1;
#X obj 681 191 inlet~;
#X obj 872 104 inlet~;
#X obj 1021 100 inlet~;
#X obj 1021 122 threshold~ 1 0 1 0;
#X obj 1021 144 t b b;
#N canvas 302 65 1008 752 savetest 0;
#X obj 290 212 pack f f;
#X obj 305 133 loadbang;
#X obj 305 155 f \$1;
#X obj 290 184 f;
#X obj 292 453 textfile;
#X msg 475 436 rewind;
#X obj 165 78 loadbang;
#X obj 19 174 delay 10;
#X text 59 52 WRITE;
#X obj 19 54 inlet;
#X obj 19 208 f;
#X obj 19 247 pack f f;
#X obj 165 126 t f f;
#X obj 165 104 f \$1;
#X msg -193 97 bang;
#X obj 22 597 textfile;
#X msg 97 236 clear;
#X obj 19 118 t b f b b;
#X obj 308 21 inlet;
#X text 353 19 LOAD;
#X msg 399 415 bang;
#X obj 412 375 t b b;
#X obj 308 43 t b f;
#X obj 290 90 t b b;
#X obj -400 14 r \$0-ms-p1-t0-s;
#X obj -387 44 r \$0-ms-p1-t1-s;
#X obj -371 64 r \$0-ms-p1-t2-s;
#X obj -355 84 r \$0-ms-p1-t3-s;
#X obj -337 103 r \$0-ms-p1-t4-s;
#X obj -321 123 r \$0-ms-p1-t5-s;
#X obj -305 143 r \$0-ms-p1-t6-s;
#X obj -284 166 r \$0-ms-p1-t7-s;
#X obj -264 195 r \$0-ms-p1-t8-s;
#X obj -248 215 r \$0-ms-p1-t9-s;
#X obj -232 235 r \$0-ms-p1-t10-s;
#X obj -216 255 r \$0-ms-p1-t11-s;
#X obj -198 274 r \$0-ms-p1-t12-s;
#X obj -182 294 r \$0-ms-p1-t13-s;
#X obj -166 314 r \$0-ms-p1-t14-s;
#X obj -150 334 r \$0-ms-p1-t15-s;
#X obj -132 357 r \$0-ms-scale-p1-s;
#X obj -108 387 r \$0-ms-xpose-p1-s;
#X obj -412 344 f;
#N canvas 0 22 1084 659 unpack-values 0;
#X obj 182 32 inlet;
#X obj 181 578 s \$0-ms-p1-t0-r;
#X obj 194 557 s \$0-ms-p1-t1-r;
#X obj 211 531 s \$0-ms-p1-t2-r;
#X obj 224 510 s \$0-ms-p1-t3-r;
#X obj 238 485 s \$0-ms-p1-t4-r;
#X obj 251 464 s \$0-ms-p1-t5-r;
#X obj 268 438 s \$0-ms-p1-t6-r;
#X obj 281 417 s \$0-ms-p1-t7-r;
#X obj 298 394 s \$0-ms-p1-t8-r;
#X obj 311 373 s \$0-ms-p1-t9-r;
#X obj 328 347 s \$0-ms-p1-t10-r;
#X obj 341 326 s \$0-ms-p1-t11-r;
#X obj 355 301 s \$0-ms-p1-t12-r;
#X obj 368 280 s \$0-ms-p1-t13-r;
#X obj 385 254 s \$0-ms-p1-t14-r;
#X obj 398 233 s \$0-ms-p1-t15-r;
#X obj 416 199 s \$0-ms-scale-p1-r;
#X obj 433 173 s \$0-ms-xpose-p1-r;
#X obj 182 59 unpack f f f f f f f f f f f f f f f f f f;
#X connect 0 0 19 0;
#X connect 19 0 1 0;
#X connect 19 1 2 0;
#X connect 19 2 3 0;
#X connect 19 3 4 0;
#X connect 19 4 5 0;
#X connect 19 5 6 0;
#X connect 19 6 7 0;
#X connect 19 7 8 0;
#X connect 19 8 9 0;
#X connect 19 9 10 0;
#X connect 19 10 11 0;
#X connect 19 11 12 0;
#X connect 19 12 13 0;
#X connect 19 13 14 0;
#X connect 19 14 15 0;
#X connect 19 15 16 0;
#X connect 19 16 17 0;
#X connect 19 17 18 0;
#X restore 292 479 pd unpack-values;
#X obj -377 481 pack f f f f f f f f f f f f f f f f f f;
#X msg -378 522 set \$1 \$2 \$3 \$4 \$5 \$6 \$7 \$8 \$9 \$10 \$11 \$12
\$13 \$14 \$15 \$16 \$17 \$18;
#X msg 19 329 write statesave/\$1-mega-seq-\$2-ss.txt;
#X msg 291 297 read statesave/\$1-mega-seq-\$2-ss.txt;
#X connect 0 0 47 0;
#X connect 1 0 2 0;
#X connect 2 0 3 1;
#X connect 3 0 0 0;
#X connect 4 0 43 0;
#X connect 5 0 4 0;
#X connect 6 0 13 0;
#X connect 7 0 10 0;
#X connect 9 0 17 0;
#X connect 10 0 11 0;
#X connect 11 0 46 0;
#X connect 12 0 10 1;
#X connect 13 0 12 0;
#X connect 14 0 42 0;
#X connect 16 0 15 0;
#X connect 17 0 7 0;
#X connect 17 1 11 1;
#X connect 17 2 14 0;
#X connect 17 3 16 0;
#X connect 18 0 22 0;
#X connect 20 0 4 0;
#X connect 21 0 20 0;
#X connect 21 1 5 0;
#X connect 22 0 23 0;
#X connect 22 1 0 1;
#X connect 23 0 21 0;
#X connect 23 1 3 0;
#X connect 24 0 42 1;
#X connect 25 0 44 1;
#X connect 26 0 44 2;
#X connect 27 0 44 3;
#X connect 28 0 44 4;
#X connect 29 0 44 5;
#X connect 30 0 44 6;
#X connect 31 0 44 7;
#X connect 32 0 44 8;
#X connect 33 0 44 9;
#X connect 34 0 44 10;
#X connect 35 0 44 11;
#X connect 36 0 44 12;
#X connect 37 0 44 13;
#X connect 38 0 44 14;
#X connect 39 0 44 15;
#X connect 40 0 44 16;
#X connect 41 0 44 17;
#X connect 42 0 44 0;
#X connect 44 0 45 0;
#X connect 45 0 15 0;
#X connect 46 0 15 0;
#X connect 47 0 4 0;
#X restore 109 593 pd savetest;
#X obj 358 219 hradio 15 1 1 4 \$0-ms-load-s \$0-ms-load-r LOAD 0 25
0 10 -262144 -1 -1 0;
#N canvas 127 22 1088 712 statesave-patterns-1-4 0;
#X obj 552 138 loadbang;
#X msg 582 445 read statesave/mega-patterns/mega-sequencer-\$1-pattern\$2.txt
;
#X obj 684 293 f;
#X obj 684 324 pack f f;
#X obj 406 234 delay 10;
#X obj 582 558 s \$0-mega-seq;
#X obj 684 249 t b f;
#X text 446 112 WRITE;
#X obj 406 114 inlet;
#X obj 684 176 inlet;
#X obj 406 268 f;
#X obj 406 307 pack f f;
#X obj 552 186 t f f;
#X obj 552 164 f \$1;
#X obj 39 368 array get \$0-mega-seq;
#X msg 39 343 bang;
#X msg 39 390 set \$1 \$2 \$3 \$4 \$5 \$6 \$7 \$8 \$9 \$10 \$11 \$12
\$13 \$14 \$15 \$16;
#X obj 406 561 textfile;
#X msg 484 296 clear;
#X obj 406 178 t b f b b;
#X msg 406 389 write statesave/mega-patterns/mega-sequencer-\$1-pattern\$2.txt
;
#X connect 0 0 13 0;
#X connect 1 0 5 0;
#X connect 2 0 3 0;
#X connect 3 0 1 0;
#X connect 4 0 10 0;
#X connect 6 0 2 0;
#X connect 6 1 3 1;
#X connect 8 0 19 0;
#X connect 9 0 6 0;
#X connect 10 0 11 0;
#X connect 11 0 20 0;
#X connect 12 0 10 1;
#X connect 12 1 2 1;
#X connect 13 0 12 0;
#X connect 14 0 16 0;
#X connect 15 0 14 0;
#X connect 16 0 17 0;
#X connect 18 0 17 0;
#X connect 19 0 4 0;
#X connect 19 1 11 1;
#X connect 19 2 15 0;
#X connect 19 3 18 0;
#X connect 20 0 17 0;
#X restore 108 472 pd statesave-patterns-1-4;
#X obj 358 205 hradio 15 1 0 4 \$0-ms-write-s \$0-ms-write-r WRITE
0 -8 0 10 -262144 -1 -1 0;
#X obj 108 444 r \$0-ms-write-s;
#X obj 255 434 r \$0-ms-load-s;
#X obj 109 541 r \$0-ms-write-s;
#X obj 172 565 r \$0-ms-load-s;
#X obj 681 223 threshold~ 1 0 1 0;
#X obj 681 317 s \$0-ms-rdm-bang-r;
#X obj 681 245 t b b;
#X obj 210 115 bng 15 100 50 0 empty empty empty 17 7 0 10 -262144
-226533 -1;
#X obj 872 126 threshold~ 1 0 1 0;
#X obj 872 148 t b b;
#X obj 872 170 f;
#X obj 905 168 + 1;
#X obj 872 192 % 4;
#X obj 872 214 s \$0-ms-load-r;
#X obj 322 115 bng 15 100 50 0 empty empty empty 17 7 0 10 -262144
-226533 -1;
#X obj 1021 184 s \$0-ms-reset-s;
#X obj 592 455 outlet~;
#X obj 372 540 s \$0-instance-num;
#X obj 372 492 makefilename %d;
#X obj 432 162 cnv 5 5 5 empty \$0-instance-num 0 0 0 0 12 -262144
-66577 0;
#X msg 372 517 label \$1;
#X obj 372 462 f \$1;
#X obj 372 433 loadbang;
#X obj 804 418 r \$0-ms-load-s;
#X obj 789 447 f;
#X obj 789 386 r SAVE-S;
#X obj 789 469 s \$0-ms-write-r;
#X obj 517 122 threshold~ 0.9 0 0.9 0;
#X connect 1 0 30 0;
#X connect 1 1 67 0;
#X connect 28 0 78 0;
#X connect 29 0 1 0;
#X connect 42 0 55 0;
#X connect 43 0 59 0;
#X connect 44 0 45 0;
#X connect 45 0 46 0;
#X connect 46 0 66 0;
#X connect 46 1 41 0;
#X connect 51 0 49 0;
#X connect 52 0 49 1;
#X connect 53 0 47 0;
#X connect 54 0 47 1;
#X connect 55 0 57 0;
#X connect 57 0 56 0;
#X connect 57 1 58 0;
#X connect 59 0 60 0;
#X connect 60 0 61 0;
#X connect 60 1 65 0;
#X connect 61 0 62 0;
#X connect 61 0 63 0;
#X connect 62 0 61 1;
#X connect 63 0 64 0;
#X connect 69 0 71 0;
#X connect 71 0 68 0;
#X connect 72 0 69 0;
#X connect 73 0 72 0;
#X connect 74 0 75 1;
#X connect 75 0 77 0;
#X connect 76 0 75 0;
#X connect 78 0 29 0;
#X coords 0 -1 1 1 350 225 2 100 100;
