#N canvas 367 149 865 550 10;
#X obj 274 117 cnv 15 15 15 empty \$0-midi2-gui-r empty 20 12 0 14
-258699 -262144 0;
#X floatatom 104 120 5 0 0 2 - - -, f 5;
#X obj 104 111 cnv 5 5 5 empty empty NOTE 0 0 0 8 -262144 -66577 0
;
#X obj 272 110 cnv 5 5 5 empty empty GATE 0 0 0 8 -262144 -66577 0
;
#X obj 622 121 env~;
#X obj 622 143 > 0;
#X obj 622 166 change;
#X msg 649 248 color \$1;
#X obj 498 36 inlet~ GATE;
#X obj 408 37 inlet~ PITCH;
#X obj 159 127 cnv 5 5 5 empty empty MIDI-OUT 0 0 0 12 -262144 -66577
0;
#X obj 409 191 snapshot~;
#X obj 409 212 * 127;
#X obj 409 256 clip 0 127;
#X obj 649 270 s \$0-midi2-gui-r;
#X obj 409 307 +;
#X obj 107 156 hsl 128 15 0 127 0 0 empty empty PITCH-OFFSET -2 -8
0 10 -150893 -1 -1 8500 1;
#X obj 427 284 - 64;
#X floatatom 205 142 5 0 0 0 - - -, f 5;
#X obj 409 234 abs;
#X obj 468 412 f;
#X obj 487 454 * 100;
#X text 248 458 Midi Panic;
#X obj 159 511 ctlout;
#X obj 159 440 until;
#X msg 159 394 16;
#X obj 198 463 + 1;
#X msg 207 440 1;
#X obj 159 462 f;
#X obj 159 417 t f b;
#X msg 159 485 123 123 \$1;
#X obj 622 188 t b f;
#X obj 498 79 threshold~ 0.9 0 0.9 0;
#X obj 649 227 + 12;
#X obj 107 171 hsl 128 15 0 127 0 0 \$0-midiout-channel-s \$0-midiout-channel-r
CHANNEL 135 7 0 10 -262144 -1 -1 0 1;
#X obj 159 264 r \$0-midiout-channel-s;
#X obj 159 286 / 127;
#X obj 159 308 * 15;
#X obj 159 330 + 1;
#X obj 159 352 i;
#X floatatom 104 186 5 0 0 0 - - -, f 5;
#X obj 468 484 noteout;
#X connect 4 0 5 0;
#X connect 5 0 6 0;
#X connect 6 0 31 0;
#X connect 7 0 14 0;
#X connect 8 0 4 0;
#X connect 8 0 32 0;
#X connect 9 0 11 0;
#X connect 11 0 12 0;
#X connect 12 0 19 0;
#X connect 13 0 15 0;
#X connect 13 0 1 0;
#X connect 15 0 20 1;
#X connect 16 0 17 0;
#X connect 17 0 18 0;
#X connect 17 0 15 1;
#X connect 19 0 13 0;
#X connect 20 0 41 0;
#X connect 21 0 41 1;
#X connect 24 0 28 0;
#X connect 25 0 29 0;
#X connect 26 0 28 1;
#X connect 27 0 28 1;
#X connect 28 0 26 0;
#X connect 28 0 30 0;
#X connect 29 0 24 0;
#X connect 29 1 27 0;
#X connect 30 0 23 0;
#X connect 31 0 20 0;
#X connect 31 1 21 0;
#X connect 31 1 33 0;
#X connect 32 0 11 0;
#X connect 33 0 7 0;
#X connect 35 0 36 0;
#X connect 36 0 37 0;
#X connect 37 0 38 0;
#X connect 38 0 39 0;
#X connect 39 0 40 0;
#X connect 40 0 25 0;
#X connect 40 0 41 2;
#X coords 0 -1 1 1 200 105 2 100 100;
