#N canvas 74 82 523 286 10;
#X obj 105 129 hsl 128 15 0 127 0 1 empty empty -/+RANGE 135 7 0 10
-262144 -1 -1 11900 1;
#X obj 87 239 s NUDGE-RANGE;
#X obj 240 114 bng 15 250 50 0 empty empty NUDGE! 18 8 0 10 -262144
-226533 -1;
#X obj 60 262 s NUDGE!;
#X floatatom 204 115 5 0 0 0 - - -, f 5;
#X obj 103 121 cnv 5 5 5 empty empty PARAM-NUDGE! 0 0 0 12 -262144
-66577 0;
#X obj 240 52 inlet~;
#X obj 240 74 threshold~ 0.9 0 0.9 0;
#X obj 105 109 cnv 5 5 5 empty empty NUDGE 0 0 0 8 -262144 -66577 0
;
#X obj 87 211 f;
#X obj 60 189 t b b;
#X connect 0 0 4 0;
#X connect 0 0 9 1;
#X connect 2 0 10 0;
#X connect 6 0 7 0;
#X connect 7 0 2 0;
#X connect 9 0 1 0;
#X connect 10 0 3 0;
#X connect 10 1 9 0;
#X coords 0 -1 1 1 200 50 2 100 100;
