#N canvas 1060 152 426 375 10;
#X obj 37 33 inlet;
#X obj 191 164 float;
#X obj 152 100 moses 0;
#X obj 191 122 moses 0;
#X obj 191 33 r mapping_circle-\$1;
#X obj 191 206 s circle-\$1;
#X obj 191 67 unpack f f;
#X obj 191 143 t b;
#X floatatom 201 186 5 0 0 0 - - -;
#X obj 78 33 r all_radius_teta;
#X obj 120 67 unpack f f;
#X connect 1 0 5 0;
#X connect 1 0 8 0;
#X connect 2 1 3 0;
#X connect 3 0 7 0;
#X connect 4 0 6 0;
#X connect 6 0 2 1;
#X connect 6 1 3 1;
#X connect 7 0 1 0;
#X connect 9 0 10 0;
#X connect 10 0 2 0;
#X connect 10 1 1 1;
