#N canvas 726 111 922 864 10;
#X msg 46 127 devices;
#X msg 124 159 close;
#X obj 284 149 packOSC;
#X obj 162 239 select 1;
#X obj 406 275 spigot;
#X msg 540 132 send /t \$1;
#X text 373 72 <- Calibrate E256;
#X text 570 76 <- Set the Threshold;
#X msg 406 299 /b;
#X msg 406 224 1;
#X obj 406 248 t b f;
#X text 440 299 <- Get blobs;
#X msg 284 73 send /c 20;
#X obj 116 270 unpackOSC;
#X obj 552 106 s THRESHOLD;
#X obj 284 46 del 500;
#X obj 540 48 del 1000;
#X obj 406 200 del 2000;
#X obj 116 46 del 100;
#X obj 133 625 t b f;
#X obj 183 648 t b f;
#X obj 232 670 t b f;
#X obj 282 693 t b f;
#X obj 331 716 t b f;
#X obj 381 740 t b f;
#X obj 431 762 t b f;
#X obj 116 830 s SUMM;
#X obj 116 325 send input_blobs;
#X obj 116 800 expr $f1 + $f2 + $f3 + $f4 + $f5 + $f6 + $f7 + $f8;
#X obj 116 189 comport 0 230400;
#X obj 116 577 r alive-0;
#X obj 133 601 r alive-1;
#X obj 183 624 r alive-2;
#X obj 232 647 r alive-3;
#X obj 282 670 r alive-4;
#X obj 331 693 r alive-5;
#X obj 381 716 r alive-6;
#X obj 431 739 r alive-7;
#X obj 284 172 slipenc;
#X obj 116 214 slipdec;
#X obj 116 297 routeOSC /b;
#X obj 618 620 print;
#X obj 618 590 r blobs_values;
#X obj 540 25 r INIT;
#X obj 284 23 r INIT;
#X obj 116 23 r INIT;
#X obj 406 177 r INIT;
#X msg 116 381 vis 0 1;
#X msg 116 439 vis 0 1;
#N canvas 436 268 254 300 volume 0;
#X obj 143 152 line~;
#X obj 126 209 *~;
#X obj 39 210 *~;
#X obj 39 32 inlet~;
#X obj 126 32 inlet~;
#X obj 39 242 outlet~;
#X obj 126 242 outlet~;
#X obj 143 76 r volume;
#X obj 143 131 pack f 500;
#X connect 0 0 1 1;
#X connect 0 0 2 1;
#X connect 1 0 6 0;
#X connect 2 0 5 0;
#X connect 3 0 2 0;
#X connect 4 0 1 0;
#X connect 7 0 8 0;
#X connect 8 0 0 0;
#X restore 117 503 pd volume;
#X obj 117 540 dac~ 1 2;
#X obj 618 290 loadbang;
#X obj 618 469 s bela_setDigital @hv_param;
#X obj 618 492 r bela_digitalIn21;
#X obj 618 515 print digitalIn21;
#X obj 618 563 s bela_digitalOut22 @hv_param;
#X msg 618 446 in 21 message \, out 22 message;
#X obj 618 424 r INIT;
#X msg 116 127 open 1;
#X obj 116 405 clone e256_input_filters 8 0;
#X msg 618 317 \; pd dsp 1 \; fade-0 1000 \; volume 25 \; INIT bang
, f 18;
#X msg 540 76 15;
#X obj 116 463 clone synth_fm 8 0;
#X connect 0 0 29 0;
#X connect 1 0 29 0;
#X connect 2 0 38 0;
#X connect 3 0 4 0;
#X connect 4 0 8 0;
#X connect 5 0 2 0;
#X connect 8 0 2 0;
#X connect 9 0 10 0;
#X connect 10 0 4 0;
#X connect 10 1 4 1;
#X connect 12 0 2 0;
#X connect 13 0 40 0;
#X connect 15 0 12 0;
#X connect 16 0 61 0;
#X connect 17 0 9 0;
#X connect 18 0 58 0;
#X connect 19 0 28 0;
#X connect 19 1 28 1;
#X connect 20 0 28 0;
#X connect 20 1 28 2;
#X connect 21 0 28 0;
#X connect 21 1 28 3;
#X connect 22 0 28 0;
#X connect 22 1 28 4;
#X connect 23 0 28 0;
#X connect 23 1 28 5;
#X connect 24 0 28 0;
#X connect 24 1 28 6;
#X connect 25 0 28 0;
#X connect 25 1 28 7;
#X connect 28 0 26 0;
#X connect 29 0 39 0;
#X connect 30 0 28 0;
#X connect 31 0 19 0;
#X connect 32 0 20 0;
#X connect 33 0 21 0;
#X connect 34 0 22 0;
#X connect 35 0 23 0;
#X connect 36 0 24 0;
#X connect 37 0 25 0;
#X connect 38 0 29 0;
#X connect 39 0 13 0;
#X connect 39 1 3 0;
#X connect 40 0 27 0;
#X connect 43 0 16 0;
#X connect 44 0 15 0;
#X connect 45 0 18 0;
#X connect 46 0 17 0;
#X connect 47 0 59 0;
#X connect 48 0 62 0;
#X connect 49 0 50 0;
#X connect 49 1 50 1;
#X connect 51 0 60 0;
#X connect 53 0 54 0;
#X connect 56 0 52 0;
#X connect 57 0 56 0;
#X connect 58 0 29 0;
#X connect 61 0 5 0;
#X connect 61 0 14 0;
#X connect 62 0 49 0;
#X connect 62 0 49 1;
