#N canvas 507 239 470 410 10;
#X obj 103 40 inlet;
#X obj 164 40 inlet;
#X obj 209 40 inlet;
#X obj 59 103 t b f;
#X obj 73 183 abs;
#X obj 59 40 inlet;
#X obj 73 163 -;
#X obj 135 367 outlet;
#X obj 135 312 sqrt;
#X obj 73 204 t f f;
#X obj 73 230 *;
#X obj 135 291 +;
#X obj 135 264 t b f;
#X obj 149 103 t b f;
#X obj 163 183 abs;
#X obj 163 163 -;
#X obj 163 204 t f f;
#X obj 163 230 *;
#X text 192 125 coordonnes centre du cercle Xc et Yc;
#X text 192 142 coordonnes souris Xs et Ys;
#X text 301 41 1 = Xs;
#X text 301 57 2 = Ys;
#X text 301 73 3 = Xc;
#X text 301 89 4 = Yc;
#X text 251 39 inlets;
#X obj 73 137 f;
#X obj 163 137 f;
#X connect 0 0 13 0;
#X connect 1 0 25 1;
#X connect 2 0 26 1;
#X connect 3 0 25 0;
#X connect 3 1 6 1;
#X connect 4 0 9 0;
#X connect 5 0 3 0;
#X connect 6 0 4 0;
#X connect 8 0 7 0;
#X connect 9 0 10 0;
#X connect 9 1 10 1;
#X connect 10 0 11 0;
#X connect 11 0 8 0;
#X connect 12 0 11 0;
#X connect 12 1 11 1;
#X connect 13 0 26 0;
#X connect 13 1 15 1;
#X connect 14 0 16 0;
#X connect 15 0 14 0;
#X connect 16 0 17 0;
#X connect 16 1 17 1;
#X connect 17 0 12 0;
#X connect 25 0 6 0;
#X connect 26 0 15 0;
