#N canvas 537 159 844 891 10;
#X obj 133 630 *~;
#X obj 170 491 osc~;
#X obj 100 553 *~;
#X obj 25 8 inlet;
#X obj 581 487 / 1;
#X obj 581 443 t b f;
#X msg 581 465 1;
#X obj 133 746 *~;
#X obj 535 543 vline~;
#X obj 132 675 hip~ 3;
#X obj 132 698 lop~ 300;
#X obj 378 564 vline~;
#X obj 170 469 vline~;
#X obj 535 520 pack f 100;
#X obj 535 363 moses 1;
#X obj 535 338 r SUMM;
#X obj 308 456 sel 0;
#X obj 79 8 r blobs_values;
#X obj 79 30 route \$1;
#X obj 79 52 unpack 0 0 0 0 0 0 0 0;
#X obj 230 76 s blob_teta-\$1;
#X obj 208 95 s blob_radius-\$1;
#X obj 186 115 s blob_depth-\$1;
#X obj 165 135 s blob_height-\$1;
#X obj 143 155 s blob_width-\$1;
#X obj 122 175 s blob_posY-\$1;
#X obj 100 195 s blob_posX-\$1;
#X obj 79 215 s blob_alive-\$1;
#X obj 170 338 r blob_posX-\$1;
#X obj 46 338 r blob_posY-\$1;
#X obj 378 362 r blob_depth-\$1;
#X obj 308 338 r blob_alive-\$1;
#X obj 133 785 outlet~;
#X obj 581 393 pow 0.1;
#X obj 99 491 osc~;
#X obj 46 395 pow 1.4;
#X obj 46 443 - 50;
#X obj 46 468 moses 20;
#X obj 170 423 * 32;
#X obj 170 400 pow 1.4;
#X obj 99 514 *~ 0.3;
#X obj 169 514 *~ 0.3;
#X obj 46 419 * 1000;
#X obj 170 446 pack \$1 1;
#X msg 308 481 0;
#X obj 431 388 r fade-\$2;
#X obj 378 515 pack f f;
#X obj 308 515 pack f f;
#X connect 0 0 9 0;
#X connect 1 0 41 0;
#X connect 2 0 0 0;
#X connect 4 0 13 0;
#X connect 5 0 6 0;
#X connect 5 1 4 1;
#X connect 6 0 4 0;
#X connect 7 0 32 0;
#X connect 8 0 7 1;
#X connect 9 0 10 0;
#X connect 10 0 7 0;
#X connect 11 0 0 1;
#X connect 12 0 1 0;
#X connect 13 0 8 0;
#X connect 14 0 13 0;
#X connect 14 1 33 0;
#X connect 15 0 14 0;
#X connect 16 0 44 0;
#X connect 17 0 18 0;
#X connect 18 0 19 0;
#X connect 19 0 27 0;
#X connect 19 1 26 0;
#X connect 19 2 25 0;
#X connect 19 3 24 0;
#X connect 19 4 23 0;
#X connect 19 5 22 0;
#X connect 19 6 21 0;
#X connect 19 7 20 0;
#X connect 28 0 39 0;
#X connect 29 0 35 0;
#X connect 30 0 46 0;
#X connect 31 0 16 0;
#X connect 33 0 5 0;
#X connect 34 0 40 0;
#X connect 35 0 42 0;
#X connect 36 0 37 0;
#X connect 37 1 34 0;
#X connect 38 0 43 0;
#X connect 39 0 38 0;
#X connect 40 0 2 0;
#X connect 41 0 2 1;
#X connect 42 0 36 0;
#X connect 43 0 12 0;
#X connect 44 0 47 0;
#X connect 45 0 46 1;
#X connect 45 0 47 1;
#X connect 46 0 11 0;
#X connect 47 0 11 0;
