#N canvas 0 22 669 494 10;
#X obj 23 410 cnv 15 400 30 empty empty empty 20 12 0 14 -233017 -66577
0;
#X obj 19 83 cnv 15 400 30 empty empty empty 20 12 0 14 -233017 -66577
0;
#X obj 19 252 cnv 15 400 30 empty empty empty 20 12 0 14 -233017 -66577
0;
#X obj 20 10 cnv 15 400 30 empty empty empty 20 12 0 14 -233017 -66577
0;
#X text 23 258 INPUTS:;
#X text 23 91 CONTROLS:;
#X text 26 414 OUTPUTS:;
#X text 26 444 OUT - output;
#X text 23 288 IN - signal in;
#X obj 430 10 granular;
#X text 24 15 GRANULAR:;
#X text 21 47 The "granular" module is granular delay fx unit.;
#X text 19 161 SIZE - controls the size of the grains;
#X text 19 125 PITCH - change the pitch of the signal;
#X text 19 197 FBACK - set feedback level;
#X text 20 228 DRY/WET - control the balance between dry and wet signal
;
#X text 23 318 PITCH -input for cv-control over the PITCH parameter
;
#X text 23 349 SIZE -input for cv-control over the SIZE parameter;
#X text 23 379 FBACK -input for cv-control over the FBACK parameter
;
