#N canvas 0 22 1013 546 10;
#X obj 312 179 inlet~;
#X obj 313 338 hip~;
#X obj 108 128 hsl 128 15 0 127 0 1 \$0-highpass-freq-s \$0-highpass-freq-r
FREQ 133 7 0 10 -262144 -1 -1 3800 1;
#X obj 131 210 / 127;
#X obj 131 278 pack 0 50;
#X obj 131 300 line;
#X obj 313 399 min~ 1;
#X obj 313 421 max~ -1;
#X obj 313 443 outlet~;
#X obj 131 232 * 9950;
#X obj 105 109 cnv 5 5 5 empty empty IN 0 0 0 8 -262144 -66577 0;
#X obj 531 130 inlet~;
#X obj 108 143 hsl 128 15 0 127 0 1 \$0-highpass-fm-/+-s \$0-highpass-fm-/+-r
FM-/+ 133 7 0 10 -150893 -1 -1 12700 1;
#X obj 599 71 / 127;
#X obj 599 93 * 2;
#X obj 599 115 - 1;
#X obj 599 159 pack 0 50;
#X obj 599 181 line~;
#X floatatom 105 158 5 0 0 0 - - -, f 5;
#X obj 531 198 *~;
#X text 557 202 FM-/+ ATTENUEVERTER;
#X obj 599 137 t f f;
#X obj 250 109 cnv 5 5 5 empty empty FREQ 0 0 0 8 -262144 -96927 0
;
#X obj 164 120 cnv 5 5 5 empty empty FILTER 0 0 0 12 -262144 -66577
0;
#X obj 105 120 cnv 5 5 5 empty empty HIGHPASS 0 0 0 12 -262144 -66577
0;
#X obj 531 163 *~ 10000;
#X obj 364 249 snapshot~;
#X obj 364 271 t b f;
#X obj 378 204 bang~;
#X obj 131 254 + 100;
#N canvas 21 22 593 735 state-saving-multiple-instances 0;
#X obj 215 28 loadbang;
#X obj 261 480 textfile;
#X msg 518 463 rewind;
#X msg 475 463 bang;
#X obj 119 690 textfile;
#X obj 475 424 t b b;
#X obj 120 356 f;
#X obj 133 579 f;
#X obj 66 422 t b b b;
#X msg 196 579 clear;
#X obj 281 216 outlet;
#X text 277 236 INSTANCE NUMBER;
#X obj 242 92 f \$1;
#X obj 242 128 t f f f;
#X obj 215 61 t b b;
#X obj 66 331 bng 15 250 50 0 empty empty empty 17 7 0 10 -262144 -1
-1;
#X obj 66 235 r SAVE-S;
#X obj 120 399 pack f f;
#X msg 120 438 set \$1 \$2;
#X obj 261 502 unpack f f;
#X msg 132 650 write statesave/\$1-highpass-ss.txt;
#X msg 261 455 read statesave/\$1-highpass-ss.txt;
#X obj 165 355 r \$0-highpass-fm-/+-s;
#X obj 318 530 s \$0-highpass-fm-/+-r;
#X obj 135 308 r \$0-highpass-freq-s;
#X obj 261 604 s \$0-highpass-freq-r;
#X connect 0 0 14 0;
#X connect 1 0 19 0;
#X connect 2 0 1 0;
#X connect 3 0 1 0;
#X connect 5 0 3 0;
#X connect 5 1 2 0;
#X connect 6 0 17 0;
#X connect 7 0 20 0;
#X connect 8 0 7 0;
#X connect 8 1 6 0;
#X connect 8 2 9 0;
#X connect 9 0 4 0;
#X connect 12 0 13 0;
#X connect 13 0 7 1;
#X connect 13 1 21 0;
#X connect 13 2 10 0;
#X connect 14 0 5 0;
#X connect 14 1 12 0;
#X connect 15 0 8 0;
#X connect 16 0 15 0;
#X connect 17 0 18 0;
#X connect 18 0 4 0;
#X connect 19 0 25 0;
#X connect 19 1 23 0;
#X connect 20 0 4 0;
#X connect 21 0 1 0;
#X connect 22 0 17 1;
#X connect 24 0 6 1;
#X restore 399 86 pd state-saving-multiple-instances;
#X obj 399 163 s \$0-instance-num;
#X obj 399 115 makefilename %d;
#X obj 214 120 cnv 5 5 5 empty \$0-instance-num 1 0 0 0 12 -262144
-66577 0;
#X msg 399 140 label \$1;
#N canvas 81 22 1117 745 state-saving-via-preset-manager-module 0;
#X obj 477 349 textfile;
#X msg 734 332 rewind;
#X msg 691 332 bang;
#X obj 243 690 textfile;
#X obj 691 293 t b b;
#X obj 244 356 f;
#X obj 257 579 f;
#X obj 190 422 t b b b;
#X msg 320 579 clear;
#X obj 244 399 pack f f;
#X msg 244 438 set \$1 \$2;
#X obj 477 371 unpack f f;
#X obj 244 264 delay 5;
#X obj 190 484 delay 10;
#X msg 190 314 bang;
#X obj 190 147 r STORE-S!;
#X obj 477 250 f;
#X obj 450 227 t b b;
#X obj 465 171 t b f;
#X obj 522 268 f \$1;
#X obj 477 295 pack f f;
#X obj 522 218 loadbang;
#X obj 257 609 pack f f;
#X obj 302 467 loadbang;
#X obj 302 489 f \$1;
#X obj 476 566 pack f f;
#X obj 476 590 line;
#X obj 521 541 r preset-manager-morph-s;
#X obj 465 148 r preset-manager-scan;
#X obj 534 470 pack f f;
#X obj 534 494 line;
#X obj 579 445 r preset-manager-morph-s;
#X obj 279 148 r preset-manager-store-slot;
#X msg 926 576 stop;
#X obj 926 541 r STOP-MORPH!;
#X msg 256 650 write statesave/\$1-\$2-hp-filter-ss.txt;
#X msg 477 324 read statesave/\$1-\$2-hp-filter-ss.txt;
#X obj 259 308 r \$0-highpass-freq-s;
#X obj 476 615 s \$0-highpass-freq-r;
#X obj 289 355 r \$0-highpass-fm-/+-s;
#X obj 534 517 s \$0-highpass-fm-/+-r;
#X connect 0 0 11 0;
#X connect 1 0 0 0;
#X connect 2 0 0 0;
#X connect 4 0 2 0;
#X connect 4 1 1 0;
#X connect 5 0 9 0;
#X connect 6 0 22 0;
#X connect 7 0 13 0;
#X connect 7 1 12 0;
#X connect 7 2 8 0;
#X connect 8 0 3 0;
#X connect 9 0 10 0;
#X connect 10 0 3 0;
#X connect 11 0 25 0;
#X connect 11 1 29 0;
#X connect 12 0 5 0;
#X connect 13 0 6 0;
#X connect 14 0 7 0;
#X connect 15 0 14 0;
#X connect 16 0 20 0;
#X connect 17 0 4 0;
#X connect 17 1 16 0;
#X connect 18 0 17 0;
#X connect 18 1 16 1;
#X connect 19 0 20 1;
#X connect 20 0 36 0;
#X connect 21 0 19 0;
#X connect 22 0 35 0;
#X connect 23 0 24 0;
#X connect 24 0 22 1;
#X connect 25 0 26 0;
#X connect 26 0 38 0;
#X connect 27 0 25 1;
#X connect 28 0 18 0;
#X connect 29 0 30 0;
#X connect 30 0 40 0;
#X connect 31 0 29 1;
#X connect 32 0 6 1;
#X connect 33 0 30 0;
#X connect 33 0 26 0;
#X connect 34 0 33 0;
#X connect 35 0 3 0;
#X connect 36 0 0 0;
#X connect 37 0 5 1;
#X connect 39 0 9 1;
#X restore 401 39 pd state-saving-via-preset-manager-module;
#X obj 334 315 +;
#X obj 313 373 *~ 1;
#N canvas 297 27 518 295 parameter-nudging-system 0;
#N canvas 0 22 484 497 param-nudge 0;
#X obj 124 234 random;
#X obj 232 335 f;
#X obj 232 368 +;
#X obj 257 166 random 2;
#X obj 124 275 t f f;
#X obj 124 351 t b f;
#X obj 124 297 *;
#X obj 257 188 sel 0 1;
#X msg 257 280 -1;
#X msg 335 280 1;
#X obj 124 149 t b b b;
#X obj 124 123 r NUDGE!;
#X obj 157 193 r NUDGE-RANGE;
#X obj 247 308 inlet;
#X obj 232 397 outlet;
#X floatatom 316 396 5 0 0 0 - - -, f 5;
#X connect 0 0 4 0;
#X connect 1 0 2 0;
#X connect 2 0 14 0;
#X connect 2 0 15 0;
#X connect 3 0 7 0;
#X connect 4 0 6 0;
#X connect 5 0 2 0;
#X connect 5 1 2 1;
#X connect 6 0 5 0;
#X connect 7 0 8 0;
#X connect 7 1 9 0;
#X connect 8 0 6 1;
#X connect 9 0 6 1;
#X connect 10 0 0 0;
#X connect 10 1 1 0;
#X connect 10 2 3 0;
#X connect 11 0 10 0;
#X connect 12 0 0 1;
#X connect 13 0 1 1;
#X restore 23 45 pd param-nudge;
#N canvas 0 22 484 497 param-nudge 0;
#X obj 124 234 random;
#X obj 232 335 f;
#X obj 232 368 +;
#X obj 257 166 random 2;
#X obj 124 275 t f f;
#X obj 124 351 t b f;
#X obj 124 297 *;
#X obj 257 188 sel 0 1;
#X msg 257 280 -1;
#X msg 335 280 1;
#X obj 124 149 t b b b;
#X obj 124 123 r NUDGE!;
#X obj 157 193 r NUDGE-RANGE;
#X obj 247 308 inlet;
#X obj 232 397 outlet;
#X connect 0 0 4 0;
#X connect 1 0 2 0;
#X connect 2 0 14 0;
#X connect 3 0 7 0;
#X connect 4 0 6 0;
#X connect 5 0 2 0;
#X connect 5 1 2 1;
#X connect 6 0 5 0;
#X connect 7 0 8 0;
#X connect 7 1 9 0;
#X connect 8 0 6 1;
#X connect 9 0 6 1;
#X connect 10 0 0 0;
#X connect 10 1 1 0;
#X connect 10 2 3 0;
#X connect 11 0 10 0;
#X connect 12 0 0 1;
#X connect 13 0 1 1;
#X restore 171 45 pd param-nudge;
#X obj 23 67 clip 0 127;
#X obj 171 67 clip 0 127;
#X obj 23 22 r \$0-highpass-freq-s;
#X obj 23 95 s \$0-highpass-freq-r;
#X obj 171 22 r \$0-highpass-fm-/+-s;
#X obj 171 95 s \$0-highpass-fm-/+-r;
#X connect 0 0 2 0;
#X connect 1 0 3 0;
#X connect 2 0 5 0;
#X connect 3 0 7 0;
#X connect 4 0 0 0;
#X connect 6 0 1 0;
#X restore 401 61 pd parameter-nudging-system;
#X connect 0 0 1 0;
#X connect 1 0 37 0;
#X connect 2 0 3 0;
#X connect 3 0 9 0;
#X connect 4 0 5 0;
#X connect 5 0 36 0;
#X connect 6 0 7 0;
#X connect 7 0 8 0;
#X connect 9 0 29 0;
#X connect 11 0 25 0;
#X connect 12 0 13 0;
#X connect 13 0 14 0;
#X connect 14 0 15 0;
#X connect 15 0 21 0;
#X connect 16 0 17 0;
#X connect 17 0 19 1;
#X connect 19 0 26 0;
#X connect 21 0 16 0;
#X connect 21 1 18 0;
#X connect 25 0 19 0;
#X connect 26 0 27 0;
#X connect 27 0 36 0;
#X connect 27 1 36 1;
#X connect 28 0 26 0;
#X connect 29 0 4 0;
#X connect 30 0 32 0;
#X connect 32 0 34 0;
#X connect 34 0 31 0;
#X connect 36 0 1 1;
#X connect 37 0 6 0;
#X coords 0 -1 1 1 175 75 2 100 100;
