#N canvas 0 22 1170 647 10;
#X obj 108 160 hsl 128 15 1.27 127 1 1 \$0-kick-envmod-s \$0-kick-envmod-r
EG2 133 7 0 10 -262144 -1 -1 9700 1;
#X obj 108 145 hsl 128 15 1.27 127 1 1 \$0-kick-decay-s \$0-kick-decay-r
DECAY 133 7 0 10 -262144 -1 -1 8600 1;
#X obj 108 175 hsl 128 15 0 127 0 1 \$0-kick-sweep-s \$0-kick-sweep-r
SWEEP 133 7 0 10 -262144 -1 -1 9900 1;
#X obj 108 130 hsl 128 15 0 127 0 1 \$0-kick-pitch-s \$0-kick-pitch-r
PITCH 133 7 0 10 -262144 -1 -1 1100 1;
#X obj 377 405 *~;
#X msg 513 322 1 1 \, 0 \$1 1;
#X obj 513 344 vline~;
#X obj 513 366 *~;
#X obj 513 388 *~;
#X obj 513 294 f;
#X obj 483 105 / 127;
#X obj 483 198 moses 10;
#X msg 688 273 1 1 \, 0 \$1 1;
#X obj 688 302 vline~;
#X obj 688 334 *~;
#X obj 688 361 *~;
#X obj 688 252 f;
#X obj 658 146 / 127;
#X obj 658 224 moses 10;
#X obj 748 483 *~;
#X obj 763 336 / 127;
#X obj 763 380 pack 0 50;
#X obj 763 402 line~;
#X obj 377 327 +~;
#X obj 688 397 *~ 2000;
#X obj 763 358 * 0.5;
#X obj 375 202 + 30;
#X obj 375 224 pack 0 50;
#X obj 375 246 line~;
#X obj 658 202 * 250;
#X obj 375 143 r \$0-kick-pitch-s;
#X obj 257 10 inlet~;
#X obj 483 81 r \$0-kick-decay-s;
#X obj 658 126 r \$0-kick-envmod-s;
#X obj 763 309 r \$0-kick-sweep-s;
#X obj 377 503 outlet~;
#X obj 606 18 inlet~;
#X obj 606 79 t b f;
#X obj 257 75 t b b b;
#X obj 300 113 s \$0-kick-trig!;
#X obj 483 127 +;
#X obj 658 168 +;
#X obj 606 57 snapshot~;
#X obj 675 24 r \$0-kick-trig!;
#X obj 788 122 inlet~;
#X obj 788 183 t b f;
#X obj 788 161 snapshot~;
#X obj 857 128 r \$0-kick-trig!;
#X obj 763 424 +~;
#X obj 763 446 clip~ 0 0.5;
#X obj 894 326 inlet~;
#X obj 894 348 *~ 0.5;
#X obj 375 268 +~;
#X obj 304 194 inlet~;
#X obj 304 216 *~ 127;
#N canvas 267 22 593 735 state-saving-multiple-instances 0;
#X obj 205 28 loadbang;
#X obj 251 481 textfile;
#X obj 205 61 t b b;
#X msg 508 464 rewind;
#X msg 465 464 bang;
#X obj 109 691 textfile;
#X obj 465 425 t b b;
#X obj 110 357 f;
#X obj 123 580 f;
#X obj 48 403 t b b b;
#X msg 186 580 clear;
#X obj 271 217 outlet;
#X text 267 237 INSTANCE NUMBER;
#X obj 232 152 f \$1;
#X obj 232 188 t f f f;
#X obj 48 378 bng 15 250 50 0 empty empty empty 17 7 0 10 -262144 -1
-1;
#X obj 48 274 r SAVE-S;
#X obj 125 309 r \$0-kick-pitch-s;
#X obj 251 617 s \$0-kick-pitch-r;
#X obj 133 332 r \$0-kick-decay-s;
#X obj 278 594 s \$0-kick-decay-r;
#X obj 156 353 r \$0-kick-envmod-s;
#X obj 305 568 s \$0-kick-envmod-r;
#X obj 179 374 r \$0-kick-sweep-s;
#X obj 332 538 s \$0-kick-sweep-r;
#X msg 122 651 write statesave/\$1-kick-ss.txt;
#X msg 250 456 read statesave/\$1-kick-ss.txt;
#X msg 110 438 set \$1 \$2 \$3 \$4 \$5;
#X obj 110 400 pack f f f f f;
#X obj 251 503 unpack f f f f f;
#X obj 229 399 r \$0-kick-wform-s;
#X obj 392 517 s \$0-kick-wform-r;
#X connect 0 0 2 0;
#X connect 1 0 29 0;
#X connect 2 0 6 0;
#X connect 2 1 13 0;
#X connect 3 0 1 0;
#X connect 4 0 1 0;
#X connect 6 0 4 0;
#X connect 6 1 3 0;
#X connect 7 0 28 0;
#X connect 8 0 25 0;
#X connect 9 0 8 0;
#X connect 9 1 7 0;
#X connect 9 2 10 0;
#X connect 10 0 5 0;
#X connect 13 0 14 0;
#X connect 14 0 8 1;
#X connect 14 1 26 0;
#X connect 14 2 11 0;
#X connect 15 0 9 0;
#X connect 16 0 15 0;
#X connect 17 0 7 1;
#X connect 19 0 28 1;
#X connect 21 0 28 2;
#X connect 23 0 28 3;
#X connect 25 0 5 0;
#X connect 26 0 1 0;
#X connect 27 0 5 0;
#X connect 28 0 27 0;
#X connect 29 0 18 0;
#X connect 29 1 20 0;
#X connect 29 2 22 0;
#X connect 29 3 24 0;
#X connect 29 4 31 0;
#X connect 30 0 28 4;
#X restore 99 339 pd state-saving-multiple-instances;
#X obj 99 411 s \$0-instance-num;
#X obj 99 363 makefilename %d;
#X msg 99 388 label \$1;
#N canvas 81 22 1117 745 state-saving-via-preset-manager-module 0;
#X obj 477 349 textfile;
#X msg 755 332 rewind;
#X msg 712 332 bang;
#X obj 243 690 textfile;
#X obj 712 293 t b b;
#X obj 244 356 f;
#X obj 257 579 f;
#X obj 190 474 t b b b;
#X msg 373 621 clear;
#X obj 244 180 delay 5;
#X obj 190 529 delay 10;
#X msg 190 314 bang;
#X obj 190 155 r STORE-S!;
#X obj 477 250 f;
#X obj 450 207 t b b;
#X obj 465 171 t b f;
#X obj 522 268 f \$1;
#X obj 477 295 pack f f;
#X obj 522 218 loadbang;
#X obj 257 609 pack f f;
#X obj 302 562 loadbang;
#X obj 302 584 f \$1;
#X obj 477 664 pack f f;
#X obj 477 688 line;
#X obj 522 639 r preset-manager-morph-s;
#X obj 465 107 r preset-manager-scan;
#X obj 504 568 pack f f;
#X obj 504 592 line;
#X obj 549 543 r preset-manager-morph-s;
#X obj 272 540 r preset-manager-store-slot;
#X obj 531 471 pack f f;
#X obj 531 495 line;
#X obj 575 432 r preset-manager-morph-s;
#X obj 721 456 pack f f;
#X obj 721 480 line;
#X obj 766 431 r preset-manager-morph-s;
#X msg 932 671 stop;
#X obj 932 636 r STOP-MORPH!;
#X obj 465 129 i;
#X obj 259 308 r \$0-kick-pitch-s;
#X obj 477 713 s \$0-kick-pitch-r;
#X obj 267 330 r \$0-kick-decay-s;
#X obj 504 615 s \$0-kick-decay-r;
#X obj 290 352 r \$0-kick-envmod-s;
#X obj 531 518 s \$0-kick-envmod-r;
#X obj 313 374 r \$0-kick-sweep-s;
#X obj 721 503 s \$0-kick-sweep-r;
#X msg 256 650 write statesave/\$1-\$2-kick-ss.txt;
#X msg 477 324 read statesave/\$1-\$2-kick-ss.txt;
#X msg 243 490 set \$1 \$2 \$3 \$4 \$5;
#X obj 244 423 pack f f f f f;
#X obj 477 371 unpack f f f f f;
#X obj 346 409 r \$0-kick-wform-s;
#X obj 877 470 pack f f;
#X obj 877 494 line;
#X obj 922 445 r preset-manager-morph-s;
#X obj 877 517 s \$0-kick-wform-r;
#X connect 0 0 51 0;
#X connect 1 0 0 0;
#X connect 2 0 0 0;
#X connect 4 0 2 0;
#X connect 4 1 1 0;
#X connect 5 0 50 0;
#X connect 6 0 19 0;
#X connect 7 0 10 0;
#X connect 7 1 9 0;
#X connect 7 2 8 0;
#X connect 8 0 3 0;
#X connect 9 0 5 0;
#X connect 10 0 6 0;
#X connect 11 0 7 0;
#X connect 12 0 11 0;
#X connect 13 0 17 0;
#X connect 14 0 4 0;
#X connect 14 1 13 0;
#X connect 15 0 14 0;
#X connect 15 1 13 1;
#X connect 16 0 17 1;
#X connect 17 0 48 0;
#X connect 18 0 16 0;
#X connect 19 0 47 0;
#X connect 20 0 21 0;
#X connect 21 0 19 1;
#X connect 22 0 23 0;
#X connect 23 0 40 0;
#X connect 24 0 22 1;
#X connect 25 0 38 0;
#X connect 26 0 27 0;
#X connect 27 0 42 0;
#X connect 28 0 26 1;
#X connect 29 0 6 1;
#X connect 30 0 31 0;
#X connect 31 0 44 0;
#X connect 32 0 30 1;
#X connect 33 0 34 0;
#X connect 34 0 46 0;
#X connect 35 0 33 1;
#X connect 36 0 23 0;
#X connect 36 0 27 0;
#X connect 36 0 31 0;
#X connect 36 0 34 0;
#X connect 36 0 54 0;
#X connect 37 0 36 0;
#X connect 38 0 15 0;
#X connect 39 0 5 1;
#X connect 41 0 50 1;
#X connect 43 0 50 2;
#X connect 45 0 50 3;
#X connect 47 0 3 0;
#X connect 48 0 0 0;
#X connect 49 0 3 0;
#X connect 50 0 49 0;
#X connect 51 0 22 0;
#X connect 51 1 26 0;
#X connect 51 2 30 0;
#X connect 51 3 33 0;
#X connect 51 4 53 0;
#X connect 52 0 50 4;
#X connect 53 0 54 0;
#X connect 54 0 56 0;
#X connect 55 0 53 1;
#X restore 99 317 pd state-saving-via-preset-manager-module;
#X obj 105 124 cnv 5 5 5 empty empty KICK 0 0 0 12 -262144 -66577 0
;
#X obj 221 109 cnv 5 5 5 empty empty SWEEP 0 0 0 8 -262144 -1 0;
#X obj 103 109 cnv 5 5 5 empty empty TRIG 0 0 0 8 -262144 -226533 0
;
#X obj 158 109 cnv 5 5 5 empty empty DECAY 0 0 0 8 -262144 -1 0;
#X obj 145 124 cnv 5 5 5 empty \$0-instance-num 2 0 0 0 12 -262144
-66577 0;
#X obj 128 109 cnv 5 5 5 empty empty PITCH 0 0 0 8 -262144 -1 0;
#X obj 249 109 cnv 5 5 5 empty empty WFORM 0 0 0 8 -262144 -1 0;
#X floatatom 552 252 5 0 0 0 - - -, f 5;
#X obj 483 176 * 3000;
#N canvas 292 124 758 559 anti-alias 0;
#X obj 144 23 inlet~;
#X obj 144 509 outlet~;
#X obj 144 69 osc~;
#N canvas 0 22 827 623 wform-xfader 0;
#X obj 115 599 *~;
#X obj 116 679 outlet~;
#X obj 59 540 inlet~ A;
#X obj 252 603 *~;
#X obj 193 548 inlet~ B;
#X obj 403 609 *~;
#X obj 344 554 inlet~ C;
#X obj 90 152 r \$0-kick-wform-s;
#X obj 90 258 sig~;
#X obj 90 295 +~;
#X obj 90 339 clip~ 0 1;
#X obj 90 465 lop~ 10;
#X obj 208 465 lop~ 10;
#X obj 327 465 lop~ 10;
#X obj 90 366 expr~ if ($v1 < 0.5 \, (1-$v1*2) \, 0 ) \; if ($v1 <
0.5 \, $v1*2 \, (1-$v1+0.5)*2-1 ) \; if ($v1 > 0.5 \, ($v1*2-1) \,
0 );
#X obj 90 414 clip~ 0 1;
#X obj 208 421 clip~ 0 1;
#X obj 327 420 clip~ 0 1;
#X obj 90 223 / 127;
#X obj 213 271 r~ \$0-kick-wform-cv;
#X connect 0 0 1 0;
#X connect 2 0 0 0;
#X connect 3 0 1 0;
#X connect 4 0 3 0;
#X connect 5 0 1 0;
#X connect 6 0 5 0;
#X connect 7 0 18 0;
#X connect 8 0 9 0;
#X connect 9 0 10 0;
#X connect 10 0 14 0;
#X connect 11 0 0 1;
#X connect 12 0 3 1;
#X connect 13 0 5 1;
#X connect 14 0 15 0;
#X connect 14 1 16 0;
#X connect 14 2 17 0;
#X connect 15 0 11 0;
#X connect 16 0 12 0;
#X connect 17 0 13 0;
#X connect 18 0 8 0;
#X connect 19 0 9 1;
#X restore 144 283 pd wform-xfader;
#X obj 388 77 phasor~;
#X obj 388 99 expr~ $v1 > 0.5;
#X obj 388 121 *~ 2;
#X obj 388 143 -~ 1;
#X obj 211 91 phasor~;
#X obj 211 223 -~ 1;
#X obj 211 113 *~ 2;
#X connect 0 0 2 0;
#X connect 0 0 4 0;
#X connect 0 0 8 0;
#X connect 2 0 3 0;
#X connect 3 0 1 0;
#X connect 4 0 5 0;
#X connect 5 0 6 0;
#X connect 6 0 7 0;
#X connect 7 0 3 2;
#X connect 8 0 10 0;
#X connect 9 0 3 1;
#X connect 10 0 9 0;
#X restore 377 360 pd anti-alias;
#X obj 108 189 hsl 128 15 0 127 0 1 \$0-kick-wform-s \$0-kick-wform-r
WFORM 135 7 0 10 -262144 -1 -1 0 1;
#X obj 375 165 * 2;
#X obj 377 476 *~ 2;
#X obj 998 294 inlet~ WFORM;
#X obj 998 316 s~ \$0-kick-wform-cv;
#X obj 196 109 cnv 5 5 5 empty empty EG2 0 0 0 8 -262144 -1 0;
#N canvas 297 27 518 295 parameter-nudging-system 0;
#N canvas 0 22 484 497 param-nudge 0;
#X obj 124 234 random;
#X obj 232 335 f;
#X obj 232 368 +;
#X obj 257 166 random 2;
#X obj 124 275 t f f;
#X obj 124 351 t b f;
#X obj 124 297 *;
#X obj 257 188 sel 0 1;
#X msg 257 280 -1;
#X msg 335 280 1;
#X obj 124 149 t b b b;
#X obj 124 123 r NUDGE!;
#X obj 157 193 r NUDGE-RANGE;
#X obj 247 308 inlet;
#X obj 232 397 outlet;
#X floatatom 316 396 5 0 0 0 - - -, f 5;
#X connect 0 0 4 0;
#X connect 1 0 2 0;
#X connect 2 0 14 0;
#X connect 2 0 15 0;
#X connect 3 0 7 0;
#X connect 4 0 6 0;
#X connect 5 0 2 0;
#X connect 5 1 2 1;
#X connect 6 0 5 0;
#X connect 7 0 8 0;
#X connect 7 1 9 0;
#X connect 8 0 6 1;
#X connect 9 0 6 1;
#X connect 10 0 0 0;
#X connect 10 1 1 0;
#X connect 10 2 3 0;
#X connect 11 0 10 0;
#X connect 12 0 0 1;
#X connect 13 0 1 1;
#X restore 23 45 pd param-nudge;
#N canvas 0 22 484 497 param-nudge 0;
#X obj 124 234 random;
#X obj 232 335 f;
#X obj 232 368 +;
#X obj 257 166 random 2;
#X obj 124 275 t f f;
#X obj 124 351 t b f;
#X obj 124 297 *;
#X obj 257 188 sel 0 1;
#X msg 257 280 -1;
#X msg 335 280 1;
#X obj 124 149 t b b b;
#X obj 124 123 r NUDGE!;
#X obj 157 193 r NUDGE-RANGE;
#X obj 247 308 inlet;
#X obj 232 397 outlet;
#X connect 0 0 4 0;
#X connect 1 0 2 0;
#X connect 2 0 14 0;
#X connect 3 0 7 0;
#X connect 4 0 6 0;
#X connect 5 0 2 0;
#X connect 5 1 2 1;
#X connect 6 0 5 0;
#X connect 7 0 8 0;
#X connect 7 1 9 0;
#X connect 8 0 6 1;
#X connect 9 0 6 1;
#X connect 10 0 0 0;
#X connect 10 1 1 0;
#X connect 10 2 3 0;
#X connect 11 0 10 0;
#X connect 12 0 0 1;
#X connect 13 0 1 1;
#X restore 171 45 pd param-nudge;
#N canvas 0 22 484 497 param-nudge 0;
#X obj 124 234 random;
#X obj 232 335 f;
#X obj 232 368 +;
#X obj 257 166 random 2;
#X obj 124 275 t f f;
#X obj 124 351 t b f;
#X obj 124 297 *;
#X obj 257 188 sel 0 1;
#X msg 257 280 -1;
#X msg 335 280 1;
#X obj 124 149 t b b b;
#X obj 124 123 r NUDGE!;
#X obj 157 193 r NUDGE-RANGE;
#X obj 247 308 inlet;
#X obj 232 397 outlet;
#X connect 0 0 4 0;
#X connect 1 0 2 0;
#X connect 2 0 14 0;
#X connect 3 0 7 0;
#X connect 4 0 6 0;
#X connect 5 0 2 0;
#X connect 5 1 2 1;
#X connect 6 0 5 0;
#X connect 7 0 8 0;
#X connect 7 1 9 0;
#X connect 8 0 6 1;
#X connect 9 0 6 1;
#X connect 10 0 0 0;
#X connect 10 1 1 0;
#X connect 10 2 3 0;
#X connect 11 0 10 0;
#X connect 12 0 0 1;
#X connect 13 0 1 1;
#X restore 281 45 pd param-nudge;
#N canvas 0 22 484 497 param-nudge 0;
#X obj 124 234 random;
#X obj 232 335 f;
#X obj 232 368 +;
#X obj 257 166 random 2;
#X obj 124 275 t f f;
#X obj 124 351 t b f;
#X obj 124 297 *;
#X obj 257 188 sel 0 1;
#X msg 257 280 -1;
#X msg 335 280 1;
#X obj 124 149 t b b b;
#X obj 124 123 r NUDGE!;
#X obj 157 193 r NUDGE-RANGE;
#X obj 247 308 inlet;
#X obj 232 397 outlet;
#X connect 0 0 4 0;
#X connect 1 0 2 0;
#X connect 2 0 14 0;
#X connect 3 0 7 0;
#X connect 4 0 6 0;
#X connect 5 0 2 0;
#X connect 5 1 2 1;
#X connect 6 0 5 0;
#X connect 7 0 8 0;
#X connect 7 1 9 0;
#X connect 8 0 6 1;
#X connect 9 0 6 1;
#X connect 10 0 0 0;
#X connect 10 1 1 0;
#X connect 10 2 3 0;
#X connect 11 0 10 0;
#X connect 12 0 0 1;
#X connect 13 0 1 1;
#X restore 21 149 pd param-nudge;
#N canvas 0 22 484 497 param-nudge 0;
#X obj 124 234 random;
#X obj 232 335 f;
#X obj 232 368 +;
#X obj 257 166 random 2;
#X obj 124 275 t f f;
#X obj 124 351 t b f;
#X obj 124 297 *;
#X obj 257 188 sel 0 1;
#X msg 257 280 -1;
#X msg 335 280 1;
#X obj 124 149 t b b b;
#X obj 124 123 r NUDGE!;
#X obj 157 193 r NUDGE-RANGE;
#X obj 247 308 inlet;
#X obj 232 397 outlet;
#X connect 0 0 4 0;
#X connect 1 0 2 0;
#X connect 2 0 14 0;
#X connect 3 0 7 0;
#X connect 4 0 6 0;
#X connect 5 0 2 0;
#X connect 5 1 2 1;
#X connect 6 0 5 0;
#X connect 7 0 8 0;
#X connect 7 1 9 0;
#X connect 8 0 6 1;
#X connect 9 0 6 1;
#X connect 10 0 0 0;
#X connect 10 1 1 0;
#X connect 10 2 3 0;
#X connect 11 0 10 0;
#X connect 12 0 0 1;
#X connect 13 0 1 1;
#X restore 170 149 pd param-nudge;
#X obj 21 171 clip 0 127;
#X obj 170 171 clip 0 127;
#X obj 23 67 clip 0 127;
#X obj 171 67 clip 0 127;
#X obj 281 69 clip 0 127;
#X obj 23 22 r \$0-kick-pitch-s;
#X obj 23 95 s \$0-kick-pitch-r;
#X obj 171 22 r \$0-kick-decay-s;
#X obj 171 95 s \$0-kick-decay-r;
#X obj 281 22 r \$0-kick-envmod-s;
#X obj 281 95 s \$0-kick-envmod-r;
#X obj 21 126 r \$0-kick-sweep-s;
#X obj 20 197 s \$0-kick-sweep-r;
#X obj 170 126 r \$0-kick-wform-s;
#X obj 170 197 s \$0-kick-wform-r;
#X connect 0 0 7 0;
#X connect 1 0 8 0;
#X connect 2 0 9 0;
#X connect 3 0 5 0;
#X connect 4 0 6 0;
#X connect 5 0 17 0;
#X connect 6 0 19 0;
#X connect 7 0 11 0;
#X connect 8 0 13 0;
#X connect 9 0 15 0;
#X connect 10 0 0 0;
#X connect 12 0 1 0;
#X connect 14 0 2 0;
#X connect 16 0 3 0;
#X connect 18 0 4 0;
#X restore 99 290 pd parameter-nudging-system;
#X obj 257 49 threshold~ 0.9 0 0.9 0;
#X connect 4 0 72 0;
#X connect 5 0 6 0;
#X connect 6 0 7 0;
#X connect 6 0 7 1;
#X connect 7 0 8 0;
#X connect 7 0 8 1;
#X connect 8 0 4 1;
#X connect 9 0 5 0;
#X connect 10 0 40 0;
#X connect 11 1 9 1;
#X connect 12 0 13 0;
#X connect 13 0 14 0;
#X connect 13 0 14 1;
#X connect 14 0 15 0;
#X connect 14 0 15 1;
#X connect 15 0 24 0;
#X connect 16 0 12 0;
#X connect 17 0 41 0;
#X connect 18 1 16 1;
#X connect 19 0 23 1;
#X connect 20 0 25 0;
#X connect 21 0 22 0;
#X connect 22 0 48 0;
#X connect 23 0 69 0;
#X connect 24 0 19 0;
#X connect 25 0 21 0;
#X connect 26 0 27 0;
#X connect 27 0 28 0;
#X connect 28 0 52 0;
#X connect 29 0 18 0;
#X connect 30 0 71 0;
#X connect 31 0 77 0;
#X connect 32 0 10 0;
#X connect 33 0 17 0;
#X connect 34 0 20 0;
#X connect 36 0 42 0;
#X connect 37 0 40 0;
#X connect 37 1 40 1;
#X connect 38 0 9 0;
#X connect 38 1 16 0;
#X connect 38 2 39 0;
#X connect 40 0 68 0;
#X connect 41 0 29 0;
#X connect 42 0 37 0;
#X connect 43 0 42 0;
#X connect 44 0 46 0;
#X connect 45 0 41 0;
#X connect 45 1 41 1;
#X connect 46 0 45 0;
#X connect 47 0 46 0;
#X connect 48 0 49 0;
#X connect 49 0 19 1;
#X connect 50 0 51 0;
#X connect 51 0 48 1;
#X connect 52 0 23 0;
#X connect 53 0 54 0;
#X connect 54 0 52 1;
#X connect 55 0 57 0;
#X connect 57 0 58 0;
#X connect 58 0 56 0;
#X connect 68 0 11 0;
#X connect 68 0 67 0;
#X connect 69 0 4 0;
#X connect 71 0 26 0;
#X connect 72 0 35 0;
#X connect 73 0 74 0;
#X connect 77 0 38 0;
#X coords 0 -1 1 1 175 115 2 100 100;
