#N canvas 0 22 805 658 10;
#N canvas 0 22 585 577 filter-vcf 0;
#X obj 186 106 inlet~;
#X obj 252 473 outlet~;
#X obj 34 159 *~;
#X obj 430 19 inlet;
#X obj 430 120 pack 0 50;
#X obj 430 142 line~;
#X obj 252 449 clip~ -1 1;
#X obj 252 323 *~ 2;
#X obj 337 362 *~ 2;
#X obj 252 421 *~ 0.5;
#X obj 74 438 *~ -1;
#X obj 270 299 vcf~ 1;
#X obj 304 333 vcf~ 1;
#X obj 524 236 pack 0 50;
#X obj 524 258 line;
#X obj 524 192 * 5;
#X obj 524 280 t f f;
#X obj 430 63 t f f f;
#X obj 186 269 vcf~ 1;
#X obj 391 225 pack 0 50;
#X obj 391 247 line;
#X obj 391 269 t f f;
#X obj 219 298 vcf~ 1;
#X obj 391 181 * 3;
#X obj 285 110 inlet~;
#X obj 290 243 +~ 10;
#X obj 74 469 delwrite~ \$0-feedfeed2 1;
#X obj 34 92 delread~ \$0-feedfeed2 1;
#X obj 186 78 block~ 64;
#X obj 33 128 lop~ 10000, f 12;
#X obj 430 96 * 0.99;
#X obj 391 203 + 1.5;
#X obj 524 214 + 1.5;
#X connect 0 0 11 0;
#X connect 0 0 18 0;
#X connect 2 0 18 0;
#X connect 3 0 17 0;
#X connect 4 0 5 0;
#X connect 5 0 2 1;
#X connect 6 0 1 0;
#X connect 7 0 9 0;
#X connect 7 0 10 0;
#X connect 8 0 9 0;
#X connect 8 0 26 0;
#X connect 9 0 6 0;
#X connect 10 0 26 0;
#X connect 11 1 12 0;
#X connect 12 1 8 0;
#X connect 13 0 14 0;
#X connect 14 0 16 0;
#X connect 15 0 32 0;
#X connect 16 0 11 2;
#X connect 16 1 12 2;
#X connect 17 0 30 0;
#X connect 17 1 15 0;
#X connect 17 2 23 0;
#X connect 18 1 22 0;
#X connect 19 0 20 0;
#X connect 20 0 21 0;
#X connect 21 0 18 2;
#X connect 22 1 7 0;
#X connect 23 0 31 0;
#X connect 24 0 18 1;
#X connect 24 0 22 1;
#X connect 24 0 25 0;
#X connect 25 0 11 1;
#X connect 25 0 12 1;
#X connect 27 0 29 0;
#X connect 29 0 2 0;
#X connect 30 0 4 0;
#X connect 31 0 19 0;
#X connect 32 0 13 0;
#X restore 310 399 pd filter-vcf;
#X obj 309 31 inlet~;
#X obj 310 534 outlet~;
#X obj 518 104 inlet~;
#X obj 106 167 hsl 128 15 0 127 0 0 \$0-lp-filter2-fm--/+-s \$0-lp-filter2-fm--/+-r
FM-/+ 133 7 0 10 -150893 -1 -1 8200 1;
#X obj 346 84 r \$0-lp-filter2-cutoff-s;
#X obj 346 107 / 127;
#X obj 346 154 pack 0 50;
#X obj 346 176 line~;
#X obj 346 198 +~;
#X obj 346 242 +~ 1;
#X obj 518 181 *~;
#X obj 75 455 hsl 128 15 0 127 0 0 \$0-lp-filter2-gain-s \$0-lp-filter2-gain-r
GAIN 133 7 0 10 -262144 -1 -1 12700 1;
#X obj 584 23 r \$0-lp-filter2-fm--/+-s;
#X obj 584 45 / 127;
#X obj 584 67 * 2;
#X obj 584 89 - 1;
#X obj 584 142 pack 0 50;
#X obj 584 164 line~;
#X obj 106 137 hsl 128 15 0 127 0 0 \$0-lp-filter2-cutoff-s \$0-lp-filter2-cutoff-r
CUTOFF 133 7 0 10 -262144 -1 -1 5000 1;
#X obj 384 240 r \$0-lp-filter2-q-s;
#X obj 384 262 / 127;
#X obj 384 312 +;
#X obj 592 251 inlet~;
#X obj 593 273 snapshot~;
#X obj 593 295 t b f;
#X obj 658 234 loadbang;
#X obj 658 256 metro 20;
#X obj 105 109 cnv 5 5 5 empty empty IN 0 0 0 8 -262144 -66577 0;
#X obj 173 109 cnv 5 5 5 empty empty CUTOFF 0 0 0 8 -262144 -96927
0;
#X obj 104 128 cnv 5 5 5 empty empty LP-FILTER 0 0 0 12 -262144 -66577
0;
#X obj 258 109 cnv 5 5 5 empty empty Q 0 0 0 8 -262144 -66577 0;
#X obj 176 128 cnv 5 5 5 empty \$0-instance-num 1 0 0 0 12 -262144
-66577 0;
#X floatatom 103 182 5 0 0 0 - - -, f 5;
#X obj 584 111 t f f;
#N canvas 100 22 593 735 state-saving-multiple-instances 0;
#X obj 164 26 loadbang;
#X obj 210 479 textfile;
#X msg 491 462 rewind;
#X msg 448 462 bang;
#X obj 88 657 textfile;
#X obj 448 421 t b b;
#X obj 88 355 f;
#X obj 101 578 f;
#X obj 27 402 t b b b;
#X msg 163 573 clear;
#X obj 230 235 outlet;
#X text 272 237 INSTANCE NUMBER;
#X obj 88 398 pack f f f;
#X msg 88 436 set \$1 \$2 \$3;
#X obj 210 501 unpack f f f;
#X obj 191 200 t f f f;
#X obj 191 164 f \$1;
#X obj 164 59 t b b;
#X obj 27 378 bng 15 250 50 0 empty empty empty 17 7 0 10 -262144 -1
-1;
#X obj 27 234 r SAVE-S;
#X obj 103 307 r \$0-lp-filter2-cutoff-s;
#X obj 210 573 s \$0-lp-filter2-cutoff-r;
#X obj 116 345 r \$0-lp-filter2-q-s;
#X obj 244 547 s \$0-lp-filter2-q-r;
#X obj 145 373 r \$0-lp-filter2-fm--/+-s;
#X obj 279 525 s \$0-lp-filter2-fm--/+-r;
#X msg 210 454 read statesave/\$1-lowpass2-ss.txt;
#X msg 101 605 write statesave/\$1-lowpass2-ss.txt;
#X connect 0 0 17 0;
#X connect 1 0 14 0;
#X connect 2 0 1 0;
#X connect 3 0 1 0;
#X connect 5 0 3 0;
#X connect 5 1 2 0;
#X connect 6 0 12 0;
#X connect 7 0 27 0;
#X connect 8 0 7 0;
#X connect 8 1 6 0;
#X connect 8 2 9 0;
#X connect 9 0 4 0;
#X connect 12 0 13 0;
#X connect 13 0 4 0;
#X connect 14 0 21 0;
#X connect 14 1 23 0;
#X connect 14 2 25 0;
#X connect 15 0 7 1;
#X connect 15 1 26 0;
#X connect 15 2 10 0;
#X connect 16 0 15 0;
#X connect 17 0 5 0;
#X connect 17 1 16 0;
#X connect 18 0 8 0;
#X connect 19 0 18 0;
#X connect 20 0 6 1;
#X connect 22 0 12 1;
#X connect 24 0 12 2;
#X connect 26 0 1 0;
#X connect 27 0 4 0;
#X restore 42 298 pd state-saving-multiple-instances;
#X obj 42 371 s \$0-instance-num;
#X obj 42 323 makefilename %d;
#X msg 42 348 label \$1;
#N canvas 81 22 1117 745 state-saving-via-preset-manager-module 0;
#X obj 477 349 textfile;
#X msg 755 332 rewind;
#X msg 712 332 bang;
#X obj 243 690 textfile;
#X obj 712 293 t b b;
#X obj 244 356 f;
#X obj 257 579 f;
#X obj 190 474 t b b b;
#X msg 373 621 clear;
#X obj 244 180 delay 5;
#X obj 190 529 delay 10;
#X msg 190 314 bang;
#X obj 190 155 r STORE-S!;
#X obj 477 250 f;
#X obj 450 207 t b b;
#X obj 465 171 t b f;
#X obj 522 268 f \$1;
#X obj 477 295 pack f f;
#X obj 522 218 loadbang;
#X obj 257 609 pack f f;
#X obj 302 562 loadbang;
#X obj 302 584 f \$1;
#X obj 477 664 pack f f;
#X obj 477 688 line;
#X obj 522 639 r preset-manager-morph-s;
#X obj 465 122 r preset-manager-scan;
#X obj 504 568 pack f f;
#X obj 504 592 line;
#X obj 549 543 r preset-manager-morph-s;
#X obj 272 540 r preset-manager-store-slot;
#X obj 531 471 pack f f;
#X obj 531 495 line;
#X obj 575 432 r preset-manager-morph-s;
#X msg 932 671 stop;
#X obj 932 636 r STOP-MORPH!;
#X msg 243 490 set \$1 \$2 \$3;
#X obj 244 423 pack f f f;
#X obj 477 371 unpack f f f;
#X obj 465 144 i;
#X obj 259 308 r \$0-lp-filter2-cutoff-s;
#X obj 477 713 s \$0-lp-filter2-cutoff-r;
#X obj 267 330 r \$0-lp-filter2-q-s;
#X obj 504 615 s \$0-lp-filter2-q-r;
#X obj 290 352 r \$0-lp-filter2-fm--/+-s;
#X obj 531 518 s \$0-lp-filter2-fm--/+-r;
#X msg 477 324 read statesave/\$1-\$2-lp-filter2-ss.txt;
#X msg 256 650 write statesave/\$1-\$2-lp-filter2-ss.txt;
#X connect 0 0 37 0;
#X connect 1 0 0 0;
#X connect 2 0 0 0;
#X connect 4 0 2 0;
#X connect 4 1 1 0;
#X connect 5 0 36 0;
#X connect 6 0 19 0;
#X connect 7 0 10 0;
#X connect 7 1 9 0;
#X connect 7 2 8 0;
#X connect 8 0 3 0;
#X connect 9 0 5 0;
#X connect 10 0 6 0;
#X connect 11 0 7 0;
#X connect 12 0 11 0;
#X connect 13 0 17 0;
#X connect 14 0 4 0;
#X connect 14 1 13 0;
#X connect 15 0 14 0;
#X connect 15 1 13 1;
#X connect 16 0 17 1;
#X connect 17 0 45 0;
#X connect 18 0 16 0;
#X connect 19 0 46 0;
#X connect 20 0 21 0;
#X connect 21 0 19 1;
#X connect 22 0 23 0;
#X connect 23 0 40 0;
#X connect 24 0 22 1;
#X connect 25 0 38 0;
#X connect 26 0 27 0;
#X connect 27 0 42 0;
#X connect 28 0 26 1;
#X connect 29 0 6 1;
#X connect 30 0 31 0;
#X connect 31 0 44 0;
#X connect 32 0 30 1;
#X connect 33 0 23 0;
#X connect 33 0 27 0;
#X connect 33 0 31 0;
#X connect 34 0 33 0;
#X connect 35 0 3 0;
#X connect 36 0 35 0;
#X connect 37 0 22 0;
#X connect 37 1 26 0;
#X connect 37 2 30 0;
#X connect 38 0 15 0;
#X connect 39 0 5 1;
#X connect 41 0 36 1;
#X connect 43 0 36 2;
#X connect 45 0 0 0;
#X connect 46 0 3 0;
#X restore 43 274 pd state-saving-via-preset-manager-module;
#X obj 346 220 *~ 5000;
#X obj 309 53 *~ 0.5;
#N canvas 297 27 518 295 parameter-nudging-system 0;
#N canvas 0 22 484 497 param-nudge 0;
#X obj 124 234 random;
#X obj 232 335 f;
#X obj 232 368 +;
#X obj 257 166 random 2;
#X obj 124 275 t f f;
#X obj 124 351 t b f;
#X obj 124 297 *;
#X obj 257 188 sel 0 1;
#X msg 257 280 -1;
#X msg 335 280 1;
#X obj 124 149 t b b b;
#X obj 124 123 r NUDGE!;
#X obj 157 193 r NUDGE-RANGE;
#X obj 247 308 inlet;
#X obj 232 397 outlet;
#X floatatom 316 396 5 0 0 0 - - -, f 5;
#X connect 0 0 4 0;
#X connect 1 0 2 0;
#X connect 2 0 14 0;
#X connect 2 0 15 0;
#X connect 3 0 7 0;
#X connect 4 0 6 0;
#X connect 5 0 2 0;
#X connect 5 1 2 1;
#X connect 6 0 5 0;
#X connect 7 0 8 0;
#X connect 7 1 9 0;
#X connect 8 0 6 1;
#X connect 9 0 6 1;
#X connect 10 0 0 0;
#X connect 10 1 1 0;
#X connect 10 2 3 0;
#X connect 11 0 10 0;
#X connect 12 0 0 1;
#X connect 13 0 1 1;
#X restore 23 45 pd param-nudge;
#N canvas 0 22 484 497 param-nudge 0;
#X obj 124 234 random;
#X obj 232 335 f;
#X obj 232 368 +;
#X obj 257 166 random 2;
#X obj 124 275 t f f;
#X obj 124 351 t b f;
#X obj 124 297 *;
#X obj 257 188 sel 0 1;
#X msg 257 280 -1;
#X msg 335 280 1;
#X obj 124 149 t b b b;
#X obj 124 123 r NUDGE!;
#X obj 157 193 r NUDGE-RANGE;
#X obj 247 308 inlet;
#X obj 232 397 outlet;
#X connect 0 0 4 0;
#X connect 1 0 2 0;
#X connect 2 0 14 0;
#X connect 3 0 7 0;
#X connect 4 0 6 0;
#X connect 5 0 2 0;
#X connect 5 1 2 1;
#X connect 6 0 5 0;
#X connect 7 0 8 0;
#X connect 7 1 9 0;
#X connect 8 0 6 1;
#X connect 9 0 6 1;
#X connect 10 0 0 0;
#X connect 10 1 1 0;
#X connect 10 2 3 0;
#X connect 11 0 10 0;
#X connect 12 0 0 1;
#X connect 13 0 1 1;
#X restore 182 45 pd param-nudge;
#N canvas 0 22 484 497 param-nudge 0;
#X obj 124 234 random;
#X obj 232 335 f;
#X obj 232 368 +;
#X obj 257 166 random 2;
#X obj 124 275 t f f;
#X obj 124 351 t b f;
#X obj 124 297 *;
#X obj 257 188 sel 0 1;
#X msg 257 280 -1;
#X msg 335 280 1;
#X obj 124 149 t b b b;
#X obj 124 123 r NUDGE!;
#X obj 157 193 r NUDGE-RANGE;
#X obj 247 308 inlet;
#X obj 232 397 outlet;
#X connect 0 0 4 0;
#X connect 1 0 2 0;
#X connect 2 0 14 0;
#X connect 3 0 7 0;
#X connect 4 0 6 0;
#X connect 5 0 2 0;
#X connect 5 1 2 1;
#X connect 6 0 5 0;
#X connect 7 0 8 0;
#X connect 7 1 9 0;
#X connect 8 0 6 1;
#X connect 9 0 6 1;
#X connect 10 0 0 0;
#X connect 10 1 1 0;
#X connect 10 2 3 0;
#X connect 11 0 10 0;
#X connect 12 0 0 1;
#X connect 13 0 1 1;
#X restore 320 45 pd param-nudge;
#X obj 23 67 clip 0 127;
#X obj 182 67 clip 0 127;
#X obj 320 69 clip 0 127;
#X obj 23 22 r \$0-lp-filter2-cutoff-s;
#X obj 23 95 s \$0-lp-filter2-cutoff-r;
#X obj 182 22 r \$0-lp-filter2-q-s;
#X obj 182 95 s \$0-lp-filter2-q-r;
#X obj 320 22 r \$0-lp-filter2-fm--/+-s;
#X obj 320 95 s \$0-lp-filter2-fm--/+-r;
#X connect 0 0 3 0;
#X connect 1 0 4 0;
#X connect 2 0 5 0;
#X connect 3 0 7 0;
#X connect 4 0 9 0;
#X connect 5 0 11 0;
#X connect 6 0 0 0;
#X connect 8 0 1 0;
#X connect 10 0 2 0;
#X restore 44 249 pd parameter-nudging-system;
#X obj 106 152 hsl 128 15 0 127 0 0 \$0-lp-filter2-q-s \$0-lp-filter2-q-r
Q 133 7 0 10 -262144 -1 -1 2600 1;
#X obj 426 362 r \$0-lp-filter2-gain-s;
#X obj 426 384 * 0.00787402;
#X obj 426 406 + 1;
#X obj 426 428 pack 0 50;
#X obj 426 450 line~;
#X obj 310 497 clip~ -1 1;
#X obj 310 466 *~ 2;
#X connect 0 0 50 0;
#X connect 1 0 41 0;
#X connect 3 0 11 0;
#X connect 5 0 6 0;
#X connect 6 0 7 0;
#X connect 7 0 8 0;
#X connect 8 0 9 0;
#X connect 9 0 40 0;
#X connect 10 0 0 1;
#X connect 11 0 9 1;
#X connect 13 0 14 0;
#X connect 14 0 15 0;
#X connect 15 0 16 0;
#X connect 16 0 34 0;
#X connect 17 0 18 0;
#X connect 18 0 11 1;
#X connect 20 0 21 0;
#X connect 21 0 22 0;
#X connect 22 0 0 2;
#X connect 23 0 24 0;
#X connect 24 0 25 0;
#X connect 25 0 22 0;
#X connect 25 1 22 1;
#X connect 26 0 27 0;
#X connect 27 0 24 0;
#X connect 34 0 17 0;
#X connect 34 1 33 0;
#X connect 35 0 37 0;
#X connect 37 0 38 0;
#X connect 38 0 36 0;
#X connect 40 0 10 0;
#X connect 41 0 0 0;
#X connect 44 0 45 0;
#X connect 45 0 46 0;
#X connect 46 0 47 0;
#X connect 47 0 48 0;
#X connect 49 0 2 0;
#X connect 50 0 49 0;
#X coords 0 -1 1 1 175 100 2 100 100;
