#N canvas 12 108 200 200 10;
#N canvas 41 85 350 218 META 0;
#X text 11 87 AUTHOR Martin Peach;
#X text 13 69 VERSION 0.1;
#X text 13 11 NAME slip;
#X text 11 106 LICENSE GNU GPL v2+;
#N canvas 20 85 323 151 OBJECTS 0;
#X text 12 38 slipenc encode a byte list to a SLIP packet;
#X text 11 16 slipdec decode a SLIP packet;
#X restore 14 135 pd OBJECTS;
#X text 12 29 DESCRIPTION encoder and decoder for SLIP (Serial Line
Internet Protocol;
#X restore 10 11 pd META;
