#N canvas 472 219 1077 738 10;
#X obj 100 381 line~;
#X obj 100 430 mtof~;
#X floatatom 204 114 5 0 0 1 Hz - -;
#X obj 100 410 +~;
#X obj 240 343 *~ 127;
#X obj 106 128 hsl 128 15 0 127 0 1 \$0-basic-lfo-freq-s \$0-basic-lfo-freq-r
FREQ 135 7 0 10 -262144 -1 -1 6300 1;
#X obj 269 109 cnv 5 5 5 empty empty SYNC 0 0 0 8 -262144 -226533 0
;
#X obj 100 450 +~;
#X obj 103 121 cnv 5 5 5 empty empty BASIC-LFO 0 0 0 12 -262144 -66577
0;
#X obj 100 360 pack 0 50;
#X obj 106 158 hsl 128 15 0 127 0 1 \$0-basic-lfo-pwidth-s \$0-basic-lfo-pwidth-r
P-WIDTH 135 7 0 10 -262144 -1 -1 6400 1;
#X obj 268 198 cnv 5 5 5 empty empty TRIG 0 0 0 8 -262144 -226533 0
;
#N canvas 225 289 407 227 sinewave 1;
#X obj 175 46 r \$0-basic-lfo-sync!;
#X obj 123 46 inlet~;
#X obj 123 122 osc~;
#X obj 123 152 outlet~;
#X msg 175 68 1 0 \, 0 1 1;
#X obj 175 90 line;
#X connect 0 0 4 0;
#X connect 1 0 2 0;
#X connect 2 0 3 0;
#X connect 4 0 5 0;
#X connect 5 0 2 1;
#X restore 100 501 pd sinewave;
#X obj 174 121 cnv 5 5 5 empty \$0-instance-num 1 0 0 0 12 -262144
-66577 0;
#N canvas 32 577 411 381 triangle 1;
#X obj 158 59 r \$0-basic-lfo-sync!;
#X obj 99 59 inlet~;
#X obj 99 327 outlet~;
#X obj 99 131 phasor~;
#X obj 99 219 min~;
#X obj 120 173 *~ -1;
#X obj 120 195 +~ 1;
#X obj 99 241 *~ 4;
#X obj 99 263 -~ 1;
#X msg 158 82 1 0 \, 0 1 1;
#X obj 158 104 line;
#X connect 0 0 9 0;
#X connect 1 0 3 0;
#X connect 3 0 4 0;
#X connect 3 0 5 0;
#X connect 4 0 7 0;
#X connect 5 0 6 0;
#X connect 6 0 4 1;
#X connect 7 0 8 0;
#X connect 8 0 2 0;
#X connect 9 0 10 0;
#X connect 10 0 3 1;
#X restore 177 500 pd triangle;
#N canvas 6 82 404 323 saw 1;
#X obj 187 56 r \$0-basic-lfo-sync!;
#X obj 138 56 inlet~;
#X obj 138 254 outlet~;
#X obj 138 128 phasor~;
#X obj 138 190 -~ 1;
#X obj 138 163 *~ 2;
#X connect 1 0 3 0;
#X connect 3 0 5 0;
#X connect 4 0 2 0;
#X connect 5 0 4 0;
#X restore 256 500 pd saw;
#N canvas 6 82 408 433 pulse 1;
#X obj 149 62 r \$0-basic-lfo-sync!;
#X obj 104 63 inlet~;
#X obj 104 411 outlet~;
#X obj 104 135 phasor~;
#X obj 104 365 -~ 1;
#X obj 104 263 cos~;
#X obj 104 290 expr~ $v1 < $v2;
#X obj 191 215 pack 0 50;
#X obj 191 237 line~;
#X obj 191 261 +~;
#X obj 191 140 * 0.00787402;
#X obj 104 344 *~ 2;
#X obj 191 118 r \$0-basic-lfo-pwidth-s;
#X obj 191 184 + 0.01;
#X obj 191 162 * 0.98;
#X connect 1 0 3 0;
#X connect 3 0 5 0;
#X connect 4 0 2 0;
#X connect 5 0 6 0;
#X connect 6 0 11 0;
#X connect 7 0 8 0;
#X connect 8 0 9 0;
#X connect 9 0 6 1;
#X connect 10 0 14 0;
#X connect 11 0 4 0;
#X connect 12 0 10 0;
#X connect 13 0 7 0;
#X connect 14 0 13 0;
#X restore 320 499 pd pulse;
#X obj 106 173 hsl 128 15 0 127 0 1 \$0-basic-lfo-depth-s \$0-basic-lfo-depth-r
DEPTH 135 7 0 10 -158136 -1 -1 1100 1;
#X obj 104 109 cnv 5 5 5 empty empty FREQ 0 0 0 8 -262144 -66577 0
;
#X obj 100 296 t f f;
#X obj 100 230 r \$0-basic-lfo-freq-s;
#X obj 100 533 *~;
#X obj 176 544 *~;
#X obj 257 561 *~;
#X obj 320 573 *~;
#X obj 441 408 r \$0-basic-lfo-depth-s;
#X obj 441 437 * 0.00787402;
#X obj 441 460 pack 0 50;
#X obj 441 506 line~;
#X obj 103 198 cnv 5 5 5 empty empty BI-P 0 0 0 8 -262144 -66577 0
;
#X obj 140 198 cnv 5 5 5 empty empty UNI-P 0 0 0 8 -262144 -66577 0
;
#X obj 183 198 cnv 5 5 5 empty empty PULSE 0 0 0 8 -262144 -1 0;
#X obj 426 681 *~;
#X obj 502 506 noise~;
#X obj 502 596 samphold~;
#X obj 240 230 inlet~ FREQ;
#X obj 318 265 s \$0-basic-lfo-sync!;
#X obj 100 252 * 1.5;
#X obj 100 274 - 127;
#X obj 529 537 threshold~ 0.9 0 0.9 0;
#X msg 529 559 reset;
#X obj 100 712 outlet~ BI-POLAR;
#X obj 207 712 outlet~ UNI-POLAR;
#X obj 320 712 outlet~ PULSE;
#X obj 426 712 outlet~ S&H;
#X obj 106 143 hsl 128 15 0 127 0 1 \$0-basic-lfo-wform-s \$0-basic-lfo-wform-r
SI-TR-SA 135 7 0 10 -262144 -1 -1 12700 1;
#X obj 765 465 sig~;
#X obj 765 488 +~;
#X obj 765 511 clip~ 0 1;
#X obj 765 549 expr~ if ($v1 < 0.5 \, (1-$v1*2) \, 0 ) \; if ($v1 <
0.5 \, $v1*2 \, (1-$v1+0.5)*2-1 ) \; if ($v1 > 0.5 \, ($v1*2-1) \,
0 );
#X obj 765 598 clip~ 0 1;
#X obj 883 598 clip~ 0 1;
#X obj 1002 598 clip~ 0 1;
#X obj 765 407 r \$0-basic-lfo-wform-s;
#X obj 765 441 / 127;
#X obj 100 613 *~;
#X obj 175 614 *~;
#X obj 256 614 *~;
#X obj 100 664 *~ 1;
#X obj 606 630 vline~;
#X obj 606 655 outlet~ TRIG;
#X obj 233 198 cnv 5 5 5 empty empty S&H 0 0 0 8 -262144 -66577 0;
#X msg 606 608 1 0 \, 0 10 1;
#X obj 206 689 abs~;
#X obj 127 321 mtof;
#X obj 318 231 inlet;
#X connect 0 0 3 0;
#X connect 1 0 7 0;
#X connect 3 0 1 0;
#X connect 4 0 3 1;
#X connect 7 0 12 0;
#X connect 7 0 14 0;
#X connect 7 0 15 0;
#X connect 7 0 16 0;
#X connect 9 0 0 0;
#X connect 12 0 21 0;
#X connect 14 0 22 0;
#X connect 15 0 23 0;
#X connect 16 0 24 0;
#X connect 16 0 39 0;
#X connect 19 0 9 0;
#X connect 19 1 64 0;
#X connect 20 0 37 0;
#X connect 21 0 55 0;
#X connect 22 0 56 0;
#X connect 23 0 57 0;
#X connect 24 0 43 0;
#X connect 25 0 26 0;
#X connect 26 0 27 0;
#X connect 27 0 28 0;
#X connect 28 0 24 1;
#X connect 28 0 23 1;
#X connect 28 0 22 1;
#X connect 28 0 21 1;
#X connect 28 0 32 1;
#X connect 32 0 44 0;
#X connect 33 0 34 0;
#X connect 34 0 32 0;
#X connect 35 0 4 0;
#X connect 37 0 38 0;
#X connect 38 0 19 0;
#X connect 39 0 40 0;
#X connect 39 0 62 0;
#X connect 40 0 34 0;
#X connect 46 0 47 0;
#X connect 47 0 48 0;
#X connect 48 0 49 0;
#X connect 49 0 50 0;
#X connect 49 1 51 0;
#X connect 49 2 52 0;
#X connect 50 0 55 1;
#X connect 51 0 56 1;
#X connect 52 0 57 1;
#X connect 53 0 54 0;
#X connect 54 0 46 0;
#X connect 55 0 58 0;
#X connect 56 0 58 0;
#X connect 57 0 58 0;
#X connect 58 0 41 0;
#X connect 58 0 63 0;
#X connect 59 0 60 0;
#X connect 62 0 59 0;
#X connect 63 0 42 0;
#X connect 64 0 2 0;
#X connect 65 0 36 0;
#X coords 0 -1 1 1 190 105 2 100 100;
