#N canvas 0 51 932 636 10;
#X obj 122 165 vsl 15 96 1.27 127 1 1 \$0-decay-decay-s \$0-decay-decay-r
D 4 -9 0 10 -262144 -1 -1 3700 1;
#X obj 329 247 / 127;
#X obj 329 291 * 1999;
#X obj 329 313 - 18.99;
#X obj 314 56 inlet~;
#X obj 314 536 outlet~;
#X obj 107 117 bng 15 50 50 0 empty empty empty 17 7 0 10 -262144 -226533
-1;
#X obj 314 100 t b b;
#X obj 103 268 cnv 5 5 5 empty empty OUT 0 0 0 8 -262144 -1 0;
#X obj 314 359 f;
#X msg 314 387 1 1 \, 0 \$1 1;
#X obj 137 165 vsl 15 96 0 127 0 1 \$0-decay-cv-att-s \$0-decay-cv-att-r
CV 2 -9 0 10 -158136 -1 -1 5100 1;
#X obj 112 141 cnv 5 5 5 empty empty DECAY 0 0 0 12 -262144 -66577
0;
#X obj 499 85 inlet~;
#X obj 499 206 *~;
#X obj 499 230 snapshot~;
#X obj 499 252 t b f;
#X obj 562 213 bang~;
#X obj 514 136 / 127;
#X obj 514 158 pack 0 50;
#X obj 514 180 line~;
#X text 500 63 CV IN;
#X text 311 34 SGNAL IN;
#X obj 162 108 cnv 5 5 5 empty empty CV 0 0 0 8 -262144 -158136 0;
#X obj 104 109 cnv 5 5 5 empty empty TRIG 0 0 0 8 -262144 -226533 0
;
#X obj 329 269 +;
#X obj 329 335 moses 1;
#N canvas 21 22 593 735 state-saving-multiple-instances 0;
#X obj 215 28 loadbang;
#X obj 261 480 textfile;
#X msg 518 463 rewind;
#X msg 475 463 bang;
#X obj 119 690 textfile;
#X obj 475 424 t b b;
#X obj 120 356 f;
#X obj 133 579 f;
#X obj 66 422 t b b b;
#X msg 196 579 clear;
#X obj 281 216 outlet;
#X text 277 236 INSTANCE NUMBER;
#X obj 242 92 f \$1;
#X obj 242 128 t f f f;
#X obj 215 61 t b b;
#X obj 66 331 bng 15 250 50 0 empty empty empty 17 7 0 10 -262144 -1
-1;
#X obj 66 235 r SAVE-S;
#X obj 120 399 pack f f;
#X msg 120 438 set \$1 \$2;
#X obj 261 502 unpack f f;
#X obj 135 308 r \$0-decay-decay-s;
#X obj 261 604 s \$0-decay-decay-r;
#X msg 132 650 write statesave/\$1-decay-ss.txt;
#X msg 261 455 read statesave/\$1-decay-ss.txt;
#X obj 165 355 r \$0-decay-cv-att-s;
#X obj 318 530 s \$0-decay-cv-att-r;
#X connect 0 0 14 0;
#X connect 1 0 19 0;
#X connect 2 0 1 0;
#X connect 3 0 1 0;
#X connect 5 0 3 0;
#X connect 5 1 2 0;
#X connect 6 0 17 0;
#X connect 7 0 22 0;
#X connect 8 0 7 0;
#X connect 8 1 6 0;
#X connect 8 2 9 0;
#X connect 9 0 4 0;
#X connect 12 0 13 0;
#X connect 13 0 7 1;
#X connect 13 1 23 0;
#X connect 13 2 10 0;
#X connect 14 0 5 0;
#X connect 14 1 12 0;
#X connect 15 0 8 0;
#X connect 16 0 15 0;
#X connect 17 0 18 0;
#X connect 18 0 4 0;
#X connect 19 0 21 0;
#X connect 19 1 25 0;
#X connect 20 0 6 1;
#X connect 22 0 4 0;
#X connect 23 0 1 0;
#X connect 24 0 17 1;
#X restore 102 363 pd state-saving-multiple-instances;
#X obj 314 411 vline~;
#X obj 314 433 *~;
#X obj 314 455 *~;
#X obj 102 435 s \$0-instance-num;
#X obj 102 387 makefilename %d;
#X obj 157 141 cnv 5 5 5 empty \$0-instance-num 2 0 0 0 12 -262144
-66577 0;
#X msg 102 412 label \$1;
#X obj 314 78 threshold~ 0.99 0 1 0;
#N canvas 81 22 1117 745 state-saving-via-preset-manager-module 1;
#X obj 477 349 textfile;
#X msg 755 332 rewind;
#X msg 712 332 bang;
#X obj 243 690 textfile;
#X obj 712 293 t b b;
#X obj 244 356 f;
#X obj 257 579 f;
#X obj 190 422 t b b b;
#X msg 320 579 clear;
#X obj 244 399 pack f f;
#X msg 244 438 set \$1 \$2;
#X obj 477 371 unpack f f;
#X floatatom 325 391 5 0 0 0 - - -, f 5;
#X obj 244 264 delay 5;
#X obj 190 484 delay 10;
#X msg 190 314 bang;
#X obj 190 147 r STORE-S!;
#X obj 477 250 f;
#X obj 450 207 t b b;
#X obj 465 171 t b f;
#X obj 522 268 f \$1;
#X obj 477 295 pack f f;
#X obj 522 218 loadbang;
#X obj 257 609 pack f f;
#X obj 302 467 loadbang;
#X obj 302 489 f \$1;
#X obj 476 566 pack f f;
#X obj 476 590 line;
#X obj 521 541 r preset-manager-morph-s;
#X obj 465 148 r preset-manager-scan;
#X obj 534 470 pack f f;
#X obj 534 494 line;
#X obj 579 445 r preset-manager-morph-s;
#X obj 279 148 r preset-manager-store-slot;
#X msg 928 577 stop;
#X obj 928 542 r STOP-MORPH!;
#X msg 256 650 write statesave/\$1-\$2-decay-ss.txt;
#X msg 477 324 read statesave/\$1-\$2-decay-ss.txt;
#X obj 259 308 r \$0-decay-decay-s;
#X obj 476 615 s \$0-decay-decay-r;
#X obj 289 355 r \$0-decay-cv-att-s;
#X obj 534 517 s \$0-decay-cv-att-r;
#X connect 0 0 11 0;
#X connect 1 0 0 0;
#X connect 2 0 0 0;
#X connect 4 0 2 0;
#X connect 4 1 1 0;
#X connect 5 0 9 0;
#X connect 6 0 23 0;
#X connect 7 0 14 0;
#X connect 7 1 13 0;
#X connect 7 2 8 0;
#X connect 8 0 3 0;
#X connect 9 0 10 0;
#X connect 10 0 3 0;
#X connect 11 0 26 0;
#X connect 11 1 30 0;
#X connect 13 0 5 0;
#X connect 14 0 6 0;
#X connect 15 0 7 0;
#X connect 16 0 15 0;
#X connect 17 0 21 0;
#X connect 18 0 4 0;
#X connect 18 1 17 0;
#X connect 19 0 18 0;
#X connect 19 1 17 1;
#X connect 20 0 21 1;
#X connect 21 0 37 0;
#X connect 22 0 20 0;
#X connect 23 0 36 0;
#X connect 24 0 25 0;
#X connect 25 0 23 1;
#X connect 26 0 27 0;
#X connect 27 0 39 0;
#X connect 28 0 26 1;
#X connect 29 0 19 0;
#X connect 30 0 31 0;
#X connect 31 0 41 0;
#X connect 32 0 30 1;
#X connect 33 0 6 1;
#X connect 34 0 27 0;
#X connect 34 0 31 0;
#X connect 35 0 34 0;
#X connect 36 0 3 0;
#X connect 37 0 0 0;
#X connect 38 0 5 1;
#X connect 40 0 9 1;
#X connect 40 0 12 0;
#X restore 36 461 pd state-saving-via-preset-manager-module;
#N canvas 297 27 748 331 parameter-nudging-system 0;
#N canvas 0 22 484 497 param-nudge 0;
#X obj 124 234 random;
#X obj 232 335 f;
#X obj 232 368 +;
#X obj 257 166 random 2;
#X obj 124 275 t f f;
#X obj 124 351 t b f;
#X obj 124 297 *;
#X obj 257 188 sel 0 1;
#X msg 257 280 -1;
#X msg 335 280 1;
#X obj 124 149 t b b b;
#X obj 124 123 r NUDGE!;
#X obj 157 193 r NUDGE-RANGE;
#X obj 247 308 inlet;
#X obj 232 397 outlet;
#X floatatom 316 396 5 0 0 0 - - -, f 5;
#X connect 0 0 4 0;
#X connect 1 0 2 0;
#X connect 2 0 14 0;
#X connect 2 0 15 0;
#X connect 3 0 7 0;
#X connect 4 0 6 0;
#X connect 5 0 2 0;
#X connect 5 1 2 1;
#X connect 6 0 5 0;
#X connect 7 0 8 0;
#X connect 7 1 9 0;
#X connect 8 0 6 1;
#X connect 9 0 6 1;
#X connect 10 0 0 0;
#X connect 10 1 1 0;
#X connect 10 2 3 0;
#X connect 11 0 10 0;
#X connect 12 0 0 1;
#X connect 13 0 1 1;
#X restore 23 45 pd param-nudge;
#N canvas 0 22 484 497 param-nudge 0;
#X obj 124 234 random;
#X obj 232 335 f;
#X obj 232 368 +;
#X obj 257 166 random 2;
#X obj 124 275 t f f;
#X obj 124 351 t b f;
#X obj 124 297 *;
#X obj 257 188 sel 0 1;
#X msg 257 280 -1;
#X msg 335 280 1;
#X obj 124 149 t b b b;
#X obj 124 123 r NUDGE!;
#X obj 157 193 r NUDGE-RANGE;
#X obj 247 308 inlet;
#X obj 232 397 outlet;
#X connect 0 0 4 0;
#X connect 1 0 2 0;
#X connect 2 0 14 0;
#X connect 3 0 7 0;
#X connect 4 0 6 0;
#X connect 5 0 2 0;
#X connect 5 1 2 1;
#X connect 6 0 5 0;
#X connect 7 0 8 0;
#X connect 7 1 9 0;
#X connect 8 0 6 1;
#X connect 9 0 6 1;
#X connect 10 0 0 0;
#X connect 10 1 1 0;
#X connect 10 2 3 0;
#X connect 11 0 10 0;
#X connect 12 0 0 1;
#X connect 13 0 1 1;
#X restore 171 45 pd param-nudge;
#X obj 23 67 clip 0 127;
#X obj 171 67 clip 0 127;
#X obj 23 22 r \$0-decay-decay-s;
#X obj 23 95 s \$0-decay-decay-r;
#X obj 171 22 r \$0-decay-cv-att-s;
#X obj 171 95 s \$0-decay-cv-att-r;
#X connect 0 0 2 0;
#X connect 1 0 3 0;
#X connect 2 0 5 0;
#X connect 3 0 7 0;
#X connect 4 0 0 0;
#X connect 6 0 1 0;
#X restore 102 341 pd parameter-nudging-system;
#X connect 0 0 1 0;
#X connect 1 0 25 0;
#X connect 2 0 3 0;
#X connect 3 0 26 0;
#X connect 4 0 35 0;
#X connect 7 0 9 0;
#X connect 7 1 6 0;
#X connect 9 0 10 0;
#X connect 10 0 28 0;
#X connect 11 0 18 0;
#X connect 13 0 14 0;
#X connect 14 0 15 0;
#X connect 15 0 16 0;
#X connect 16 0 25 0;
#X connect 16 1 25 1;
#X connect 17 0 15 0;
#X connect 18 0 19 0;
#X connect 19 0 20 0;
#X connect 20 0 14 1;
#X connect 25 0 2 0;
#X connect 26 1 9 1;
#X connect 27 0 32 0;
#X connect 28 0 29 0;
#X connect 28 0 29 1;
#X connect 29 0 30 0;
#X connect 29 0 30 1;
#X connect 30 0 5 0;
#X connect 32 0 34 0;
#X connect 34 0 31 0;
#X connect 35 0 7 0;
#X coords 0 -1 1 1 75 175 2 100 100;
