#N canvas 0 22 1225 752 10;
#X obj 108 161 hsl 128 15 0 127 0 1 \$0-ladder-fm-/+-s \$0-ladder-fm-/+-r
FM-/+ 135 7 0 10 -150893 -1 -1 4900 1;
#X obj 536 155 pack 0 10;
#X obj 536 177 line~;
#X obj 536 133 / 127;
#X obj 536 199 +~;
#X obj 108 146 hsl 128 15 0 127 0 1 \$0-ladder-q-s \$0-ladder-q-r Q
135 7 0 10 -262144 -1 -1 5300 1;
#X obj 333 63 / 127;
#X obj 333 128 pack 0 50;
#X obj 333 150 line~;
#X obj 333 106 * 0.99;
#X obj 501 643 clip~ -1 1;
#X obj 536 243 lop~ 10;
#X obj 396 102 * 2;
#X obj 536 275 s~ \$0-ladder-cutoff;
#X obj 303 5 inlet~;
#X obj 333 85 t f f;
#X obj 501 745 outlet~;
#X obj 396 124 + 1;
#X obj 396 148 s \$0-ladder-q-mess;
#X obj 536 22 r \$0-ladder-freq-s;
#X obj 780 53 inlet~ FREQ CV INPUT;
#X obj 333 43 r \$0-ladder-q-s;
#X obj 303 336 vcf~ 1;
#X obj 318 232 *~;
#X obj 303 264 +~;
#X obj 319 287 r~ \$0-ladder-cutoff;
#X obj 318 210 r~ \$0-ladder-Q;
#X obj 336 309 r \$0-ladder-q-mess;
#X obj 336 380 vcf~ 1;
#X obj 352 331 r~ \$0-ladder-cutoff;
#X obj 369 353 r \$0-ladder-q-mess;
#X obj 369 427 vcf~ 1;
#X obj 385 378 r~ \$0-ladder-cutoff;
#X obj 402 400 r \$0-ladder-q-mess;
#X obj 402 471 vcf~ 1;
#X obj 418 422 r~ \$0-ladder-cutoff;
#X obj 435 444 r \$0-ladder-q-mess;
#X obj 435 515 vcf~ 1;
#X obj 451 466 r~ \$0-ladder-cutoff;
#X obj 468 488 r \$0-ladder-q-mess;
#X obj 468 559 vcf~ 1;
#X obj 484 510 r~ \$0-ladder-cutoff;
#X obj 501 532 r \$0-ladder-q-mess;
#X obj 577 638 s~ \$0-ladder-Q;
#X obj 577 576 *~ 2;
#X obj 501 591 *~ 2;
#X obj 536 44 t f f;
#X obj 839 178 / 127;
#X obj 839 200 * 3;
#X obj 839 222 + 1;
#X floatatom 839 244 5 0 0 0 - - -, f 5;
#X obj 501 613 *~;
#X obj 839 263 pack 0 50;
#X obj 839 285 line~;
#X obj 536 221 *~ 5000;
#X obj 577 598 *~ -1;
#X obj 680 377 vcf~ 1;
#X obj 713 350 r \$0-ladder-q-mess;
#X obj 713 421 vcf~ 1;
#X obj 746 394 r \$0-ladder-q-mess;
#X obj 746 468 vcf~ 1;
#X obj 779 441 r \$0-ladder-q-mess;
#X obj 779 512 vcf~ 1;
#X obj 812 485 r \$0-ladder-q-mess;
#X obj 812 556 vcf~ 1;
#X obj 845 529 r \$0-ladder-q-mess;
#X obj 845 600 vcf~ 1;
#X obj 878 573 r \$0-ladder-q-mess;
#X obj 696 328 r~ \$0-ladder-cutoff2;
#X obj 729 372 r~ \$0-ladder-cutoff2;
#X obj 762 419 r~ \$0-ladder-cutoff2;
#X obj 795 463 r~ \$0-ladder-cutoff2;
#X obj 828 507 r~ \$0-ladder-cutoff2;
#X obj 861 551 r~ \$0-ladder-cutoff2;
#X obj 691 283 s~ \$0-ladder-cutoff2;
#X obj 878 670 clip~ -1 1;
#X obj 878 624 *~ 2;
#X obj 878 646 *~;
#X obj 501 724 clip~ -1 1;
#X obj 691 261 +~ 10;
#X obj 105 109 cnv 5 5 5 empty empty IN 0 0 0 8 -262144 -66577 0;
#X obj 252 109 cnv 5 5 5 empty empty FREQ 0 0 0 8 -262144 -96927 0
;
#X obj 104 120 cnv 5 5 5 empty empty LADDER-FILTER 0 0 0 12 -262144
-66577 0;
#X obj 229 120 cnv 5 5 5 empty \$0-instance-num 2 0 0 0 12 -262144
-66577 0;
#X obj 108 131 hsl 128 15 1.27 127 1 1 \$0-ladder-freq-s \$0-ladder-freq-r
FREQ 135 7 0 10 -262144 -1 -1 5200 1;
#X obj 780 141 *~;
#X obj 929 16 r \$0-ladder-fm-/+-s;
#X obj 929 38 / 127;
#X obj 929 60 * 2;
#X obj 929 82 - 1;
#X obj 929 104 pack 0 50;
#X obj 929 126 line~;
#X floatatom 105 176 5 0 0 0 - #0-ladder-fm-/+-gui-r #0-ladder-fm-/+-gui-s
, f 5;
#X obj 1024 97 s \$0-ladder-fm-/+-gui-r;
#X obj 246 70 clip~ -1 1;
#N canvas 100 22 593 735 state-saving-multiple-instances 0;
#X obj 164 26 loadbang;
#X obj 210 479 textfile;
#X msg 491 462 rewind;
#X msg 448 462 bang;
#X obj 88 707 textfile;
#X obj 448 421 t b b;
#X obj 88 355 f;
#X obj 101 578 f;
#X obj 27 402 t b b b;
#X msg 163 573 clear;
#X obj 230 235 outlet;
#X text 272 237 INSTANCE NUMBER;
#X obj 191 200 t f f f;
#X obj 191 164 f \$1;
#X obj 164 59 t b b;
#X obj 27 378 bng 15 250 50 0 empty empty empty 17 7 0 10 -262144 -1
-1;
#X obj 27 234 r SAVE-S;
#X msg 88 436 set \$1 \$2 \$3 \$4;
#X obj 88 398 pack f f f f;
#X obj 210 501 unpack f f f f;
#X obj 100 258 r \$0-ladder-freq-s;
#X obj 210 650 s \$0-ladder-freq-r;
#X msg 101 682 write statesave/\$1-ladder-filter-ss.txt;
#X msg 210 454 read statesave/\$1-ladder-filter-ss.txt;
#X obj 113 296 r \$0-ladder-q-s;
#X obj 244 624 s \$0-ladder-q-r;
#X obj 142 324 r \$0-ladder-drive-s;
#X obj 279 602 s \$0-ladder-drive-r;
#X obj 172 360 r \$0-ladder-fm-/+-s;
#X obj 302 558 s \$0-ladder-fm-/+-r;
#X connect 0 0 14 0;
#X connect 1 0 19 0;
#X connect 2 0 1 0;
#X connect 3 0 1 0;
#X connect 5 0 3 0;
#X connect 5 1 2 0;
#X connect 6 0 18 0;
#X connect 7 0 22 0;
#X connect 8 0 7 0;
#X connect 8 1 6 0;
#X connect 8 2 9 0;
#X connect 9 0 4 0;
#X connect 12 0 7 1;
#X connect 12 1 23 0;
#X connect 12 2 10 0;
#X connect 13 0 12 0;
#X connect 14 0 5 0;
#X connect 14 1 13 0;
#X connect 15 0 8 0;
#X connect 16 0 15 0;
#X connect 17 0 4 0;
#X connect 18 0 17 0;
#X connect 19 0 21 0;
#X connect 19 1 25 0;
#X connect 19 2 27 0;
#X connect 19 3 29 0;
#X connect 20 0 6 1;
#X connect 22 0 4 0;
#X connect 23 0 1 0;
#X connect 24 0 18 1;
#X connect 26 0 18 2;
#X connect 28 0 18 3;
#X restore 94 520 pd state-saving-multiple-instances;
#X obj 94 597 s \$0-instance-num;
#X obj 94 549 makefilename %d;
#X msg 94 574 label \$1;
#N canvas 81 22 1117 745 state-saving-via-preset-manager-module 0;
#X obj 477 349 textfile;
#X msg 755 332 rewind;
#X msg 712 332 bang;
#X obj 243 690 textfile;
#X obj 712 293 t b b;
#X obj 244 356 f;
#X obj 257 579 f;
#X obj 190 474 t b b b;
#X msg 373 621 clear;
#X obj 244 180 delay 5;
#X obj 190 529 delay 10;
#X msg 190 314 bang;
#X obj 190 155 r STORE-S!;
#X obj 477 250 f;
#X obj 450 207 t b b;
#X obj 465 171 t b f;
#X obj 522 268 f \$1;
#X obj 477 295 pack f f;
#X obj 522 218 loadbang;
#X obj 257 609 pack f f;
#X obj 302 562 loadbang;
#X obj 302 584 f \$1;
#X obj 477 664 pack f f;
#X obj 477 688 line;
#X obj 522 639 r preset-manager-morph-s;
#X obj 465 148 r preset-manager-scan;
#X obj 504 568 pack f f;
#X obj 504 592 line;
#X obj 549 543 r preset-manager-morph-s;
#X obj 272 540 r preset-manager-store-slot;
#X msg 243 490 set \$1 \$2 \$3 \$4;
#X obj 244 423 pack f f f f;
#X obj 531 471 pack f f;
#X obj 531 495 line;
#X obj 575 432 r preset-manager-morph-s;
#X obj 477 371 unpack f f f f;
#X obj 731 388 pack f f;
#X obj 731 412 line;
#X obj 776 363 r preset-manager-morph-s;
#X msg 932 671 stop;
#X obj 932 636 r STOP-MORPH!;
#X msg 256 650 write statesave/\$1-\$2-ladder-filter-ss.txt;
#X msg 477 324 read statesave/\$1-\$2-ladder-filter-ss.txt;
#X obj 259 308 r \$0-ladder-freq-s;
#X obj 477 713 s \$0-ladder-freq-r;
#X obj 267 330 r \$0-ladder-q-s;
#X obj 504 615 s \$0-ladder-q-r;
#X obj 290 352 r \$0-ladder-drive-s;
#X obj 531 518 s \$0-ladder-drive-r;
#X obj 313 374 r \$0-ladder-fm-/+-s;
#X obj 731 435 s \$0-ladder-fm-/+-r;
#X connect 0 0 35 0;
#X connect 1 0 0 0;
#X connect 2 0 0 0;
#X connect 4 0 2 0;
#X connect 4 1 1 0;
#X connect 5 0 31 0;
#X connect 6 0 19 0;
#X connect 7 0 10 0;
#X connect 7 1 9 0;
#X connect 7 2 8 0;
#X connect 8 0 3 0;
#X connect 9 0 5 0;
#X connect 10 0 6 0;
#X connect 11 0 7 0;
#X connect 12 0 11 0;
#X connect 13 0 17 0;
#X connect 14 0 4 0;
#X connect 14 1 13 0;
#X connect 15 0 14 0;
#X connect 15 1 13 1;
#X connect 16 0 17 1;
#X connect 17 0 42 0;
#X connect 18 0 16 0;
#X connect 19 0 41 0;
#X connect 20 0 21 0;
#X connect 21 0 19 1;
#X connect 22 0 23 0;
#X connect 23 0 44 0;
#X connect 24 0 22 1;
#X connect 25 0 15 0;
#X connect 26 0 27 0;
#X connect 27 0 46 0;
#X connect 28 0 26 1;
#X connect 29 0 6 1;
#X connect 30 0 3 0;
#X connect 31 0 30 0;
#X connect 32 0 33 0;
#X connect 33 0 48 0;
#X connect 34 0 32 1;
#X connect 35 0 22 0;
#X connect 35 1 26 0;
#X connect 35 2 32 0;
#X connect 35 3 36 0;
#X connect 36 0 37 0;
#X connect 37 0 50 0;
#X connect 38 0 36 1;
#X connect 39 0 23 0;
#X connect 39 0 27 0;
#X connect 39 0 33 0;
#X connect 39 0 37 0;
#X connect 40 0 39 0;
#X connect 41 0 3 0;
#X connect 42 0 0 0;
#X connect 43 0 5 1;
#X connect 45 0 31 1;
#X connect 47 0 31 2;
#X connect 49 0 31 3;
#X restore 94 494 pd state-saving-via-preset-manager-module;
#X obj 303 27 *~ 8;
#N canvas 297 27 518 295 parameter-nudging-system 0;
#N canvas 0 22 484 497 param-nudge 0;
#X obj 124 234 random;
#X obj 232 335 f;
#X obj 232 368 +;
#X obj 257 166 random 2;
#X obj 124 275 t f f;
#X obj 124 351 t b f;
#X obj 124 297 *;
#X obj 257 188 sel 0 1;
#X msg 257 280 -1;
#X msg 335 280 1;
#X obj 124 149 t b b b;
#X obj 124 123 r NUDGE!;
#X obj 157 193 r NUDGE-RANGE;
#X obj 247 308 inlet;
#X obj 232 397 outlet;
#X floatatom 316 396 5 0 0 0 - - -, f 5;
#X connect 0 0 4 0;
#X connect 1 0 2 0;
#X connect 2 0 14 0;
#X connect 2 0 15 0;
#X connect 3 0 7 0;
#X connect 4 0 6 0;
#X connect 5 0 2 0;
#X connect 5 1 2 1;
#X connect 6 0 5 0;
#X connect 7 0 8 0;
#X connect 7 1 9 0;
#X connect 8 0 6 1;
#X connect 9 0 6 1;
#X connect 10 0 0 0;
#X connect 10 1 1 0;
#X connect 10 2 3 0;
#X connect 11 0 10 0;
#X connect 12 0 0 1;
#X connect 13 0 1 1;
#X restore 23 45 pd param-nudge;
#N canvas 0 22 484 497 param-nudge 0;
#X obj 124 234 random;
#X obj 232 335 f;
#X obj 232 368 +;
#X obj 257 166 random 2;
#X obj 124 275 t f f;
#X obj 124 351 t b f;
#X obj 124 297 *;
#X obj 257 188 sel 0 1;
#X msg 257 280 -1;
#X msg 335 280 1;
#X obj 124 149 t b b b;
#X obj 124 123 r NUDGE!;
#X obj 157 193 r NUDGE-RANGE;
#X obj 247 308 inlet;
#X obj 232 397 outlet;
#X connect 0 0 4 0;
#X connect 1 0 2 0;
#X connect 2 0 14 0;
#X connect 3 0 7 0;
#X connect 4 0 6 0;
#X connect 5 0 2 0;
#X connect 5 1 2 1;
#X connect 6 0 5 0;
#X connect 7 0 8 0;
#X connect 7 1 9 0;
#X connect 8 0 6 1;
#X connect 9 0 6 1;
#X connect 10 0 0 0;
#X connect 10 1 1 0;
#X connect 10 2 3 0;
#X connect 11 0 10 0;
#X connect 12 0 0 1;
#X connect 13 0 1 1;
#X restore 171 45 pd param-nudge;
#N canvas 0 22 484 497 param-nudge 0;
#X obj 124 234 random;
#X obj 232 335 f;
#X obj 232 368 +;
#X obj 257 166 random 2;
#X obj 124 275 t f f;
#X obj 124 351 t b f;
#X obj 124 297 *;
#X obj 257 188 sel 0 1;
#X msg 257 280 -1;
#X msg 335 280 1;
#X obj 124 149 t b b b;
#X obj 124 123 r NUDGE!;
#X obj 157 193 r NUDGE-RANGE;
#X obj 247 308 inlet;
#X obj 232 397 outlet;
#X connect 0 0 4 0;
#X connect 1 0 2 0;
#X connect 2 0 14 0;
#X connect 3 0 7 0;
#X connect 4 0 6 0;
#X connect 5 0 2 0;
#X connect 5 1 2 1;
#X connect 6 0 5 0;
#X connect 7 0 8 0;
#X connect 7 1 9 0;
#X connect 8 0 6 1;
#X connect 9 0 6 1;
#X connect 10 0 0 0;
#X connect 10 1 1 0;
#X connect 10 2 3 0;
#X connect 11 0 10 0;
#X connect 12 0 0 1;
#X connect 13 0 1 1;
#X restore 281 45 pd param-nudge;
#X obj 23 67 clip 0 127;
#X obj 171 67 clip 0 127;
#X obj 281 69 clip 0 127;
#X obj 23 22 r \$0-ladder-freq-s;
#X obj 23 95 s \$0-ladder-freq-r;
#X obj 171 22 r \$0-ladder-q-s;
#X obj 171 95 s \$0-ladder-q-r;
#X obj 281 25 r \$0-ladder-fm-/+-s;
#X obj 281 95 s \$0-ladder-fm-/+-r;
#X connect 0 0 3 0;
#X connect 1 0 4 0;
#X connect 2 0 5 0;
#X connect 3 0 7 0;
#X connect 4 0 9 0;
#X connect 5 0 11 0;
#X connect 6 0 0 0;
#X connect 8 0 1 0;
#X connect 10 0 2 0;
#X restore 92 463 pd parameter-nudging-system;
#X obj 501 687 *~ 2;
#X connect 1 0 2 0;
#X connect 2 0 4 0;
#X connect 3 0 1 0;
#X connect 4 0 54 0;
#X connect 6 0 15 0;
#X connect 7 0 8 0;
#X connect 8 0 23 1;
#X connect 9 0 7 0;
#X connect 10 0 102 0;
#X connect 11 0 13 0;
#X connect 11 0 79 0;
#X connect 12 0 17 0;
#X connect 14 0 100 0;
#X connect 15 0 9 0;
#X connect 15 1 12 0;
#X connect 17 0 18 0;
#X connect 19 0 46 0;
#X connect 20 0 85 0;
#X connect 21 0 6 0;
#X connect 22 1 28 0;
#X connect 23 0 24 1;
#X connect 24 0 22 0;
#X connect 24 0 56 0;
#X connect 25 0 22 1;
#X connect 26 0 23 0;
#X connect 27 0 22 2;
#X connect 28 1 31 0;
#X connect 29 0 28 1;
#X connect 30 0 28 2;
#X connect 31 1 34 0;
#X connect 32 0 31 1;
#X connect 33 0 31 2;
#X connect 34 1 37 0;
#X connect 35 0 34 1;
#X connect 36 0 34 2;
#X connect 37 1 40 0;
#X connect 38 0 37 1;
#X connect 39 0 37 2;
#X connect 40 1 44 0;
#X connect 40 1 45 0;
#X connect 41 0 40 1;
#X connect 42 0 40 2;
#X connect 44 0 55 0;
#X connect 45 0 51 0;
#X connect 46 0 3 0;
#X connect 46 1 47 0;
#X connect 47 0 48 0;
#X connect 48 0 49 0;
#X connect 49 0 50 0;
#X connect 50 0 52 0;
#X connect 51 0 10 0;
#X connect 52 0 53 0;
#X connect 53 0 51 1;
#X connect 54 0 11 0;
#X connect 55 0 43 0;
#X connect 56 1 58 0;
#X connect 57 0 56 2;
#X connect 58 1 60 0;
#X connect 59 0 58 2;
#X connect 60 1 62 0;
#X connect 61 0 60 2;
#X connect 62 1 64 0;
#X connect 63 0 62 2;
#X connect 64 1 66 0;
#X connect 65 0 64 2;
#X connect 66 1 76 0;
#X connect 67 0 66 2;
#X connect 68 0 56 1;
#X connect 69 0 58 1;
#X connect 70 0 60 1;
#X connect 71 0 62 1;
#X connect 72 0 64 1;
#X connect 73 0 66 1;
#X connect 75 0 102 0;
#X connect 76 0 77 0;
#X connect 77 0 75 0;
#X connect 78 0 16 0;
#X connect 79 0 74 0;
#X connect 85 0 4 1;
#X connect 86 0 87 0;
#X connect 87 0 88 0;
#X connect 88 0 89 0;
#X connect 89 0 90 0;
#X connect 89 0 93 0;
#X connect 90 0 91 0;
#X connect 91 0 85 1;
#X connect 94 0 24 0;
#X connect 95 0 97 0;
#X connect 97 0 98 0;
#X connect 98 0 96 0;
#X connect 100 0 94 0;
#X connect 102 0 78 0;
#X coords 0 -1 1 1 175 95 2 100 100;
