#N canvas 1035 525 566 325 10;
#X obj 71 17 r blobs_datas;
#X obj 71 39 route \$1;
#X obj 30 18 inlet;
#X obj 71 62 unpack float float float float float float float float
;
#X obj 511 162 % 380;
#X obj 385 183 bang;
#X obj 385 204 float;
#X obj 385 17 r circle-\$1;
#X obj 346 140 moses 0;
#X obj 385 162 moses 0;
#X obj 511 141 + 0;
#X obj 385 116 unpack float float float;
#X obj 30 268 pack \$1 float float float float float float float;
#X obj 385 225 t b f;
#X obj 30 294 s slider-\$1;
#X connect 0 0 1 0;
#X connect 1 0 3 0;
#X connect 3 0 12 1;
#X connect 3 1 12 2;
#X connect 3 2 12 3;
#X connect 3 3 12 4;
#X connect 3 4 12 5;
#X connect 3 5 12 6;
#X connect 3 6 8 0;
#X connect 3 7 10 0;
#X connect 4 0 6 1;
#X connect 5 0 6 0;
#X connect 6 0 13 0;
#X connect 7 0 11 0;
#X connect 8 1 9 0;
#X connect 9 0 5 0;
#X connect 10 0 4 0;
#X connect 11 0 8 1;
#X connect 11 1 9 1;
#X connect 11 2 10 1;
#X connect 12 0 14 0;
#X connect 13 0 12 0;
#X connect 13 1 12 7;
