#N canvas 681 439 480 417 10;
#X text 17 340 Cette abstraction permet de délimiter une zone interrupteur
rectangulaire sur le tissu. les Arguments sont les suivants;
#X obj 237 282 outlet;
#X text 18 367 \$1 = Xmin \, \$2 = Xmax \, \$3 = Ymin \, \$4 = Ymax
;
#X msg 292 118 0;
#X msg 239 118 1;
#X msg 172 118 0;
#X msg 119 118 1;
#X obj 66 38 moses \$1;
#X obj 119 61 moses \$2;
#X obj 172 170 &&;
#X obj 186 36 moses \$4;
#X obj 239 61 moses \$3;
#X obj 172 217 debounce 2500;
#X obj 310 61 loadbang;
#X obj 172 193 sel 1;
#X obj 186 12 inlet Y;
#X obj 66 13 inlet X;
#X obj 204 248 + 1;
#X obj 237 248 % 2;
#X obj 172 248 f 0;
#X connect 3 0 9 1;
#X connect 4 0 9 1;
#X connect 5 0 9 0;
#X connect 6 0 9 0;
#X connect 7 0 5 0;
#X connect 7 1 8 0;
#X connect 8 0 6 0;
#X connect 8 1 5 0;
#X connect 9 0 14 0;
#X connect 10 0 3 0;
#X connect 10 1 11 0;
#X connect 11 0 4 0;
#X connect 11 1 3 0;
#X connect 12 0 19 0;
#X connect 13 0 5 0;
#X connect 13 0 3 0;
#X connect 14 0 12 0;
#X connect 15 0 10 0;
#X connect 16 0 7 0;
#X connect 17 0 18 0;
#X connect 18 0 19 1;
#X connect 18 0 1 0;
#X connect 19 0 17 0;
