#N canvas 572 85 745 808 12;
#X msg 12 124 devices;
#X msg 90 156 close;
#X msg 82 124 open 0;
#X obj 250 143 packOSC;
#X obj 250 166 slipenc;
#X obj 82 211 slipdec;
#X obj 135 236 select 1;
#X obj 332 272 spigot;
#X obj 82 304 routeOSC /b;
#X msg 526 123 send /t \$1;
#X text 339 66 <- Calibrate E256;
#X text 556 67 <- Set the Threshold;
#X msg 332 296 /b;
#X obj 332 159 loadbang;
#X msg 332 216 1;
#X obj 332 245 t b f;
#X obj 526 1 loadbang;
#X obj 250 1 loadbang;
#X obj 82 1 loadbang;
#X text 369 295 <- Get blobs;
#X obj 550 409 osc~;
#X obj 551 481 *~;
#X obj 620 409 osc~;
#X obj 550 530 dac~;
#X msg 250 66 send /c 20;
#X obj 82 186 comport 0 230400;
#X obj 82 277 unpackOSC;
#X msg 526 67 25;
#X obj 534 95 s THRESHOLD;
#X obj 250 27 del 500;
#X obj 526 28 del 1000;
#X obj 332 187 del 2000;
#X obj 82 27 del 100;
#X obj 96 455 t b f;
#X obj 145 478 t b f;
#X obj 194 500 t b f;
#X obj 244 522 t b f;
#X obj 293 544 t b f;
#X obj 343 566 t b f;
#X obj 393 588 t b f;
#X obj 81 407 r 0-alive;
#X obj 96 431 r 1-alive;
#X obj 145 454 r 2-alive;
#X obj 194 477 r 3-alive;
#X obj 244 499 r 4-alive;
#X obj 293 521 r 5-alive;
#X obj 343 542 r 6-alive;
#X obj 393 565 r 7-alive;
#X obj 81 774 s SUMM;
#X obj 81 724 sum;
#X floatatom 90 750 5 0 0 0 - - -, f 5;
#X obj 550 352 r 0-posX;
#X obj 620 351 r 0-posY;
#X obj 550 380 * 1000;
#X obj 550 447 *~ 0.3;
#X obj 619 447 *~ 0.3;
#X obj 81 696 pack f f f f f f f f;
#X obj 82 331 clone E256_input_filters 8;
#X connect 0 0 25 0;
#X connect 1 0 25 0;
#X connect 2 0 25 0;
#X connect 3 0 4 0;
#X connect 4 0 25 0;
#X connect 5 0 26 0;
#X connect 5 1 6 0;
#X connect 6 0 7 0;
#X connect 7 0 12 0;
#X connect 8 0 57 0;
#X connect 9 0 3 0;
#X connect 12 0 3 0;
#X connect 13 0 31 0;
#X connect 14 0 15 0;
#X connect 15 0 7 0;
#X connect 15 1 7 1;
#X connect 16 0 30 0;
#X connect 17 0 29 0;
#X connect 18 0 32 0;
#X connect 20 0 54 0;
#X connect 21 0 23 0;
#X connect 21 0 23 1;
#X connect 22 0 55 0;
#X connect 24 0 3 0;
#X connect 25 0 5 0;
#X connect 26 0 8 0;
#X connect 27 0 9 0;
#X connect 27 0 28 0;
#X connect 29 0 24 0;
#X connect 30 0 27 0;
#X connect 31 0 14 0;
#X connect 32 0 2 0;
#X connect 33 0 56 0;
#X connect 33 1 56 1;
#X connect 34 0 56 0;
#X connect 34 1 56 2;
#X connect 35 0 56 0;
#X connect 35 1 56 3;
#X connect 36 0 56 0;
#X connect 36 1 56 4;
#X connect 37 0 56 0;
#X connect 37 1 56 5;
#X connect 38 0 56 0;
#X connect 38 1 56 6;
#X connect 39 0 56 0;
#X connect 39 1 56 7;
#X connect 40 0 56 0;
#X connect 41 0 33 0;
#X connect 42 0 34 0;
#X connect 43 0 35 0;
#X connect 44 0 36 0;
#X connect 45 0 37 0;
#X connect 46 0 38 0;
#X connect 47 0 39 0;
#X connect 49 0 48 0;
#X connect 49 0 50 0;
#X connect 51 0 53 0;
#X connect 52 0 22 0;
#X connect 53 0 20 0;
#X connect 54 0 21 0;
#X connect 55 0 21 1;
#X connect 56 0 49 0;
