#N canvas 522 82 852 797 12;
#X msg 12 124 devices;
#X msg 90 156 close;
#X msg 82 124 open 0;
#X obj 250 146 packOSC;
#X obj 250 169 slipenc;
#X obj 82 211 slipdec;
#X obj 128 236 select 1;
#X obj 372 272 spigot;
#X obj 82 294 routeOSC /b;
#X msg 506 129 send /t \$1;
#X text 339 69 <- Calibrate E256;
#X text 536 73 <- Set the Threshold;
#X msg 372 296 /b;
#X obj 372 159 loadbang;
#X msg 372 216 1;
#X obj 372 245 t b f;
#X obj 506 16 loadbang;
#X obj 250 16 loadbang;
#X obj 82 16 loadbang;
#X text 409 295 <- Get blobs;
#X msg 250 69 send /c 20;
#X obj 82 267 unpackOSC;
#X msg 506 73 25;
#X obj 514 101 s THRESHOLD;
#X obj 250 42 del 500;
#X obj 506 43 del 1000;
#X obj 372 187 del 2000;
#X obj 82 42 del 100;
#X obj 99 542 t b f;
#X obj 149 565 t b f;
#X obj 198 587 t b f;
#X obj 248 610 t b f;
#X obj 297 633 t b f;
#X obj 347 657 t b f;
#X obj 397 679 t b f;
#X obj 82 744 s SUMM;
#X obj 82 322 send input_blobs;
#X obj 82 717 expr $f1 + $f2 + $f3 + $f4 + $f5 + $f6 + $f7 + $f8;
#X obj 82 392 clone e256_input_filters 8;
#X obj 82 446 clone e256_mapping 8;
#X msg 82 422 vis 1 1;
#X msg 82 368 vis 1 1;
#X obj 82 186 comport 0 230400;
#X msg -239 121 \; threshold 0.1 \; materials 1 \; tempo 10 \; decay
5 \; atack 2 \; slope 2000 \;;
#X obj 82 494 r alive-0;
#X obj 99 518 r alive-1;
#X obj 149 541 r alive-2;
#X obj 198 564 r alive-3;
#X obj 248 587 r alive-4;
#X obj 297 610 r alive-5;
#X obj 347 633 r alive-6;
#X obj 397 656 r alive-7;
#X msg 575 185 \; circle-0 0.28 0.39 307 \; circle-1 \; circle-2 \;
circle-3 \; circle-4 \; circle-5 \; circle-6 \; circle-7 \;;
#X connect 0 0 42 0;
#X connect 1 0 42 0;
#X connect 2 0 42 0;
#X connect 3 0 4 0;
#X connect 4 0 42 0;
#X connect 5 0 21 0;
#X connect 5 1 6 0;
#X connect 6 0 7 0;
#X connect 7 0 12 0;
#X connect 8 0 36 0;
#X connect 9 0 3 0;
#X connect 12 0 3 0;
#X connect 13 0 26 0;
#X connect 14 0 15 0;
#X connect 15 0 7 0;
#X connect 15 1 7 1;
#X connect 16 0 25 0;
#X connect 17 0 24 0;
#X connect 18 0 27 0;
#X connect 20 0 3 0;
#X connect 21 0 8 0;
#X connect 22 0 9 0;
#X connect 22 0 23 0;
#X connect 24 0 20 0;
#X connect 25 0 22 0;
#X connect 26 0 14 0;
#X connect 27 0 2 0;
#X connect 28 0 37 0;
#X connect 28 1 37 1;
#X connect 29 0 37 0;
#X connect 29 1 37 2;
#X connect 30 0 37 0;
#X connect 30 1 37 3;
#X connect 31 0 37 0;
#X connect 31 1 37 4;
#X connect 32 0 37 0;
#X connect 32 1 37 5;
#X connect 33 0 37 0;
#X connect 33 1 37 6;
#X connect 34 0 37 0;
#X connect 34 1 37 7;
#X connect 37 0 35 0;
#X connect 40 0 39 0;
#X connect 41 0 38 0;
#X connect 42 0 5 0;
#X connect 44 0 37 0;
#X connect 45 0 28 0;
#X connect 46 0 29 0;
#X connect 47 0 30 0;
#X connect 48 0 31 0;
#X connect 49 0 32 0;
#X connect 50 0 33 0;
#X connect 51 0 34 0;
