#N canvas 0 22 1050 738 10;
#X obj 117 143 vsl 15 96 0 127 0 1 \$0-sinebank-1-s \$0-sinebank-1-r
1 5 -9 0 10 -262144 -1 -1 4500 1;
#X obj 132 143 vsl 15 96 0 127 0 1 \$0-sinebank-2-s \$0-sinebank-2-r
2 5 -9 0 10 -262144 -1 -1 7200 1;
#X obj 147 143 vsl 15 96 0 127 0 1 \$0-sinebank-3-s \$0-sinebank-3-r
3 5 -9 0 10 -262144 -1 -1 4800 1;
#X obj 162 143 vsl 15 96 0 127 0 1 \$0-sinebank-4-s \$0-sinebank-4-r
4 5 -9 0 10 -262144 -1 -1 5200 1;
#X obj 286 703 outlet~;
#N canvas 396 231 135 469 sine1 0;
#N canvas 592 252 450 300 sine 0;
#X obj 81 16 inlet;
#X obj 81 180 mtof~;
#X obj 81 202 osc~;
#X obj 81 224 outlet~;
#X obj 81 87 line~;
#X obj 81 144 +~;
#X obj 96 119 r~ \$0-sinebank-cv1;
#X obj 81 44 pack f 10;
#X connect 0 0 7 0;
#X connect 1 0 2 0;
#X connect 2 0 3 0;
#X connect 4 0 5 0;
#X connect 5 0 1 0;
#X connect 6 0 5 1;
#X connect 7 0 4 0;
#X restore 37 94 pd sine;
#X obj 38 444 outlet~;
#X obj 37 8 inlet;
#X connect 0 0 1 0;
#X connect 2 0 0 0;
#X restore 229 524 pd sine1;
#X obj 227 129 r \$0-sinebank-1-s;
#X obj 285 279 r \$0-sinebank-2-s;
#X obj 358 347 r \$0-sinebank-3-s;
#X obj 418 426 r \$0-sinebank-4-s;
#X obj 271 59 inlet~;
#X obj 271 81 *~ 127;
#X obj 24 682 outlet~;
#X obj 80 682 outlet~;
#X obj 135 682 outlet~;
#X obj 191 682 outlet~;
#X obj 271 103 s~ \$0-sinebank-cv1;
#X obj 403 55 inlet~;
#X obj 403 77 *~ 127;
#X obj 403 99 s~ \$0-sinebank-cv2;
#X obj 521 54 inlet~;
#X obj 521 76 *~ 127;
#X obj 521 98 s~ \$0-sinebank-cv3;
#X obj 641 53 inlet~;
#X obj 641 75 *~ 127;
#X obj 641 97 s~ \$0-sinebank-cv4;
#X obj 117 242 tgl 15 1 \$0-sinebank-lfo1-s \$0-sinebank-lfo1-r empty
17 7 1 10 -262144 -1 -1 0 1;
#X obj 132 242 tgl 15 1 \$0-sinebank-lfo2-s \$0-sinebank-lfo2-r empty
17 7 1 10 -262144 -1 -1 1 1;
#X obj 147 242 tgl 15 1 \$0-sinebank-lfo3-s \$0-sinebank-lfo3-r empty
17 7 1 10 -262144 -1 -1 1 1;
#X obj 162 242 tgl 15 1 \$0-sinebank-lfo4-s \$0-sinebank-lfo4-r LFO
17 7 0 10 -262144 -1 -1 0 1;
#X obj 343 130 r \$0-sinebank-lfo1-s;
#X obj 227 285 -;
#X obj 343 162 sel 0 1;
#X obj 240 250 t b f;
#X obj 291 455 -;
#X obj 407 243 sel 0 1;
#X obj 304 331 t b f;
#X obj 407 211 r \$0-sinebank-lfo2-s;
#X obj 481 314 sel 0 1;
#X obj 378 402 t b f;
#X obj 352 488 -;
#X obj 481 282 r \$0-sinebank-lfo3-s;
#X obj 418 491 -;
#X obj 548 372 sel 0 1;
#X obj 474 474 t b f;
#X obj 548 340 r \$0-sinebank-lfo4-s;
#X msg 343 201 0;
#X msg 362 233 96;
#X msg 407 271 0;
#X msg 426 314 96;
#X msg 481 342 0;
#X msg 500 385 96;
#X msg 548 402 0;
#X msg 567 457 96;
#N canvas 396 231 155 480 sine2 0;
#N canvas 592 252 450 300 sine 0;
#X obj 81 16 inlet;
#X obj 81 180 mtof~;
#X obj 81 202 osc~;
#X obj 81 224 outlet~;
#X obj 81 87 line~;
#X obj 81 144 +~;
#X obj 96 119 r~ \$0-sinebank-cv1;
#X obj 81 44 pack f 10;
#X connect 0 0 7 0;
#X connect 1 0 2 0;
#X connect 2 0 3 0;
#X connect 4 0 5 0;
#X connect 5 0 1 0;
#X connect 6 0 5 1;
#X connect 7 0 4 0;
#X restore 37 94 pd sine;
#X obj 38 444 outlet~;
#X obj 37 8 inlet;
#X connect 0 0 1 0;
#X connect 2 0 0 0;
#X restore 291 523 pd sine2;
#X obj 286 644 *~ 0.25;
#X obj 103 104 cnv 5 10 10 empty empty CV1 0 5 0 8 -262144 -66577 0
;
#X obj 129 104 cnv 5 10 10 empty empty CV2 0 5 0 8 -262144 -66577 0
;
#X obj 158 104 cnv 5 10 10 empty empty CV3 0 5 0 8 -262144 -66577 0
;
#X obj 183 104 cnv 5 10 10 empty empty CV4 0 5 0 8 -262144 -66577 0
;
#X obj 104 263 cnv 5 10 10 empty empty S1 0 5 0 8 -262144 -66577 0
;
#X obj 123 263 cnv 5 10 10 empty empty S2 0 5 0 8 -262144 -66577 0
;
#X obj 146 263 cnv 5 10 10 empty empty S3 0 5 0 8 -262144 -66577 0
;
#X obj 169 263 cnv 5 10 10 empty empty S4 0 5 0 8 -262144 -66577 0
;
#X obj 183 263 cnv 5 10 10 empty empty SUM 0 5 0 8 -262144 -66577 0
;
#N canvas 396 231 650 469 sine4 0;
#N canvas 592 252 450 300 sine 0;
#X obj 81 16 inlet;
#X obj 81 180 mtof~;
#X obj 81 202 osc~;
#X obj 81 224 outlet~;
#X obj 81 87 line~;
#X obj 81 144 +~;
#X obj 96 119 r~ \$0-sinebank-cv1;
#X obj 81 44 pack f 10;
#X connect 0 0 7 0;
#X connect 1 0 2 0;
#X connect 2 0 3 0;
#X connect 4 0 5 0;
#X connect 5 0 1 0;
#X connect 6 0 5 1;
#X connect 7 0 4 0;
#X restore 37 94 pd sine;
#X obj 38 444 outlet~;
#X obj 37 8 inlet;
#X connect 0 0 1 0;
#X connect 2 0 0 0;
#X restore 418 521 pd sine4;
#N canvas 396 231 650 469 sine3 0;
#N canvas 592 252 450 300 sine 0;
#X obj 81 16 inlet;
#X obj 81 180 mtof~;
#X obj 81 202 osc~;
#X obj 81 224 outlet~;
#X obj 81 87 line~;
#X obj 81 144 +~;
#X obj 96 119 r~ \$0-sinebank-cv1;
#X obj 81 44 pack f 10;
#X connect 0 0 7 0;
#X connect 1 0 2 0;
#X connect 2 0 3 0;
#X connect 4 0 5 0;
#X connect 5 0 1 0;
#X connect 6 0 5 1;
#X connect 7 0 4 0;
#X restore 37 94 pd sine;
#X obj 38 444 outlet~;
#X obj 37 8 inlet;
#X connect 0 0 1 0;
#X connect 2 0 0 0;
#X restore 352 522 pd sine3;
#X obj 113 122 cnv 5 5 5 empty empty SINEBANK 0 0 0 12 -262144 -66577
0;
#X obj 177 122 cnv 5 5 5 empty \$0-instance-num 0 0 0 0 12 -262144
-66577 0;
#N canvas 315 35 895 724 state-saving-multiple-instances 0;
#X obj 205 1 loadbang;
#X obj 317 424 textfile;
#X msg 587 407 rewind;
#X msg 544 407 bang;
#X obj 110 663 textfile;
#X obj 544 368 t b b;
#X obj 111 329 f;
#X obj 124 552 f;
#X obj 52 373 t b b b;
#X msg 187 552 clear;
#X obj 272 189 outlet;
#X text 314 193 INSTANCE NUMBER;
#X obj 233 125 f \$1;
#X obj 233 161 t f f f;
#X obj 206 34 t b b;
#X obj 52 350 bng 15 250 50 0 empty empty empty 17 7 0 10 -262144 -1
-1;
#X obj 52 206 r SAVE-S;
#X msg 111 410 set \$1 \$2 \$3 \$4 \$5 \$6 \$7 \$8;
#X obj 111 372 pack f f f f f f f f;
#X msg 123 623 write statesave/\$1-sinebank-ss.txt;
#X msg 317 399 read statesave/\$1-sinebank-ss.txt;
#X obj 318 447 unpack f f f f f f f f;
#X obj 98 140 r \$0-sinebank-1-s;
#X obj 317 696 s \$0-sinebank-1-r;
#X obj 106 163 r \$0-sinebank-2-s;
#X obj 338 672 s \$0-sinebank-2-r;
#X obj 120 184 r \$0-sinebank-3-s;
#X obj 359 648 s \$0-sinebank-3-r;
#X obj 138 209 r \$0-sinebank-4-s;
#X obj 380 624 s \$0-sinebank-4-r;
#X obj 158 234 r \$0-sinebank-lfo1-s;
#X obj 401 598 s \$0-sinebank-lfo1-r;
#X obj 176 255 r \$0-sinebank-lfo2-s;
#X obj 422 574 s \$0-sinebank-lfo2-r;
#X obj 206 280 r \$0-sinebank-lfo3-s;
#X obj 432 539 s \$0-sinebank-lfo3-r;
#X obj 226 305 r \$0-sinebank-lfo4-s;
#X obj 453 513 s \$0-sinebank-lfo4-r;
#X connect 0 0 14 0;
#X connect 1 0 21 0;
#X connect 2 0 1 0;
#X connect 3 0 1 0;
#X connect 5 0 3 0;
#X connect 5 1 2 0;
#X connect 6 0 18 0;
#X connect 7 0 19 0;
#X connect 8 0 7 0;
#X connect 8 1 6 0;
#X connect 8 2 9 0;
#X connect 9 0 4 0;
#X connect 12 0 13 0;
#X connect 13 0 7 1;
#X connect 13 1 20 0;
#X connect 13 2 10 0;
#X connect 14 0 5 0;
#X connect 14 1 12 0;
#X connect 15 0 8 0;
#X connect 16 0 15 0;
#X connect 17 0 4 0;
#X connect 18 0 17 0;
#X connect 19 0 4 0;
#X connect 20 0 1 0;
#X connect 21 0 23 0;
#X connect 21 1 25 0;
#X connect 21 2 27 0;
#X connect 21 3 29 0;
#X connect 21 4 31 0;
#X connect 21 5 33 0;
#X connect 21 6 35 0;
#X connect 21 7 37 0;
#X connect 22 0 6 1;
#X connect 24 0 18 1;
#X connect 26 0 18 2;
#X connect 28 0 18 3;
#X connect 30 0 18 4;
#X connect 32 0 18 5;
#X connect 34 0 18 6;
#X connect 36 0 18 7;
#X restore 30 359 pd state-saving-multiple-instances;
#X obj 30 431 s \$0-instance-num;
#X obj 30 383 makefilename %d;
#X msg 30 408 label \$1;
#N canvas 81 22 1117 745 state-saving-via-preset-manager-module 0;
#X obj 340 227 textfile;
#X msg 618 210 rewind;
#X msg 575 210 bang;
#X obj 106 568 textfile;
#X obj 575 171 t b b;
#X obj 107 234 f;
#X obj 120 457 f;
#X obj 53 352 t b b b;
#X msg 236 499 clear;
#X obj 107 56 delay 5;
#X obj 53 407 delay 10;
#X msg 53 192 bang;
#X obj 53 26 r STORE-S!;
#X obj 340 128 f;
#X obj 313 85 t b b;
#X obj 328 49 t b f;
#X obj 385 146 f \$1;
#X obj 340 173 pack f f;
#X obj 385 96 loadbang;
#X obj 120 487 pack f f;
#X obj 165 440 loadbang;
#X obj 165 462 f \$1;
#X obj 345 665 pack f f;
#X obj 345 689 line;
#X obj 390 640 r preset-manager-morph-s;
#X obj 328 26 r preset-manager-scan;
#X obj 366 570 pack f f;
#X obj 366 594 line;
#X obj 411 545 r preset-manager-morph-s;
#X obj 135 418 r preset-manager-store-slot;
#X obj 384 494 line;
#X obj 429 443 r preset-manager-morph-s;
#X obj 400 367 pack f f;
#X obj 400 391 line;
#X obj 445 342 r preset-manager-morph-s;
#X msg 80 670 stop;
#X obj 80 603 r STOP-MORPH!;
#X obj 384 470 pack f f;
#X obj 561 650 pack f f;
#X obj 561 674 line;
#X obj 606 625 r preset-manager-morph-s;
#X obj 616 573 line;
#X obj 661 522 r preset-manager-morph-s;
#X obj 619 414 pack f f;
#X obj 619 438 line;
#X obj 664 389 r preset-manager-morph-s;
#X obj 616 549 pack f f;
#X msg 106 368 set \$1 \$2 \$3 \$4 \$5 \$6 \$7 \$8;
#X obj 107 341 pack f f f f f f f f;
#X obj 340 249 unpack f f f f f f f f;
#X obj 875 455 pack f f;
#X obj 875 479 line;
#X obj 920 430 r preset-manager-morph-s;
#X msg 340 202 read statesave/\$1-\$2-sinebank-ss.txt;
#X msg 119 528 write statesave/\$1-\$2-sinebank-ss.txt;
#X obj 123 78 r \$0-sinebank-1-s;
#X obj 345 714 s \$0-sinebank-1-r;
#X obj 136 107 r \$0-sinebank-2-s;
#X obj 366 617 s \$0-sinebank-2-r;
#X obj 146 146 r \$0-sinebank-3-s;
#X obj 384 517 s \$0-sinebank-3-r;
#X obj 169 173 r \$0-sinebank-4-s;
#X obj 400 414 s \$0-sinebank-4-r;
#X obj 183 196 r \$0-sinebank-lfo1-s;
#X obj 561 697 s \$0-sinebank-lfo1-r;
#X obj 193 218 r \$0-sinebank-lfo2-s;
#X obj 616 596 s \$0-sinebank-lfo2-r;
#X obj 201 245 r \$0-sinebank-lfo3-s;
#X obj 619 461 s \$0-sinebank-lfo3-r;
#X obj 216 268 r \$0-sinebank-lfo4-s;
#X obj 875 502 s \$0-sinebank-lfo4-r;
#X connect 0 0 49 0;
#X connect 1 0 0 0;
#X connect 2 0 0 0;
#X connect 4 0 2 0;
#X connect 4 1 1 0;
#X connect 5 0 48 0;
#X connect 6 0 19 0;
#X connect 7 0 10 0;
#X connect 7 1 9 0;
#X connect 7 2 8 0;
#X connect 8 0 3 0;
#X connect 9 0 5 0;
#X connect 10 0 6 0;
#X connect 11 0 7 0;
#X connect 12 0 11 0;
#X connect 13 0 17 0;
#X connect 14 0 4 0;
#X connect 14 1 13 0;
#X connect 15 0 14 0;
#X connect 15 1 13 1;
#X connect 16 0 17 1;
#X connect 17 0 53 0;
#X connect 18 0 16 0;
#X connect 19 0 54 0;
#X connect 20 0 21 0;
#X connect 21 0 19 1;
#X connect 22 0 23 0;
#X connect 23 0 56 0;
#X connect 24 0 22 1;
#X connect 25 0 15 0;
#X connect 26 0 27 0;
#X connect 27 0 58 0;
#X connect 28 0 26 1;
#X connect 29 0 6 1;
#X connect 30 0 60 0;
#X connect 31 0 37 1;
#X connect 32 0 33 0;
#X connect 33 0 62 0;
#X connect 34 0 32 1;
#X connect 35 0 23 0;
#X connect 35 0 27 0;
#X connect 35 0 30 0;
#X connect 35 0 33 0;
#X connect 35 0 39 0;
#X connect 35 0 41 0;
#X connect 35 0 44 0;
#X connect 35 0 51 0;
#X connect 36 0 35 0;
#X connect 37 0 30 0;
#X connect 38 0 39 0;
#X connect 39 0 64 0;
#X connect 40 0 38 1;
#X connect 41 0 66 0;
#X connect 42 0 46 1;
#X connect 43 0 44 0;
#X connect 44 0 68 0;
#X connect 45 0 43 1;
#X connect 46 0 41 0;
#X connect 47 0 3 0;
#X connect 48 0 47 0;
#X connect 49 0 22 0;
#X connect 49 1 26 0;
#X connect 49 2 37 0;
#X connect 49 3 32 0;
#X connect 49 4 38 0;
#X connect 49 5 46 0;
#X connect 49 6 43 0;
#X connect 49 7 50 0;
#X connect 50 0 51 0;
#X connect 51 0 70 0;
#X connect 52 0 50 1;
#X connect 53 0 0 0;
#X connect 54 0 3 0;
#X connect 55 0 5 1;
#X connect 57 0 48 1;
#X connect 59 0 48 2;
#X connect 61 0 48 3;
#X connect 63 0 48 4;
#X connect 65 0 48 5;
#X connect 67 0 48 6;
#X connect 69 0 48 7;
#X restore 30 455 pd state-saving-via-preset-manager-module;
#N canvas 297 27 748 331 parameter-nudging-system 0;
#N canvas 0 22 484 497 param-nudge 0;
#X obj 124 234 random;
#X obj 232 335 f;
#X obj 232 368 +;
#X obj 257 166 random 2;
#X obj 124 275 t f f;
#X obj 124 351 t b f;
#X obj 124 297 *;
#X obj 257 188 sel 0 1;
#X msg 257 280 -1;
#X msg 335 280 1;
#X obj 124 149 t b b b;
#X obj 124 123 r NUDGE!;
#X obj 157 193 r NUDGE-RANGE;
#X obj 247 308 inlet;
#X obj 232 397 outlet;
#X floatatom 316 396 5 0 0 0 - - -, f 5;
#X connect 0 0 4 0;
#X connect 1 0 2 0;
#X connect 2 0 14 0;
#X connect 2 0 15 0;
#X connect 3 0 7 0;
#X connect 4 0 6 0;
#X connect 5 0 2 0;
#X connect 5 1 2 1;
#X connect 6 0 5 0;
#X connect 7 0 8 0;
#X connect 7 1 9 0;
#X connect 8 0 6 1;
#X connect 9 0 6 1;
#X connect 10 0 0 0;
#X connect 10 1 1 0;
#X connect 10 2 3 0;
#X connect 11 0 10 0;
#X connect 12 0 0 1;
#X connect 13 0 1 1;
#X restore 23 45 pd param-nudge;
#N canvas 0 22 484 497 param-nudge 0;
#X obj 124 234 random;
#X obj 232 335 f;
#X obj 232 368 +;
#X obj 257 166 random 2;
#X obj 124 275 t f f;
#X obj 124 351 t b f;
#X obj 124 297 *;
#X obj 257 188 sel 0 1;
#X msg 257 280 -1;
#X msg 335 280 1;
#X obj 124 149 t b b b;
#X obj 124 123 r NUDGE!;
#X obj 157 193 r NUDGE-RANGE;
#X obj 247 308 inlet;
#X obj 232 397 outlet;
#X connect 0 0 4 0;
#X connect 1 0 2 0;
#X connect 2 0 14 0;
#X connect 3 0 7 0;
#X connect 4 0 6 0;
#X connect 5 0 2 0;
#X connect 5 1 2 1;
#X connect 6 0 5 0;
#X connect 7 0 8 0;
#X connect 7 1 9 0;
#X connect 8 0 6 1;
#X connect 9 0 6 1;
#X connect 10 0 0 0;
#X connect 10 1 1 0;
#X connect 10 2 3 0;
#X connect 11 0 10 0;
#X connect 12 0 0 1;
#X connect 13 0 1 1;
#X restore 171 45 pd param-nudge;
#N canvas 0 22 484 497 param-nudge 0;
#X obj 124 234 random;
#X obj 232 335 f;
#X obj 232 368 +;
#X obj 257 166 random 2;
#X obj 124 275 t f f;
#X obj 124 351 t b f;
#X obj 124 297 *;
#X obj 257 188 sel 0 1;
#X msg 257 280 -1;
#X msg 335 280 1;
#X obj 124 149 t b b b;
#X obj 124 123 r NUDGE!;
#X obj 157 193 r NUDGE-RANGE;
#X obj 247 308 inlet;
#X obj 232 397 outlet;
#X connect 0 0 4 0;
#X connect 1 0 2 0;
#X connect 2 0 14 0;
#X connect 3 0 7 0;
#X connect 4 0 6 0;
#X connect 5 0 2 0;
#X connect 5 1 2 1;
#X connect 6 0 5 0;
#X connect 7 0 8 0;
#X connect 7 1 9 0;
#X connect 8 0 6 1;
#X connect 9 0 6 1;
#X connect 10 0 0 0;
#X connect 10 1 1 0;
#X connect 10 2 3 0;
#X connect 11 0 10 0;
#X connect 12 0 0 1;
#X connect 13 0 1 1;
#X restore 281 45 pd param-nudge;
#N canvas 0 22 484 497 param-nudge 0;
#X obj 124 234 random;
#X obj 232 335 f;
#X obj 232 368 +;
#X obj 257 166 random 2;
#X obj 124 275 t f f;
#X obj 124 351 t b f;
#X obj 124 297 *;
#X obj 257 188 sel 0 1;
#X msg 257 280 -1;
#X msg 335 280 1;
#X obj 124 149 t b b b;
#X obj 124 123 r NUDGE!;
#X obj 157 193 r NUDGE-RANGE;
#X obj 247 308 inlet;
#X obj 232 397 outlet;
#X connect 0 0 4 0;
#X connect 1 0 2 0;
#X connect 2 0 14 0;
#X connect 3 0 7 0;
#X connect 4 0 6 0;
#X connect 5 0 2 0;
#X connect 5 1 2 1;
#X connect 6 0 5 0;
#X connect 7 0 8 0;
#X connect 7 1 9 0;
#X connect 8 0 6 1;
#X connect 9 0 6 1;
#X connect 10 0 0 0;
#X connect 10 1 1 0;
#X connect 10 2 3 0;
#X connect 11 0 10 0;
#X connect 12 0 0 1;
#X connect 13 0 1 1;
#X restore 408 46 pd param-nudge;
#X obj 408 68 clip 0 127;
#X obj 23 67 clip 0 127;
#X obj 171 67 clip 0 127;
#X obj 281 69 clip 0 127;
#X obj 23 22 r \$0-sinebank-1-s;
#X obj 23 95 s \$0-sinebank-1-r;
#X obj 171 22 r \$0-sinebank-2-s;
#X obj 171 95 s \$0-sinebank-2-r;
#X obj 281 22 r \$0-sinebank-3-s;
#X obj 281 95 s \$0-sinebank-3-r;
#X obj 408 23 r \$0-sinebank-4-s;
#X obj 408 95 s \$0-sinebank-4-r;
#X obj 50 142 r NUDGE!;
#X obj 50 164 random 2;
#X obj 50 186 s \$0-sinebank-lfo1-r;
#X obj 188 141 r NUDGE!;
#X obj 188 163 random 2;
#X obj 188 185 s \$0-sinebank-lfo2-r;
#X obj 329 139 r NUDGE!;
#X obj 329 161 random 2;
#X obj 329 183 s \$0-sinebank-lfo3-r;
#X obj 472 139 r NUDGE!;
#X obj 472 161 random 2;
#X obj 472 183 s \$0-sinebank-lfo4-r;
#X connect 0 0 5 0;
#X connect 1 0 6 0;
#X connect 2 0 7 0;
#X connect 3 0 4 0;
#X connect 4 0 15 0;
#X connect 5 0 9 0;
#X connect 6 0 11 0;
#X connect 7 0 13 0;
#X connect 8 0 0 0;
#X connect 10 0 1 0;
#X connect 12 0 2 0;
#X connect 14 0 3 0;
#X connect 16 0 17 0;
#X connect 17 0 18 0;
#X connect 19 0 20 0;
#X connect 20 0 21 0;
#X connect 22 0 23 0;
#X connect 23 0 24 0;
#X connect 25 0 26 0;
#X connect 26 0 27 0;
#X restore 30 338 pd parameter-nudging-system;
#X connect 5 0 12 0;
#X connect 5 0 55 0;
#X connect 6 0 31 0;
#X connect 7 0 34 0;
#X connect 8 0 40 0;
#X connect 9 0 42 0;
#X connect 10 0 11 0;
#X connect 11 0 16 0;
#X connect 17 0 18 0;
#X connect 18 0 19 0;
#X connect 20 0 21 0;
#X connect 21 0 22 0;
#X connect 23 0 24 0;
#X connect 24 0 25 0;
#X connect 30 0 32 0;
#X connect 31 0 5 0;
#X connect 32 0 46 0;
#X connect 32 1 47 0;
#X connect 33 0 31 0;
#X connect 33 1 31 1;
#X connect 34 0 54 0;
#X connect 35 0 48 0;
#X connect 35 1 49 0;
#X connect 36 0 34 0;
#X connect 36 1 34 1;
#X connect 37 0 35 0;
#X connect 38 0 50 0;
#X connect 38 1 51 0;
#X connect 39 0 40 0;
#X connect 39 1 40 1;
#X connect 40 0 66 0;
#X connect 41 0 38 0;
#X connect 42 0 65 0;
#X connect 43 0 52 0;
#X connect 43 1 53 0;
#X connect 44 0 42 0;
#X connect 44 1 42 1;
#X connect 45 0 43 0;
#X connect 46 0 33 0;
#X connect 47 0 33 0;
#X connect 48 0 36 0;
#X connect 49 0 36 0;
#X connect 50 0 39 0;
#X connect 51 0 39 0;
#X connect 52 0 44 0;
#X connect 53 0 44 0;
#X connect 54 0 55 0;
#X connect 54 0 13 0;
#X connect 55 0 4 0;
#X connect 65 0 55 0;
#X connect 65 0 15 0;
#X connect 66 0 55 0;
#X connect 66 0 14 0;
#X connect 69 0 71 0;
#X connect 71 0 72 0;
#X connect 72 0 70 0;
#X coords 0 -1 1 1 100 175 2 100 100;
