#N canvas 6 82 883 665 10;
#X obj 294 266 inlet~;
#X obj 294 303 vcf~ 1;
#X obj 294 364 vcf~ 1;
#X obj 294 434 vcf~ 1;
#X obj 294 499 vcf~ 1;
#X obj 294 621 outlet~;
#X obj 106 120 hsl 128 15 1.27 127 1 1 \$0-bandpass-cutoff-s \$0-bandpass-cutoff-r
CUTOFF 133 7 0 10 -262144 -1 -1 3800 1;
#X obj 105 109 cnv 5 5 5 empty empty IN 0 0 0 8 -262144 -66577 0;
#X obj 541 281 +~;
#X obj 541 163 / 127;
#X obj 541 236 sig~;
#X obj 541 258 lop~ 10;
#X obj 541 207 + 100;
#X obj 106 135 hsl 128 15 1.27 127 1 1 \$0-bandpass-res-s \$0-bandpass-res-r
RES. 133 7 0 10 -262144 -1 -1 7800 1;
#X obj 30 165 / 127;
#X obj 30 187 * 9;
#X obj 30 209 + 1;
#X obj 30 231 pack 0 50;
#X obj 30 256 line;
#X obj 294 564 min~ 1;
#X obj 294 586 max~ -1;
#X obj 625 207 inlet~;
#X obj 625 229 *~ 5000;
#X obj 541 185 * 5000;
#X obj 106 165 hsl 128 15 0 127 0 1 \$0-bandpass-fm-/+-s \$0-bandpass-fm-/+-r
FM-/+ 133 7 0 10 -150893 -1 -1 12700 1;
#X obj 693 137 / 127;
#X obj 693 159 * 2;
#X obj 693 181 - 1;
#X obj 693 225 pack 0 50;
#X obj 693 247 line~;
#X floatatom 103 182 5 0 0 0 - - -;
#X obj 625 264 *~;
#X text 651 268 FM-/+ ATTENUEVERTER;
#X obj 693 203 t f f;
#X obj 253 109 cnv 5 5 5 empty empty FREQ 0 0 0 8 -262144 -96927 0
;
#X obj 180 112 cnv 5 5 5 empty empty FILTER 0 0 0 12 -262144 -66577
0;
#X obj 121 112 cnv 5 5 5 empty empty BANDPASS 0 0 0 12 -262144 -66577
0;
#X obj 374 253 t f f f f;
#X obj 106 150 hsl 128 15 1.27 127 1 1 \$0-bandpass-drive-s \$0-bandpass-drive-r
DRIVE 133 7 0 10 -262144 -1 -1 11400 1;
#X obj 228 437 / 127;
#X obj 228 459 * 3;
#X obj 228 481 + 1;
#X obj 228 503 pack 0 50;
#X obj 228 525 line~;
#X obj 294 542 *~;
#X connect 0 0 1 0;
#X connect 1 0 2 0;
#X connect 2 0 3 0;
#X connect 3 0 4 0;
#X connect 4 0 44 0;
#X connect 6 0 9 0;
#X connect 8 0 1 1;
#X connect 8 0 2 1;
#X connect 8 0 3 1;
#X connect 8 0 4 1;
#X connect 9 0 23 0;
#X connect 10 0 11 0;
#X connect 11 0 8 0;
#X connect 12 0 10 0;
#X connect 13 0 14 0;
#X connect 14 0 15 0;
#X connect 15 0 16 0;
#X connect 16 0 17 0;
#X connect 17 0 18 0;
#X connect 18 0 37 0;
#X connect 19 0 20 0;
#X connect 20 0 5 0;
#X connect 21 0 22 0;
#X connect 22 0 31 0;
#X connect 23 0 12 0;
#X connect 24 0 25 0;
#X connect 25 0 26 0;
#X connect 26 0 27 0;
#X connect 27 0 33 0;
#X connect 28 0 29 0;
#X connect 29 0 31 1;
#X connect 31 0 8 1;
#X connect 33 0 28 0;
#X connect 33 1 30 0;
#X connect 37 0 1 2;
#X connect 37 1 2 2;
#X connect 37 2 3 2;
#X connect 37 3 4 2;
#X connect 38 0 39 0;
#X connect 39 0 40 0;
#X connect 40 0 41 0;
#X connect 41 0 42 0;
#X connect 42 0 43 0;
#X connect 43 0 44 1;
#X connect 44 0 19 0;
#X coords 0 -1 1 1 175 100 2 100 100;
