#N canvas 546 92 540 634 10;
#X msg -181 -84 close;
#X msg -199 -128 devices;
#X obj -30 -138 catch~ signal;
#X obj 189 122 f;
#X obj 217 122 + 1;
#X obj 247 122 % 7;
#X floatatom 197 144 5 0 0 1 materials - -;
#X floatatom -199 273 5 0 255 0 - - -;
#X floatatom 189 274 5 0 0 1 atack - -;
#X floatatom 189 337 5 0 0 1 slope - -;
#X text 187 22 1 wood;
#X text 187 38 2 plastic;
#X text 187 54 3 china;
#X text 187 69 4 glass 1;
#X text 187 85 5 glass 2;
#X text 187 101 6 metal;
#X obj 189 -11 s threalde;
#X obj -30 32 xy_dac;
#X obj -198 72 tgl 15 0 empty empty empty 17 7 0 10 -258113 -1 -1 0
1;
#X obj 168 122 bng 15 250 50 0 empty empty empty 17 7 0 10 -262144
-1 -1;
#X obj -199 325 pack f f;
#X floatatom -159 274 5 0 255 0 - - -;
#X obj -181 299 t b f;
#X floatatom 189 209 5 0 0 1 decay - -;
#X msg 189 359 \; slope \$1 \;;
#X msg 189 296 \; atack \$1 \;;
#X msg 189 232 \; decay \$1 \;;
#X msg 189 167 \; materials \$1 \;;
#X floatatom 189 -93 5 1 15 1 tempo - -;
#X msg 189 -70 \; tempo \$1 \;;
#N canvas 860 115 412 324 inputSensors 0;
#X obj -81 12 inlet;
#X obj -44 279 outlet;
#X obj -81 41 match 255 255 255 255 255 255 255 255 255 255 255 255
255 255 255 255 nn nn nn nn nn nn nn nn nn nn nn nn nn nn nn nn nn
nn nn nn nn nn nn nn nn nn nn nn nn nn nn nn nn nn nn nn nn nn nn nn
nn nn nn nn nn nn nn nn nn nn nn nn nn nn nn nn nn nn nn nn nn nn nn
nn nn nn nn nn nn nn nn nn nn nn nn nn nn nn nn nn nn nn nn nn nn nn
nn nn nn nn nn nn nn nn nn nn nn nn nn nn nn nn nn nn nn nn nn nn nn
nn nn nn nn nn nn nn nn nn nn nn nn nn nn nn nn nn nn nn nn nn nn nn
nn nn nn nn nn nn nn nn nn nn nn nn nn nn nn nn nn nn nn nn nn nn nn
nn nn nn nn nn nn nn nn nn nn nn nn nn nn nn nn nn nn nn nn nn nn nn
nn nn nn nn nn nn nn nn nn nn nn nn nn nn nn nn nn nn nn nn nn nn nn
nn nn nn nn nn nn nn nn nn nn nn nn nn nn nn nn nn nn nn nn nn nn nn
nn nn nn nn nn nn nn nn nn nn nn nn nn nn nn nn nn nn nn nn nn nn nn
nn nn nn nn nn nn nn nn nn;
#X obj -81 254 list split 16;
#X connect 0 0 2 0;
#X connect 2 0 3 0;
#X connect 3 1 1 0;
#X restore -199 -29 pd inputSensors;
#X msg 153 180 5;
#X msg 152 309 2000;
#X msg 153 245 1;
#X obj -29 -46 audio_disto;
#X obj -30 -116 audio_pitchshift;
#X obj -187 -4 r liste;
#X msg -190 -106 open 0;
#N canvas 795 305 500 311 synth 0;
#X obj 17 15 inlet;
#X obj 17 51 selector 0;
#X obj 17 105 player_0 0;
#X obj 416 198 selector 7;
#X obj 359 177 selector 6;
#X obj 245 135 selector 4;
#X obj 74 72 selector 1;
#X obj 131 93 selector 2;
#X obj 188 114 selector 3;
#X obj 302 156 selector 5;
#X obj 131 149 player_0 2;
#X obj 416 259 player_0 7;
#X obj 245 193 player_0 4;
#X obj 188 171 player_0 3;
#X obj 301 215 player_0 5;
#X obj 359 237 player_0 6;
#X obj 74 127 player_0 1;
#X connect 0 0 1 0;
#X connect 1 0 2 0;
#X connect 1 1 6 0;
#X connect 3 0 11 0;
#X connect 4 0 15 0;
#X connect 4 1 3 0;
#X connect 5 0 12 0;
#X connect 5 1 9 0;
#X connect 6 0 16 0;
#X connect 6 1 7 0;
#X connect 7 0 10 0;
#X connect 7 1 8 0;
#X connect 8 0 13 0;
#X connect 8 1 5 0;
#X connect 9 0 14 0;
#X connect 9 1 4 0;
#X restore -199 48 pd synth;
#X msg -199 349 \; liste 0 \$1 0 0 0 0 0 0 0 0 0 0 0 0 0 0 0 0 0 0
0 0 0 0 0 0 0 0 0 0 0 0 0 0 0 0 0 0 0 0 0 0 0 0 0 0 0 0 0 0 0 0 0 0
0 0 0 0 0 0 0 0 0 0 0 0 0 0 0 0 0 0 0 0 0 0 \$2 0 0 0 0 0 0 0 0 0 0
0 0 0 0 0 0 0 0 0 0 0 0 0 0 0 0 0 0 0 0 0 0 0 0 0 0 0 0 0 0 0 0 0 0
0 0 0 0 0 0 0 0 0 0 0 0 0 0 0 0 0 0 0 0 0 0 0 0 0 0 0 0 0 0 0 0 0 0
0 0 0 0 0 0 0 0 0 0 0 0 0 0 0 0 0 0 0 0 0 0 0 0 0 0 0 0 0 0 0 0 0 0
0 0 0 0 0 0 0 0 0 0 0 0 0 0 0 0 0 0 0 0 0 0 0 0 0 0 0 0 0 0 0 0 0 0
0 0 0 0 0 0 0 0 0 0 0 0 0 0 0 0 0 0 0 0 0 0 0 0 0 0 0 0 0 0 0 0 0 \;
;
#N canvas 1 146 386 348 listTrim 0;
#X obj 24 -27 inlet;
#X obj 54 91 + 1;
#X obj 24 91 f 0;
#X obj 24 267 outlet;
#X obj 24 0 list-drip;
#X msg 39 66 0;
#X obj 117 91 / 255;
#X obj 24 133 pack float float;
#X obj 24 30 trigger bang float;
#X text 160 90 Scale to 0-1;
#X obj 38 230 send;
#X obj 143 207 makesymbol %s-pression;
#X obj 38 163 unpack float float;
#X obj 38 185 trigger bang float;
#X obj 38 207 float 0;
#X connect 0 0 4 0;
#X connect 1 0 2 1;
#X connect 2 0 1 0;
#X connect 2 0 7 0;
#X connect 4 0 8 0;
#X connect 4 1 5 0;
#X connect 5 0 2 1;
#X connect 6 0 7 1;
#X connect 7 0 3 0;
#X connect 7 0 12 0;
#X connect 8 0 2 0;
#X connect 8 1 6 0;
#X connect 11 0 10 1;
#X connect 12 0 13 0;
#X connect 12 1 14 1;
#X connect 13 0 14 0;
#X connect 13 1 11 0;
#X connect 14 0 10 0;
#X restore -199 24 pd listTrim;
#X obj 192 -32 hsl 128 15 0 1 0 0 empty empty empty -2 -8 0 10 -257985
-1 -1 0 1;
#X obj -198 94 gem_matrix 400;
#X obj -199 -55 comport 0 115200;
#X connect 0 0 43 0;
#X connect 1 0 43 0;
#X connect 2 0 35 0;
#X connect 3 0 6 0;
#X connect 3 0 4 0;
#X connect 3 0 27 0;
#X connect 4 0 5 0;
#X connect 5 0 3 1;
#X connect 7 0 20 0;
#X connect 8 0 25 0;
#X connect 9 0 24 0;
#X connect 18 0 42 0;
#X connect 19 0 3 0;
#X connect 20 0 39 0;
#X connect 21 0 22 0;
#X connect 22 0 20 0;
#X connect 22 1 20 1;
#X connect 23 0 26 0;
#X connect 28 0 29 0;
#X connect 30 0 40 0;
#X connect 31 0 23 0;
#X connect 32 0 9 0;
#X connect 33 0 8 0;
#X connect 34 0 17 0;
#X connect 34 0 17 1;
#X connect 35 0 34 0;
#X connect 36 0 40 0;
#X connect 37 0 43 0;
#X connect 40 0 38 0;
#X connect 41 0 16 0;
#X connect 43 0 30 0;
