#N canvas 640 22 476 707 10;
#X msg -101 -94 close;
#X msg -120 -138 devices;
#X obj 20 -138 catch~ signal;
#X obj 189 122 f;
#X obj 217 122 + 1;
#X obj 247 122 % 7;
#X floatatom 197 144 5 0 0 1 materials - -;
#X floatatom -97 333 5 0 255 0 - - -;
#X floatatom 189 274 5 0 0 1 atack - -;
#X floatatom 189 337 5 0 0 1 slope - -;
#X text 187 22 1 wood;
#X text 187 38 2 plastic;
#X text 187 54 3 china;
#X text 187 69 4 glass 1;
#X text 187 85 5 glass 2;
#X text 187 101 6 metal;
#X obj 189 -11 s threalde;
#X floatatom 189 -34 5 0 60 0 - - -;
#X obj 20 32 xy_dac;
#X obj 189 -138 tgl 15 0 empty empty empty 17 7 0 10 -258113 -1 -1
1 1;
#X obj -119 27 listTrim;
#N canvas 376 124 619 369 synth 0;
#X obj 37 41 selector 0;
#X obj 493 307 outlet;
#X obj 37 5 inlet;
#X obj 37 95 player_0 0;
#X obj 94 62 selector 1;
#X obj 151 83 selector 2;
#X obj 208 104 selector 3;
#X obj 265 125 selector 4;
#X obj 322 146 selector 5;
#X obj 379 167 selector 6;
#X obj 436 188 selector 7;
#X obj 436 249 player_0 7;
#X obj 151 139 player_0 2;
#X obj 208 161 player_0 3;
#X obj 265 183 player_0 4;
#X obj 321 205 player_0 5;
#X obj 379 227 player_0 6;
#X obj 94 117 player_0 1;
#X connect 0 0 3 0;
#X connect 0 1 4 0;
#X connect 2 0 0 0;
#X connect 4 0 17 0;
#X connect 4 1 5 0;
#X connect 5 0 12 0;
#X connect 5 1 6 0;
#X connect 6 0 13 0;
#X connect 6 1 7 0;
#X connect 7 0 14 0;
#X connect 7 1 8 0;
#X connect 8 0 15 0;
#X connect 8 1 9 0;
#X connect 9 0 16 0;
#X connect 9 1 10 0;
#X connect 10 0 11 0;
#X connect 10 1 1 0;
#X restore -119 49 pd synth;
#X obj 168 122 bng 15 250 50 0 empty empty empty 17 7 0 10 -262144
-1 -1;
#X obj -97 385 pack f f;
#X floatatom -57 334 5 0 255 0 - - -;
#X obj -79 359 t b f;
#X floatatom 189 209 5 0 0 1 decay - -;
#X msg 189 359 \; slope \$1 \;;
#X msg 189 296 \; atack \$1 \;;
#X msg 189 232 \; decay \$1 \;;
#X msg 189 167 \; materials \$1 \;;
#X floatatom 189 -93 5 1 15 1 tempo - -;
#X msg 189 -70 \; tempo \$1 \;;
#X obj 189 -116 xy_gemwin 400 400;
#N canvas 837 22 395 349 inputSensors 0;
#X obj -81 12 inlet;
#X obj -44 319 outlet;
#X obj -81 41 match 255 255 255 255 255 255 255 255 255 255 255 255
255 255 255 255 255 255 255 255 255 255 255 255 255 255 255 255 255
255 255 255 255 255 255 255 255 255 255 255 255 255 255 255 255 255
255 255 255 255 255 255 255 255 255 255 255 255 255 255 255 255 255
255 nn nn nn nn nn nn nn nn nn nn nn nn nn nn nn nn nn nn nn nn nn
nn nn nn nn nn nn nn nn nn nn nn nn nn nn nn nn nn nn nn nn nn nn nn
nn nn nn nn nn nn nn nn nn nn nn nn nn nn nn nn nn nn nn nn nn nn nn
nn nn nn nn nn nn nn nn nn nn nn nn nn nn nn nn nn nn nn nn nn nn nn
nn nn nn nn nn nn nn nn nn nn nn nn nn nn nn nn nn nn nn nn nn nn nn
nn nn nn nn nn nn nn nn nn nn nn nn nn nn nn nn nn nn nn nn nn nn nn
nn nn nn nn nn nn nn nn nn nn nn nn nn nn nn nn nn nn nn nn nn nn nn
nn nn nn nn nn nn nn nn nn nn nn nn nn nn nn nn nn nn nn nn nn nn nn
nn nn nn nn nn nn nn nn nn nn nn nn nn nn nn nn nn nn nn nn nn nn nn
nn nn nn nn nn nn nn nn nn nn nn nn nn nn nn nn nn nn nn nn nn nn nn
nn nn nn nn nn nn nn nn nn nn nn nn nn nn nn nn nn nn nn nn nn nn nn
nn nn nn nn nn;
#X obj -81 294 list split 64;
#X connect 0 0 2 0;
#X connect 2 0 3 0;
#X connect 3 1 1 0;
#X restore -119 -24 pd inputSensors;
#X msg 153 180 5;
#X msg 152 309 2000;
#X msg 153 245 1;
#X obj -79 109 print;
#X obj -79 85 spigot;
#X msg -32 68 0;
#X msg -32 47 1;
#X obj -119 -65 comport 2 38400;
#X msg -97 409 \; liste \$1 0 0 0 0 0 0 0 0 0 0 0 0 0 0 0 \$2 0 0 0
0 0 0 0 0 0 0 0 0 0 0 0 0 0 0 0 0 0 0 0 0 0 0 0 0 0 0 0 0 0 0 0 0 0
0 0 0 0 0 0 0 0 0 0 0 0 0 0 0 0 0 0 0 0 0 0 0 0 0 0 0 0 0 0 0 0 0 0
0 0 0 0 0 0 0 0 0 0 0 0 0 0 0 0 0 0 0 0 0 0 0 0 0 0 0 0 0 0 0 0 0 0
0 0 0 0 0 0 0 0 0 0 0 0 0 0 0 0 0 0 0 0 0 0 0 0 0 0 0 0 0 0 0 0 0 0
0 0 0 0 0 0 0 0 0 0 0 0 0 0 0 0 0 0 0 0 0 0 0 0 0 0 0 0 0 0 0 0 0 0
0 0 0 0 0 0 0 0 0 0 0 0 0 0 0 0 0 0 0 0 0 0 0 0 0 0 0 0 0 0 0 0 0 0
0 0 0 0 0 0 0 0 0 0 0 0 0 0 0 0 0 0 0 0 0 0 0 0 0 0 0 0 0 0 0 0 \;
;
#X msg -110 -116 open 2;
#X obj 65 -51 audio_disto;
#X obj 20 -116 audio_pitchshift;
#X obj -107 -1 r liste;
#X obj -97 303 metro 100;
#X obj -97 279 tgl 15 0 empty empty empty 17 7 0 10 -262144 -1 -1 0
1;
#X connect 0 0 42 0;
#X connect 1 0 42 0;
#X connect 2 0 46 0;
#X connect 3 0 6 0;
#X connect 3 0 4 0;
#X connect 3 0 30 0;
#X connect 4 0 5 0;
#X connect 5 0 3 1;
#X connect 7 0 23 0;
#X connect 8 0 28 0;
#X connect 9 0 27 0;
#X connect 17 0 16 0;
#X connect 19 0 33 0;
#X connect 20 0 21 0;
#X connect 22 0 3 0;
#X connect 23 0 43 0;
#X connect 24 0 25 0;
#X connect 25 0 23 0;
#X connect 25 1 23 1;
#X connect 26 0 29 0;
#X connect 31 0 32 0;
#X connect 34 0 20 0;
#X connect 35 0 26 0;
#X connect 36 0 9 0;
#X connect 37 0 8 0;
#X connect 39 0 38 0;
#X connect 40 0 39 1;
#X connect 41 0 39 1;
#X connect 42 0 34 0;
#X connect 44 0 42 0;
#X connect 45 0 18 0;
#X connect 45 0 18 1;
#X connect 46 0 18 0;
#X connect 46 0 18 1;
#X connect 47 0 20 0;
#X connect 48 0 7 0;
#X connect 49 0 48 0;
