#N canvas 797 259 412 309 10;
#X obj -193 -114 inlet;
#X msg -165 -67 destroy \, reset;
#X msg -193 -9 create \, 1;
#X obj -79 -43 loadbang;
#X obj -193 59 gemwin 15;
#X obj -94 -12 \$1;
#X obj -193 -43 trigger bang bang;
#X obj -193 -90 select 1 0;
#X msg -94 11 dimen \$1 \$1;
#X obj 86 12 % 16;
#X obj 160 10 / 16;
#X obj 160 32 i;
#X obj 57 -36 + 1;
#X obj 13 -60 until;
#X msg 13 -113 256;
#X obj 13 -12 trigger float float float;
#N canvas 193 282 984 333 subpatch 0;
#X obj 900 300 pixel 255;
#X obj 0 0 pixel 0;
#X obj 60 0 pixel 1;
#X obj 180 300 pixel 243;
#X obj 120 0 pixel 2;
#X obj 300 220 pixel 181;
#X obj 180 0 pixel 3;
#X obj 240 0 pixel 4;
#X obj 300 0 pixel 5;
#X obj 360 0 pixel 6;
#X obj 420 0 pixel 7;
#X obj 480 0 pixel 8;
#X obj 540 0 pixel 9;
#X obj 600 0 pixel 10;
#X obj 660 0 pixel 11;
#X obj 720 0 pixel 12;
#X obj 780 0 pixel 13;
#X obj 840 0 pixel 14;
#X obj 900 0 pixel 15;
#X obj 0 20 pixel 16;
#X obj 60 20 pixel 17;
#X obj 120 20 pixel 18;
#X obj 180 20 pixel 19;
#X obj 240 20 pixel 20;
#X obj 300 20 pixel 21;
#X obj 360 20 pixel 22;
#X obj 420 20 pixel 23;
#X obj 480 20 pixel 24;
#X obj 540 20 pixel 25;
#X obj 600 20 pixel 26;
#X obj 660 20 pixel 27;
#X obj 720 20 pixel 28;
#X obj 780 20 pixel 29;
#X obj 840 20 pixel 30;
#X obj 900 20 pixel 31;
#X obj 0 40 pixel 32;
#X obj 60 40 pixel 33;
#X obj 120 40 pixel 34;
#X obj 180 40 pixel 35;
#X obj 240 40 pixel 36;
#X obj 300 40 pixel 37;
#X obj 360 40 pixel 38;
#X obj 420 40 pixel 39;
#X obj 480 40 pixel 40;
#X obj 540 40 pixel 41;
#X obj 600 40 pixel 42;
#X obj 660 40 pixel 43;
#X obj 720 40 pixel 44;
#X obj 780 40 pixel 45;
#X obj 840 40 pixel 46;
#X obj 900 40 pixel 47;
#X obj 0 60 pixel 48;
#X obj 60 60 pixel 49;
#X obj 120 60 pixel 50;
#X obj 180 60 pixel 51;
#X obj 240 60 pixel 52;
#X obj 300 60 pixel 53;
#X obj 360 60 pixel 54;
#X obj 420 60 pixel 55;
#X obj 480 60 pixel 56;
#X obj 540 60 pixel 57;
#X obj 600 60 pixel 58;
#X obj 660 60 pixel 59;
#X obj 720 60 pixel 60;
#X obj 780 60 pixel 61;
#X obj 840 60 pixel 62;
#X obj 900 60 pixel 63;
#X obj 0 80 pixel 64;
#X obj 60 80 pixel 65;
#X obj 120 80 pixel 66;
#X obj 180 80 pixel 67;
#X obj 240 80 pixel 68;
#X obj 300 80 pixel 69;
#X obj 360 80 pixel 70;
#X obj 420 80 pixel 71;
#X obj 480 80 pixel 72;
#X obj 540 80 pixel 73;
#X obj 600 80 pixel 74;
#X obj 660 80 pixel 75;
#X obj 720 80 pixel 76;
#X obj 780 80 pixel 77;
#X obj 840 80 pixel 78;
#X obj 900 80 pixel 79;
#X obj 0 100 pixel 80;
#X obj 60 100 pixel 81;
#X obj 120 100 pixel 82;
#X obj 180 100 pixel 83;
#X obj 240 100 pixel 84;
#X obj 300 100 pixel 85;
#X obj 360 100 pixel 86;
#X obj 420 100 pixel 87;
#X obj 480 100 pixel 88;
#X obj 540 100 pixel 89;
#X obj 600 100 pixel 90;
#X obj 660 100 pixel 91;
#X obj 720 100 pixel 92;
#X obj 780 100 pixel 93;
#X obj 840 100 pixel 94;
#X obj 900 100 pixel 95;
#X obj 0 120 pixel 96;
#X obj 60 120 pixel 97;
#X obj 120 120 pixel 98;
#X obj 180 120 pixel 99;
#X obj 240 120 pixel 100;
#X obj 300 120 pixel 101;
#X obj 360 120 pixel 102;
#X obj 420 120 pixel 103;
#X obj 480 120 pixel 104;
#X obj 540 120 pixel 105;
#X obj 600 120 pixel 106;
#X obj 660 120 pixel 107;
#X obj 720 120 pixel 108;
#X obj 780 120 pixel 109;
#X obj 840 120 pixel 110;
#X obj 900 120 pixel 111;
#X obj 0 140 pixel 112;
#X obj 60 140 pixel 113;
#X obj 120 140 pixel 114;
#X obj 180 140 pixel 115;
#X obj 240 140 pixel 116;
#X obj 300 140 pixel 117;
#X obj 360 140 pixel 118;
#X obj 420 140 pixel 119;
#X obj 480 140 pixel 120;
#X obj 540 140 pixel 121;
#X obj 600 140 pixel 122;
#X obj 660 140 pixel 123;
#X obj 720 140 pixel 124;
#X obj 780 140 pixel 125;
#X obj 840 140 pixel 126;
#X obj 900 140 pixel 127;
#X obj 0 160 pixel 128;
#X obj 60 160 pixel 129;
#X obj 120 160 pixel 130;
#X obj 180 160 pixel 131;
#X obj 240 160 pixel 132;
#X obj 300 160 pixel 133;
#X obj 360 160 pixel 134;
#X obj 420 160 pixel 135;
#X obj 480 160 pixel 136;
#X obj 540 160 pixel 137;
#X obj 600 160 pixel 138;
#X obj 660 160 pixel 139;
#X obj 720 160 pixel 140;
#X obj 780 160 pixel 141;
#X obj 840 160 pixel 142;
#X obj 900 160 pixel 143;
#X obj 0 180 pixel 144;
#X obj 60 180 pixel 145;
#X obj 120 180 pixel 146;
#X obj 180 180 pixel 147;
#X obj 240 180 pixel 148;
#X obj 300 180 pixel 149;
#X obj 360 180 pixel 150;
#X obj 420 180 pixel 151;
#X obj 480 180 pixel 152;
#X obj 540 180 pixel 153;
#X obj 600 180 pixel 154;
#X obj 660 180 pixel 155;
#X obj 720 180 pixel 156;
#X obj 780 180 pixel 157;
#X obj 840 180 pixel 158;
#X obj 900 180 pixel 159;
#X obj 0 200 pixel 160;
#X obj 60 200 pixel 161;
#X obj 120 200 pixel 162;
#X obj 180 200 pixel 163;
#X obj 240 200 pixel 164;
#X obj 300 200 pixel 165;
#X obj 360 200 pixel 166;
#X obj 420 200 pixel 167;
#X obj 480 200 pixel 168;
#X obj 540 200 pixel 169;
#X obj 600 200 pixel 170;
#X obj 660 200 pixel 171;
#X obj 720 200 pixel 172;
#X obj 780 200 pixel 173;
#X obj 840 200 pixel 174;
#X obj 900 200 pixel 175;
#X obj 0 220 pixel 176;
#X obj 60 220 pixel 177;
#X obj 120 220 pixel 178;
#X obj 180 220 pixel 179;
#X obj 240 220 pixel 180;
#X obj 360 220 pixel 182;
#X obj 420 220 pixel 183;
#X obj 480 220 pixel 184;
#X obj 540 220 pixel 185;
#X obj 600 220 pixel 186;
#X obj 660 220 pixel 187;
#X obj 720 220 pixel 188;
#X obj 780 220 pixel 189;
#X obj 840 220 pixel 190;
#X obj 900 220 pixel 191;
#X obj 0 240 pixel 192;
#X obj 60 240 pixel 193;
#X obj 120 240 pixel 194;
#X obj 180 240 pixel 195;
#X obj 240 240 pixel 196;
#X obj 300 240 pixel 197;
#X obj 360 240 pixel 198;
#X obj 420 240 pixel 199;
#X obj 480 240 pixel 200;
#X obj 540 240 pixel 201;
#X obj 600 240 pixel 202;
#X obj 660 240 pixel 203;
#X obj 720 240 pixel 204;
#X obj 780 240 pixel 205;
#X obj 840 240 pixel 206;
#X obj 900 240 pixel 207;
#X obj 0 260 pixel 208;
#X obj 60 260 pixel 209;
#X obj 120 260 pixel 210;
#X obj 180 260 pixel 211;
#X obj 240 260 pixel 212;
#X obj 300 260 pixel 213;
#X obj 360 260 pixel 214;
#X obj 420 260 pixel 215;
#X obj 480 260 pixel 216;
#X obj 540 260 pixel 217;
#X obj 600 260 pixel 218;
#X obj 660 260 pixel 219;
#X obj 720 260 pixel 220;
#X obj 780 260 pixel 221;
#X obj 840 260 pixel 222;
#X obj 900 260 pixel 223;
#X obj 0 280 pixel 224;
#X obj 60 280 pixel 225;
#X obj 120 280 pixel 226;
#X obj 180 280 pixel 227;
#X obj 240 280 pixel 228;
#X obj 300 280 pixel 229;
#X obj 360 280 pixel 230;
#X obj 420 280 pixel 231;
#X obj 480 280 pixel 232;
#X obj 540 280 pixel 233;
#X obj 600 280 pixel 234;
#X obj 660 280 pixel 235;
#X obj 720 280 pixel 236;
#X obj 780 280 pixel 237;
#X obj 840 280 pixel 238;
#X obj 900 280 pixel 239;
#X obj 0 300 pixel 240;
#X obj 60 300 pixel 241;
#X obj 120 300 pixel 242;
#X obj 240 300 pixel 244;
#X obj 300 300 pixel 245;
#X obj 360 300 pixel 246;
#X obj 420 300 pixel 247;
#X obj 480 300 pixel 248;
#X obj 540 300 pixel 249;
#X obj 600 300 pixel 250;
#X obj 660 300 pixel 251;
#X obj 720 300 pixel 252;
#X obj 780 300 pixel 253;
#X obj 840 300 pixel 254;
#X restore 13 169 pd subpatch;
#X obj 13 128 s pd-subpatch;
#X msg 13 105 obj \$2 \$3 pixel \$1;
#X obj 160 54 * 20;
#X obj 13 82 pack float float float;
#X obj 86 55 * 60;
#X msg 76 -67 0;
#X msg -180 139 draw fill;
#X obj -193 113 gemhead;
#X obj -193 169 square 4;
#X obj 13 -36 float;
#X obj 13 -90 trigger f b;
#X connect 0 0 7 0;
#X connect 1 0 4 0;
#X connect 2 0 4 0;
#X connect 3 0 5 0;
#X connect 5 0 8 0;
#X connect 6 0 2 0;
#X connect 6 1 5 0;
#X connect 7 0 6 0;
#X connect 7 1 1 0;
#X connect 8 0 4 0;
#X connect 9 0 21 0;
#X connect 10 0 11 0;
#X connect 11 0 19 0;
#X connect 12 0 26 1;
#X connect 13 0 26 0;
#X connect 14 0 27 0;
#X connect 15 0 20 0;
#X connect 15 1 9 0;
#X connect 15 2 10 0;
#X connect 18 0 17 0;
#X connect 19 0 20 2;
#X connect 20 0 18 0;
#X connect 21 0 20 1;
#X connect 22 0 26 1;
#X connect 23 0 25 0;
#X connect 26 0 12 0;
#X connect 26 0 15 0;
#X connect 27 0 13 0;
#X connect 27 1 22 0;
