#N canvas 532 22 138 250 10;
#X obj -4 -84 inlet;
#X obj 26 43 + 1;
#X obj -4 43 f 0;
#X obj -4 73 pack float float;
#X obj -4 11 trigger bang float;
#X obj -4 117 outlet;
#X obj -4 -42 list-drip;
#X msg 47 -18 0;
#X connect 0 0 6 0;
#X connect 1 0 2 1;
#X connect 2 0 1 0;
#X connect 2 0 3 0;
#X connect 3 0 5 0;
#X connect 4 0 2 0;
#X connect 4 1 3 1;
#X connect 6 0 4 0;
#X connect 6 1 7 0;
#X connect 7 0 2 1;
