#N canvas 643 103 381 403 10;
#X msg 49 123 0;
#X msg 100 145 4;
#X msg 151 169 7;
#X msg 202 195 9;
#X obj 22 7 inlet;
#X obj 22 344 outlet;
#X obj 22 32 t f f;
#X obj 151 143 split 7 8;
#X obj 202 166 split 9 11;
#X obj 100 120 split 4 6;
#X obj 49 97 split 0 3;
#X obj 22 262 +;
#X obj 22 313 + 40;
#X msg 259 219 13;
#X obj 49 74 % 16;
#X obj 259 188 split 12 15;
#X obj 22 287 i;
#X connect 0 0 11 1;
#X connect 1 0 11 1;
#X connect 2 0 11 1;
#X connect 3 0 11 1;
#X connect 4 0 6 0;
#X connect 6 0 11 0;
#X connect 6 1 14 0;
#X connect 7 0 2 0;
#X connect 7 1 8 0;
#X connect 8 0 3 0;
#X connect 8 1 15 0;
#X connect 9 0 1 0;
#X connect 9 1 7 0;
#X connect 10 0 0 0;
#X connect 10 1 9 0;
#X connect 11 0 16 0;
#X connect 12 0 5 0;
#X connect 13 0 11 1;
#X connect 14 0 10 0;
#X connect 15 0 13 0;
#X connect 16 0 12 0;
