#N canvas 932 96 411 458 10;
#X obj 17 -62 gemhead;
#X obj 17 252 color 0 0 0;
#X obj 80 156 trigger bang bang;
#X obj 80 132 r \$1-metro;
#X obj 17 104 translateXYZ 0 0 0;
#X msg 30 316 draw fill;
#X obj 17 363 square;
#X obj 30 283 loadbang;
#X msg 50 338 0.21;
#X obj 52 5 % 16;
#X obj 98 4 / 16;
#X obj 98 26 i;
#X obj 98 -33 \$1;
#X obj 98 -62 loadbang;
#X obj 52 70 - 3.75;
#X obj 98 70 - 3.75;
#X obj 98 48 / 2;
#X obj 52 48 / 2;
#X msg 80 181 1 0 0;
#X msg 179 235 0 0 0;
#X obj 200 -62 r \$1-pression;
#X msg 200 207 set \$1 \$1 \$1 \, bang;
#X obj 179 182 delay 50;
#X connect 0 0 4 0;
#X connect 1 0 6 0;
#X connect 2 0 18 0;
#X connect 2 1 22 0;
#X connect 3 0 2 0;
#X connect 4 0 1 0;
#X connect 5 0 6 0;
#X connect 7 0 8 0;
#X connect 7 0 5 0;
#X connect 8 0 6 1;
#X connect 9 0 17 0;
#X connect 10 0 11 0;
#X connect 11 0 16 0;
#X connect 12 0 9 0;
#X connect 12 0 10 0;
#X connect 13 0 12 0;
#X connect 14 0 4 1;
#X connect 15 0 4 2;
#X connect 16 0 15 0;
#X connect 17 0 14 0;
#X connect 18 0 1 1;
#X connect 19 0 1 1;
#X connect 20 0 21 0;
#X connect 21 0 19 0;
#X connect 22 0 19 0;
