#N canvas 125 90 1062 719 10;
#X obj -36 -38 inlet;
#X obj 260 365 ead~ 0 0;
#X obj 260 414 *~;
#X msg 260 172 1;
#X msg 305 172 0;
#X obj 142 407 line~;
#X obj 260 127 change;
#X obj 142 453 *~;
#X obj 309 574 bp~ 440 80;
#X obj 388 574 bp~ 440 80;
#X obj 467 574 bp~ 440 80;
#X obj 547 574 bp~ 440 80;
#X obj 337 312 unpack 1 2 3 4 5;
#X text 701 33 metal;
#X text 699 58 glass 2;
#X text 671 165 wood;
#X msg 553 193 109 230 352 413 10;
#X msg 553 112 1245 1503 2131 2575 100;
#X text 680 138 plastic;
#X text 700 112 china;
#X text 700 85 glass 1;
#X text 672 192 cardboard;
#X msg 553 139 627 781 972 1184 70;
#X msg 553 59 2312 2466 3200 5314 380;
#X msg 552 86 1679 1233 4251 4640 340;
#X msg 553 166 221 333 426 527 40;
#X obj 337 454 line;
#X obj 655 454 line;
#X obj 575 454 line;
#X obj 495 455 line;
#X obj 416 454 line;
#X obj 466 -3 sel 0 1 2 3 4 5;
#X msg 553 34 3454 5645 6433 8945 200;
#X obj 254 -38 r threalde;
#X obj 260 149 select 1;
#X obj 434 645 throw~ signal;
#X obj -36 -16 unpack float float;
#X obj 260 226 metro 1000;
#X obj -36 112 trigger float float;
#X obj 142 265 / 1;
#X obj 388 -38 r slope;
#X obj 466 -38 r materials;
#X obj 282 321 r atack;
#X obj 305 342 r decay;
#X obj 818 320 r \$1-posX;
#X obj 853 340 r \$1-posY;
#X obj 783 592 text2d;
#X obj 783 299 gemhead;
#X obj 816 568 r \$1-pression;
#X obj 730 535 r \$1-ID;
#X msg 806 464 0.8 0 0.2;
#X obj 783 535 color 0 0 0;
#X obj 905 468 delay 100;
#X msg 905 495 1 1 1;
#X obj 806 439 trigger bang bang;
#X obj 270 250 s \$1-metro;
#X obj 806 415 r \$1-metro;
#X obj -36 189 mtof~;
#X obj 317 203 * 8;
#X obj -36 167 mode;
#X obj -36 134 change;
#X obj -36 211 osc~;
#X obj 416 425 pack \$1 1000;
#X obj 337 425 pack \$1 1000;
#X obj 495 425 pack \$1 1000;
#X obj 575 425 pack \$1 1000;
#X obj 655 425 pack \$1 1200;
#X obj 332 -17 r tempo;
#X obj 69 50 s \$1-pression;
#X obj 69 24 trigger float float float;
#X obj 260 106 > 30;
#X obj 157 194 trigger b f;
#X obj 157 217 255;
#X obj 157 240 - 30;
#X obj 142 385 pack \$1 10;
#X obj 783 365 translateXYZ 0 0 0;
#X obj 254 9 t f f;
#X obj 142 363 MAPPING/curve_exp;
#X obj 434 619 *~ 0.5;
#X connect 0 0 36 0;
#X connect 1 0 2 0;
#X connect 2 0 7 1;
#X connect 3 0 37 0;
#X connect 4 0 37 0;
#X connect 5 0 7 0;
#X connect 6 0 34 0;
#X connect 7 0 8 0;
#X connect 7 0 9 0;
#X connect 7 0 10 0;
#X connect 7 0 11 0;
#X connect 8 0 78 0;
#X connect 9 0 78 0;
#X connect 10 0 78 0;
#X connect 11 0 78 0;
#X connect 12 0 63 0;
#X connect 12 1 62 0;
#X connect 12 2 64 0;
#X connect 12 3 65 0;
#X connect 12 4 66 0;
#X connect 16 0 12 0;
#X connect 17 0 12 0;
#X connect 22 0 12 0;
#X connect 23 0 12 0;
#X connect 24 0 12 0;
#X connect 25 0 12 0;
#X connect 26 0 8 1;
#X connect 27 0 8 2;
#X connect 27 0 9 2;
#X connect 27 0 10 2;
#X connect 27 0 11 2;
#X connect 28 0 11 1;
#X connect 29 0 10 1;
#X connect 30 0 9 1;
#X connect 31 0 16 0;
#X connect 31 1 25 0;
#X connect 31 2 22 0;
#X connect 31 3 17 0;
#X connect 31 4 24 0;
#X connect 31 5 23 0;
#X connect 31 6 32 0;
#X connect 32 0 12 0;
#X connect 33 0 76 0;
#X connect 34 0 3 0;
#X connect 34 1 4 0;
#X connect 36 0 38 0;
#X connect 36 1 69 0;
#X connect 37 0 1 0;
#X connect 37 0 55 0;
#X connect 38 0 60 0;
#X connect 38 1 58 0;
#X connect 39 0 77 0;
#X connect 40 0 62 1;
#X connect 40 0 63 1;
#X connect 40 0 64 1;
#X connect 40 0 65 1;
#X connect 40 0 66 1;
#X connect 41 0 31 0;
#X connect 42 0 1 1;
#X connect 43 0 1 2;
#X connect 44 0 75 1;
#X connect 45 0 75 2;
#X connect 47 0 75 0;
#X connect 48 0 46 1;
#X connect 49 0 46 0;
#X connect 50 0 51 1;
#X connect 51 0 46 0;
#X connect 52 0 53 0;
#X connect 53 0 51 1;
#X connect 54 0 50 0;
#X connect 54 1 52 0;
#X connect 56 0 54 0;
#X connect 57 0 61 0;
#X connect 58 0 37 1;
#X connect 59 0 57 0;
#X connect 60 0 59 0;
#X connect 61 0 2 1;
#X connect 62 0 30 0;
#X connect 63 0 26 0;
#X connect 64 0 29 0;
#X connect 65 0 28 0;
#X connect 66 0 27 0;
#X connect 67 0 58 1;
#X connect 69 0 68 0;
#X connect 69 1 39 0;
#X connect 69 2 70 0;
#X connect 70 0 6 0;
#X connect 71 0 72 0;
#X connect 71 1 73 1;
#X connect 72 0 73 0;
#X connect 73 0 39 1;
#X connect 74 0 5 0;
#X connect 75 0 51 0;
#X connect 76 0 71 0;
#X connect 76 1 70 1;
#X connect 77 0 74 0;
#X connect 78 0 35 0;
