#N canvas 586 79 733 659 10;
#X obj -21 4 inlet;
#X obj 182 397 ead~ 0 0;
#X obj 182 446 *~;
#X obj 84 439 line~;
#X obj 231 546 bp~ 440 80;
#X obj 310 546 bp~ 440 80;
#X obj 389 546 bp~ 440 80;
#X obj 469 546 bp~ 440 80;
#X obj 259 343 unpack 1 2 3 4 5;
#X text 623 65 metal;
#X text 621 90 glass 2;
#X text 593 197 wood;
#X msg 475 225 109 230 352 413 10;
#X msg 475 144 1245 1503 2131 2575 100;
#X text 602 170 plastic;
#X text 622 144 china;
#X text 622 117 glass 1;
#X text 594 224 cardboard;
#X msg 475 171 627 781 972 1184 70;
#X msg 475 91 2312 2466 3200 5314 380;
#X msg 474 118 1679 1233 4251 4640 340;
#X msg 475 198 221 333 426 527 40;
#X obj 259 486 line;
#X obj 577 486 line;
#X obj 497 486 line;
#X obj 417 487 line;
#X obj 338 486 line;
#X obj 388 29 sel 0 1 2 3 4 5;
#X msg 475 66 3454 5645 6433 8945 200;
#X obj 356 617 throw~ signal;
#X obj -21 41 unpack float float;
#X obj 182 218 metro 1000;
#X obj 328 4 r slope;
#X obj 388 4 r materials;
#X obj 204 353 r atack;
#X obj 227 374 r decay;
#X obj -21 140 mtof~;
#X obj 269 165 * 8;
#X obj -21 162 osc~;
#X obj 338 457 pack \$1 1000;
#X obj 259 457 pack \$1 1000;
#X obj 417 457 pack \$1 1000;
#X obj 497 457 pack \$1 1000;
#X obj 577 457 pack \$1 1200;
#X obj 269 4 r tempo;
#X obj 356 591 *~ 0.5;
#X obj 84 337 curve_exp;
#X text 25 3 ID - Value;
#X obj -21 74 trigger float float float;
#X obj 126 257 makesymbol %s-metro;
#X obj 105 302 send;
#N canvas 787 262 421 397 mode 0;
#X msg 59 133 0;
#X msg 110 155 4;
#X msg 161 179 7;
#X msg 212 205 9;
#X obj 32 17 inlet;
#X obj 32 354 outlet;
#X obj 32 42 t f f;
#X obj 161 153 split 7 8;
#X obj 212 176 split 9 11;
#X obj 110 130 split 4 6;
#X obj 59 107 split 0 3;
#X obj 32 272 +;
#X obj 32 323 + 40;
#X msg 269 229 13;
#X obj 59 84 % 16;
#X obj 269 198 split 12 15;
#X obj 32 297 i;
#X connect 0 0 11 1;
#X connect 1 0 11 1;
#X connect 2 0 11 1;
#X connect 3 0 11 1;
#X connect 4 0 6 0;
#X connect 6 0 11 0;
#X connect 6 1 14 0;
#X connect 7 0 2 0;
#X connect 7 1 8 0;
#X connect 8 0 3 0;
#X connect 8 1 15 0;
#X connect 9 0 1 0;
#X connect 9 1 7 0;
#X connect 10 0 0 0;
#X connect 10 1 9 0;
#X connect 11 0 16 0;
#X connect 12 0 5 0;
#X connect 13 0 11 1;
#X connect 14 0 10 0;
#X connect 15 0 13 0;
#X connect 16 0 12 0;
#X restore -21 118 pd mode;
#X obj 269 129 t b f;
#X obj 182 3 r \$1-ON_OFF;
#X obj 84 407 pack \$1 10;
#X obj 84 379 * 10;
#X obj 182 487 *~ 1;
#X connect 0 0 30 0;
#X connect 1 0 2 1;
#X connect 2 0 56 0;
#X connect 4 0 45 0;
#X connect 5 0 45 0;
#X connect 6 0 45 0;
#X connect 7 0 45 0;
#X connect 8 0 40 0;
#X connect 8 1 39 0;
#X connect 8 2 41 0;
#X connect 8 3 42 0;
#X connect 8 4 43 0;
#X connect 12 0 8 0;
#X connect 13 0 8 0;
#X connect 18 0 8 0;
#X connect 19 0 8 0;
#X connect 20 0 8 0;
#X connect 21 0 8 0;
#X connect 22 0 4 1;
#X connect 23 0 4 2;
#X connect 23 0 5 2;
#X connect 23 0 6 2;
#X connect 23 0 7 2;
#X connect 24 0 7 1;
#X connect 25 0 6 1;
#X connect 26 0 5 1;
#X connect 27 0 12 0;
#X connect 27 1 21 0;
#X connect 27 2 18 0;
#X connect 27 3 13 0;
#X connect 27 4 20 0;
#X connect 27 5 19 0;
#X connect 27 6 28 0;
#X connect 28 0 8 0;
#X connect 30 0 48 0;
#X connect 30 1 46 0;
#X connect 31 0 1 0;
#X connect 31 0 50 0;
#X connect 32 0 39 1;
#X connect 32 0 40 1;
#X connect 32 0 41 1;
#X connect 32 0 42 1;
#X connect 32 0 43 1;
#X connect 33 0 27 0;
#X connect 34 0 1 1;
#X connect 35 0 1 2;
#X connect 36 0 38 0;
#X connect 37 0 31 1;
#X connect 38 0 2 0;
#X connect 39 0 26 0;
#X connect 40 0 22 0;
#X connect 41 0 25 0;
#X connect 42 0 24 0;
#X connect 43 0 23 0;
#X connect 44 0 52 0;
#X connect 45 0 29 0;
#X connect 46 0 55 0;
#X connect 48 0 51 0;
#X connect 48 1 37 0;
#X connect 48 2 49 0;
#X connect 49 0 50 1;
#X connect 51 0 36 0;
#X connect 52 0 37 0;
#X connect 52 1 37 1;
#X connect 53 0 31 0;
#X connect 54 0 3 0;
#X connect 55 0 54 0;
#X connect 56 0 4 0;
#X connect 56 0 5 0;
#X connect 56 0 6 0;
#X connect 56 0 7 0;
