#N canvas 716 77 543 657 10;
#X obj 124 -166 r threalde;
#X obj 10 -278 inlet;
#X msg 185 1 257;
#X obj 109 -232 unpack float float;
#X obj 171 331 outlet;
#X obj 109 -210 trigger bang float;
#X obj 10 64 trigger float float;
#X obj 10 -255 trigger list list;
#X obj 148 -121 loadbang;
#X obj 109 -75 float 0;
#X obj 10 288 pack float float;
#X obj 10 240 trigger bang float;
#X obj 10 331 outlet;
#X obj 10 264 float 0;
#X obj 109 -188 float 0;
#X obj 10 18 route 257;
#X text 54 -279 ID - Value;
#X msg 286 191 1;
#X msg 250 191 0;
#X obj 10 162 - 0;
#X text -36 160 Offset;
#X obj 25 133 r threalde;
#X obj 142 64 r threalde;
#X obj 109 -144 > 0;
#X obj 121 89 <= 0;
#X obj 346 201 makesymbol %s-metro;
#X obj 325 227 send;
#X obj 109 -98 onebang;
#X obj 121 133 onebang;
#X obj 121 111 sel 1;
#X obj 109 -121 sel 1;
#X obj 121 155 trigger bang bang bang;
#X obj 288 337 makesymbol %s-ON_OFF;
#X obj 286 259 s \$1-ON_OFF;
#X obj 109 -52 trigger float bang bang float bang float;
#X obj 250 283 print STATE-\$1;
#X connect 0 0 23 1;
#X connect 1 0 7 0;
#X connect 2 0 15 1;
#X connect 3 0 5 0;
#X connect 3 1 14 1;
#X connect 5 0 14 0;
#X connect 5 1 9 1;
#X connect 6 0 19 0;
#X connect 6 1 24 0;
#X connect 7 0 15 0;
#X connect 7 1 3 0;
#X connect 8 0 27 1;
#X connect 9 0 34 0;
#X connect 10 0 12 0;
#X connect 11 0 13 0;
#X connect 11 1 10 1;
#X connect 13 0 10 0;
#X connect 14 0 23 0;
#X connect 15 0 6 0;
#X connect 15 1 4 0;
#X connect 17 0 33 0;
#X connect 17 0 35 0;
#X connect 18 0 11 0;
#X connect 18 0 33 0;
#X connect 18 0 35 0;
#X connect 19 0 11 0;
#X connect 21 0 19 1;
#X connect 22 0 24 1;
#X connect 23 0 30 0;
#X connect 24 0 29 0;
#X connect 25 0 26 1;
#X connect 27 0 9 0;
#X connect 28 0 31 0;
#X connect 29 0 28 0;
#X connect 30 0 27 0;
#X connect 31 0 27 1;
#X connect 31 1 2 0;
#X connect 31 2 18 0;
#X connect 34 0 15 1;
#X connect 34 1 17 0;
#X connect 34 3 13 1;
#X connect 34 4 28 1;
#X connect 34 5 25 0;
