#N canvas 654 22 495 741 10;
#X obj -102 -297 r threalde;
#X obj 66 -102 change;
#X obj 66 -81 select 1;
#X obj 66 -211 spigot;
#X msg 159 -258 0;
#X msg 129 -258 1;
#X obj 78 130 change;
#X obj -33 -297 inlet;
#X msg 18 17 257;
#X obj 78 152 select 1;
#X obj 66 -189 unpack float float;
#X obj 12 303 line;
#X obj 12 282 pack \$1 100;
#X obj 154 401 outlet;
#X obj 66 -167 trigger bang float;
#X obj -33 84 trigger float float;
#X obj -33 -244 trigger list list;
#X obj 129 -297 loadbang;
#X obj 66 -37 float 0;
#X obj 12 367 pack float float;
#X obj 12 325 trigger bang float;
#X obj 230 116 s \$1-posX;
#X obj 295 116 s \$1-posY;
#X obj 66 -15 trigger float float float float float;
#X msg 31 254 0;
#X obj 78 174 trigger bang bang bang;
#X obj 175 116 s \$1-ID;
#X obj 12 401 outlet;
#X obj 12 346 float 0;
#X obj 66 -145 float 0;
#X obj 66 -123 >= 30;
#X obj 78 108 < 30;
#X obj -33 59 route 257;
#X obj 12 173 - 30;
#X obj -33 149 moses 30;
#X obj 66 -59 trigger bang bang bang;
#X obj 12 215 average 5;
#X msg -77 173 reset \$1;
#X obj -77 141 f;
#X obj 230 19 % 16;
#X obj 285 19 / 16;
#X obj 230 82 i;
#X obj 285 62 - 4;
#X obj 230 40 / 2;
#X obj 230 61 - 4;
#X obj 285 40 / 2;
#X obj 285 83 i;
#X text 193 -188 ID - Value;
#X connect 0 0 30 1;
#X connect 0 0 31 1;
#X connect 0 0 33 1;
#X connect 0 0 34 1;
#X connect 0 0 38 1;
#X connect 1 0 2 0;
#X connect 2 0 35 0;
#X connect 3 0 10 0;
#X connect 4 0 3 1;
#X connect 5 0 3 1;
#X connect 6 0 9 0;
#X connect 7 0 16 0;
#X connect 8 0 32 1;
#X connect 9 0 25 0;
#X connect 10 0 14 0;
#X connect 10 1 29 1;
#X connect 11 0 20 0;
#X connect 12 0 11 0;
#X connect 14 0 29 0;
#X connect 14 1 18 1;
#X connect 15 0 34 0;
#X connect 15 1 31 0;
#X connect 16 0 32 0;
#X connect 16 1 3 0;
#X connect 17 0 5 0;
#X connect 18 0 23 0;
#X connect 19 0 27 0;
#X connect 20 0 28 0;
#X connect 20 1 19 1;
#X connect 23 0 32 1;
#X connect 23 1 28 1;
#X connect 23 2 26 0;
#X connect 23 3 39 0;
#X connect 23 4 40 0;
#X connect 24 0 12 0;
#X connect 25 0 5 0;
#X connect 25 1 8 0;
#X connect 25 2 24 0;
#X connect 28 0 19 0;
#X connect 29 0 30 0;
#X connect 30 0 1 0;
#X connect 31 0 6 0;
#X connect 32 0 15 0;
#X connect 32 1 13 0;
#X connect 33 0 36 0;
#X connect 34 1 33 0;
#X connect 35 0 18 0;
#X connect 35 1 38 0;
#X connect 35 2 4 0;
#X connect 36 0 12 0;
#X connect 37 0 36 0;
#X connect 38 0 37 0;
#X connect 39 0 43 0;
#X connect 40 0 45 0;
#X connect 41 0 21 0;
#X connect 42 0 46 0;
#X connect 43 0 44 0;
#X connect 44 0 41 0;
#X connect 45 0 42 0;
#X connect 46 0 22 0;
