#N canvas 896 39 362 499 10;
#X obj 268 83 line~;
#X obj 253 105 *~;
#X obj 166 106 *~;
#X obj 232 184 dac~;
#X obj 109 17 loadbang;
#X obj 109 243 vsl 20 128 0 500 0 0 empty empty empty 0 -8 0 10 -4034
-1 -1 12200 1;
#X obj 131 243 vsl 20 128 0 500 0 0 empty empty empty 0 -8 0 10 -4034
-1 -1 12200 0;
#X obj 181 83 line~;
#X msg 109 177 90;
#X obj 166 17 inlet~;
#X obj 253 17 inlet~;
#X obj 109 378 tgl 42 0 empty empty DSP 48 20 0 20 -4034 -1 -1 1 1
;
#X msg 109 437 \; pd dsp \$1 \;;
#X obj 181 62 pack \$1 50;
#X obj 268 62 pack \$1 50;
#X connect 0 0 1 1;
#X connect 1 0 3 1;
#X connect 2 0 3 0;
#X connect 4 0 8 0;
#X connect 5 0 6 0;
#X connect 5 0 13 0;
#X connect 6 0 14 0;
#X connect 7 0 2 1;
#X connect 8 0 5 0;
#X connect 9 0 2 0;
#X connect 10 0 1 0;
#X connect 11 0 12 0;
#X connect 13 0 7 0;
#X connect 14 0 0 0;
#X coords 0 -1 1 1 100 230 1 100 200;
