#N canvas 590 22 185 215 10;
#X obj -233 6 inlet;
#X msg -205 53 destroy \, reset;
#X msg -233 111 create \, 1;
#X obj -119 77 loadbang;
#X obj -233 179 gemwin 15;
#X obj -134 108 \$1;
#X obj -233 77 trigger bang bang;
#X obj -233 30 select 1 0;
#X msg -134 131 dimen \$1 \$1;
#X connect 0 0 7 0;
#X connect 1 0 4 0;
#X connect 2 0 4 0;
#X connect 3 0 5 0;
#X connect 5 0 8 0;
#X connect 6 0 2 0;
#X connect 6 1 5 0;
#X connect 7 0 6 0;
#X connect 7 1 1 0;
#X connect 8 0 4 0;
