#N canvas 842 322 411 475 10;
#X obj 217 194 +;
#X obj 217 217 sqrt;
#X obj 217 158 pow 2;
#X obj 259 158 pow 2;
#X obj 280 83 unpack f f f;
#X obj 217 241 < 0;
#X obj 259 135 - 0;
#X obj 217 135 - 0;
#X obj 280 39 r toggle_circle;
#X msg 85 203 0;
#X obj 34 37 inlet;
#X obj 217 285 sel 1;
#X msg 217 307 1;
#X obj 85 181 sel 0;
#X obj 217 263 change;
#X obj 85 225 t f f;
#X obj 85 374 s master_switch;
#X obj 85 38 r alive-\$1;
#X obj 154 39 r posX-\$1;
#X obj 217 39 r posY-\$1;
#X connect 0 0 1 0;
#X connect 1 0 5 0;
#X connect 2 0 0 0;
#X connect 3 0 0 1;
#X connect 4 0 7 1;
#X connect 4 1 6 1;
#X connect 4 2 5 1;
#X connect 5 0 14 0;
#X connect 6 0 3 0;
#X connect 7 0 2 0;
#X connect 8 0 4 0;
#X connect 9 0 15 0;
#X connect 11 0 12 0;
#X connect 12 0 16 0;
#X connect 13 0 9 0;
#X connect 14 0 11 0;
#X connect 15 0 16 0;
#X connect 15 1 14 0;
#X connect 17 0 13 0;
#X connect 18 0 7 0;
#X connect 19 0 6 0;
