#N canvas 839 450 421 376 10;
#X obj 124 191 +;
#X obj 124 214 sqrt;
#X obj 250 70 unpack f f f;
#X obj 124 252 < 0;
#X obj 40 338 s master_switch;
#X obj 40 44 r alive-\$1;
#X obj 124 44 r posX-\$1;
#X obj 187 44 r posY-\$1;
#X obj 250 44 r toggle_circle-\$1;
#X obj 40 296 &&;
#X obj 124 163 *;
#X obj 124 135 t f f;
#X obj 187 135 t f f;
#X obj 187 163 *;
#X obj 187 112 -;
#X obj 124 112 -;
#X obj 40 316 change;
#X obj 40 235 sel 0;
#X msg 40 261 0;
#X obj 40 210 trigger f f;
#X connect 0 0 1 0;
#X connect 1 0 3 0;
#X connect 2 0 15 1;
#X connect 2 1 14 1;
#X connect 2 2 3 1;
#X connect 3 0 9 0;
#X connect 5 0 19 0;
#X connect 6 0 15 0;
#X connect 7 0 14 0;
#X connect 8 0 2 0;
#X connect 9 0 16 0;
#X connect 10 0 0 0;
#X connect 11 0 10 0;
#X connect 11 1 10 1;
#X connect 12 0 13 0;
#X connect 12 1 13 1;
#X connect 13 0 0 1;
#X connect 14 0 12 0;
#X connect 15 0 11 0;
#X connect 16 0 4 0;
#X connect 17 0 18 0;
#X connect 18 0 9 0;
#X connect 19 0 17 0;
#X connect 19 1 9 1;
