#N canvas 512 82 959 802 12;
#X obj 41 340 *;
#X obj 41 361 / 500;
#X obj 41 382 moses 1;
#X obj 517 196 pow 1.9;
#X obj 350 149 pow 1.9;
#X obj 41 404 pow 1.9;
#X obj 272 739 outlet~;
#X obj 517 171 r posX-\$1;
#X obj 124 303 r height-\$1;
#X obj 41 303 r width-\$1;
#X obj 270 345 vcf~ 1;
#X obj 270 406 vcf~ 1;
#X obj 270 476 vcf~ 1;
#X obj 270 541 vcf~ 1;
#X obj 520 145 hsl 128 15 1.27 127 0 1 \$0-bandpass-cutoff-s \$0-bandpass-cutoff-r
CUTOFF 133 7 0 10 -262144 -1 -1 0 1;
#X obj 517 323 +~;
#X obj 517 278 sig~;
#X obj 517 300 lop~ 10;
#X obj 517 249 + 100;
#X obj 352 103 hsl 128 15 1.27 127 0 1 \$0-bandpass-res-s \$0-bandpass-res-r
RES. 133 7 0 10 -262144 -1 -1 0 1;
#X obj 350 197 * 9;
#X obj 350 221 + 1;
#X obj 350 245 pack 0 50;
#X obj 350 270 line;
#X obj 270 636 min~ 1;
#X obj 270 658 max~ -1;
#X obj 691 178 inlet~;
#X obj 691 270 *~ 5000;
#X obj 517 224 * 5000;
#X obj 762 156 hsl 128 15 0 127 0 1 \$0-bandpass-fm-/+-s \$0-bandpass-fm-/+-r
FM-/+ 133 7 0 10 -150893 -1 -1 0 1;
#X obj 759 177 / 127;
#X obj 759 199 * 2;
#X obj 759 221 - 1;
#X obj 759 265 pack 0 50;
#X obj 759 287 line~;
#X floatatom 805 243 5 0 0 0 - - -;
#X obj 691 305 *~;
#X text 717 309 FM-/+ ATTENUEVERTER;
#X obj 759 243 t f f;
#X obj 350 295 t f f f f;
#X obj 44 280 hsl 128 15 0 127 0 1 \$0-bandpass-drive-s \$0-bandpass-drive-r
DRIVE 133 7 0 10 -262144 -1 -1 0 1;
#X obj 41 428 * 3;
#X obj 41 450 + 1;
#X obj 41 472 pack 0 50;
#X obj 41 494 line~;
#X obj 270 614 *~;
#X obj 269 43 noise~;
#X obj 48 39 inlet;
#X obj 350 124 r posY-\$1;
#X obj 482 615 pow 3;
#X obj 383 638 line~;
#X obj 383 558 sel 1;
#X msg 383 582 1;
#X msg 415 582 0;
#X obj 271 687 *~;
#X obj 383 615 pack \$1 1500;
#X obj 383 533 r alive-\$1;
#X obj 461 533 loadbang;
#X connect 0 0 1 0;
#X connect 1 0 2 0;
#X connect 2 0 5 0;
#X connect 3 0 28 0;
#X connect 4 0 20 0;
#X connect 5 0 41 0;
#X connect 7 0 3 0;
#X connect 8 0 0 1;
#X connect 9 0 0 0;
#X connect 10 0 11 0;
#X connect 11 0 12 0;
#X connect 12 0 13 0;
#X connect 13 0 45 0;
#X connect 15 0 10 1;
#X connect 15 0 11 1;
#X connect 15 0 12 1;
#X connect 15 0 13 1;
#X connect 16 0 17 0;
#X connect 17 0 15 0;
#X connect 18 0 16 0;
#X connect 20 0 21 0;
#X connect 21 0 22 0;
#X connect 22 0 23 0;
#X connect 23 0 39 0;
#X connect 24 0 25 0;
#X connect 25 0 54 0;
#X connect 26 0 27 0;
#X connect 27 0 36 0;
#X connect 28 0 18 0;
#X connect 29 0 30 0;
#X connect 30 0 31 0;
#X connect 31 0 32 0;
#X connect 32 0 38 0;
#X connect 33 0 34 0;
#X connect 34 0 36 1;
#X connect 36 0 15 1;
#X connect 38 0 33 0;
#X connect 38 1 35 0;
#X connect 39 0 10 2;
#X connect 39 1 11 2;
#X connect 39 2 12 2;
#X connect 39 3 13 2;
#X connect 41 0 42 0;
#X connect 42 0 43 0;
#X connect 43 0 44 0;
#X connect 44 0 45 1;
#X connect 45 0 24 0;
#X connect 46 0 10 0;
#X connect 48 0 4 0;
#X connect 50 0 54 1;
#X connect 51 0 52 0;
#X connect 51 1 53 0;
#X connect 52 0 55 0;
#X connect 53 0 55 0;
#X connect 54 0 6 0;
#X connect 55 0 50 0;
#X connect 56 0 51 0;
#X connect 57 0 53 0;
