#N canvas 847 146 437 464 10;
#X msg -221 -84 close;
#X msg -239 -128 devices;
#X obj -80 -128 catch~ signal;
#X obj 90 -106 f;
#X obj 118 -106 + 1;
#X obj 148 -106 % 7;
#X floatatom 98 -84 5 0 0 1 materials - -;
#X floatatom 90 92 5 0 0 1 atack - -;
#X floatatom 90 150 5 0 0 1 slope - -;
#X obj -239 24 tgl 20 0 empty empty empty 17 7 0 10 -258113 -1 -1 0
1;
#X obj 69 -106 bng 15 250 50 0 empty empty empty 17 7 0 10 -4034 -1
-1;
#X floatatom 90 34 5 0 0 1 decay - -;
#X msg 90 172 \; slope \$1 \;;
#X msg 90 114 \; atack \$1 \;;
#X msg 90 56 \; decay \$1 \;;
#X msg 90 -61 \; materials \$1 \;;
#X floatatom 90 -25 5 1 1024 1 tempo - -;
#X msg 90 -2 \; tempo \$1 \;;
#N canvas 911 174 411 550 inputSensors 0;
#X obj -128 -31087 inlet;
#X msg -128 -31033 0;
#X obj -104 -30896 float;
#X obj -34 -30895 float;
#X obj -104 -30589 outlet;
#X obj 37 -30589 send;
#X obj 58 -30618 makesymbol %s-pression;
#X obj -104 -30641 float;
#X obj -104 -30618 pack float float;
#X obj -104 -30675 trigger bang float float;
#X obj -104 -30785 trigger float bang;
#X obj 1 -30720 trigger float float;
#X obj 1 -30742 float 0;
#X obj -104 -30835 |;
#X obj -128 -31058 route 255;
#X obj -34 -30871 << 7;
#X obj 64 -30984 f;
#X obj -77 -31033 trigger float float bang;
#X text -57 -30813 Scale to 0-1;
#X obj -104 -30812 / 1024;
#X obj 64 -30938 select 1 0;
#X obj 64 -30961 % 2;
#X obj 91 -30984 + 1;
#X obj 56 -30742 + 1;
#X connect 0 0 14 0;
#X connect 1 0 16 1;
#X connect 1 0 12 1;
#X connect 2 0 13 0;
#X connect 3 0 15 0;
#X connect 6 0 5 1;
#X connect 7 0 8 0;
#X connect 8 0 4 0;
#X connect 9 0 7 0;
#X connect 9 1 8 1;
#X connect 9 2 5 0;
#X connect 10 0 9 0;
#X connect 10 1 12 0;
#X connect 11 0 7 1;
#X connect 11 1 6 0;
#X connect 12 0 11 0;
#X connect 12 0 23 0;
#X connect 13 0 19 0;
#X connect 14 0 1 0;
#X connect 14 1 17 0;
#X connect 15 0 13 1;
#X connect 16 0 21 0;
#X connect 16 0 22 0;
#X connect 17 0 2 1;
#X connect 17 1 3 1;
#X connect 17 2 16 0;
#X connect 19 0 10 0;
#X connect 20 0 2 0;
#X connect 20 1 3 0;
#X connect 21 0 20 0;
#X connect 22 0 16 1;
#X connect 23 0 12 1;
#X restore -239 -29 pd inputSensors;
#X obj -79 -36 audio_disto;
#X obj -80 -106 audio_pitchshift;
#N canvas 200 349 500 311 synth 0;
#X obj 17 15 inlet;
#X obj 17 51 selector 0;
#X obj 416 198 selector 7;
#X obj 359 177 selector 6;
#X obj 245 135 selector 4;
#X obj 74 72 selector 1;
#X obj 131 93 selector 2;
#X obj 188 114 selector 3;
#X obj 302 156 selector 5;
#X obj 74 127 player_0 1;
#X obj 17 105 player_0 0;
#X obj 245 193 player_0 4;
#X obj 131 149 player_0 2;
#X obj 416 259 player_0 7;
#X obj 188 171 player_0 3;
#X obj 301 215 player_0 5;
#X obj 359 237 player_0 6;
#X connect 0 0 1 0;
#X connect 1 0 10 0;
#X connect 1 1 5 0;
#X connect 2 0 13 0;
#X connect 3 0 16 0;
#X connect 3 1 2 0;
#X connect 4 0 11 0;
#X connect 4 1 8 0;
#X connect 5 0 9 0;
#X connect 5 1 6 0;
#X connect 6 0 12 0;
#X connect 6 1 7 0;
#X connect 7 0 14 0;
#X connect 7 1 4 0;
#X connect 8 0 15 0;
#X connect 8 1 3 0;
#X restore -239 -3 pd synth;
#X obj -236 75 hsl 128 15 0 1 0 0 empty empty empty -2 -8 0 10 -257985
-1 -1 0 1;
#X obj -239 96 s threshold;
#X msg -230 -106 open 0;
#X obj -239 -55 comport 0 115200;
#X msg -239 121 \; threshold 0.1 \; materials 1 \; tempo 10 \; decay
5 \; atack 2 \; slope 2000 \;;
#X msg -239 222 \; threshold 0.1 \; materials 1 \; tempo 15 \; decay
350 \; atack 300 \; slope 2000 \;;
#N canvas 701 198 422 433 gem_matrix 0;
#X obj -166 -95 inlet;
#X obj -166 -24 trigger bang bang;
#X obj -166 -71 select 1 0;
#X obj 187 51 i;
#X obj 84 -17 + 1;
#X obj 40 -41 until;
#X obj 40 7 trigger float float float;
#N canvas 145 512 491 179 subpatch 0;
#X obj 360 20 pixel 14;
#X obj 240 0 pixel 4;
#X obj 360 40 pixel 22;
#X obj 0 0 pixel 0;
#X obj 360 0 pixel 6;
#X obj 180 0 pixel 3;
#X obj 360 60 pixel 30;
#X obj 420 0 pixel 7;
#X obj 0 20 pixel 8;
#X obj 240 20 pixel 12;
#X obj 180 60 pixel 27;
#X obj 240 40 pixel 20;
#X obj 60 0 pixel 1;
#X obj 240 140 pixel 60;
#X obj 60 20 pixel 9;
#X obj 120 0 pixel 2;
#X obj 300 0 pixel 5;
#X obj 120 20 pixel 10;
#X obj 180 20 pixel 11;
#X obj 300 20 pixel 13;
#X obj 420 20 pixel 15;
#X obj 0 40 pixel 16;
#X obj 60 40 pixel 17;
#X obj 120 40 pixel 18;
#X obj 180 40 pixel 19;
#X obj 300 40 pixel 21;
#X obj 420 40 pixel 23;
#X obj 0 60 pixel 24;
#X obj 60 60 pixel 25;
#X obj 120 60 pixel 26;
#X obj 240 60 pixel 28;
#X obj 300 60 pixel 29;
#X obj 420 60 pixel 31;
#X obj 0 80 pixel 32;
#X obj 60 80 pixel 33;
#X obj 120 80 pixel 34;
#X obj 180 80 pixel 35;
#X obj 240 80 pixel 36;
#X obj 300 80 pixel 37;
#X obj 360 80 pixel 38;
#X obj 420 80 pixel 39;
#X obj 0 100 pixel 40;
#X obj 60 100 pixel 41;
#X obj 121 100 pixel 42;
#X obj 180 100 pixel 43;
#X obj 240 100 pixel 44;
#X obj 300 100 pixel 45;
#X obj 360 100 pixel 46;
#X obj 420 100 pixel 47;
#X obj 0 120 pixel 48;
#X obj 60 120 pixel 49;
#X obj 120 120 pixel 50;
#X obj 180 120 pixel 51;
#X obj 240 120 pixel 52;
#X obj 300 120 pixel 53;
#X obj 360 120 pixel 54;
#X obj 420 120 pixel 55;
#X obj 0 140 pixel 56;
#X obj 60 140 pixel 57;
#X obj 120 140 pixel 58;
#X obj 180 140 pixel 59;
#X obj 300 140 pixel 61;
#X obj 360 140 pixel 62;
#X obj 420 140 pixel 63;
#X restore 40 279 pd subpatch;
#X obj 40 147 s pd-subpatch;
#X msg 40 124 obj \$2 \$3 pixel \$1;
#X obj 187 73 * 20;
#X obj 40 101 pack float float float;
#X obj 113 74 * 60;
#X msg 103 -48 0;
#X obj 40 -17 float;
#X obj 40 -71 trigger f b;
#X text 67 -96 <-Constructor;
#X obj 113 31 % 8;
#X obj 187 29 / 8;
#X msg 40 -94 64;
#X msg -153 249 debug 1;
#X obj -153 226 gemhead;
#X obj -166 156 gemhead 55;
#X obj -166 179 rotateXYZ 0 -90 0;
#X obj -166 202 translateXYZ 4 0 0;
#X obj -166 279 light 1 1 1;
#X msg -138 -48 destroy \, reset;
#X msg -166 23 create \, 1 \, lighting 1;
#X obj -166 99 gemwin 120;
#X msg -67 0 dimen 500 500;
#X connect 0 0 2 0;
#X connect 1 0 27 0;
#X connect 1 1 29 0;
#X connect 2 0 1 0;
#X connect 2 1 26 0;
#X connect 3 0 10 0;
#X connect 4 0 14 1;
#X connect 5 0 14 0;
#X connect 6 0 11 0;
#X connect 6 1 17 0;
#X connect 6 2 18 0;
#X connect 9 0 8 0;
#X connect 10 0 11 2;
#X connect 11 0 9 0;
#X connect 12 0 11 1;
#X connect 13 0 14 1;
#X connect 14 0 4 0;
#X connect 14 0 6 0;
#X connect 15 0 5 0;
#X connect 15 1 13 0;
#X connect 17 0 12 0;
#X connect 18 0 3 0;
#X connect 19 0 15 0;
#X connect 20 0 25 0;
#X connect 21 0 20 0;
#X connect 22 0 23 0;
#X connect 23 0 24 0;
#X connect 24 0 25 0;
#X connect 26 0 28 0;
#X connect 27 0 28 0;
#X connect 29 0 28 0;
#X restore -239 51 pd gem_matrix 800;
#X obj 90 255 s INIT_BP;
#X obj 90 234 bng 15 250 50 0 empty empty empty 17 7 0 10 -262144 -1
-1;
#X obj -78 14 dac;
#X connect 0 0 25 0;
#X connect 1 0 25 0;
#X connect 2 0 20 0;
#X connect 3 0 6 0;
#X connect 3 0 4 0;
#X connect 3 0 15 0;
#X connect 4 0 5 0;
#X connect 5 0 3 1;
#X connect 7 0 13 0;
#X connect 8 0 12 0;
#X connect 9 0 28 0;
#X connect 10 0 3 0;
#X connect 11 0 14 0;
#X connect 16 0 17 0;
#X connect 18 0 21 0;
#X connect 19 0 31 0;
#X connect 19 0 31 1;
#X connect 20 0 19 0;
#X connect 22 0 23 0;
#X connect 24 0 25 0;
#X connect 25 0 18 0;
#X connect 30 0 29 0;
