#N canvas 54 94 973 720 10;
#X obj 66 541 *~;
#X obj 289 478 line~;
#X text 492 159 PITCH SHIFTER;
#X obj 289 452 pack 0 200;
#X obj 3 326 exp;
#X floatatom 3 352 6 0 0 0 - - -;
#X obj 3 442 /;
#X obj 130 372 * 0.001;
#X obj 398 548 line~;
#X obj 398 523 pack 0 200;
#X floatatom 398 472 0 0 0 0 - - -;
#X obj 398 446 r delay;
#X obj 66 567 +~;
#X obj 3 593 cos~;
#X obj 3 620 *~;
#X obj 3 649 +~;
#X obj 90 500 wrap~;
#X obj 335 543 *~;
#X obj 335 576 +~;
#X obj 272 603 cos~;
#X obj 272 630 *~;
#X obj 130 399 t b f;
#X floatatom 3 468 6 0 0 0 - - -;
#X obj 90 473 +~ 0.5;
#X obj 3 541 -~ 0.5;
#X obj 3 567 *~ 0.5;
#X obj 272 542 -~ 0.5;
#X obj 272 575 *~ 0.5;
#X obj 3 379 - 1;
#X obj 3 300 * 0.05776;
#X obj 3 405 * -1;
#X text 66 346 speed;
#X text 65 360 change;
#X text 38 435 tape head;
#X text 493 178 This is a classic rotating-tape-head style pitch shifter
using the vd~ variable delay object. Ther are two moving tape heads
\, each of which is loudest at the middle of its trajectory \, and
enveloped out at the moment it has to jump back (or forward) to start
another scratch. Most of the brain work is in computing how fast the
tape heads have to move to get the desired transposition.;
#X text 493 297 The "window size" is the total trajectory of the read
points in the delay line \, in milliseconds. The delay times are controlled
by a phasor~ object. The second delay time \, 180 degrees out of phase
from the first one \, is computed using the "wrap" object.;
#X text 491 387 The "window size" is the total trajectory of the read
points in the delay line \, in milliseconds. The delay times are controlled
by a phasor~ object. The second delay time \, 180 degrees out of phase
from the first one \, is computed using the "wrap" object.;
#X text 490 479 The cos~ objects compute the fadein and fadeout of
the two delay line outputs. They each traverse the positive half of
the cosine waveform (phase -0.25 to +0.25) over the time the phase
goes from one end to the other.;
#X obj 3 499 phasor~;
#X text 593 532 updated for Pd version 0.37-1;
#X obj 398 499 max 1.5;
#X text 401 405 delay;
#X text 398 423 (msec);
#X obj 321 322 max 1;
#X text 39 448 rotation freq;
#X obj 352 98 initbang;
#X obj -105 38 inlet~;
#X obj 103 75 inlet;
#X obj 165 76 inlet;
#X obj 103 122 nbx 3 10 -1e+37 1e+37 0 0 empty empty empty 0 -8 0 9
-262144 -1 -1 -24 256;
#X obj 103 141 nbx 4 10 -1e+37 1e+37 0 0 empty empty empty 0 -8 0 9
-262144 -1 -1 100 256;
#X obj -22 691 outlet~;
#X obj 66 593 vd~ \$0-pit;
#X obj 335 605 vd~ \$0-pit;
#X obj -54 161 delwrite~ \$0-pit 5000;
#X msg 352 124 100;
#X obj 217 76 initbang;
#X obj 217 122 tgl 10 0 empty empty empty 17 7 0 10 -257985 -1 -1 1
1;
#N canvas 554 196 450 300 drywet 0;
#X obj 92 217 *~ 1;
#X obj 87 188 + 1;
#X obj 87 163 * -1;
#X obj 39 219 *~ 0;
#X obj 27 94 inlet~;
#X obj 125 103 inlet toggle;
#X obj 44 266 outlet~ dry;
#X obj 135 269 outlet~ wet;
#X connect 0 0 7 0;
#X connect 1 0 3 1;
#X connect 2 0 1 0;
#X connect 3 0 6 0;
#X connect 4 0 3 0;
#X connect 4 0 0 0;
#X connect 5 0 2 0;
#X connect 5 0 0 1;
#X restore -106 132 pd drywet;
#X obj 66 49 initbang;
#X obj 67 69 f \$1;
#X obj 138 123 cnv 10 10 10 empty empty transposition 0 6 0 8 -262144
-191407 0;
#X obj 179 131 cnv 10 10 10 empty empty halftones 0 6 0 6 -262144 -191407
0;
#X obj 146 143 cnv 10 10 10 empty empty window_(ms) 0 6 0 8 -262144
-191407 0;
#X connect 0 0 12 0;
#X connect 1 0 0 1;
#X connect 1 0 17 1;
#X connect 3 0 1 0;
#X connect 4 0 5 0;
#X connect 5 0 28 0;
#X connect 6 0 22 0;
#X connect 7 0 21 0;
#X connect 8 0 12 1;
#X connect 8 0 18 1;
#X connect 9 0 8 0;
#X connect 10 0 40 0;
#X connect 11 0 10 0;
#X connect 12 0 52 0;
#X connect 13 0 14 0;
#X connect 14 0 15 0;
#X connect 15 0 51 0;
#X connect 16 0 17 0;
#X connect 16 0 26 0;
#X connect 17 0 18 0;
#X connect 18 0 53 0;
#X connect 19 0 20 0;
#X connect 20 0 15 1;
#X connect 21 0 6 0;
#X connect 21 1 6 1;
#X connect 22 0 38 0;
#X connect 23 0 16 0;
#X connect 24 0 25 0;
#X connect 25 0 13 0;
#X connect 26 0 27 0;
#X connect 27 0 19 0;
#X connect 28 0 30 0;
#X connect 29 0 4 0;
#X connect 30 0 6 0;
#X connect 38 0 0 0;
#X connect 38 0 24 0;
#X connect 38 0 23 0;
#X connect 40 0 9 0;
#X connect 43 0 7 0;
#X connect 43 0 3 0;
#X connect 45 0 55 0;
#X connect 46 0 58 0;
#X connect 47 0 49 0;
#X connect 48 0 50 0;
#X connect 49 0 29 0;
#X connect 50 0 43 0;
#X connect 52 0 14 1;
#X connect 53 0 20 1;
#X connect 55 0 50 0;
#X connect 56 0 57 0;
#X connect 57 0 58 1;
#X connect 58 0 51 0;
#X connect 58 1 54 0;
#X connect 59 0 60 0;
#X connect 60 0 49 0;
#X coords 0 -1 1 1 130 60 1 100 100;
