#N canvas 885 198 362 499 10;
#X obj 268 190 line~;
#X obj 253 212 *~;
#X obj 166 213 *~;
#X obj 232 291 dac~;
#X obj 109 124 loadbang;
#X obj 109 220 vsl 20 128 0 15 0 0 empty empty empty 0 -8 0 10 -4034
-1 -1 12700 1;
#X obj 131 220 vsl 20 128 0 15 0 0 empty empty empty 0 -8 0 10 -4034
-1 -1 12700 0;
#X obj 181 190 line~;
#X obj 166 124 inlet~;
#X obj 253 124 inlet~;
#X obj 109 355 tgl 42 0 empty empty empty 48 20 0 20 -4034 -1 -1 1
1;
#X msg 109 414 \; pd dsp \$1 \;;
#X obj 181 169 pack \$1 50;
#X obj 268 169 pack \$1 50;
#X msg 109 154 15;
#X connect 0 0 1 1;
#X connect 1 0 3 1;
#X connect 2 0 3 0;
#X connect 4 0 14 0;
#X connect 5 0 6 0;
#X connect 5 0 12 0;
#X connect 6 0 13 0;
#X connect 7 0 2 1;
#X connect 8 0 2 0;
#X connect 9 0 1 0;
#X connect 10 0 11 0;
#X connect 12 0 7 0;
#X connect 13 0 0 0;
#X connect 14 0 5 0;
#X coords 0 -1 1 1 60 200 1 100 200;
