#N canvas 585 120 398 503 10;
#X obj 122 306 r \$1-metro;
#X obj 122 330 t bang bang;
#X obj 140 191 i;
#X obj 140 137 \$1;
#X obj 140 169 / 8;
#X obj 140 113 loadbang;
#X obj 59 244 translateXYZ 0 0 0.1;
#X obj 59 463 cube 0.3;
#X obj 239 32 r \$1-pression;
#X obj 239 160 change;
#X obj 239 182 * 6;
#X obj 266 227 / 4;
#X obj 59 279 scaleXYZ 1 1 1;
#X obj 98 213 - 3.5;
#X obj 140 213 - 2;
#X obj 59 66 rotate -50 1 0 0;
#X obj 239 204 t f f;
#X obj 98 191 % 8;
#X obj 98 169 - 1;
#X obj 59 426 color 1 1 1;
#X msg 122 380 1 0 0;
#X msg 185 380 1 1 1;
#X obj 59 32 gemhead;
#X obj 185 354 pipe 50;
#X connect 0 0 1 0;
#X connect 1 0 20 0;
#X connect 1 1 23 0;
#X connect 2 0 14 0;
#X connect 3 0 4 0;
#X connect 3 0 18 0;
#X connect 4 0 2 0;
#X connect 5 0 3 0;
#X connect 6 0 12 0;
#X connect 8 0 9 0;
#X connect 9 0 10 0;
#X connect 10 0 16 0;
#X connect 11 0 6 3;
#X connect 12 0 19 0;
#X connect 13 0 6 1;
#X connect 14 0 6 2;
#X connect 15 0 6 0;
#X connect 16 0 12 3;
#X connect 16 1 11 0;
#X connect 17 0 13 0;
#X connect 18 0 17 0;
#X connect 19 0 7 0;
#X connect 20 0 19 1;
#X connect 21 0 19 1;
#X connect 22 0 15 0;
#X connect 23 0 21 0;
