#N canvas 409 84 721 648 10;
#X obj -21 4 inlet;
#X obj 182 397 ead~ 0 0;
#X obj 166 466 *~;
#X obj 231 546 bp~ 440 80;
#X obj 310 546 bp~ 440 80;
#X obj 389 546 bp~ 440 80;
#X obj 469 546 bp~ 440 80;
#X obj 259 343 unpack 1 2 3 4 5;
#X text 623 65 metal;
#X text 621 90 glass 2;
#X text 593 197 wood;
#X msg 475 225 109 230 352 413 10;
#X msg 475 144 1245 1503 2131 2575 100;
#X text 602 170 plastic;
#X text 622 144 china;
#X text 622 117 glass 1;
#X text 594 224 cardboard;
#X msg 475 171 627 781 972 1184 70;
#X msg 475 91 2312 2466 3200 5314 380;
#X msg 474 118 1679 1233 4251 4640 340;
#X msg 475 198 221 333 426 527 40;
#X obj 259 466 line;
#X obj 577 466 line;
#X obj 497 466 line;
#X obj 417 467 line;
#X obj 338 466 line;
#X obj 388 29 sel 0 1 2 3 4 5;
#X msg 475 66 3454 5645 6433 8945 200;
#X obj 356 617 throw~ signal;
#X obj -21 41 unpack float float;
#X obj 182 218 metro 1000;
#X obj 328 4 r slope;
#X obj 388 4 r materials;
#X obj 204 353 r atack;
#X obj 227 374 r decay;
#X obj 338 437 pack \$1 1000;
#X obj 259 437 pack \$1 1000;
#X obj 417 437 pack \$1 1000;
#X obj 497 437 pack \$1 1000;
#X obj 577 437 pack \$1 1200;
#X obj 269 4 r tempo;
#X text 25 3 ID - Value;
#X obj -21 74 trigger float float float;
#X obj 126 257 makesymbol %s-metro;
#X obj 105 302 send;
#N canvas 185 268 264 477 mode 0;
#X msg 45 185 4;
#X obj 32 17 inlet;
#X obj 32 39 % 8;
#X obj 32 274 change;
#X msg 59 207 6;
#X msg 73 229 9;
#X msg 87 163 11;
#X msg 101 185 14;
#X msg 115 207 18;
#X msg 129 229 21;
#X obj 32 328 sig~;
#X obj 33 420 outlet~;
#X obj 94 421 print OUT-\$1;
#X obj 32 91 change;
#X obj 32 354 mtof~;
#X obj 32 380 osc~;
#X obj 32 61 + 1;
#X obj 32 119 sel 1 2 3 4 5 6 7 8;
#X msg 32 163 1;
#X obj 32 299 * 2;
#X connect 0 0 3 0;
#X connect 1 0 2 0;
#X connect 2 0 16 0;
#X connect 3 0 19 0;
#X connect 4 0 3 0;
#X connect 5 0 3 0;
#X connect 6 0 3 0;
#X connect 7 0 3 0;
#X connect 8 0 3 0;
#X connect 9 0 3 0;
#X connect 10 0 14 0;
#X connect 13 0 17 0;
#X connect 14 0 15 0;
#X connect 15 0 11 0;
#X connect 16 0 13 0;
#X connect 17 0 18 0;
#X connect 17 1 0 0;
#X connect 17 2 4 0;
#X connect 17 3 5 0;
#X connect 17 4 6 0;
#X connect 17 5 7 0;
#X connect 17 6 8 0;
#X connect 17 7 9 0;
#X connect 18 0 3 0;
#X connect 19 0 10 0;
#X restore -21 118 pd mode;
#X obj 269 129 t b f;
#X obj 182 4 r \$1-ON_OFF;
#X obj 84 194 line;
#X obj 356 591 *~ 1;
#X obj 199 35 sel 0;
#X obj 269 165 * 100;
#X obj 84 141 pack \$1 5;
#X obj 557 262 r INIT BP;
#X text 630 264 cardboard;
#X msg 557 302 0 0 0 0 0;
#X obj 199 88 print \$1-OFF;
#X msg 220 60 0 10;
#X connect 0 0 29 0;
#X connect 1 0 2 1;
#X connect 2 0 6 0;
#X connect 2 0 5 0;
#X connect 2 0 4 0;
#X connect 2 0 3 0;
#X connect 3 0 49 0;
#X connect 4 0 49 0;
#X connect 5 0 49 0;
#X connect 6 0 49 0;
#X connect 7 0 36 0;
#X connect 7 1 35 0;
#X connect 7 2 37 0;
#X connect 7 3 38 0;
#X connect 7 4 39 0;
#X connect 11 0 7 0;
#X connect 12 0 7 0;
#X connect 17 0 7 0;
#X connect 18 0 7 0;
#X connect 19 0 7 0;
#X connect 20 0 7 0;
#X connect 21 0 3 1;
#X connect 22 0 3 2;
#X connect 22 0 4 2;
#X connect 22 0 5 2;
#X connect 22 0 6 2;
#X connect 23 0 6 1;
#X connect 24 0 5 1;
#X connect 25 0 4 1;
#X connect 26 0 11 0;
#X connect 26 1 20 0;
#X connect 26 2 17 0;
#X connect 26 3 12 0;
#X connect 26 4 19 0;
#X connect 26 5 18 0;
#X connect 26 6 27 0;
#X connect 27 0 7 0;
#X connect 29 0 42 0;
#X connect 29 1 52 0;
#X connect 30 0 1 0;
#X connect 30 0 44 0;
#X connect 31 0 35 1;
#X connect 31 0 36 1;
#X connect 31 0 37 1;
#X connect 31 0 38 1;
#X connect 31 0 39 1;
#X connect 32 0 26 0;
#X connect 33 0 1 1;
#X connect 34 0 1 2;
#X connect 35 0 25 0;
#X connect 36 0 21 0;
#X connect 37 0 24 0;
#X connect 38 0 23 0;
#X connect 39 0 22 0;
#X connect 40 0 46 0;
#X connect 42 0 45 0;
#X connect 42 1 51 0;
#X connect 42 2 43 0;
#X connect 43 0 44 1;
#X connect 45 0 2 0;
#X connect 46 0 51 0;
#X connect 46 1 51 1;
#X connect 47 0 30 0;
#X connect 49 0 28 0;
#X connect 50 0 56 0;
#X connect 50 0 57 0;
#X connect 51 0 30 1;
#X connect 52 0 48 0;
#X connect 53 0 55 0;
#X connect 55 0 7 0;
