#N canvas 476 87 489 654 10;
#X obj 10 -278 inlet;
#X obj 109 -232 unpack float float;
#X obj 158 331 outlet;
#X obj 109 -210 trigger bang float;
#X obj 10 64 trigger float float;
#X obj 10 -255 trigger list list;
#X obj 148 -121 loadbang;
#X obj 109 -75 float 0;
#X obj 10 288 pack float float;
#X obj 10 240 trigger bang float;
#X obj 10 331 outlet;
#X obj 10 264 float 0;
#X obj 109 -188 float 0;
#X text 54 -279 ID - Value;
#X msg 156 183 1;
#X msg 388 183 0;
#X obj 10 162 - 0;
#X text -36 160 Offset;
#X obj 109 -144 > 0;
#X obj 259 81 <= 0;
#X obj 109 -98 onebang;
#X obj 259 125 onebang;
#X obj 259 103 sel 1;
#X obj 109 -121 sel 1;
#X obj 259 147 trigger bang bang bang;
#X obj 109 -52 trigger float bang bang float bang float;
#X obj 25 133 r threshold;
#X obj 280 56 r threshold;
#X obj 270 331 s \$1-ON_OFF;
#X msg 323 1 65;
#X obj 10 18 route 65;
#X obj 124 -166 r threshold;
#X connect 0 0 5 0;
#X connect 1 0 3 0;
#X connect 1 1 12 1;
#X connect 3 0 12 0;
#X connect 3 1 7 1;
#X connect 4 0 16 0;
#X connect 4 1 19 0;
#X connect 5 0 30 0;
#X connect 5 1 1 0;
#X connect 6 0 20 1;
#X connect 7 0 25 0;
#X connect 8 0 10 0;
#X connect 9 0 11 0;
#X connect 9 1 8 1;
#X connect 11 0 8 0;
#X connect 12 0 18 0;
#X connect 14 0 28 0;
#X connect 15 0 9 0;
#X connect 15 0 28 0;
#X connect 16 0 9 0;
#X connect 18 0 23 0;
#X connect 19 0 22 0;
#X connect 20 0 7 0;
#X connect 21 0 24 0;
#X connect 22 0 21 0;
#X connect 23 0 20 0;
#X connect 24 0 20 1;
#X connect 24 1 29 0;
#X connect 24 2 15 0;
#X connect 25 0 30 1;
#X connect 25 1 14 0;
#X connect 25 3 11 1;
#X connect 25 4 21 1;
#X connect 26 0 16 1;
#X connect 27 0 19 1;
#X connect 29 0 30 1;
#X connect 30 0 4 0;
#X connect 30 1 2 0;
#X connect 31 0 18 1;
