#N canvas 6 82 828 424 10;
#X obj 222 145 tgl 15 1 \$0-clock-on/off-s \$0-clock-on/off-r ON/OFF
17 7 0 10 -262144 -1 -1 1 1;
#X obj 409 211 metro 100;
#X obj 408 285 vline~;
#X obj 107 126 hsl 128 15 0 127 0 1 \$0-clock-clk-rate-s \$0-clock-clk-rate-r
RATE 133 7 0 10 -262144 -1 -1 12100 1;
#X floatatom 104 141 5 0 0 0 - - -;
#X msg 110 213 127 \$1;
#X obj 110 235 -;
#X obj 110 258 / 127;
#X obj 155 381 t f f;
#X obj 204 145 bng 15 50 50 0 empty empty empty 17 7 0 10 -262144 -226533
-1;
#X obj 409 233 t b b;
#X obj 110 309 * 1950;
#X obj 160 115 cnv 5 5 5 empty empty CLOCK 0 0 0 12 -262144 -66577
0;
#X obj 408 351 outlet~;
#X obj 320 48 inlet~;
#X obj 574 81 inlet~;
#X obj 320 120 snapshot~;
#X obj 320 171 t b f;
#X obj 110 280 +;
#X text 319 24 CLK-RATE CV INPUT;
#X text 577 62 ON/OFF GATE INPUT;
#X obj 244 109 cnv 5 5 5 empty empty ON/OFF 0 0 0 8 -262144 -226533
0;
#X obj 105 109 cnv 5 5 5 empty empty CLK-RATE 0 0 0 8 -262144 -66577
0;
#N canvas 21 82 593 735 state-saving-multiple-instances 0;
#X obj 215 28 loadbang;
#X obj 261 480 textfile;
#X msg 518 463 rewind;
#X msg 475 463 bang;
#X obj 119 690 textfile;
#X obj 475 424 t b b;
#X obj 120 356 f;
#X obj 133 579 f;
#X obj 66 422 t b b b;
#X msg 196 579 clear;
#X obj 281 216 outlet;
#X text 277 236 INSTANCE NUMBER;
#X obj 242 92 f \$1;
#X obj 242 128 t f f f;
#X obj 215 61 t b b;
#X obj 66 235 r SAVE-S;
#X obj 120 399 pack f f;
#X msg 120 438 set \$1 \$2;
#X obj 261 502 unpack f f;
#X msg 132 650 write statesave/\$1-clock-ss.txt;
#X msg 261 455 read statesave/\$1-clock-ss.txt;
#X obj 135 308 r \$0-clock-clk-rate-s;
#X obj 261 604 s \$0-clock-clk-rate-r;
#X obj 165 355 r \$0-clock-on/off-s;
#X obj 318 530 s \$0-clock-on/off-r;
#X connect 0 0 14 0;
#X connect 1 0 18 0;
#X connect 2 0 1 0;
#X connect 3 0 1 0;
#X connect 5 0 3 0;
#X connect 5 1 2 0;
#X connect 6 0 16 0;
#X connect 7 0 19 0;
#X connect 8 0 7 0;
#X connect 8 1 6 0;
#X connect 8 2 9 0;
#X connect 9 0 4 0;
#X connect 12 0 13 0;
#X connect 13 0 7 1;
#X connect 13 1 20 0;
#X connect 13 2 10 0;
#X connect 14 0 5 0;
#X connect 14 1 12 0;
#X connect 15 0 8 0;
#X connect 16 0 17 0;
#X connect 17 0 4 0;
#X connect 18 0 22 0;
#X connect 18 1 24 0;
#X connect 19 0 4 0;
#X connect 20 0 1 0;
#X connect 21 0 6 1;
#X connect 23 0 16 1;
#X restore 554 295 pd state-saving-multiple-instances;
#X obj 554 365 s \$0-instance-num;
#X obj 554 317 makefilename %d;
#X obj 200 115 cnv 5 5 5 empty \$0-instance-num 1 0 0 0 12 -262144
-66577 0;
#X msg 554 342 label \$1;
#X obj 103 167 cnv 5 5 5 empty empty OUT 0 0 0 8 -262144 -226533 0
;
#X obj 574 105 threshold~ 0.99 0 0.99 0;
#X obj 422 96 env~;
#X obj 422 137 change;
#X obj 110 353 moses 20;
#X obj 110 331 + 20;
#X msg 408 263 1 0 \, 0 1 1;
#N canvas 81 82 688 649 state-saving-via-preset-manager-module 0;
#X obj 447 318 textfile;
#X msg 395 271 rewind;
#X msg 352 271 bang;
#X obj 133 599 textfile;
#X obj 352 232 t b b;
#X obj 134 265 f;
#X obj 147 488 f;
#X obj 40 331 t b b b;
#X msg 79 548 clear;
#X obj 134 308 pack f f;
#X msg 134 347 set \$1 \$2;
#X obj 447 340 unpack f f;
#X obj 134 173 delay 5;
#X obj 40 393 delay 10;
#X msg 40 293 bang;
#X obj 40 56 r STORE-S!;
#X obj 352 150 t b f;
#X obj 492 177 f \$1;
#X obj 447 204 pack f f;
#X obj 492 154 loadbang;
#X obj 147 518 pack f f;
#X obj 192 376 loadbang;
#X obj 192 398 f \$1;
#X obj 447 425 pack f f;
#X obj 447 519 line;
#X obj 492 400 r preset-manager-morph-s;
#X obj 352 57 r preset-manager-scan;
#X obj 163 57 r preset-manager-store-slot;
#X msg 468 483 stop;
#X obj 468 448 r STOP-MORPH!;
#X msg 147 559 write statesave/\$1-\$2-clock-ss.txt;
#X msg 447 230 read statesave/\$1-\$2-clock-ss.txt;
#X obj 149 217 r \$0-clock-clk-rate-s;
#X obj 447 594 s \$0-clock-clk-rate-r;
#X obj 179 264 r \$0-clock-on/off-s;
#X obj 504 376 s \$0-clock-on/off-r;
#X connect 0 0 11 0;
#X connect 1 0 0 0;
#X connect 2 0 0 0;
#X connect 4 0 2 0;
#X connect 4 1 1 0;
#X connect 5 0 9 0;
#X connect 6 0 20 0;
#X connect 7 0 13 0;
#X connect 7 1 12 0;
#X connect 7 2 8 0;
#X connect 8 0 3 0;
#X connect 9 0 10 0;
#X connect 10 0 3 0;
#X connect 11 0 23 0;
#X connect 11 1 35 0;
#X connect 12 0 5 0;
#X connect 13 0 6 0;
#X connect 14 0 7 0;
#X connect 15 0 14 0;
#X connect 16 0 4 0;
#X connect 16 1 18 0;
#X connect 17 0 18 1;
#X connect 18 0 31 0;
#X connect 19 0 17 0;
#X connect 20 0 30 0;
#X connect 21 0 22 0;
#X connect 22 0 20 1;
#X connect 23 0 24 0;
#X connect 24 0 33 0;
#X connect 25 0 23 1;
#X connect 26 0 16 0;
#X connect 27 0 6 1;
#X connect 28 0 24 0;
#X connect 29 0 28 0;
#X connect 30 0 3 0;
#X connect 31 0 0 0;
#X connect 32 0 5 1;
#X connect 34 0 9 1;
#X restore 554 273 pd state-saving-via-preset-manager-module;
#N canvas 297 82 748 331 parameter-nudging-system 1;
#N canvas 6 82 484 497 param-nudge 1;
#X obj 124 234 random;
#X obj 232 335 f;
#X obj 232 368 +;
#X obj 257 166 random 2;
#X obj 124 275 t f f;
#X obj 124 351 t b f;
#X obj 124 297 *;
#X obj 257 188 sel 0 1;
#X msg 257 280 -1;
#X msg 335 280 1;
#X obj 124 149 t b b b;
#X obj 124 123 r NUDGE!;
#X obj 157 193 r NUDGE-RANGE;
#X obj 247 308 inlet;
#X obj 232 397 outlet;
#X connect 0 0 4 0;
#X connect 1 0 2 0;
#X connect 2 0 14 0;
#X connect 3 0 7 0;
#X connect 4 0 6 0;
#X connect 5 0 2 0;
#X connect 5 1 2 1;
#X connect 6 0 5 0;
#X connect 7 0 8 0;
#X connect 7 1 9 0;
#X connect 8 0 6 1;
#X connect 9 0 6 1;
#X connect 10 0 0 0;
#X connect 10 1 1 0;
#X connect 10 2 3 0;
#X connect 11 0 10 0;
#X connect 12 0 0 1;
#X connect 13 0 1 1;
#X restore 23 45 pd param-nudge;
#X obj 23 67 clip 0 127;
#X obj 23 22 r \$0-clock-clk-rate-s;
#X obj 23 95 s \$0-clock-clk-rate-r;
#X connect 0 0 1 0;
#X connect 1 0 3 0;
#X connect 2 0 0 0;
#X restore 553 248 pd parameter-nudging-system;
#X obj 321 94 *~ -1;
#X obj 422 162 bang;
#X connect 0 0 1 0;
#X connect 1 0 10 0;
#X connect 2 0 13 0;
#X connect 3 0 5 0;
#X connect 5 0 6 0;
#X connect 6 0 7 0;
#X connect 7 0 18 0;
#X connect 8 0 1 1;
#X connect 8 1 4 0;
#X connect 10 0 34 0;
#X connect 10 1 9 0;
#X connect 11 0 33 0;
#X connect 14 0 30 0;
#X connect 14 0 37 0;
#X connect 15 0 29 0;
#X connect 16 0 17 0;
#X connect 17 0 18 0;
#X connect 17 1 18 1;
#X connect 18 0 11 0;
#X connect 23 0 25 0;
#X connect 25 0 27 0;
#X connect 27 0 24 0;
#X connect 29 0 0 0;
#X connect 30 0 31 0;
#X connect 31 0 38 0;
#X connect 32 1 8 0;
#X connect 33 0 32 0;
#X connect 34 0 2 0;
#X connect 37 0 16 0;
#X connect 38 0 16 0;
#X coords 0 -1 1 1 175 75 2 100 100;
