#N canvas 0 22 1055 674 10;
#X obj 422 227 *~ 0.5;
#X obj 761 249 noise~;
#X obj 761 296 *~;
#X obj 437 402 vline~;
#X obj 422 476 *~;
#X obj 497 267 / 127;
#X obj 497 337 moses 10;
#X obj 437 354 f;
#X msg 437 380 1 1 \, 0 \$1 1;
#X obj 437 424 *~;
#X obj 833 254 vline~;
#X obj 109 164 hsl 128 15 1.27 127 1 1 \$0-snare-noise-s \$0-snare-noise-r
NOISE 133 7 0 10 -262144 -1 -1 10300 1;
#X obj 804 93 / 127;
#X obj 804 170 moses 10;
#X obj 833 206 f;
#X msg 833 232 1 1 \, 0 \$1 1;
#X obj 833 276 *~;
#X obj 109 149 hsl 128 15 1.27 127 1 1 \$0-snare-decay-s \$0-snare-decay-r
DECAY 133 7 0 10 -262144 -1 -1 4000 1;
#X obj 497 312 * 500;
#X obj 804 148 * 500;
#X obj 761 342 hip~;
#X obj 109 179 hsl 128 15 0 127 0 1 \$0-snare-color-s \$0-snare-color-r
COLOR 133 7 0 10 -262144 -1 -1 3200 1;
#X obj 929 229 / 127;
#X obj 929 306 + 50;
#X obj 929 284 * 9950;
#X floatatom 929 328 5 0 0 0 - - -, f 5;
#X obj 109 134 hsl 128 15 0 127 0 1 \$0-snare-pitch-s \$0-snare-pitch-r
PITCH 133 7 0 10 -262144 -1 -1 8800 1;
#X obj 422 56 / 127;
#X obj 422 78 * 400;
#X obj 422 100 t f f;
#X obj 422 122 + 276;
#X obj 490 117 + 38;
#X obj 833 309 *~;
#X obj 422 144 sig~;
#X obj 422 172 +~;
#X obj 490 139 sig~;
#X obj 490 171 +~;
#X obj 437 446 *~;
#X obj 422 197 osc~ 476;
#X obj 490 197 osc~ 238;
#X msg 437 280 bang;
#X obj 437 302 t b b;
#X obj 422 32 r \$0-snare-pitch-s;
#X obj 497 245 r \$0-snare-decay-s;
#X obj 804 67 r \$0-snare-noise-s;
#X obj 928 202 r \$0-snare-color-s;
#X obj 422 528 outlet~;
#X obj 274 10 inlet~;
#X obj 539 32 inlet~;
#X obj 539 54 *~ 400;
#X obj 551 88 inlet~;
#X obj 551 127 snapshot~;
#X obj 551 149 t b f;
#X obj 497 289 +;
#X obj 274 54 s \$0-snare-trig!;
#X obj 600 87 r \$0-snare-trig!;
#X obj 804 115 +;
#X obj 636 110 inlet~;
#X obj 637 157 snapshot~;
#X obj 637 179 t b f;
#X obj 686 117 r \$0-snare-trig!;
#X obj 851 389 inlet~;
#X obj 851 428 snapshot~;
#X obj 851 450 t b f;
#X obj 900 388 r \$0-snare-trig!;
#X obj 929 251 +;
#X obj 284 183 r \$0-snare-trig!;
#X obj 105 124 cnv 5 5 5 empty empty SNARE 0 0 0 12 -262144 -66577
0;
#X obj 247 109 cnv 5 5 5 empty empty COLOR 0 0 0 8 -262144 -1 0;
#X obj 103 109 cnv 5 5 5 empty empty TRIG 0 0 0 8 -262144 -226533 0
;
#X obj 176 109 cnv 5 5 5 empty empty DECAY 0 0 0 8 -262144 -1 0;
#X obj 145 124 cnv 5 5 5 empty \$0-instance-num 0 0 0 0 12 -262144
-66577 0;
#X obj 134 109 cnv 5 5 5 empty empty PITCH 0 0 0 8 -262144 -1 0;
#X obj 218 109 cnv 5 5 5 empty empty NOISE 0 0 0 8 -262144 -1 0;
#N canvas 267 22 593 735 state-saving-multiple-instances 0;
#X obj 205 28 loadbang;
#X obj 251 481 textfile;
#X obj 205 61 t b b;
#X obj 251 503 unpack f f f f;
#X msg 508 464 rewind;
#X msg 465 464 bang;
#X obj 109 691 textfile;
#X obj 465 425 t b b;
#X obj 110 400 pack f f f f;
#X obj 110 357 f;
#X obj 123 580 f;
#X obj 48 403 t b b b;
#X msg 186 580 clear;
#X msg 110 438 set \$1 \$2 \$3 \$4;
#X obj 271 217 outlet;
#X text 267 237 INSTANCE NUMBER;
#X obj 232 152 f \$1;
#X obj 232 188 t f f f;
#X obj 48 378 bng 15 250 50 0 empty empty empty 17 7 0 10 -262144 -1
-1;
#X obj 48 274 r SAVE-S;
#X obj 133 332 r \$0-snare-decay-s;
#X obj 278 594 s \$0-snare-decay-r;
#X obj 156 353 r \$0-snare-noise-s;
#X obj 305 568 s \$0-snare-noise-r;
#X obj 179 374 r \$0-snare-color-s;
#X obj 332 538 s \$0-snare-color-r;
#X obj 125 309 r \$0-snare-pitch-s;
#X obj 251 617 s \$0-snare-pitch-r;
#X msg 122 651 write statesave/\$1-snare-ss.txt;
#X msg 251 456 read statesave/\$1-snare-ss.txt;
#X connect 0 0 2 0;
#X connect 1 0 3 0;
#X connect 2 0 7 0;
#X connect 2 1 16 0;
#X connect 3 0 27 0;
#X connect 3 1 21 0;
#X connect 3 2 23 0;
#X connect 3 3 25 0;
#X connect 4 0 1 0;
#X connect 5 0 1 0;
#X connect 7 0 5 0;
#X connect 7 1 4 0;
#X connect 8 0 13 0;
#X connect 9 0 8 0;
#X connect 10 0 28 0;
#X connect 11 0 10 0;
#X connect 11 1 9 0;
#X connect 11 2 12 0;
#X connect 12 0 6 0;
#X connect 13 0 6 0;
#X connect 16 0 17 0;
#X connect 17 0 10 1;
#X connect 17 1 29 0;
#X connect 17 2 14 0;
#X connect 18 0 11 0;
#X connect 19 0 18 0;
#X connect 20 0 8 1;
#X connect 22 0 8 2;
#X connect 24 0 8 3;
#X connect 26 0 9 1;
#X connect 28 0 6 0;
#X connect 29 0 1 0;
#X restore 99 337 pd state-saving-multiple-instances;
#X obj 99 411 s \$0-instance-num;
#X obj 99 363 makefilename %d;
#X msg 99 388 label \$1;
#N canvas 81 22 1117 745 state-saving-via-preset-manager-module 0;
#X obj 477 349 textfile;
#X msg 755 332 rewind;
#X msg 712 332 bang;
#X obj 243 690 textfile;
#X obj 712 293 t b b;
#X obj 244 356 f;
#X obj 257 579 f;
#X obj 190 474 t b b b;
#X msg 373 621 clear;
#X obj 244 180 delay 5;
#X obj 190 529 delay 10;
#X msg 190 314 bang;
#X obj 190 155 r STORE-S!;
#X obj 477 250 f;
#X obj 450 207 t b b;
#X obj 465 171 t b f;
#X obj 522 268 f \$1;
#X obj 477 295 pack f f;
#X obj 522 218 loadbang;
#X obj 257 609 pack f f;
#X obj 302 562 loadbang;
#X obj 302 584 f \$1;
#X obj 477 664 pack f f;
#X obj 477 688 line;
#X obj 522 639 r preset-manager-morph-s;
#X obj 465 107 r preset-manager-scan;
#X obj 504 568 pack f f;
#X obj 504 592 line;
#X obj 549 543 r preset-manager-morph-s;
#X obj 272 540 r preset-manager-store-slot;
#X msg 243 490 set \$1 \$2 \$3 \$4;
#X obj 244 423 pack f f f f;
#X obj 531 471 pack f f;
#X obj 531 495 line;
#X obj 575 432 r preset-manager-morph-s;
#X obj 477 371 unpack f f f f;
#X obj 731 388 pack f f;
#X obj 731 412 line;
#X obj 776 363 r preset-manager-morph-s;
#X msg 932 671 stop;
#X obj 932 636 r STOP-MORPH!;
#X obj 465 129 i;
#X obj 259 308 r \$0-snare-pitch-s;
#X obj 477 713 s \$0-snare-pitch-r;
#X obj 267 330 r \$0-snare-decay-s;
#X obj 504 615 s \$0-snare-decay-r;
#X obj 290 352 r \$0-snare-noise-s;
#X obj 531 518 s \$0-snare-noise-r;
#X obj 312 374 r \$0-snare-color-s;
#X obj 731 435 s \$0-snare-color-r;
#X msg 256 650 write statesave/\$1-\$2-snare-ss.txt;
#X msg 477 324 read statesave/\$1-\$2-snare-ss.txt;
#X connect 0 0 35 0;
#X connect 1 0 0 0;
#X connect 2 0 0 0;
#X connect 4 0 2 0;
#X connect 4 1 1 0;
#X connect 5 0 31 0;
#X connect 6 0 19 0;
#X connect 7 0 10 0;
#X connect 7 1 9 0;
#X connect 7 2 8 0;
#X connect 8 0 3 0;
#X connect 9 0 5 0;
#X connect 10 0 6 0;
#X connect 11 0 7 0;
#X connect 12 0 11 0;
#X connect 13 0 17 0;
#X connect 14 0 4 0;
#X connect 14 1 13 0;
#X connect 15 0 14 0;
#X connect 15 1 13 1;
#X connect 16 0 17 1;
#X connect 17 0 51 0;
#X connect 18 0 16 0;
#X connect 19 0 50 0;
#X connect 20 0 21 0;
#X connect 21 0 19 1;
#X connect 22 0 23 0;
#X connect 23 0 43 0;
#X connect 24 0 22 1;
#X connect 25 0 41 0;
#X connect 26 0 27 0;
#X connect 27 0 45 0;
#X connect 28 0 26 1;
#X connect 29 0 6 1;
#X connect 30 0 3 0;
#X connect 31 0 30 0;
#X connect 32 0 33 0;
#X connect 33 0 47 0;
#X connect 34 0 32 1;
#X connect 35 0 22 0;
#X connect 35 1 26 0;
#X connect 35 2 32 0;
#X connect 35 3 36 0;
#X connect 36 0 37 0;
#X connect 37 0 49 0;
#X connect 38 0 36 1;
#X connect 39 0 23 0;
#X connect 39 0 27 0;
#X connect 39 0 33 0;
#X connect 39 0 37 0;
#X connect 40 0 39 0;
#X connect 41 0 15 0;
#X connect 42 0 5 1;
#X connect 44 0 31 1;
#X connect 46 0 31 2;
#X connect 48 0 31 3;
#X connect 50 0 3 0;
#X connect 51 0 0 0;
#X restore 99 315 pd state-saving-via-preset-manager-module;
#N canvas 297 27 518 295 parameter-nudging-system 0;
#N canvas 0 22 484 497 param-nudge 0;
#X obj 124 234 random;
#X obj 232 335 f;
#X obj 232 368 +;
#X obj 257 166 random 2;
#X obj 124 275 t f f;
#X obj 124 351 t b f;
#X obj 124 297 *;
#X obj 257 188 sel 0 1;
#X msg 257 280 -1;
#X msg 335 280 1;
#X obj 124 149 t b b b;
#X obj 124 123 r NUDGE!;
#X obj 157 193 r NUDGE-RANGE;
#X obj 247 308 inlet;
#X obj 232 397 outlet;
#X floatatom 316 396 5 0 0 0 - - -, f 5;
#X connect 0 0 4 0;
#X connect 1 0 2 0;
#X connect 2 0 14 0;
#X connect 2 0 15 0;
#X connect 3 0 7 0;
#X connect 4 0 6 0;
#X connect 5 0 2 0;
#X connect 5 1 2 1;
#X connect 6 0 5 0;
#X connect 7 0 8 0;
#X connect 7 1 9 0;
#X connect 8 0 6 1;
#X connect 9 0 6 1;
#X connect 10 0 0 0;
#X connect 10 1 1 0;
#X connect 10 2 3 0;
#X connect 11 0 10 0;
#X connect 12 0 0 1;
#X connect 13 0 1 1;
#X restore 23 45 pd param-nudge;
#N canvas 0 22 484 497 param-nudge 0;
#X obj 124 234 random;
#X obj 232 335 f;
#X obj 232 368 +;
#X obj 257 166 random 2;
#X obj 124 275 t f f;
#X obj 124 351 t b f;
#X obj 124 297 *;
#X obj 257 188 sel 0 1;
#X msg 257 280 -1;
#X msg 335 280 1;
#X obj 124 149 t b b b;
#X obj 124 123 r NUDGE!;
#X obj 157 193 r NUDGE-RANGE;
#X obj 247 308 inlet;
#X obj 232 397 outlet;
#X connect 0 0 4 0;
#X connect 1 0 2 0;
#X connect 2 0 14 0;
#X connect 3 0 7 0;
#X connect 4 0 6 0;
#X connect 5 0 2 0;
#X connect 5 1 2 1;
#X connect 6 0 5 0;
#X connect 7 0 8 0;
#X connect 7 1 9 0;
#X connect 8 0 6 1;
#X connect 9 0 6 1;
#X connect 10 0 0 0;
#X connect 10 1 1 0;
#X connect 10 2 3 0;
#X connect 11 0 10 0;
#X connect 12 0 0 1;
#X connect 13 0 1 1;
#X restore 171 45 pd param-nudge;
#N canvas 0 22 484 497 param-nudge 0;
#X obj 124 234 random;
#X obj 232 335 f;
#X obj 232 368 +;
#X obj 257 166 random 2;
#X obj 124 275 t f f;
#X obj 124 351 t b f;
#X obj 124 297 *;
#X obj 257 188 sel 0 1;
#X msg 257 280 -1;
#X msg 335 280 1;
#X obj 124 149 t b b b;
#X obj 124 123 r NUDGE!;
#X obj 157 193 r NUDGE-RANGE;
#X obj 247 308 inlet;
#X obj 232 397 outlet;
#X connect 0 0 4 0;
#X connect 1 0 2 0;
#X connect 2 0 14 0;
#X connect 3 0 7 0;
#X connect 4 0 6 0;
#X connect 5 0 2 0;
#X connect 5 1 2 1;
#X connect 6 0 5 0;
#X connect 7 0 8 0;
#X connect 7 1 9 0;
#X connect 8 0 6 1;
#X connect 9 0 6 1;
#X connect 10 0 0 0;
#X connect 10 1 1 0;
#X connect 10 2 3 0;
#X connect 11 0 10 0;
#X connect 12 0 0 1;
#X connect 13 0 1 1;
#X restore 290 45 pd param-nudge;
#N canvas 0 22 484 497 param-nudge 0;
#X obj 124 234 random;
#X obj 232 335 f;
#X obj 232 368 +;
#X obj 257 166 random 2;
#X obj 124 275 t f f;
#X obj 124 351 t b f;
#X obj 124 297 *;
#X obj 257 188 sel 0 1;
#X msg 257 280 -1;
#X msg 335 280 1;
#X obj 124 149 t b b b;
#X obj 124 123 r NUDGE!;
#X obj 157 193 r NUDGE-RANGE;
#X obj 247 308 inlet;
#X obj 232 397 outlet;
#X connect 0 0 4 0;
#X connect 1 0 2 0;
#X connect 2 0 14 0;
#X connect 3 0 7 0;
#X connect 4 0 6 0;
#X connect 5 0 2 0;
#X connect 5 1 2 1;
#X connect 6 0 5 0;
#X connect 7 0 8 0;
#X connect 7 1 9 0;
#X connect 8 0 6 1;
#X connect 9 0 6 1;
#X connect 10 0 0 0;
#X connect 10 1 1 0;
#X connect 10 2 3 0;
#X connect 11 0 10 0;
#X connect 12 0 0 1;
#X connect 13 0 1 1;
#X restore 21 149 pd param-nudge;
#X obj 21 171 clip 0 127;
#X obj 23 67 clip 0 127;
#X obj 171 67 clip 0 127;
#X obj 290 69 clip 0 127;
#X obj 23 22 r \$0-snare-pitch-s;
#X obj 23 95 s \$0-snare-pitch-r;
#X obj 171 22 r \$0-snare-decay-s;
#X obj 171 95 s \$0-snare-decay-r;
#X obj 290 22 r \$0-snare-noise-s;
#X obj 290 95 s \$0-snare-noise-r;
#X obj 21 126 r \$0-snare-color-s;
#X obj 20 197 s \$0-snare-color-r;
#X connect 0 0 5 0;
#X connect 1 0 6 0;
#X connect 2 0 7 0;
#X connect 3 0 4 0;
#X connect 4 0 15 0;
#X connect 5 0 9 0;
#X connect 6 0 11 0;
#X connect 7 0 13 0;
#X connect 8 0 0 0;
#X connect 10 0 1 0;
#X connect 12 0 2 0;
#X connect 14 0 3 0;
#X restore 99 292 pd parameter-nudging-system;
#X obj 274 32 threshold~ 0.9 0 0.9 0;
#X obj 422 506 *~ 1;
#X connect 0 0 4 0;
#X connect 1 0 2 0;
#X connect 2 0 20 0;
#X connect 3 0 9 0;
#X connect 3 0 9 1;
#X connect 4 0 81 0;
#X connect 5 0 53 0;
#X connect 6 1 7 1;
#X connect 7 0 8 0;
#X connect 8 0 3 0;
#X connect 9 0 37 0;
#X connect 9 0 37 1;
#X connect 10 0 16 0;
#X connect 10 0 16 1;
#X connect 12 0 56 0;
#X connect 13 1 14 1;
#X connect 14 0 15 0;
#X connect 15 0 10 0;
#X connect 16 0 32 0;
#X connect 16 0 32 1;
#X connect 18 0 6 0;
#X connect 19 0 13 0;
#X connect 20 0 81 0;
#X connect 22 0 65 0;
#X connect 23 0 25 0;
#X connect 24 0 23 0;
#X connect 25 0 20 1;
#X connect 27 0 28 0;
#X connect 28 0 29 0;
#X connect 29 0 30 0;
#X connect 29 1 31 0;
#X connect 30 0 33 0;
#X connect 31 0 35 0;
#X connect 32 0 2 1;
#X connect 33 0 34 0;
#X connect 34 0 38 0;
#X connect 35 0 36 0;
#X connect 36 0 39 0;
#X connect 37 0 4 1;
#X connect 38 0 0 0;
#X connect 39 0 0 0;
#X connect 40 0 41 0;
#X connect 41 0 7 0;
#X connect 41 1 14 0;
#X connect 42 0 27 0;
#X connect 43 0 5 0;
#X connect 44 0 12 0;
#X connect 45 0 22 0;
#X connect 47 0 80 0;
#X connect 48 0 49 0;
#X connect 49 0 34 1;
#X connect 49 0 36 1;
#X connect 50 0 51 0;
#X connect 51 0 52 0;
#X connect 52 0 53 0;
#X connect 52 1 53 1;
#X connect 53 0 18 0;
#X connect 55 0 51 0;
#X connect 56 0 19 0;
#X connect 57 0 58 0;
#X connect 58 0 59 0;
#X connect 59 0 56 0;
#X connect 59 1 56 1;
#X connect 60 0 58 0;
#X connect 61 0 62 0;
#X connect 62 0 63 0;
#X connect 63 0 65 0;
#X connect 63 1 65 1;
#X connect 64 0 62 0;
#X connect 65 0 24 0;
#X connect 66 0 40 0;
#X connect 74 0 76 0;
#X connect 76 0 77 0;
#X connect 77 0 75 0;
#X connect 80 0 54 0;
#X connect 81 0 46 0;
#X coords 0 -1 1 1 175 100 2 100 100;
